<svg width="268" height="64" viewBox="0 0 268 64" fill="none" xmlns="http://www.w3.org/2000/svg">
<g filter="url(#filter0_i_2_2273)">
<path d="M82.358 24H75.5398L83.2216 0.727272H91.858L99.5398 24H92.7216L87.6307 7.13636H87.4489L82.358 24ZM81.0852 14.8182H93.9034V19.5455H81.0852V14.8182ZM101.781 24V0.727272H111.872C113.645 0.727272 115.134 0.965909 116.338 1.44318C117.55 1.92045 118.463 2.5947 119.077 3.46591C119.698 4.33712 120.009 5.36364 120.009 6.54545C120.009 7.40151 119.819 8.18182 119.44 8.88636C119.069 9.59091 118.546 10.1818 117.872 10.6591C117.198 11.1288 116.41 11.4545 115.509 11.6364V11.8636C116.509 11.9015 117.418 12.1553 118.236 12.625C119.054 13.0871 119.705 13.7273 120.19 14.5455C120.675 15.3561 120.918 16.3106 120.918 17.4091C120.918 18.6818 120.584 19.8144 119.918 20.8068C119.259 21.7992 118.319 22.5795 117.099 23.1477C115.88 23.7159 114.425 24 112.736 24H101.781ZM108.099 18.9545H111.054C112.115 18.9545 112.91 18.7576 113.44 18.3636C113.971 17.9621 114.236 17.3712 114.236 16.5909C114.236 16.0455 114.111 15.5833 113.861 15.2045C113.611 14.8258 113.255 14.5379 112.793 14.3409C112.338 14.1439 111.789 14.0455 111.145 14.0455H108.099V18.9545ZM108.099 10.1364H110.69C111.243 10.1364 111.732 10.0492 112.156 9.875C112.58 9.70076 112.91 9.45076 113.145 9.125C113.387 8.79167 113.509 8.38636 113.509 7.90909C113.509 7.18939 113.251 6.64015 112.736 6.26136C112.221 5.875 111.569 5.68182 110.781 5.68182H108.099V10.1364ZM145.702 12.3636C145.702 14.9545 145.198 17.1402 144.19 18.9205C143.183 20.6932 141.823 22.0379 140.111 22.9545C138.399 23.8636 136.49 24.3182 134.384 24.3182C132.262 24.3182 130.346 23.8598 128.634 22.9432C126.929 22.0189 125.573 20.6705 124.565 18.8977C123.565 17.1174 123.065 14.9394 123.065 12.3636C123.065 9.77273 123.565 7.59091 124.565 5.81818C125.573 4.03788 126.929 2.69318 128.634 1.78409C130.346 0.867423 132.262 0.40909 134.384 0.40909C136.49 0.40909 138.399 0.867423 140.111 1.78409C141.823 2.69318 143.183 4.03788 144.19 5.81818C145.198 7.59091 145.702 9.77273 145.702 12.3636ZM139.202 12.3636C139.202 10.9697 139.016 9.79545 138.645 8.84091C138.281 7.87879 137.74 7.15151 137.02 6.65909C136.308 6.15909 135.429 5.90909 134.384 5.90909C133.338 5.90909 132.455 6.15909 131.736 6.65909C131.024 7.15151 130.482 7.87879 130.111 8.84091C129.747 9.79545 129.565 10.9697 129.565 12.3636C129.565 13.7576 129.747 14.9356 130.111 15.8977C130.482 16.8523 131.024 17.5795 131.736 18.0795C132.455 18.572 133.338 18.8182 134.384 18.8182C135.429 18.8182 136.308 18.572 137.02 18.0795C137.74 17.5795 138.281 16.8523 138.645 15.8977C139.016 14.9356 139.202 13.7576 139.202 12.3636ZM162.398 0.727272H168.716V15.6364C168.716 17.4091 168.292 18.9432 167.443 20.2386C166.602 21.5265 165.428 22.5227 163.92 23.2273C162.413 23.9242 160.663 24.2727 158.67 24.2727C156.663 24.2727 154.905 23.9242 153.398 23.2273C151.89 22.5227 150.716 21.5265 149.875 20.2386C149.042 18.9432 148.625 17.4091 148.625 15.6364V0.727272H154.943V15.0909C154.943 15.8106 155.102 16.4545 155.42 17.0227C155.739 17.5833 156.178 18.0227 156.739 18.3409C157.307 18.6591 157.951 18.8182 158.67 18.8182C159.398 18.8182 160.042 18.6591 160.602 18.3409C161.163 18.0227 161.602 17.5833 161.92 17.0227C162.239 16.4545 162.398 15.8106 162.398 15.0909V0.727272ZM171.082 5.81818V0.727272H191.31V5.81818H184.31V24H178.082V5.81818H171.082ZM15.848 47.4091C15.7495 47.0076 15.5942 46.6553 15.3821 46.3523C15.17 46.0417 14.9048 45.7803 14.5866 45.5682C14.276 45.3485 13.9124 45.1856 13.4957 45.0795C13.0866 44.9659 12.6359 44.9091 12.1435 44.9091C11.0829 44.9091 10.1776 45.1629 9.42756 45.6705C8.68513 46.178 8.11695 46.9091 7.72301 47.8636C7.33665 48.8182 7.14347 49.9697 7.14347 51.3182C7.14347 52.6818 7.32907 53.8485 7.70028 54.8182C8.0715 55.7879 8.62453 56.5303 9.35938 57.0455C10.0942 57.5606 11.0071 57.8182 12.098 57.8182C13.0601 57.8182 13.8594 57.678 14.4957 57.3977C15.1397 57.1174 15.6207 56.7197 15.9389 56.2045C16.2571 55.6894 16.4162 55.0833 16.4162 54.3864L17.5071 54.5H12.1889V50H22.5071V53.2273C22.5071 55.3485 22.0563 57.1629 21.1548 58.6705C20.2609 60.1705 19.026 61.322 17.4503 62.125C15.8821 62.9205 14.0829 63.3182 12.0526 63.3182C9.78741 63.3182 7.79877 62.8371 6.08665 61.875C4.37453 60.9129 3.03741 59.5417 2.07528 57.7614C1.12074 55.9811 0.643466 53.8636 0.643466 51.4091C0.643466 49.4848 0.935133 47.7803 1.51847 46.2955C2.10938 44.8106 2.92756 43.5568 3.97301 42.5341C5.01847 41.5038 6.2268 40.7273 7.59801 40.2045C8.96922 39.6742 10.4389 39.4091 12.0071 39.4091C13.3859 39.4091 14.6662 39.6061 15.848 40C17.0374 40.3864 18.0866 40.9394 18.9957 41.6591C19.9124 42.3712 20.651 43.2159 21.2116 44.1932C21.7723 45.1705 22.1132 46.2424 22.2344 47.4091H15.848ZM30.7798 63H23.9616L31.6435 39.7273H40.2798L47.9616 63H41.1435L36.0526 46.1364H35.8707L30.7798 63ZM29.5071 53.8182H42.3253V58.5455H29.5071V53.8182ZM50.2031 39.7273H58.0668L63.4759 52.9091H63.7486L69.1577 39.7273H77.0213V63H70.8395V49.5455H70.6577L65.4759 62.8182H61.7486L56.5668 49.4545H56.3849V63H50.2031V39.7273ZM80.0156 63V39.7273H96.7884V44.8182H86.3338V48.8182H95.9247V53.9091H86.3338V57.9091H96.7429V63H80.0156ZM106.297 39.7273H114.161L119.57 52.9091H119.842L125.251 39.7273H133.115V63H126.933V49.5455H126.751L121.57 62.8182H117.842L112.661 49.4545H112.479V63H106.297V39.7273ZM158.655 51.3636C158.655 53.9545 158.151 56.1402 157.143 57.9205C156.136 59.6932 154.776 61.0379 153.064 61.9545C151.352 62.8636 149.443 63.3182 147.337 63.3182C145.215 63.3182 143.299 62.8598 141.587 61.9432C139.882 61.0189 138.526 59.6705 137.518 57.8977C136.518 56.1174 136.018 53.9394 136.018 51.3636C136.018 48.7727 136.518 46.5909 137.518 44.8182C138.526 43.0379 139.882 41.6932 141.587 40.7841C143.299 39.8674 145.215 39.4091 147.337 39.4091C149.443 39.4091 151.352 39.8674 153.064 40.7841C154.776 41.6932 156.136 43.0379 157.143 44.8182C158.151 46.5909 158.655 48.7727 158.655 51.3636ZM152.155 51.3636C152.155 49.9697 151.969 48.7955 151.598 47.8409C151.234 46.8788 150.693 46.1515 149.973 45.6591C149.261 45.1591 148.382 44.9091 147.337 44.9091C146.291 44.9091 145.409 45.1591 144.689 45.6591C143.977 46.1515 143.435 46.8788 143.064 47.8409C142.7 48.7955 142.518 49.9697 142.518 51.3636C142.518 52.7576 142.7 53.9356 143.064 54.8977C143.435 55.8523 143.977 56.5795 144.689 57.0795C145.409 57.572 146.291 57.8182 147.337 57.8182C148.382 57.8182 149.261 57.572 149.973 57.0795C150.693 56.5795 151.234 55.8523 151.598 54.8977C151.969 53.9356 152.155 52.7576 152.155 51.3636ZM181.714 39.7273V63H176.442L168.033 50.7727H167.896V63H161.578V39.7273H166.942L175.214 51.9091H175.396V39.7273H181.714ZM197.249 47C197.188 46.2424 196.904 45.6515 196.396 45.2273C195.896 44.803 195.135 44.5909 194.112 44.5909C193.461 44.5909 192.927 44.6705 192.51 44.8295C192.101 44.9811 191.798 45.1894 191.601 45.4545C191.404 45.7197 191.302 46.0227 191.294 46.3636C191.279 46.6439 191.328 46.8977 191.442 47.125C191.563 47.3447 191.752 47.5455 192.01 47.7273C192.268 47.9015 192.597 48.0606 192.999 48.2045C193.4 48.3485 193.877 48.4773 194.43 48.5909L196.339 49C197.627 49.2727 198.73 49.6326 199.646 50.0795C200.563 50.5265 201.313 51.053 201.896 51.6591C202.48 52.2576 202.908 52.9318 203.18 53.6818C203.461 54.4318 203.605 55.25 203.612 56.1364C203.605 57.6667 203.222 58.9621 202.464 60.0227C201.707 61.0833 200.624 61.8902 199.214 62.4432C197.813 62.9962 196.127 63.2727 194.158 63.2727C192.135 63.2727 190.37 62.9735 188.862 62.375C187.362 61.7765 186.196 60.8561 185.362 59.6136C184.536 58.3636 184.12 56.7652 184.112 54.8182H190.112C190.15 55.5303 190.328 56.1288 190.646 56.6136C190.964 57.0985 191.411 57.4659 191.987 57.7159C192.571 57.9659 193.264 58.0909 194.067 58.0909C194.741 58.0909 195.305 58.0076 195.76 57.8409C196.214 57.6742 196.559 57.4432 196.794 57.1477C197.029 56.8523 197.15 56.5152 197.158 56.1364C197.15 55.7803 197.033 55.4697 196.805 55.2045C196.586 54.9318 196.222 54.6894 195.714 54.4773C195.207 54.2576 194.521 54.053 193.658 53.8636L191.339 53.3636C189.279 52.9167 187.654 52.1705 186.464 51.125C185.283 50.072 184.696 48.6364 184.703 46.8182C184.696 45.3409 185.089 44.0492 185.885 42.9432C186.688 41.8295 187.798 40.9621 189.214 40.3409C190.639 39.7197 192.271 39.4091 194.112 39.4091C195.991 39.4091 197.616 39.7235 198.987 40.3523C200.358 40.9811 201.415 41.8674 202.158 43.0114C202.908 44.1477 203.286 45.4773 203.294 47H197.249ZM205.379 44.8182V39.7273H225.607V44.8182H218.607V63H212.379V44.8182H205.379ZM227.984 63V39.7273H244.757V44.8182H234.303V48.8182H243.893V53.9091H234.303V57.9091H244.712V63H227.984ZM247.891 63V39.7273H257.936C259.663 39.7273 261.175 40.0417 262.47 40.6705C263.766 41.2992 264.773 42.2045 265.493 43.3864C266.213 44.5682 266.572 45.9848 266.572 47.6364C266.572 49.303 266.201 50.7083 265.459 51.8523C264.724 52.9962 263.69 53.8598 262.357 54.4432C261.031 55.0265 259.482 55.3182 257.709 55.3182H251.709V50.4091H256.436C257.179 50.4091 257.811 50.3182 258.334 50.1364C258.864 49.947 259.269 49.6477 259.55 49.2386C259.838 48.8295 259.982 48.2955 259.982 47.6364C259.982 46.9697 259.838 46.428 259.55 46.0114C259.269 45.5871 258.864 45.2765 258.334 45.0795C257.811 44.875 257.179 44.7727 256.436 44.7727H254.209V63H247.891ZM261.527 52.3182L267.345 63H260.482L254.8 52.3182H261.527Z" fill="url(#paint0_linear_2_2273)"/>
</g>
<defs>
<filter id="filter0_i_2_2273" x="0.643555" y="0.40918" width="266.702" height="62.9092" filterUnits="userSpaceOnUse" color-interpolation-filters="sRGB">
<feFlood flood-opacity="0" result="BackgroundImageFix"/>
<feBlend mode="normal" in="SourceGraphic" in2="BackgroundImageFix" result="shape"/>
<feColorMatrix in="SourceAlpha" type="matrix" values="0 0 0 0 0 0 0 0 0 0 0 0 0 0 0 0 0 0 127 0" result="hardAlpha"/>
<feOffset dx="-1.5" dy="1"/>
<feComposite in2="hardAlpha" operator="arithmetic" k2="-1" k3="1"/>
<feColorMatrix type="matrix" values="0 0 0 0 0.533333 0 0 0 0 0.988235 0 0 0 0 1 0 0 0 1 0"/>
<feBlend mode="normal" in2="shape" result="effect1_innerShadow_2_2273"/>
</filter>
<linearGradient id="paint0_linear_2_2273" x1="45.5069" y1="-47.2581" x2="236.333" y2="112.326" gradientUnits="userSpaceOnUse">
<stop offset="0.119731" stop-color="#850EDC"/>
<stop offset="0.258828" stop-color="#FFB9EB"/>
<stop offset="0.378722" stop-color="#FFB9EB"/>
<stop offset="0.435962" stop-color="white"/>
<stop offset="0.490889" stop-color="#88FCFF"/>
<stop offset="0.571321" stop-color="#FF8CDE"/>
<stop offset="0.814891" stop-color="#A73FF1"/>
<stop offset="0.941928" stop-color="#FFB9EB"/>
</linearGradient>
</defs>
</svg>
