<svg width="645" height="34" viewBox="0 0 645 34" fill="none" xmlns="http://www.w3.org/2000/svg">
  <g filter="url(#filter0_i_224_777)">
  <path d="M21.7539 11.5625C21.6185 11.0104 21.4049 10.526 21.1133 10.1094C20.8216 9.68229 20.457 9.32292 20.0195 9.03125C19.5924 8.72917 19.0924 8.50521 18.5195 8.35937C17.957 8.20312 17.3372 8.125 16.6602 8.125C15.2018 8.125 13.957 8.47396 12.9258 9.17187C11.9049 9.86979 11.1237 10.875 10.582 12.1875C10.0508 13.5 9.78516 15.0833 9.78516 16.9375C9.78516 18.8125 10.0404 20.4167 10.5508 21.75C11.0612 23.0833 11.8216 24.1042 12.832 24.8125C13.8424 25.5208 15.0977 25.875 16.5977 25.875C17.9206 25.875 19.0195 25.6823 19.8945 25.2969C20.7799 24.9115 21.4414 24.3646 21.8789 23.6562C22.3164 22.9479 22.5352 22.1146 22.5352 21.1562L24.0352 21.3125H16.7227V15.125H30.9102V19.5625C30.9102 22.4792 30.2904 24.974 29.0508 27.0469C27.8216 29.1094 26.1237 30.6927 23.957 31.7969C21.8008 32.8906 19.3268 33.4375 16.5352 33.4375C13.4206 33.4375 10.6862 32.776 8.33203 31.4531C5.97786 30.1302 4.13932 28.2448 2.81641 25.7969C1.50391 23.349 0.847656 20.4375 0.847656 17.0625C0.847656 14.4167 1.2487 12.0729 2.05078 10.0312C2.86328 7.98958 3.98828 6.26562 5.42578 4.85937C6.86328 3.44271 8.52474 2.375 10.4102 1.65625C12.2956 0.927082 14.3164 0.562499 16.4727 0.562499C18.3685 0.562499 20.1289 0.833333 21.7539 1.375C23.3893 1.90625 24.832 2.66666 26.082 3.65625C27.3424 4.63542 28.3581 5.79687 29.1289 7.14063C29.8997 8.48437 30.3685 9.95833 30.5352 11.5625H21.7539ZM34.9609 0.999999H45.7734L53.2109 19.125H53.5859L61.0234 0.999999H71.8359V33H63.3359V14.5H63.0859L55.9609 32.75H50.8359L43.7109 14.375H43.4609V33H34.9609V0.999999ZM84.7188 33V0.999999H107.781V8H93.4063V13.5H106.594V20.5H93.4063V26H107.719V33H84.7188ZM141.965 13H133.152C133.09 12.2708 132.923 11.6094 132.652 11.0156C132.392 10.4219 132.027 9.91146 131.559 9.48437C131.1 9.04687 130.543 8.71354 129.887 8.48437C129.23 8.24479 128.486 8.125 127.652 8.125C126.194 8.125 124.96 8.47917 123.949 9.1875C122.949 9.89583 122.189 10.9115 121.668 12.2344C121.158 13.5573 120.902 15.1458 120.902 17C120.902 18.9583 121.163 20.599 121.684 21.9219C122.215 23.2344 122.98 24.224 123.98 24.8906C124.98 25.5469 126.184 25.875 127.59 25.875C128.392 25.875 129.111 25.776 129.746 25.5781C130.382 25.3698 130.934 25.0729 131.402 24.6875C131.871 24.3021 132.251 23.8385 132.543 23.2969C132.845 22.7448 133.048 22.125 133.152 21.4375L141.965 21.5C141.861 22.8542 141.48 24.2344 140.824 25.6406C140.168 27.0365 139.236 28.3281 138.027 29.5156C136.829 30.6927 135.345 31.6406 133.574 32.3594C131.803 33.0781 129.746 33.4375 127.402 33.4375C124.465 33.4375 121.829 32.8073 119.496 31.5469C117.173 30.2865 115.335 28.4323 113.98 25.9844C112.637 23.5365 111.965 20.5417 111.965 17C111.965 13.4375 112.652 10.4375 114.027 8C115.402 5.55208 117.257 3.70312 119.59 2.45312C121.923 1.19271 124.527 0.562499 127.402 0.562499C129.423 0.562499 131.283 0.83854 132.98 1.39062C134.678 1.94271 136.168 2.75 137.449 3.8125C138.73 4.86458 139.762 6.16146 140.543 7.70312C141.324 9.24479 141.798 11.0104 141.965 13ZM176.906 17C176.906 20.5625 176.214 23.5677 174.828 26.0156C173.443 28.4531 171.573 30.3021 169.219 31.5625C166.865 32.8125 164.24 33.4375 161.344 33.4375C158.427 33.4375 155.792 32.8073 153.438 31.5469C151.094 30.276 149.229 28.4219 147.844 25.9844C146.469 23.5365 145.781 20.5417 145.781 17C145.781 13.4375 146.469 10.4375 147.844 8C149.229 5.55208 151.094 3.70312 153.438 2.45312C155.792 1.19271 158.427 0.562499 161.344 0.562499C164.24 0.562499 166.865 1.19271 169.219 2.45312C171.573 3.70312 173.443 5.55208 174.828 8C176.214 10.4375 176.906 13.4375 176.906 17ZM167.969 17C167.969 15.0833 167.714 13.4687 167.203 12.1562C166.703 10.8333 165.958 9.83333 164.969 9.15625C163.99 8.46875 162.781 8.125 161.344 8.125C159.906 8.125 158.693 8.46875 157.703 9.15625C156.724 9.83333 155.979 10.8333 155.469 12.1562C154.969 13.4687 154.719 15.0833 154.719 17C154.719 18.9167 154.969 20.5365 155.469 21.8594C155.979 23.1719 156.724 24.1719 157.703 24.8594C158.693 25.5365 159.906 25.875 161.344 25.875C162.781 25.875 163.99 25.5365 164.969 24.8594C165.958 24.1719 166.703 23.1719 167.203 21.8594C167.714 20.5365 167.969 18.9167 167.969 17ZM198.176 11C198.092 9.95833 197.702 9.14583 197.004 8.5625C196.316 7.97917 195.27 7.6875 193.863 7.6875C192.967 7.6875 192.233 7.79687 191.66 8.01562C191.098 8.22396 190.681 8.51042 190.41 8.875C190.139 9.23958 189.999 9.65625 189.988 10.125C189.967 10.5104 190.035 10.8594 190.191 11.1719C190.358 11.474 190.618 11.75 190.973 12C191.327 12.2396 191.78 12.4583 192.332 12.6562C192.884 12.8542 193.54 13.0312 194.301 13.1875L196.926 13.75C198.697 14.125 200.212 14.6198 201.473 15.2344C202.733 15.849 203.764 16.5729 204.566 17.4063C205.368 18.2292 205.957 19.1562 206.332 20.1875C206.717 21.2187 206.915 22.3437 206.926 23.5625C206.915 25.6667 206.389 27.4479 205.348 28.9062C204.306 30.3646 202.816 31.474 200.879 32.2344C198.952 32.9948 196.634 33.375 193.926 33.375C191.145 33.375 188.717 32.9635 186.645 32.1406C184.582 31.3177 182.978 30.0521 181.832 28.3437C180.697 26.625 180.124 24.4271 180.113 21.75H188.363C188.415 22.7292 188.66 23.5521 189.098 24.2187C189.535 24.8854 190.15 25.3906 190.941 25.7344C191.743 26.0781 192.697 26.25 193.801 26.25C194.728 26.25 195.504 26.1354 196.129 25.9062C196.754 25.6771 197.228 25.3594 197.551 24.9531C197.874 24.5469 198.04 24.0833 198.051 23.5625C198.04 23.0729 197.879 22.6458 197.566 22.2812C197.264 21.9062 196.764 21.5729 196.066 21.2812C195.368 20.9792 194.426 20.6979 193.238 20.4375L190.051 19.75C187.217 19.1354 184.983 18.1094 183.348 16.6719C181.723 15.224 180.915 13.25 180.926 10.75C180.915 8.71875 181.457 6.94271 182.551 5.42188C183.655 3.89062 185.181 2.69792 187.129 1.84375C189.087 0.989582 191.332 0.562499 193.863 0.562499C196.447 0.562499 198.681 0.994791 200.566 1.85937C202.452 2.72396 203.905 3.94271 204.926 5.51563C205.957 7.07812 206.478 8.90625 206.488 11H198.176ZM208.918 0.999999H218.605L224.855 14H225.105L231.355 0.999999H241.043L229.293 22.9375V33H220.668V22.9375L208.918 0.999999ZM261.125 11C261.042 9.95833 260.651 9.14583 259.953 8.5625C259.266 7.97917 258.219 7.6875 256.813 7.6875C255.917 7.6875 255.182 7.79687 254.609 8.01562C254.047 8.22396 253.63 8.51042 253.359 8.875C253.089 9.23958 252.948 9.65625 252.937 10.125C252.917 10.5104 252.984 10.8594 253.141 11.1719C253.307 11.474 253.568 11.75 253.922 12C254.276 12.2396 254.729 12.4583 255.281 12.6562C255.833 12.8542 256.49 13.0312 257.25 13.1875L259.875 13.75C261.646 14.125 263.161 14.6198 264.422 15.2344C265.682 15.849 266.714 16.5729 267.516 17.4063C268.318 18.2292 268.906 19.1562 269.281 20.1875C269.667 21.2187 269.865 22.3437 269.875 23.5625C269.865 25.6667 269.339 27.4479 268.297 28.9062C267.255 30.3646 265.766 31.474 263.828 32.2344C261.901 32.9948 259.583 33.375 256.875 33.375C254.094 33.375 251.667 32.9635 249.594 32.1406C247.531 31.3177 245.927 30.0521 244.781 28.3437C243.646 26.625 243.073 24.4271 243.063 21.75H251.313C251.365 22.7292 251.609 23.5521 252.047 24.2187C252.484 24.8854 253.099 25.3906 253.891 25.7344C254.693 26.0781 255.646 26.25 256.75 26.25C257.677 26.25 258.453 26.1354 259.078 25.9062C259.703 25.6771 260.177 25.3594 260.5 24.9531C260.823 24.5469 260.99 24.0833 261 23.5625C260.99 23.0729 260.828 22.6458 260.516 22.2812C260.214 21.9062 259.714 21.5729 259.016 21.2812C258.318 20.9792 257.375 20.6979 256.188 20.4375L253 19.75C250.167 19.1354 247.932 18.1094 246.297 16.6719C244.672 15.224 243.865 13.25 243.875 10.75C243.865 8.71875 244.406 6.94271 245.5 5.42188C246.604 3.89062 248.13 2.69792 250.078 1.84375C252.036 0.989582 254.281 0.562499 256.813 0.562499C259.396 0.562499 261.63 0.994791 263.516 1.85937C265.401 2.72396 266.854 3.94271 267.875 5.51563C268.906 7.07812 269.427 8.90625 269.438 11H261.125ZM272.305 8V0.999999H300.117V8H290.492V33H281.93V8H272.305ZM303.387 33V0.999999H326.449V8H312.074V13.5H325.262V20.5H312.074V26H326.387V33H303.387ZM330.758 0.999999H341.57L349.008 19.125H349.383L356.82 0.999999H367.633V33H359.133V14.5H358.883L351.758 32.75H346.633L339.508 14.375H339.258V33H330.758V0.999999ZM380.516 33V0.999999H394.328C396.703 0.999999 398.781 1.46875 400.563 2.40625C402.344 3.34375 403.729 4.66146 404.719 6.35938C405.708 8.05729 406.203 10.0417 406.203 12.3125C406.203 14.6042 405.693 16.5885 404.672 18.2656C403.661 19.9427 402.24 21.2344 400.406 22.1406C398.583 23.0469 396.453 23.5 394.016 23.5H385.766V16.75H392.266C393.286 16.75 394.156 16.5729 394.875 16.2187C395.604 15.8542 396.161 15.3385 396.547 14.6719C396.943 14.0052 397.141 13.2187 397.141 12.3125C397.141 11.3958 396.943 10.6146 396.547 9.96875C396.161 9.3125 395.604 8.8125 394.875 8.46875C394.156 8.11458 393.286 7.9375 392.266 7.9375H389.203V33H380.516ZM413.707 33H404.332L414.895 0.999999H426.77L437.332 33H427.957L420.957 9.8125H420.707L413.707 33ZM411.957 20.375H429.582V26.875H411.957V20.375ZM468.102 0.999999V33H460.852L449.289 16.1875H449.102V33H440.414V0.999999H447.789L459.164 17.75H459.414V0.999999H468.102ZM503.211 17C503.211 20.5625 502.518 23.5677 501.133 26.0156C499.747 28.4531 497.878 30.3021 495.523 31.5625C493.169 32.8125 490.544 33.4375 487.648 33.4375C484.732 33.4375 482.096 32.8073 479.742 31.5469C477.398 30.276 475.534 28.4219 474.148 25.9844C472.773 23.5365 472.086 20.5417 472.086 17C472.086 13.4375 472.773 10.4375 474.148 8C475.534 5.55208 477.398 3.70312 479.742 2.45312C482.096 1.19271 484.732 0.562499 487.648 0.562499C490.544 0.562499 493.169 1.19271 495.523 2.45312C497.878 3.70312 499.747 5.55208 501.133 8C502.518 10.4375 503.211 13.4375 503.211 17ZM494.273 17C494.273 15.0833 494.018 13.4687 493.508 12.1562C493.008 10.8333 492.263 9.83333 491.273 9.15625C490.294 8.46875 489.086 8.125 487.648 8.125C486.211 8.125 484.997 8.46875 484.008 9.15625C483.029 9.83333 482.284 10.8333 481.773 12.1562C481.273 13.4687 481.023 15.0833 481.023 17C481.023 18.9167 481.273 20.5365 481.773 21.8594C482.284 23.1719 483.029 24.1719 484.008 24.8594C484.997 25.5365 486.211 25.875 487.648 25.875C489.086 25.875 490.294 25.5365 491.273 24.8594C492.263 24.1719 493.008 23.1719 493.508 21.8594C494.018 20.5365 494.273 18.9167 494.273 17ZM507.23 33V0.999999H521.043C523.418 0.999999 525.496 1.43229 527.277 2.29687C529.059 3.16146 530.444 4.40625 531.434 6.03125C532.423 7.65625 532.918 9.60417 532.918 11.875C532.918 14.1667 532.408 16.099 531.387 17.6719C530.376 19.2448 528.954 20.4323 527.121 21.2344C525.298 22.0365 523.168 22.4375 520.73 22.4375H512.48V15.6875H518.98C520.001 15.6875 520.871 15.5625 521.59 15.3125C522.319 15.0521 522.876 14.6406 523.262 14.0781C523.658 13.5156 523.855 12.7812 523.855 11.875C523.855 10.9583 523.658 10.2135 523.262 9.64063C522.876 9.05729 522.319 8.63021 521.59 8.35937C520.871 8.07812 520.001 7.9375 518.98 7.9375H515.918V33H507.23ZM525.98 18.3125L533.98 33H524.543L516.73 18.3125H525.98ZM544.934 33H535.559L546.121 0.999999H557.996L568.559 33H559.184L552.184 9.8125H551.934L544.934 33ZM543.184 20.375H560.809V26.875H543.184V20.375ZM571.641 0.999999H582.453L589.891 19.125H590.266L597.703 0.999999H608.516V33H600.016V14.5H599.766L592.641 32.75H587.516L580.391 14.375H580.141V33H571.641V0.999999ZM620.945 33H611.57L622.133 0.999999H634.008L644.57 33H635.195L628.195 9.8125H627.945L620.945 33ZM619.195 20.375H636.82V26.875H619.195V20.375Z" fill="url(#paint0_linear_224_777)"/>
  </g>
  <defs>
  <filter id="filter0_i_224_777" x="0.847656" y="0.5625" width="643.723" height="32.875" filterUnits="userSpaceOnUse" color-interpolation-filters="sRGB">
  <feFlood flood-opacity="0" result="BackgroundImageFix"/>
  <feBlend mode="normal" in="SourceGraphic" in2="BackgroundImageFix" result="shape"/>
  <feColorMatrix in="SourceAlpha" type="matrix" values="0 0 0 0 0 0 0 0 0 0 0 0 0 0 0 0 0 0 127 0" result="hardAlpha"/>
  <feOffset dx="-1.5" dy="1"/>
  <feComposite in2="hardAlpha" operator="arithmetic" k2="-1" k3="1"/>
  <feColorMatrix type="matrix" values="0 0 0 0 0.533333 0 0 0 0 0.988235 0 0 0 0 1 0 0 0 1 0"/>
  <feBlend mode="normal" in2="shape" result="effect1_innerShadow_224_777"/>
  </filter>
  <linearGradient id="paint0_linear_224_777" x1="-17.4558" y1="-37.3548" x2="35.6454" y2="214.953" gradientUnits="userSpaceOnUse">
  <stop offset="0.119731" stop-color="#850EDC"/>
  <stop offset="0.258828" stop-color="#FFB9EB"/>
  <stop offset="0.378722" stop-color="#FFB9EB"/>
  <stop offset="0.435962" stop-color="white"/>
  <stop offset="0.490889" stop-color="#88FCFF"/>
  <stop offset="0.571321" stop-color="#FF8CDE"/>
  <stop offset="0.814891" stop-color="#A73FF1"/>
  <stop offset="0.941928" stop-color="#FFB9EB"/>
  </linearGradient>
  </defs>
  </svg>
