<svg width="267" height="64" viewBox="0 0 267 64" fill="none" xmlns="http://www.w3.org/2000/svg">
  <g filter="url(#filter0_i_2_2282)">
  <path d="M15.2855 8.40909C15.187 8.00758 15.0317 7.6553 14.8196 7.35227C14.6075 7.04167 14.3423 6.7803 14.0241 6.56818C13.7135 6.34848 13.3499 6.18561 12.9332 6.07954C12.5241 5.96591 12.0734 5.90909 11.581 5.90909C10.5204 5.90909 9.61506 6.16288 8.86506 6.67045C8.12263 7.17803 7.55445 7.90909 7.16051 8.86364C6.77415 9.81818 6.58097 10.9697 6.58097 12.3182C6.58097 13.6818 6.76657 14.8485 7.13778 15.8182C7.509 16.7879 8.06203 17.5303 8.79688 18.0455C9.53172 18.5606 10.4446 18.8182 11.5355 18.8182C12.4976 18.8182 13.2969 18.678 13.9332 18.3977C14.5772 18.1174 15.0582 17.7197 15.3764 17.2045C15.6946 16.6894 15.8537 16.0833 15.8537 15.3864L16.9446 15.5H11.6264V11H21.9446V14.2273C21.9446 16.3485 21.4938 18.1629 20.5923 19.6705C19.6984 21.1705 18.4635 22.322 16.8878 23.125C15.3196 23.9205 13.5204 24.3182 11.4901 24.3182C9.22491 24.3182 7.23627 23.8371 5.52415 22.875C3.81203 21.9129 2.47491 20.5417 1.51278 18.7614C0.558239 16.9811 0.080966 14.8636 0.080966 12.4091C0.080966 10.4848 0.372633 8.7803 0.955966 7.29545C1.54688 5.81061 2.36506 4.55682 3.41051 3.53409C4.45597 2.50379 5.6643 1.72727 7.03551 1.20454C8.40672 0.674241 9.87642 0.40909 11.4446 0.40909C12.8234 0.40909 14.1037 0.60606 15.2855 1C16.4749 1.38636 17.5241 1.93939 18.4332 2.65909C19.3499 3.37121 20.0885 4.21591 20.6491 5.19318C21.2098 6.17045 21.5507 7.24242 21.6719 8.40909H15.2855ZM24.8906 0.727272H32.7543L38.1634 13.9091H38.4361L43.8452 0.727272H51.7088V24H45.527V10.5455H45.3452L40.1634 23.8182H36.4361L31.2543 10.4545H31.0724V24H24.8906V0.727272ZM61.0781 24V0.727272H77.8509V5.81818H67.3963V9.81818H76.9872V14.9091H67.3963V18.9091H77.8054V24H61.0781ZM102.712 9.45455H96.3026C96.2571 8.92424 96.1359 8.44318 95.9389 8.01136C95.7495 7.57955 95.4844 7.20833 95.1435 6.89773C94.8101 6.57954 94.4048 6.33712 93.9276 6.17045C93.4503 5.99621 92.9086 5.90909 92.3026 5.90909C91.242 5.90909 90.3442 6.16667 89.6094 6.68182C88.8821 7.19697 88.3291 7.93561 87.9503 8.89773C87.5791 9.85985 87.3935 11.0152 87.3935 12.3636C87.3935 13.7879 87.5829 14.9811 87.9616 15.9432C88.348 16.8977 88.9048 17.6174 89.6321 18.1023C90.3594 18.5795 91.2344 18.8182 92.2571 18.8182C92.8404 18.8182 93.3632 18.7462 93.8253 18.6023C94.2874 18.4508 94.6889 18.2348 95.0298 17.9545C95.3707 17.6742 95.6473 17.3371 95.8594 16.9432C96.0791 16.5417 96.2268 16.0909 96.3026 15.5909L102.712 15.6364C102.636 16.6212 102.359 17.625 101.882 18.6477C101.405 19.6629 100.727 20.6023 99.848 21.4659C98.9768 22.322 97.8973 23.0114 96.6094 23.5341C95.3215 24.0568 93.8253 24.3182 92.1207 24.3182C89.9844 24.3182 88.0677 23.8598 86.3707 22.9432C84.6813 22.0265 83.3442 20.678 82.3594 18.8977C81.3821 17.1174 80.8935 14.9394 80.8935 12.3636C80.8935 9.77273 81.3935 7.59091 82.3935 5.81818C83.3935 4.03788 84.742 2.69318 86.4389 1.78409C88.1359 0.867423 90.0298 0.40909 92.1207 0.40909C93.5904 0.40909 94.9427 0.609847 96.1776 1.01136C97.4124 1.41288 98.4957 2 99.4276 2.77273C100.359 3.53788 101.109 4.48106 101.678 5.60227C102.246 6.72348 102.59 8.00758 102.712 9.45455ZM128.124 12.3636C128.124 14.9545 127.62 17.1402 126.612 18.9205C125.605 20.6932 124.245 22.0379 122.533 22.9545C120.821 23.8636 118.911 24.3182 116.805 24.3182C114.684 24.3182 112.768 23.8598 111.055 22.9432C109.351 22.0189 107.995 20.6705 106.987 18.8977C105.987 17.1174 105.487 14.9394 105.487 12.3636C105.487 9.77273 105.987 7.59091 106.987 5.81818C107.995 4.03788 109.351 2.69318 111.055 1.78409C112.768 0.867423 114.684 0.40909 116.805 0.40909C118.911 0.40909 120.821 0.867423 122.533 1.78409C124.245 2.69318 125.605 4.03788 126.612 5.81818C127.62 7.59091 128.124 9.77273 128.124 12.3636ZM121.624 12.3636C121.624 10.9697 121.438 9.79545 121.067 8.84091C120.703 7.87879 120.161 7.15151 119.442 6.65909C118.73 6.15909 117.851 5.90909 116.805 5.90909C115.76 5.90909 114.877 6.15909 114.158 6.65909C113.446 7.15151 112.904 7.87879 112.533 8.84091C112.169 9.79545 111.987 10.9697 111.987 12.3636C111.987 13.7576 112.169 14.9356 112.533 15.8977C112.904 16.8523 113.446 17.5795 114.158 18.0795C114.877 18.572 115.76 18.8182 116.805 18.8182C117.851 18.8182 118.73 18.572 119.442 18.0795C120.161 17.5795 120.703 16.8523 121.067 15.8977C121.438 14.9356 121.624 13.7576 121.624 12.3636ZM143.592 8C143.532 7.24242 143.248 6.65151 142.74 6.22727C142.24 5.80303 141.479 5.59091 140.456 5.59091C139.804 5.59091 139.27 5.67045 138.854 5.82954C138.445 5.98106 138.142 6.18939 137.945 6.45454C137.748 6.7197 137.645 7.02273 137.638 7.36364C137.623 7.64394 137.672 7.89773 137.786 8.125C137.907 8.3447 138.096 8.54545 138.354 8.72727C138.611 8.90151 138.941 9.06061 139.342 9.20455C139.744 9.34848 140.221 9.47727 140.774 9.59091L142.683 10C143.971 10.2727 145.073 10.6326 145.99 11.0795C146.907 11.5265 147.657 12.053 148.24 12.6591C148.823 13.2576 149.251 13.9318 149.524 14.6818C149.804 15.4318 149.948 16.25 149.956 17.1364C149.948 18.6667 149.566 19.9621 148.808 21.0227C148.051 22.0833 146.967 22.8902 145.558 23.4432C144.157 23.9962 142.471 24.2727 140.501 24.2727C138.479 24.2727 136.714 23.9735 135.206 23.375C133.706 22.7765 132.539 21.8561 131.706 20.6136C130.88 19.3636 130.464 17.7652 130.456 15.8182H136.456C136.494 16.5303 136.672 17.1288 136.99 17.6136C137.308 18.0985 137.755 18.4659 138.331 18.7159C138.914 18.9659 139.607 19.0909 140.411 19.0909C141.085 19.0909 141.649 19.0076 142.104 18.8409C142.558 18.6742 142.903 18.4432 143.138 18.1477C143.373 17.8523 143.494 17.5152 143.501 17.1364C143.494 16.7803 143.376 16.4697 143.149 16.2045C142.929 15.9318 142.566 15.6894 142.058 15.4773C141.551 15.2576 140.865 15.053 140.001 14.8636L137.683 14.3636C135.623 13.9167 133.998 13.1705 132.808 12.125C131.626 11.072 131.039 9.63636 131.047 7.81818C131.039 6.34091 131.433 5.04924 132.229 3.94318C133.032 2.82954 134.142 1.96212 135.558 1.34091C136.982 0.719696 138.615 0.40909 140.456 0.40909C142.335 0.40909 143.96 0.723484 145.331 1.35227C146.702 1.98106 147.759 2.86742 148.501 4.01136C149.251 5.14773 149.63 6.47727 149.638 8H143.592ZM151.405 0.727272H158.45L162.996 10.1818H163.178L167.723 0.727272H174.768L166.223 16.6818V24H159.95V16.6818L151.405 0.727272ZM189.374 8C189.313 7.24242 189.029 6.65151 188.521 6.22727C188.021 5.80303 187.26 5.59091 186.237 5.59091C185.586 5.59091 185.052 5.67045 184.635 5.82954C184.226 5.98106 183.923 6.18939 183.726 6.45454C183.529 6.7197 183.427 7.02273 183.419 7.36364C183.404 7.64394 183.453 7.89773 183.567 8.125C183.688 8.3447 183.877 8.54545 184.135 8.72727C184.393 8.90151 184.722 9.06061 185.124 9.20455C185.525 9.34848 186.002 9.47727 186.555 9.59091L188.464 10C189.752 10.2727 190.855 10.6326 191.771 11.0795C192.688 11.5265 193.438 12.053 194.021 12.6591C194.605 13.2576 195.033 13.9318 195.305 14.6818C195.586 15.4318 195.73 16.25 195.737 17.1364C195.73 18.6667 195.347 19.9621 194.589 21.0227C193.832 22.0833 192.749 22.8902 191.339 23.4432C189.938 23.9962 188.252 24.2727 186.283 24.2727C184.26 24.2727 182.495 23.9735 180.987 23.375C179.487 22.7765 178.321 21.8561 177.487 20.6136C176.661 19.3636 176.245 17.7652 176.237 15.8182H182.237C182.275 16.5303 182.453 17.1288 182.771 17.6136C183.089 18.0985 183.536 18.4659 184.112 18.7159C184.696 18.9659 185.389 19.0909 186.192 19.0909C186.866 19.0909 187.43 19.0076 187.885 18.8409C188.339 18.6742 188.684 18.4432 188.919 18.1477C189.154 17.8523 189.275 17.5152 189.283 17.1364C189.275 16.7803 189.158 16.4697 188.93 16.2045C188.711 15.9318 188.347 15.6894 187.839 15.4773C187.332 15.2576 186.646 15.053 185.783 14.8636L183.464 14.3636C181.404 13.9167 179.779 13.1705 178.589 12.125C177.408 11.072 176.821 9.63636 176.828 7.81818C176.821 6.34091 177.214 5.04924 178.01 3.94318C178.813 2.82954 179.923 1.96212 181.339 1.34091C182.764 0.719696 184.396 0.40909 186.237 0.40909C188.116 0.40909 189.741 0.723484 191.112 1.35227C192.483 1.98106 193.54 2.86742 194.283 4.01136C195.033 5.14773 195.411 6.47727 195.419 8H189.374ZM197.504 5.81818V0.727272H217.732V5.81818H210.732V24H204.504V5.81818H197.504ZM220.109 24V0.727272H236.882V5.81818H226.428V9.81818H236.018V14.9091H226.428V18.9091H236.837V24H220.109ZM240.016 0.727272H247.879L253.288 13.9091H253.561L258.97 0.727272H266.834V24H260.652V10.5455H260.47L255.288 23.8182H251.561L246.379 10.4545H246.197V24H240.016V0.727272ZM37.8594 63V39.7273H47.9048C49.6321 39.7273 51.1435 40.0682 52.4389 40.75C53.7344 41.4318 54.742 42.3902 55.4616 43.625C56.1813 44.8598 56.5412 46.303 56.5412 47.9545C56.5412 49.6212 56.17 51.0644 55.4276 52.2841C54.6927 53.5038 53.6586 54.4432 52.3253 55.1023C50.9995 55.7614 49.4503 56.0909 47.6776 56.0909H41.6776V51.1818H46.4048C47.1473 51.1818 47.7798 51.053 48.3026 50.7955C48.8329 50.5303 49.2382 50.1553 49.5185 49.6705C49.8063 49.1856 49.9503 48.6136 49.9503 47.9545C49.9503 47.2879 49.8063 46.7197 49.5185 46.25C49.2382 45.7727 48.8329 45.4091 48.3026 45.1591C47.7798 44.9015 47.1473 44.7727 46.4048 44.7727H44.1776V63H37.8594ZM61.9986 63H55.1804L62.8622 39.7273H71.4986L79.1804 63H72.3622L67.2713 46.1364H67.0895L61.9986 63ZM60.7259 53.8182H73.544V58.5455H60.7259V53.8182ZM101.558 39.7273V63H96.2855L87.8764 50.7727H87.7401V63H81.4219V39.7273H86.7855L95.0582 51.9091H95.2401V39.7273H101.558ZM127.092 51.3636C127.092 53.9545 126.589 56.1402 125.581 57.9205C124.573 59.6932 123.214 61.0379 121.501 61.9545C119.789 62.8636 117.88 63.3182 115.774 63.3182C113.653 63.3182 111.736 62.8598 110.024 61.9432C108.32 61.0189 106.964 59.6705 105.956 57.8977C104.956 56.1174 104.456 53.9394 104.456 51.3636C104.456 48.7727 104.956 46.5909 105.956 44.8182C106.964 43.0379 108.32 41.6932 110.024 40.7841C111.736 39.8674 113.653 39.4091 115.774 39.4091C117.88 39.4091 119.789 39.8674 121.501 40.7841C123.214 41.6932 124.573 43.0379 125.581 44.8182C126.589 46.5909 127.092 48.7727 127.092 51.3636ZM120.592 51.3636C120.592 49.9697 120.407 48.7955 120.036 47.8409C119.672 46.8788 119.13 46.1515 118.411 45.6591C117.698 45.1591 116.82 44.9091 115.774 44.9091C114.729 44.9091 113.846 45.1591 113.126 45.6591C112.414 46.1515 111.873 46.8788 111.501 47.8409C111.138 48.7955 110.956 49.9697 110.956 51.3636C110.956 52.7576 111.138 53.9356 111.501 54.8977C111.873 55.8523 112.414 56.5795 113.126 57.0795C113.846 57.572 114.729 57.8182 115.774 57.8182C116.82 57.8182 117.698 57.572 118.411 57.0795C119.13 56.5795 119.672 55.8523 120.036 54.8977C120.407 53.9356 120.592 52.7576 120.592 51.3636ZM130.016 63V39.7273H140.061C141.788 39.7273 143.3 40.0417 144.595 40.6705C145.891 41.2992 146.898 42.2045 147.618 43.3864C148.338 44.5682 148.697 45.9848 148.697 47.6364C148.697 49.303 148.326 50.7083 147.584 51.8523C146.849 52.9962 145.815 53.8598 144.482 54.4432C143.156 55.0265 141.607 55.3182 139.834 55.3182H133.834V50.4091H138.561C139.304 50.4091 139.936 50.3182 140.459 50.1364C140.989 49.947 141.394 49.6477 141.675 49.2386C141.963 48.8295 142.107 48.2955 142.107 47.6364C142.107 46.9697 141.963 46.428 141.675 46.0114C141.394 45.5871 140.989 45.2765 140.459 45.0795C139.936 44.875 139.304 44.7727 138.561 44.7727H136.334V63H130.016ZM143.652 52.3182L149.47 63H142.607L136.925 52.3182H143.652ZM157.436 63H150.618L158.3 39.7273H166.936L174.618 63H167.8L162.709 46.1364H162.527L157.436 63ZM156.163 53.8182H168.982V58.5455H156.163V53.8182ZM176.859 39.7273H184.723L190.132 52.9091H190.405L195.814 39.7273H203.678V63H197.496V49.5455H197.314L192.132 62.8182H188.405L183.223 49.4545H183.041V63H176.859V39.7273ZM212.717 63H205.899L213.581 39.7273H222.217L229.899 63H223.081L217.99 46.1364H217.808L212.717 63ZM211.445 53.8182H224.263V58.5455H211.445V53.8182Z" fill="url(#paint0_linear_2_2282)"/>
  </g>
  <defs>
  <filter id="filter0_i_2_2282" x="0.0810547" y="0.40918" width="266.753" height="62.9092" filterUnits="userSpaceOnUse" color-interpolation-filters="sRGB">
  <feFlood flood-opacity="0" result="BackgroundImageFix"/>
  <feBlend mode="normal" in="SourceGraphic" in2="BackgroundImageFix" result="shape"/>
  <feColorMatrix in="SourceAlpha" type="matrix" values="0 0 0 0 0 0 0 0 0 0 0 0 0 0 0 0 0 0 127 0" result="hardAlpha"/>
  <feOffset dx="-1.5" dy="1"/>
  <feComposite in2="hardAlpha" operator="arithmetic" k2="-1" k3="1"/>
  <feColorMatrix type="matrix" values="0 0 0 0 0.533333 0 0 0 0 0.988235 0 0 0 0 1 0 0 0 1 0"/>
  <feBlend mode="normal" in2="shape" result="effect1_innerShadow_2_2282"/>
  </filter>
  <linearGradient id="paint0_linear_2_2282" x1="28.8242" y1="-47.2581" x2="222.706" y2="145.622" gradientUnits="userSpaceOnUse">
  <stop offset="0.119731" stop-color="#850EDC"/>
  <stop offset="0.258828" stop-color="#FFB9EB"/>
  <stop offset="0.378722" stop-color="#FFB9EB"/>
  <stop offset="0.435962" stop-color="white"/>
  <stop offset="0.490889" stop-color="#88FCFF"/>
  <stop offset="0.571321" stop-color="#FF8CDE"/>
  <stop offset="0.814891" stop-color="#A73FF1"/>
  <stop offset="0.941928" stop-color="#FFB9EB"/>
  </linearGradient>
  </defs>
  </svg>
