<svg width="777" height="34" viewBox="0 0 777 34" fill="none" xmlns="http://www.w3.org/2000/svg">
  <g filter="url(#filter0_i_224_760)">
  <path d="M0.119141 8V0.999999H27.9316V8H18.3066V33H9.74414V8H0.119141ZM31.2012 33V0.999999H39.8887V13.5H51.3887V0.999999H60.0762V33H51.3887V20.5H39.8887V33H31.2012ZM64.2012 33V0.999999H87.2637V8H72.8887V13.5H86.0762V20.5H72.8887V26H87.2012V33H64.2012ZM100.338 33V0.999999H123.4V8H109.025V13.5H122.213V20.5H109.025V26H123.338V33H100.338ZM136.459 0.999999L143.021 23.5625H143.271L149.834 0.999999H159.646L149.084 33H137.209L126.646 0.999999H136.459ZM191.709 17C191.709 20.5625 191.016 23.5677 189.631 26.0156C188.245 28.4531 186.376 30.3021 184.021 31.5625C181.667 32.8125 179.042 33.4375 176.146 33.4375C173.23 33.4375 170.594 32.8073 168.24 31.5469C165.896 30.276 164.032 28.4219 162.646 25.9844C161.271 23.5365 160.584 20.5417 160.584 17C160.584 13.4375 161.271 10.4375 162.646 8C164.032 5.55208 165.896 3.70312 168.24 2.45312C170.594 1.19271 173.23 0.562499 176.146 0.562499C179.042 0.562499 181.667 1.19271 184.021 2.45312C186.376 3.70312 188.245 5.55208 189.631 8C191.016 10.4375 191.709 13.4375 191.709 17ZM182.771 17C182.771 15.0833 182.516 13.4687 182.006 12.1562C181.506 10.8333 180.761 9.83333 179.771 9.15625C178.792 8.46875 177.584 8.125 176.146 8.125C174.709 8.125 173.495 8.46875 172.506 9.15625C171.527 9.83333 170.782 10.8333 170.271 12.1562C169.771 13.4687 169.521 15.0833 169.521 17C169.521 18.9167 169.771 20.5365 170.271 21.8594C170.782 23.1719 171.527 24.1719 172.506 24.8594C173.495 25.5365 174.709 25.875 176.146 25.875C177.584 25.875 178.792 25.5365 179.771 24.8594C180.761 24.1719 181.506 23.1719 182.006 21.8594C182.516 20.5365 182.771 18.9167 182.771 17ZM195.729 33V0.999999H204.416V26H217.354V33H195.729ZM239.803 0.999999H248.49V21.5C248.49 23.9375 247.907 26.0469 246.74 27.8281C245.584 29.599 243.969 30.9687 241.896 31.9375C239.824 32.8958 237.417 33.375 234.678 33.375C231.917 33.375 229.501 32.8958 227.428 31.9375C225.355 30.9687 223.74 29.599 222.584 27.8281C221.438 26.0469 220.865 23.9375 220.865 21.5V0.999999H229.553V20.75C229.553 21.7396 229.771 22.625 230.209 23.4062C230.646 24.1771 231.251 24.7812 232.021 25.2187C232.803 25.6562 233.688 25.875 234.678 25.875C235.678 25.875 236.563 25.6562 237.334 25.2187C238.105 24.7812 238.709 24.1771 239.146 23.4062C239.584 22.625 239.803 21.7396 239.803 20.75V0.999999ZM251.744 8V0.999999H279.557V8H269.932V33H261.369V8H251.744ZM291.514 0.999999V33H282.826V0.999999H291.514ZM326.631 17C326.631 20.5625 325.938 23.5677 324.553 26.0156C323.167 28.4531 321.298 30.3021 318.943 31.5625C316.589 32.8125 313.964 33.4375 311.068 33.4375C308.152 33.4375 305.516 32.8073 303.162 31.5469C300.818 30.276 298.954 28.4219 297.568 25.9844C296.193 23.5365 295.506 20.5417 295.506 17C295.506 13.4375 296.193 10.4375 297.568 8C298.954 5.55208 300.818 3.70312 303.162 2.45312C305.516 1.19271 308.152 0.562499 311.068 0.562499C313.964 0.562499 316.589 1.19271 318.943 2.45312C321.298 3.70312 323.167 5.55208 324.553 8C325.938 10.4375 326.631 13.4375 326.631 17ZM317.693 17C317.693 15.0833 317.438 13.4687 316.928 12.1562C316.428 10.8333 315.683 9.83333 314.693 9.15625C313.714 8.46875 312.506 8.125 311.068 8.125C309.631 8.125 308.417 8.46875 307.428 9.15625C306.449 9.83333 305.704 10.8333 305.193 12.1562C304.693 13.4687 304.443 15.0833 304.443 17C304.443 18.9167 304.693 20.5365 305.193 21.8594C305.704 23.1719 306.449 24.1719 307.428 24.8594C308.417 25.5365 309.631 25.875 311.068 25.875C312.506 25.875 313.714 25.5365 314.693 24.8594C315.683 24.1719 316.428 23.1719 316.928 21.8594C317.438 20.5365 317.693 18.9167 317.693 17ZM358.338 0.999999V33H351.088L339.525 16.1875H339.338V33H330.65V0.999999H338.025L349.4 17.75H349.65V0.999999H358.338ZM402.213 17C402.213 20.5625 401.52 23.5677 400.135 26.0156C398.749 28.4531 396.88 30.3021 394.525 31.5625C392.171 32.8125 389.546 33.4375 386.65 33.4375C383.734 33.4375 381.098 32.8073 378.744 31.5469C376.4 30.276 374.536 28.4219 373.15 25.9844C371.775 23.5365 371.088 20.5417 371.088 17C371.088 13.4375 371.775 10.4375 373.15 8C374.536 5.55208 376.4 3.70312 378.744 2.45312C381.098 1.19271 383.734 0.562499 386.65 0.562499C389.546 0.562499 392.171 1.19271 394.525 2.45312C396.88 3.70312 398.749 5.55208 400.135 8C401.52 10.4375 402.213 13.4375 402.213 17ZM393.275 17C393.275 15.0833 393.02 13.4687 392.51 12.1562C392.01 10.8333 391.265 9.83333 390.275 9.15625C389.296 8.46875 388.088 8.125 386.65 8.125C385.213 8.125 383.999 8.46875 383.01 9.15625C382.031 9.83333 381.286 10.8333 380.775 12.1562C380.275 13.4687 380.025 15.0833 380.025 17C380.025 18.9167 380.275 20.5365 380.775 21.8594C381.286 23.1719 382.031 24.1719 383.01 24.8594C383.999 25.5365 385.213 25.875 386.65 25.875C388.088 25.875 389.296 25.5365 390.275 24.8594C391.265 24.1719 392.01 23.1719 392.51 21.8594C393.02 20.5365 393.275 18.9167 393.275 17ZM406.232 33V0.999999H428.732V8H414.92V13.5H427.357V20.5H414.92V33H406.232ZM468.381 0.999999V33H461.131L449.568 16.1875H449.381V33H440.693V0.999999H448.068L459.443 17.75H459.693V0.999999H468.381ZM472.49 33V0.999999H495.553V8H481.178V13.5H494.365V20.5H481.178V26H495.49V33H472.49ZM509.174 0.999999L514.424 10.3125H514.674L519.986 0.999999H529.674L520.111 17L530.049 33H520.111L514.674 23.5H514.424L508.986 33H499.111L508.924 17L499.424 0.999999H509.174ZM532.545 8V0.999999H560.357V8H550.732V33H542.17V8H532.545ZM579.502 13.75V20.25H564.502V13.75H579.502ZM605.291 11.5625C605.156 11.0104 604.942 10.526 604.65 10.1094C604.359 9.68229 603.994 9.32292 603.557 9.03125C603.13 8.72917 602.63 8.50521 602.057 8.35937C601.494 8.20312 600.874 8.125 600.197 8.125C598.739 8.125 597.494 8.47396 596.463 9.17187C595.442 9.86979 594.661 10.875 594.119 12.1875C593.588 13.5 593.322 15.0833 593.322 16.9375C593.322 18.8125 593.577 20.4167 594.088 21.75C594.598 23.0833 595.359 24.1042 596.369 24.8125C597.38 25.5208 598.635 25.875 600.135 25.875C601.458 25.875 602.557 25.6823 603.432 25.2969C604.317 24.9115 604.979 24.3646 605.416 23.6562C605.854 22.9479 606.072 22.1146 606.072 21.1562L607.572 21.3125H600.26V15.125H614.447V19.5625C614.447 22.4792 613.827 24.974 612.588 27.0469C611.359 29.1094 609.661 30.6927 607.494 31.7969C605.338 32.8906 602.864 33.4375 600.072 33.4375C596.958 33.4375 594.223 32.776 591.869 31.4531C589.515 30.1302 587.676 28.2448 586.354 25.7969C585.041 23.349 584.385 20.4375 584.385 17.0625C584.385 14.4167 584.786 12.0729 585.588 10.0312C586.4 7.98958 587.525 6.26562 588.963 4.85937C590.4 3.44271 592.062 2.375 593.947 1.65625C595.833 0.927082 597.854 0.562499 600.01 0.562499C601.906 0.562499 603.666 0.833333 605.291 1.375C606.926 1.90625 608.369 2.66666 609.619 3.65625C610.88 4.63542 611.895 5.79687 612.666 7.14063C613.437 8.48437 613.906 9.95833 614.072 11.5625H605.291ZM618.498 33V0.999999H641.561V8H627.186V13.5H640.373V20.5H627.186V26H641.498V33H618.498ZM673.557 0.999999V33H666.307L654.744 16.1875H654.557V33H645.869V0.999999H653.244L664.619 17.75H664.869V0.999999H673.557ZM698.744 33H686.432V0.999999H698.619C701.911 0.999999 704.755 1.64062 707.15 2.92188C709.557 4.19271 711.411 6.02604 712.713 8.42188C714.025 10.8073 714.682 13.6667 714.682 17C714.682 20.3333 714.031 23.1979 712.729 25.5937C711.426 27.9792 709.583 29.8125 707.197 31.0938C704.812 32.3646 701.994 33 698.744 33ZM695.119 25.625H698.432C700.015 25.625 701.364 25.3698 702.479 24.8594C703.604 24.349 704.458 23.4687 705.041 22.2187C705.635 20.9687 705.932 19.2292 705.932 17C705.932 14.7708 705.63 13.0312 705.025 11.7812C704.432 10.5312 703.557 9.65104 702.4 9.14062C701.255 8.63021 699.848 8.375 698.182 8.375H695.119V25.625ZM718.701 33V0.999999H741.764V8H727.389V13.5H740.576V20.5H727.389V26H741.701V33H718.701ZM755.385 0.999999L760.635 10.3125H760.885L766.197 0.999999H775.885L766.322 17L776.26 33H766.322L760.885 23.5H760.635L755.197 33H745.322L755.135 17L745.635 0.999999H755.385Z" fill="url(#paint0_linear_224_760)"/>
  </g>
  <defs>
  <filter id="filter0_i_224_760" x="0.119141" y="0.5625" width="776.141" height="32.875" filterUnits="userSpaceOnUse" color-interpolation-filters="sRGB">
  <feFlood flood-opacity="0" result="BackgroundImageFix"/>
  <feBlend mode="normal" in="SourceGraphic" in2="BackgroundImageFix" result="shape"/>
  <feColorMatrix in="SourceAlpha" type="matrix" values="0 0 0 0 0 0 0 0 0 0 0 0 0 0 0 0 0 0 127 0" result="hardAlpha"/>
  <feOffset dx="-1.5" dy="1"/>
  <feComposite in2="hardAlpha" operator="arithmetic" k2="-1" k3="1"/>
  <feColorMatrix type="matrix" values="0 0 0 0 0.533333 0 0 0 0 0.988235 0 0 0 0 1 0 0 0 1 0"/>
  <feBlend mode="normal" in2="shape" result="effect1_innerShadow_224_760"/>
  </filter>
  <linearGradient id="paint0_linear_224_760" x1="48.5442" y1="-37.3548" x2="101.645" y2="214.953" gradientUnits="userSpaceOnUse">
  <stop offset="0.119731" stop-color="#850EDC"/>
  <stop offset="0.258828" stop-color="#FFB9EB"/>
  <stop offset="0.378722" stop-color="#FFB9EB"/>
  <stop offset="0.435962" stop-color="white"/>
  <stop offset="0.490889" stop-color="#88FCFF"/>
  <stop offset="0.571321" stop-color="#FF8CDE"/>
  <stop offset="0.814891" stop-color="#A73FF1"/>
  <stop offset="0.941928" stop-color="#FFB9EB"/>
  </linearGradient>
  </defs>
  </svg>
