<svg width="313" height="64" viewBox="0 0 313 64" fill="none" xmlns="http://www.w3.org/2000/svg">
  <g filter="url(#filter0_i_2_2299)">
  <path d="M0.660511 5.81818V0.727272H20.8878V5.81818H13.8878V24H7.66051V5.81818H0.660511ZM23.2656 24V0.727272H29.5838V9.81818H37.9474V0.727272H44.2656V24H37.9474V14.9091H29.5838V24H23.2656ZM47.2656 24V0.727272H64.0384V5.81818H53.5838V9.81818H63.1747V14.9091H53.5838V18.9091H63.9929V24H47.2656ZM73.5469 24V0.727272H90.3196V5.81818H79.8651V9.81818H89.456V14.9091H79.8651V18.9091H90.2741V24H73.5469ZM99.8168 0.727272L104.589 17.1364H104.771L109.544 0.727272H116.68L108.999 24H100.362L92.6804 0.727272H99.8168ZM139.999 12.3636C139.999 14.9545 139.495 17.1402 138.487 18.9205C137.48 20.6932 136.12 22.0379 134.408 22.9545C132.696 23.8636 130.786 24.3182 128.68 24.3182C126.559 24.3182 124.643 23.8598 122.93 22.9432C121.226 22.0189 119.87 20.6705 118.862 18.8977C117.862 17.1174 117.362 14.9394 117.362 12.3636C117.362 9.77273 117.862 7.59091 118.862 5.81818C119.87 4.03788 121.226 2.69318 122.93 1.78409C124.643 0.867423 126.559 0.40909 128.68 0.40909C130.786 0.40909 132.696 0.867423 134.408 1.78409C136.12 2.69318 137.48 4.03788 138.487 5.81818C139.495 7.59091 139.999 9.77273 139.999 12.3636ZM133.499 12.3636C133.499 10.9697 133.313 9.79545 132.942 8.84091C132.578 7.87879 132.036 7.15151 131.317 6.65909C130.605 6.15909 129.726 5.90909 128.68 5.90909C127.635 5.90909 126.752 6.15909 126.033 6.65909C125.321 7.15151 124.779 7.87879 124.408 8.84091C124.044 9.79545 123.862 10.9697 123.862 12.3636C123.862 13.7576 124.044 14.9356 124.408 15.8977C124.779 16.8523 125.321 17.5795 126.033 18.0795C126.752 18.572 127.635 18.8182 128.68 18.8182C129.726 18.8182 130.605 18.572 131.317 18.0795C132.036 17.5795 132.578 16.8523 132.942 15.8977C133.313 14.9356 133.499 13.7576 133.499 12.3636ZM142.922 24V0.727272H149.24V18.9091H158.649V24H142.922ZM174.976 0.727272H181.294V15.6364C181.294 17.4091 180.87 18.9432 180.021 20.2386C179.18 21.5265 178.006 22.5227 176.499 23.2273C174.991 23.9242 173.241 24.2727 171.249 24.2727C169.241 24.2727 167.483 23.9242 165.976 23.2273C164.468 22.5227 163.294 21.5265 162.453 20.2386C161.62 18.9432 161.203 17.4091 161.203 15.6364V0.727272H167.521V15.0909C167.521 15.8106 167.68 16.4545 167.999 17.0227C168.317 17.5833 168.756 18.0227 169.317 18.3409C169.885 18.6591 170.529 18.8182 171.249 18.8182C171.976 18.8182 172.62 18.6591 173.18 18.3409C173.741 18.0227 174.18 17.5833 174.499 17.0227C174.817 16.4545 174.976 15.8106 174.976 15.0909V0.727272ZM183.661 5.81818V0.727272H203.888V5.81818H196.888V24H190.661V5.81818H183.661ZM212.584 0.727272V24H206.266V0.727272H212.584ZM238.124 12.3636C238.124 14.9545 237.62 17.1402 236.612 18.9205C235.605 20.6932 234.245 22.0379 232.533 22.9545C230.821 23.8636 228.911 24.3182 226.805 24.3182C224.684 24.3182 222.768 23.8598 221.055 22.9432C219.351 22.0189 217.995 20.6705 216.987 18.8977C215.987 17.1174 215.487 14.9394 215.487 12.3636C215.487 9.77273 215.987 7.59091 216.987 5.81818C217.995 4.03788 219.351 2.69318 221.055 1.78409C222.768 0.867423 224.684 0.40909 226.805 0.40909C228.911 0.40909 230.821 0.867423 232.533 1.78409C234.245 2.69318 235.605 4.03788 236.612 5.81818C237.62 7.59091 238.124 9.77273 238.124 12.3636ZM231.624 12.3636C231.624 10.9697 231.438 9.79545 231.067 8.84091C230.703 7.87879 230.161 7.15151 229.442 6.65909C228.73 6.15909 227.851 5.90909 226.805 5.90909C225.76 5.90909 224.877 6.15909 224.158 6.65909C223.446 7.15151 222.904 7.87879 222.533 8.84091C222.169 9.79545 221.987 10.9697 221.987 12.3636C221.987 13.7576 222.169 14.9356 222.533 15.8977C222.904 16.8523 223.446 17.5795 224.158 18.0795C224.877 18.572 225.76 18.8182 226.805 18.8182C227.851 18.8182 228.73 18.572 229.442 18.0795C230.161 17.5795 230.703 16.8523 231.067 15.8977C231.438 14.9356 231.624 13.7576 231.624 12.3636ZM261.183 0.727272V24H255.911L247.501 11.7727H247.365V24H241.047V0.727272H246.411L254.683 12.9091H254.865V0.727272H261.183ZM293.092 12.3636C293.092 14.9545 292.589 17.1402 291.581 18.9205C290.573 20.6932 289.214 22.0379 287.501 22.9545C285.789 23.8636 283.88 24.3182 281.774 24.3182C279.653 24.3182 277.736 23.8598 276.024 22.9432C274.32 22.0189 272.964 20.6705 271.956 18.8977C270.956 17.1174 270.456 14.9394 270.456 12.3636C270.456 9.77273 270.956 7.59091 271.956 5.81818C272.964 4.03788 274.32 2.69318 276.024 1.78409C277.736 0.867423 279.653 0.40909 281.774 0.40909C283.88 0.40909 285.789 0.867423 287.501 1.78409C289.214 2.69318 290.573 4.03788 291.581 5.81818C292.589 7.59091 293.092 9.77273 293.092 12.3636ZM286.592 12.3636C286.592 10.9697 286.407 9.79545 286.036 8.84091C285.672 7.87879 285.13 7.15151 284.411 6.65909C283.698 6.15909 282.82 5.90909 281.774 5.90909C280.729 5.90909 279.846 6.15909 279.126 6.65909C278.414 7.15151 277.873 7.87879 277.501 8.84091C277.138 9.79545 276.956 10.9697 276.956 12.3636C276.956 13.7576 277.138 14.9356 277.501 15.8977C277.873 16.8523 278.414 17.5795 279.126 18.0795C279.846 18.572 280.729 18.8182 281.774 18.8182C282.82 18.8182 283.698 18.572 284.411 18.0795C285.13 17.5795 285.672 16.8523 286.036 15.8977C286.407 14.9356 286.592 13.7576 286.592 12.3636ZM296.016 24V0.727272H312.379V5.81818H302.334V9.81818H311.379V14.9091H302.334V24H296.016ZM54.8864 39.7273V63H49.6136L41.2045 50.7727H41.0682V63H34.75V39.7273H40.1136L48.3864 51.9091H48.5682V39.7273H54.8864ZM57.875 63V39.7273H74.6477V44.8182H64.1932V48.8182H73.7841V53.9091H64.1932V57.9091H74.6023V63H57.875ZM84.554 39.7273L88.3722 46.5H88.554L92.4176 39.7273H99.4631L92.5085 51.3636L99.7358 63H92.5085L88.554 56.0909H88.3722L84.4176 63H77.2358L84.3722 51.3636L77.4631 39.7273H84.554ZM101.551 44.8182V39.7273H121.778V44.8182H114.778V63H108.551V44.8182H101.551ZM135.702 49V53.7273H124.793V49H135.702ZM154.457 47.4091C154.359 47.0076 154.204 46.6553 153.991 46.3523C153.779 46.0417 153.514 45.7803 153.196 45.5682C152.885 45.3485 152.522 45.1856 152.105 45.0795C151.696 44.9659 151.245 44.9091 150.753 44.9091C149.692 44.9091 148.787 45.1629 148.037 45.6705C147.295 46.178 146.726 46.9091 146.332 47.8636C145.946 48.8182 145.753 49.9697 145.753 51.3182C145.753 52.6818 145.938 53.8485 146.31 54.8182C146.681 55.7879 147.234 56.5303 147.969 57.0455C148.704 57.5606 149.616 57.8182 150.707 57.8182C151.67 57.8182 152.469 57.678 153.105 57.3977C153.749 57.1174 154.23 56.7197 154.548 56.2045C154.866 55.6894 155.026 55.0833 155.026 54.3864L156.116 54.5H150.798V50H161.116V53.2273C161.116 55.3485 160.666 57.1629 159.764 58.6705C158.87 60.1705 157.635 61.322 156.06 62.125C154.491 62.9205 152.692 63.3182 150.662 63.3182C148.397 63.3182 146.408 62.8371 144.696 61.875C142.984 60.9129 141.647 59.5417 140.685 57.7614C139.73 55.9811 139.253 53.8636 139.253 51.4091C139.253 49.4848 139.545 47.7803 140.128 46.2955C140.719 44.8106 141.537 43.5568 142.582 42.5341C143.628 41.5038 144.836 40.7273 146.207 40.2045C147.579 39.6742 149.048 39.4091 150.616 39.4091C151.995 39.4091 153.276 39.6061 154.457 40C155.647 40.3864 156.696 40.9394 157.605 41.6591C158.522 42.3712 159.26 43.2159 159.821 44.1932C160.382 45.1705 160.723 46.2424 160.844 47.4091H154.457ZM164.062 63V39.7273H180.835V44.8182H170.381V48.8182H179.972V53.9091H170.381V57.9091H180.79V63H164.062ZM204.105 39.7273V63H198.832L190.423 50.7727H190.287V63H183.969V39.7273H189.332L197.605 51.9091H197.787V39.7273H204.105ZM222.423 63H213.469V39.7273H222.332C224.726 39.7273 226.795 40.1932 228.537 41.125C230.287 42.0492 231.635 43.3826 232.582 45.125C233.537 46.8598 234.014 48.9394 234.014 51.3636C234.014 53.7879 233.541 55.8712 232.594 57.6136C231.647 59.3485 230.306 60.6818 228.571 61.6136C226.836 62.5379 224.787 63 222.423 63ZM219.787 57.6364H222.196C223.348 57.6364 224.329 57.4508 225.139 57.0795C225.957 56.7083 226.579 56.0682 227.003 55.1591C227.435 54.25 227.651 52.9848 227.651 51.3636C227.651 49.7424 227.431 48.4773 226.991 47.5682C226.56 46.6591 225.923 46.0189 225.082 45.6477C224.249 45.2765 223.226 45.0909 222.014 45.0909H219.787V57.6364ZM236.938 63V39.7273H253.71V44.8182H243.256V48.8182H252.847V53.9091H243.256V57.9091H253.665V63H236.938ZM263.616 39.7273L267.435 46.5H267.616L271.48 39.7273H278.526L271.571 51.3636L278.798 63H271.571L267.616 56.0909H267.435L263.48 63H256.298L263.435 51.3636L256.526 39.7273H263.616Z" fill="url(#paint0_linear_2_2299)"/>
  </g>
  <defs>
  <filter id="filter0_i_2_2299" x="0.660156" y="0.40918" width="311.719" height="62.9092" filterUnits="userSpaceOnUse" color-interpolation-filters="sRGB">
  <feFlood flood-opacity="0" result="BackgroundImageFix"/>
  <feBlend mode="normal" in="SourceGraphic" in2="BackgroundImageFix" result="shape"/>
  <feColorMatrix in="SourceAlpha" type="matrix" values="0 0 0 0 0 0 0 0 0 0 0 0 0 0 0 0 0 0 127 0" result="hardAlpha"/>
  <feOffset dx="-1.5" dy="1"/>
  <feComposite in2="hardAlpha" operator="arithmetic" k2="-1" k3="1"/>
  <feColorMatrix type="matrix" values="0 0 0 0 0.533333 0 0 0 0 0.988235 0 0 0 0 1 0 0 0 1 0"/>
  <feBlend mode="normal" in2="shape" result="effect1_innerShadow_2_2299"/>
  </filter>
  <linearGradient id="paint0_linear_2_2299" x1="51.8242" y1="-47.2581" x2="245.706" y2="145.622" gradientUnits="userSpaceOnUse">
  <stop offset="0.119731" stop-color="#850EDC"/>
  <stop offset="0.258828" stop-color="#FFB9EB"/>
  <stop offset="0.378722" stop-color="#FFB9EB"/>
  <stop offset="0.435962" stop-color="white"/>
  <stop offset="0.490889" stop-color="#88FCFF"/>
  <stop offset="0.571321" stop-color="#FF8CDE"/>
  <stop offset="0.814891" stop-color="#A73FF1"/>
  <stop offset="0.941928" stop-color="#FFB9EB"/>
  </linearGradient>
  </defs>
  </svg>
