<svg width="490" height="34" viewBox="0 0 490 34" fill="none" xmlns="http://www.w3.org/2000/svg">
  <g filter="url(#filter0_i_224_1089)">
  <path d="M0.613281 8V0.999999H28.4258V8H18.8008V33H10.2383V8H0.613281ZM31.6953 33V0.999999H54.7578V8H40.3828V13.5H53.5703V20.5H40.3828V26H54.6953V33H31.6953ZM88.9414 13H80.1289C80.0664 12.2708 79.8997 11.6094 79.6289 11.0156C79.3685 10.4219 79.0039 9.91146 78.5352 9.48437C78.0768 9.04687 77.5195 8.71354 76.8633 8.48437C76.207 8.24479 75.4622 8.125 74.6289 8.125C73.1706 8.125 71.9362 8.47917 70.9258 9.1875C69.9258 9.89583 69.1654 10.9115 68.6445 12.2344C68.1341 13.5573 67.8789 15.1458 67.8789 17C67.8789 18.9583 68.1393 20.599 68.6602 21.9219C69.1914 23.2344 69.957 24.224 70.957 24.8906C71.957 25.5469 73.1602 25.875 74.5664 25.875C75.3685 25.875 76.0872 25.776 76.7227 25.5781C77.3581 25.3698 77.9102 25.0729 78.3789 24.6875C78.8477 24.3021 79.2279 23.8385 79.5195 23.2969C79.8216 22.7448 80.0247 22.125 80.1289 21.4375L88.9414 21.5C88.8372 22.8542 88.457 24.2344 87.8008 25.6406C87.1445 27.0365 86.2122 28.3281 85.0039 29.5156C83.806 30.6927 82.3216 31.6406 80.5508 32.3594C78.7799 33.0781 76.7227 33.4375 74.3789 33.4375C71.4414 33.4375 68.806 32.8073 66.4727 31.5469C64.1497 30.2865 62.3112 28.4323 60.957 25.9844C59.6133 23.5365 58.9414 20.5417 58.9414 17C58.9414 13.4375 59.6289 10.4375 61.0039 8C62.3789 5.55208 64.2331 3.70312 66.5664 2.45312C68.8997 1.19271 71.5039 0.562499 74.3789 0.562499C76.3997 0.562499 78.2591 0.83854 79.957 1.39062C81.6549 1.94271 83.1445 2.75 84.4258 3.8125C85.707 4.86458 86.7383 6.16146 87.5195 7.70312C88.3008 9.24479 88.7747 11.0104 88.9414 13ZM92.8828 33V0.999999H101.57V13.5H113.07V0.999999H121.758V33H113.07V20.5H101.57V33H92.8828ZM153.57 0.999999V33H146.32L134.758 16.1875H134.57V33H125.883V0.999999H133.258L144.633 17.75H144.883V0.999999H153.57ZM188.68 17C188.68 20.5625 187.987 23.5677 186.602 26.0156C185.216 28.4531 183.346 30.3021 180.992 31.5625C178.638 32.8125 176.013 33.4375 173.117 33.4375C170.201 33.4375 167.565 32.8073 165.211 31.5469C162.867 30.276 161.003 28.4219 159.617 25.9844C158.242 23.5365 157.555 20.5417 157.555 17C157.555 13.4375 158.242 10.4375 159.617 8C161.003 5.55208 162.867 3.70312 165.211 2.45312C167.565 1.19271 170.201 0.562499 173.117 0.562499C176.013 0.562499 178.638 1.19271 180.992 2.45312C183.346 3.70312 185.216 5.55208 186.602 8C187.987 10.4375 188.68 13.4375 188.68 17ZM179.742 17C179.742 15.0833 179.487 13.4687 178.977 12.1562C178.477 10.8333 177.732 9.83333 176.742 9.15625C175.763 8.46875 174.555 8.125 173.117 8.125C171.68 8.125 170.466 8.46875 169.477 9.15625C168.497 9.83333 167.753 10.8333 167.242 12.1562C166.742 13.4687 166.492 15.0833 166.492 17C166.492 18.9167 166.742 20.5365 167.242 21.8594C167.753 23.1719 168.497 24.1719 169.477 24.8594C170.466 25.5365 171.68 25.875 173.117 25.875C174.555 25.875 175.763 25.5365 176.742 24.8594C177.732 24.1719 178.477 23.1719 178.977 21.8594C179.487 20.5365 179.742 18.9167 179.742 17ZM192.699 33V0.999999H201.387V26H214.324V33H192.699ZM247.59 17C247.59 20.5625 246.897 23.5677 245.512 26.0156C244.126 28.4531 242.257 30.3021 239.902 31.5625C237.548 32.8125 234.923 33.4375 232.027 33.4375C229.111 33.4375 226.475 32.8073 224.121 31.5469C221.777 30.276 219.913 28.4219 218.527 25.9844C217.152 23.5365 216.465 20.5417 216.465 17C216.465 13.4375 217.152 10.4375 218.527 8C219.913 5.55208 221.777 3.70312 224.121 2.45312C226.475 1.19271 229.111 0.562499 232.027 0.562499C234.923 0.562499 237.548 1.19271 239.902 2.45312C242.257 3.70312 244.126 5.55208 245.512 8C246.897 10.4375 247.59 13.4375 247.59 17ZM238.652 17C238.652 15.0833 238.397 13.4687 237.887 12.1562C237.387 10.8333 236.642 9.83333 235.652 9.15625C234.673 8.46875 233.465 8.125 232.027 8.125C230.59 8.125 229.376 8.46875 228.387 9.15625C227.408 9.83333 226.663 10.8333 226.152 12.1562C225.652 13.4687 225.402 15.0833 225.402 17C225.402 18.9167 225.652 20.5365 226.152 21.8594C226.663 23.1719 227.408 24.1719 228.387 24.8594C229.376 25.5365 230.59 25.875 232.027 25.875C233.465 25.875 234.673 25.5365 235.652 24.8594C236.642 24.1719 237.387 23.1719 237.887 21.8594C238.397 20.5365 238.652 18.9167 238.652 17ZM272.391 11.5625C272.255 11.0104 272.042 10.526 271.75 10.1094C271.458 9.68229 271.094 9.32292 270.656 9.03125C270.229 8.72917 269.729 8.50521 269.156 8.35937C268.594 8.20312 267.974 8.125 267.297 8.125C265.839 8.125 264.594 8.47396 263.563 9.17187C262.542 9.86979 261.76 10.875 261.219 12.1875C260.688 13.5 260.422 15.0833 260.422 16.9375C260.422 18.8125 260.677 20.4167 261.187 21.75C261.698 23.0833 262.458 24.1042 263.469 24.8125C264.479 25.5208 265.734 25.875 267.234 25.875C268.557 25.875 269.656 25.6823 270.531 25.2969C271.417 24.9115 272.078 24.3646 272.516 23.6562C272.953 22.9479 273.172 22.1146 273.172 21.1562L274.672 21.3125H267.359V15.125H281.547V19.5625C281.547 22.4792 280.927 24.974 279.688 27.0469C278.458 29.1094 276.76 30.6927 274.594 31.7969C272.438 32.8906 269.964 33.4375 267.172 33.4375C264.057 33.4375 261.323 32.776 258.969 31.4531C256.615 30.1302 254.776 28.2448 253.453 25.7969C252.141 23.349 251.484 20.4375 251.484 17.0625C251.484 14.4167 251.885 12.0729 252.688 10.0312C253.5 7.98958 254.625 6.26562 256.063 4.85937C257.5 3.44271 259.161 2.375 261.047 1.65625C262.932 0.927082 264.953 0.562499 267.109 0.562499C269.005 0.562499 270.766 0.833333 272.391 1.375C274.026 1.90625 275.469 2.66666 276.719 3.65625C277.979 4.63542 278.995 5.79687 279.766 7.14063C280.536 8.48437 281.005 9.95833 281.172 11.5625H272.391ZM282.781 0.999999H292.469L298.719 14H298.969L305.219 0.999999H314.906L303.156 22.9375V33H294.531V22.9375L282.781 0.999999ZM326.504 33V0.999999H340.379C342.816 0.999999 344.863 1.32812 346.52 1.98438C348.186 2.64062 349.441 3.56771 350.285 4.76562C351.139 5.96354 351.566 7.375 351.566 9C351.566 10.1771 351.306 11.25 350.785 12.2187C350.275 13.1875 349.556 14 348.629 14.6562C347.702 15.3021 346.618 15.75 345.379 16V16.3125C346.754 16.3646 348.004 16.7135 349.129 17.3594C350.254 17.9948 351.15 18.875 351.816 20C352.483 21.1146 352.816 22.4271 352.816 23.9375C352.816 25.6875 352.358 27.2448 351.441 28.6094C350.535 29.974 349.243 31.0469 347.566 31.8281C345.889 32.6094 343.889 33 341.566 33H326.504ZM335.191 26.0625H339.254C340.712 26.0625 341.806 25.7917 342.535 25.25C343.264 24.6979 343.629 23.8854 343.629 22.8125C343.629 22.0625 343.457 21.4271 343.113 20.9062C342.77 20.3854 342.28 19.9896 341.645 19.7187C341.02 19.4479 340.264 19.3125 339.379 19.3125H335.191V26.0625ZM335.191 13.9375H338.754C339.514 13.9375 340.186 13.8177 340.77 13.5781C341.353 13.3385 341.806 12.9948 342.129 12.5469C342.462 12.0885 342.629 11.5312 342.629 10.875C342.629 9.88541 342.275 9.13021 341.566 8.60938C340.858 8.07812 339.962 7.8125 338.879 7.8125H335.191V13.9375ZM355.895 33V0.999999H378.957V8H364.582V13.5H377.77V20.5H364.582V26H378.895V33H355.895ZM383.266 33V0.999999H391.953V13.5H403.453V0.999999H412.141V33H403.453V20.5H391.953V33H383.266ZM424.953 0.999999V33H416.266V0.999999H424.953ZM456.758 0.999999V33H449.508L437.945 16.1875H437.758V33H429.07V0.999999H436.445L447.82 17.75H448.07V0.999999H456.758ZM473.18 33H460.867V0.999999H473.055C476.346 0.999999 479.19 1.64062 481.586 2.92188C483.992 4.19271 485.846 6.02604 487.148 8.42188C488.461 10.8073 489.117 13.6667 489.117 17C489.117 20.3333 488.466 23.1979 487.164 25.5937C485.862 27.9792 484.018 29.8125 481.633 31.0938C479.247 32.3646 476.43 33 473.18 33ZM469.555 25.625H472.867C474.451 25.625 475.799 25.3698 476.914 24.8594C478.039 24.349 478.893 23.4687 479.477 22.2187C480.07 20.9687 480.367 19.2292 480.367 17C480.367 14.7708 480.065 13.0312 479.461 11.7812C478.867 10.5312 477.992 9.65104 476.836 9.14062C475.69 8.63021 474.284 8.375 472.617 8.375H469.555V25.625Z" fill="url(#paint0_linear_224_1089)"/>
  </g>
  <defs>
  <filter id="filter0_i_224_1089" x="0.613281" y="0.5625" width="488.504" height="32.875" filterUnits="userSpaceOnUse" color-interpolation-filters="sRGB">
  <feFlood flood-opacity="0" result="BackgroundImageFix"/>
  <feBlend mode="normal" in="SourceGraphic" in2="BackgroundImageFix" result="shape"/>
  <feColorMatrix in="SourceAlpha" type="matrix" values="0 0 0 0 0 0 0 0 0 0 0 0 0 0 0 0 0 0 127 0" result="hardAlpha"/>
  <feOffset dx="-1.5" dy="1"/>
  <feComposite in2="hardAlpha" operator="arithmetic" k2="-1" k3="1"/>
  <feColorMatrix type="matrix" values="0 0 0 0 0.533333 0 0 0 0 0.988235 0 0 0 0 1 0 0 0 1 0"/>
  <feBlend mode="normal" in2="shape" result="effect1_innerShadow_224_1089"/>
  </filter>
  <linearGradient id="paint0_linear_224_1089" x1="-94.4558" y1="-37.3548" x2="-41.3546" y2="214.953" gradientUnits="userSpaceOnUse">
  <stop offset="0.119731" stop-color="#850EDC"/>
  <stop offset="0.258828" stop-color="#FFB9EB"/>
  <stop offset="0.378722" stop-color="#FFB9EB"/>
  <stop offset="0.435962" stop-color="white"/>
  <stop offset="0.490889" stop-color="#88FCFF"/>
  <stop offset="0.571321" stop-color="#FF8CDE"/>
  <stop offset="0.814891" stop-color="#A73FF1"/>
  <stop offset="0.941928" stop-color="#FFB9EB"/>
  </linearGradient>
  </defs>
  </svg>
