<svg width="229" height="63" viewBox="0 0 229 63" fill="none" xmlns="http://www.w3.org/2000/svg">
<g filter="url(#filter0_i_2_2315)">
<path d="M0.363636 5.81818V0.727272H20.5909V5.81818H13.5909V24H7.36364V5.81818H0.363636ZM22.9688 24V0.727272H39.7415V5.81818H29.2869V9.81818H38.8778V14.9091H29.2869V18.9091H39.696V24H22.9688ZM64.6023 9.45455H58.1932C58.1477 8.92424 58.0265 8.44318 57.8295 8.01136C57.6402 7.57955 57.375 7.20833 57.0341 6.89773C56.7008 6.57954 56.2955 6.33712 55.8182 6.17045C55.3409 5.99621 54.7992 5.90909 54.1932 5.90909C53.1326 5.90909 52.2348 6.16667 51.5 6.68182C50.7727 7.19697 50.2197 7.93561 49.8409 8.89773C49.4697 9.85985 49.2841 11.0152 49.2841 12.3636C49.2841 13.7879 49.4735 14.9811 49.8523 15.9432C50.2386 16.8977 50.7955 17.6174 51.5227 18.1023C52.25 18.5795 53.125 18.8182 54.1477 18.8182C54.7311 18.8182 55.2538 18.7462 55.7159 18.6023C56.178 18.4508 56.5795 18.2348 56.9205 17.9545C57.2614 17.6742 57.5379 17.3371 57.75 16.9432C57.9697 16.5417 58.1174 16.0909 58.1932 15.5909L64.6023 15.6364C64.5265 16.6212 64.25 17.625 63.7727 18.6477C63.2955 19.6629 62.6174 20.6023 61.7386 21.4659C60.8674 22.322 59.7879 23.0114 58.5 23.5341C57.2121 24.0568 55.7159 24.3182 54.0114 24.3182C51.875 24.3182 49.9583 23.8598 48.2614 22.9432C46.572 22.0265 45.2348 20.678 44.25 18.8977C43.2727 17.1174 42.7841 14.9394 42.7841 12.3636C42.7841 9.77273 43.2841 7.59091 44.2841 5.81818C45.2841 4.03788 46.6326 2.69318 48.3295 1.78409C50.0265 0.867423 51.9205 0.40909 54.0114 0.40909C55.4811 0.40909 56.8333 0.609847 58.0682 1.01136C59.303 1.41288 60.3864 2 61.3182 2.77273C62.25 3.53788 63 4.48106 63.5682 5.60227C64.1364 6.72348 64.4811 8.00758 64.6023 9.45455ZM67.4688 24V0.727272H73.7869V9.81818H82.1506V0.727272H88.4688V24H82.1506V14.9091H73.7869V24H67.4688ZM111.605 0.727272V24H106.332L97.9233 11.7727H97.7869V24H91.4688V0.727272H96.8324L105.105 12.9091H105.287V0.727272H111.605ZM137.139 12.3636C137.139 14.9545 136.635 17.1402 135.628 18.9205C134.62 20.6932 133.26 22.0379 131.548 22.9545C129.836 23.8636 127.927 24.3182 125.821 24.3182C123.7 24.3182 121.783 23.8598 120.071 22.9432C118.366 22.0189 117.01 20.6705 116.003 18.8977C115.003 17.1174 114.503 14.9394 114.503 12.3636C114.503 9.77273 115.003 7.59091 116.003 5.81818C117.01 4.03788 118.366 2.69318 120.071 1.78409C121.783 0.867423 123.7 0.40909 125.821 0.40909C127.927 0.40909 129.836 0.867423 131.548 1.78409C133.26 2.69318 134.62 4.03788 135.628 5.81818C136.635 7.59091 137.139 9.77273 137.139 12.3636ZM130.639 12.3636C130.639 10.9697 130.454 9.79545 130.082 8.84091C129.719 7.87879 129.177 7.15151 128.457 6.65909C127.745 6.15909 126.866 5.90909 125.821 5.90909C124.776 5.90909 123.893 6.15909 123.173 6.65909C122.461 7.15151 121.92 7.87879 121.548 8.84091C121.185 9.79545 121.003 10.9697 121.003 12.3636C121.003 13.7576 121.185 14.9356 121.548 15.8977C121.92 16.8523 122.461 17.5795 123.173 18.0795C123.893 18.572 124.776 18.8182 125.821 18.8182C126.866 18.8182 127.745 18.572 128.457 18.0795C129.177 17.5795 129.719 16.8523 130.082 15.8977C130.454 14.9356 130.639 13.7576 130.639 12.3636ZM140.062 24V0.727272H146.381V18.9091H155.79V24H140.062ZM179.983 12.3636C179.983 14.9545 179.479 17.1402 178.472 18.9205C177.464 20.6932 176.104 22.0379 174.392 22.9545C172.68 23.8636 170.771 24.3182 168.665 24.3182C166.544 24.3182 164.627 23.8598 162.915 22.9432C161.21 22.0189 159.854 20.6705 158.847 18.8977C157.847 17.1174 157.347 14.9394 157.347 12.3636C157.347 9.77273 157.847 7.59091 158.847 5.81818C159.854 4.03788 161.21 2.69318 162.915 1.78409C164.627 0.867423 166.544 0.40909 168.665 0.40909C170.771 0.40909 172.68 0.867423 174.392 1.78409C176.104 2.69318 177.464 4.03788 178.472 5.81818C179.479 7.59091 179.983 9.77273 179.983 12.3636ZM173.483 12.3636C173.483 10.9697 173.297 9.79545 172.926 8.84091C172.562 7.87879 172.021 7.15151 171.301 6.65909C170.589 6.15909 169.71 5.90909 168.665 5.90909C167.619 5.90909 166.737 6.15909 166.017 6.65909C165.305 7.15151 164.763 7.87879 164.392 8.84091C164.028 9.79545 163.847 10.9697 163.847 12.3636C163.847 13.7576 164.028 14.9356 164.392 15.8977C164.763 16.8523 165.305 17.5795 166.017 18.0795C166.737 18.572 167.619 18.8182 168.665 18.8182C169.71 18.8182 170.589 18.572 171.301 18.0795C172.021 17.5795 172.562 16.8523 172.926 15.8977C173.297 14.9356 173.483 13.7576 173.483 12.3636ZM198.02 8.40909C197.921 8.00758 197.766 7.6553 197.554 7.35227C197.342 7.04167 197.077 6.7803 196.759 6.56818C196.448 6.34848 196.084 6.18561 195.668 6.07954C195.259 5.96591 194.808 5.90909 194.315 5.90909C193.255 5.90909 192.349 6.16288 191.599 6.67045C190.857 7.17803 190.289 7.90909 189.895 8.86364C189.509 9.81818 189.315 10.9697 189.315 12.3182C189.315 13.6818 189.501 14.8485 189.872 15.8182C190.243 16.7879 190.796 17.5303 191.531 18.0455C192.266 18.5606 193.179 18.8182 194.27 18.8182C195.232 18.8182 196.031 18.678 196.668 18.3977C197.312 18.1174 197.793 17.7197 198.111 17.2045C198.429 16.6894 198.588 16.0833 198.588 15.3864L199.679 15.5H194.361V11H204.679V14.2273C204.679 16.3485 204.228 18.1629 203.327 19.6705C202.433 21.1705 201.198 22.322 199.622 23.125C198.054 23.9205 196.255 24.3182 194.224 24.3182C191.959 24.3182 189.971 23.8371 188.259 22.875C186.546 21.9129 185.209 20.5417 184.247 18.7614C183.293 16.9811 182.815 14.8636 182.815 12.4091C182.815 10.4848 183.107 8.7803 183.69 7.29545C184.281 5.81061 185.099 4.55682 186.145 3.53409C187.19 2.50379 188.399 1.72727 189.77 1.20454C191.141 0.674241 192.611 0.40909 194.179 0.40909C195.558 0.40909 196.838 0.60606 198.02 1C199.209 1.38636 200.259 1.93939 201.168 2.65909C202.084 3.37121 202.823 4.21591 203.384 5.19318C203.944 6.17045 204.285 7.24242 204.406 8.40909H198.02ZM205.577 0.727272H212.622L217.168 10.1818H217.349L221.895 0.727272H228.94L220.395 16.6818V24H214.122V16.6818L205.577 0.727272ZM55.4062 63V39.7273H65.4972C67.2699 39.7273 68.7585 39.9659 69.9631 40.4432C71.1752 40.9205 72.0881 41.5947 72.7017 42.4659C73.3229 43.3371 73.6335 44.3636 73.6335 45.5455C73.6335 46.4015 73.4441 47.1818 73.0653 47.8864C72.6941 48.5909 72.1714 49.1818 71.4972 49.6591C70.8229 50.1288 70.035 50.4545 69.1335 50.6364V50.8636C70.1335 50.9015 71.0426 51.1553 71.8608 51.625C72.679 52.0871 73.3305 52.7273 73.8153 53.5455C74.3002 54.3561 74.5426 55.3106 74.5426 56.4091C74.5426 57.6818 74.2093 58.8144 73.5426 59.8068C72.8835 60.7992 71.9441 61.5795 70.7244 62.1477C69.5047 62.7159 68.0502 63 66.3608 63H55.4062ZM61.7244 57.9545H64.679C65.7396 57.9545 66.535 57.7576 67.0653 57.3636C67.5956 56.9621 67.8608 56.3712 67.8608 55.5909C67.8608 55.0455 67.7358 54.5833 67.4858 54.2045C67.2358 53.8258 66.8797 53.5379 66.4176 53.3409C65.9631 53.1439 65.4138 53.0455 64.7699 53.0455H61.7244V57.9545ZM61.7244 49.1364H64.3153C64.8684 49.1364 65.357 49.0492 65.7812 48.875C66.2055 48.7008 66.535 48.4508 66.7699 48.125C67.0123 47.7917 67.1335 47.3864 67.1335 46.9091C67.1335 46.1894 66.8759 45.6402 66.3608 45.2614C65.8456 44.875 65.1941 44.6818 64.4062 44.6818H61.7244V49.1364ZM76.7812 63V39.7273H93.554V44.8182H83.0994V48.8182H92.6903V53.9091H83.0994V57.9091H93.5085V63H76.7812ZM96.6875 63V39.7273H103.006V48.8182H111.369V39.7273H117.688V63H111.369V53.9091H103.006V63H96.6875ZM127.006 39.7273V63H120.688V39.7273H127.006ZM150.136 39.7273V63H144.864L136.455 50.7727H136.318V63H130V39.7273H135.364L143.636 51.9091H143.818V39.7273H150.136ZM162.08 63H153.125V39.7273H161.989C164.383 39.7273 166.451 40.1932 168.193 41.125C169.943 42.0492 171.292 43.3826 172.239 45.125C173.193 46.8598 173.67 48.9394 173.67 51.3636C173.67 53.7879 173.197 55.8712 172.25 57.6136C171.303 59.3485 169.962 60.6818 168.227 61.6136C166.492 62.5379 164.443 63 162.08 63ZM159.443 57.6364H161.852C163.004 57.6364 163.985 57.4508 164.795 57.0795C165.614 56.7083 166.235 56.0682 166.659 55.1591C167.091 54.25 167.307 52.9848 167.307 51.3636C167.307 49.7424 167.087 48.4773 166.648 47.5682C166.216 46.6591 165.58 46.0189 164.739 45.6477C163.905 45.2765 162.883 45.0909 161.67 45.0909H159.443V57.6364Z" fill="url(#paint0_linear_2_2315)"/>
</g>
<defs>
<filter id="filter0_i_2_2315" x="0.36377" y="0.40918" width="228.577" height="62.5908" filterUnits="userSpaceOnUse" color-interpolation-filters="sRGB">
<feFlood flood-opacity="0" result="BackgroundImageFix"/>
<feBlend mode="normal" in="SourceGraphic" in2="BackgroundImageFix" result="shape"/>
<feColorMatrix in="SourceAlpha" type="matrix" values="0 0 0 0 0 0 0 0 0 0 0 0 0 0 0 0 0 0 127 0" result="hardAlpha"/>
<feOffset dx="-1.5" dy="1"/>
<feComposite in2="hardAlpha" operator="arithmetic" k2="-1" k3="1"/>
<feColorMatrix type="matrix" values="0 0 0 0 0.533333 0 0 0 0 0.988235 0 0 0 0 1 0 0 0 1 0"/>
<feBlend mode="normal" in2="shape" result="effect1_innerShadow_2_2315"/>
</filter>
<linearGradient id="paint0_linear_2_2315" x1="9.82417" y1="-47.2581" x2="203.706" y2="145.622" gradientUnits="userSpaceOnUse">
<stop offset="0.119731" stop-color="#850EDC"/>
<stop offset="0.258828" stop-color="#FFB9EB"/>
<stop offset="0.378722" stop-color="#FFB9EB"/>
<stop offset="0.435962" stop-color="white"/>
<stop offset="0.490889" stop-color="#88FCFF"/>
<stop offset="0.571321" stop-color="#FF8CDE"/>
<stop offset="0.814891" stop-color="#A73FF1"/>
<stop offset="0.941928" stop-color="#FFB9EB"/>
</linearGradient>
</defs>
</svg>
