<svg width="229" height="95" viewBox="0 0 229 95" fill="none" xmlns="http://www.w3.org/2000/svg">
  <g filter="url(#filter0_i_224_803)">
  <path d="M55.6932 36H45.4659L56.9886 1.09091H69.9432L81.4659 36H71.2386L63.6023 10.7045H63.3295L55.6932 36ZM53.7841 22.2273H73.0114V29.3182H53.7841V22.2273ZM84.8281 36V1.09091H99.9645C102.624 1.09091 104.857 1.44886 106.663 2.16477C108.482 2.88068 109.851 3.89204 110.771 5.19886C111.703 6.50568 112.169 8.04545 112.169 9.81818C112.169 11.1023 111.885 12.2727 111.317 13.3295C110.76 14.3864 109.976 15.2727 108.964 15.9886C107.953 16.6932 106.771 17.1818 105.419 17.4545V17.7955C106.919 17.8523 108.283 18.233 109.51 18.9375C110.737 19.6307 111.714 20.5909 112.442 21.8182C113.169 23.0341 113.533 24.4659 113.533 26.1136C113.533 28.0227 113.033 29.7216 112.033 31.2102C111.044 32.6989 109.635 33.8693 107.805 34.7216C105.976 35.5739 103.794 36 101.26 36H84.8281ZM94.3054 28.4318H98.7372C100.328 28.4318 101.521 28.1364 102.317 27.5455C103.112 26.9432 103.51 26.0568 103.51 24.8864C103.51 24.0682 103.322 23.375 102.947 22.8068C102.572 22.2386 102.038 21.8068 101.345 21.5114C100.663 21.2159 99.8395 21.0682 98.8736 21.0682H94.3054V28.4318ZM94.3054 15.2045H98.1918C99.0213 15.2045 99.7543 15.0739 100.391 14.8125C101.027 14.5511 101.521 14.1761 101.874 13.6875C102.237 13.1875 102.419 12.5795 102.419 11.8636C102.419 10.7841 102.033 9.96023 101.26 9.39205C100.487 8.8125 99.5099 8.52273 98.3281 8.52273H94.3054V15.2045ZM150.709 18.5455C150.709 22.4318 149.953 25.7102 148.442 28.3807C146.93 31.0398 144.891 33.0568 142.322 34.4318C139.754 35.7955 136.891 36.4773 133.732 36.4773C130.55 36.4773 127.675 35.7898 125.107 34.4148C122.55 33.0284 120.516 31.0057 119.004 28.3466C117.504 25.6761 116.754 22.4091 116.754 18.5455C116.754 14.6591 117.504 11.3864 119.004 8.72727C120.516 6.05682 122.55 4.03977 125.107 2.67614C127.675 1.30114 130.55 0.613635 133.732 0.613635C136.891 0.613635 139.754 1.30114 142.322 2.67614C144.891 4.03977 146.93 6.05682 148.442 8.72727C149.953 11.3864 150.709 14.6591 150.709 18.5455ZM140.959 18.5455C140.959 16.4545 140.68 14.6932 140.124 13.2614C139.578 11.8182 138.766 10.7273 137.686 9.98864C136.618 9.23864 135.3 8.86364 133.732 8.86364C132.163 8.86364 130.839 9.23864 129.76 9.98864C128.692 10.7273 127.879 11.8182 127.322 13.2614C126.777 14.6932 126.504 16.4545 126.504 18.5455C126.504 20.6364 126.777 22.4034 127.322 23.8466C127.879 25.2784 128.692 26.3693 129.76 27.1193C130.839 27.858 132.163 28.2273 133.732 28.2273C135.3 28.2273 136.618 27.858 137.686 27.1193C138.766 26.3693 139.578 25.2784 140.124 23.8466C140.68 22.4034 140.959 20.6364 140.959 18.5455ZM175.753 1.09091H185.23V23.4545C185.23 26.1136 184.594 28.4148 183.321 30.358C182.06 32.2898 180.298 33.7841 178.037 34.8409C175.776 35.8864 173.151 36.4091 170.162 36.4091C167.151 36.4091 164.514 35.8864 162.253 34.8409C159.991 33.7841 158.23 32.2898 156.969 30.358C155.719 28.4148 155.094 26.1136 155.094 23.4545V1.09091H164.571V22.6364C164.571 23.7159 164.81 24.6818 165.287 25.5341C165.764 26.375 166.423 27.0341 167.264 27.5114C168.116 27.9886 169.082 28.2273 170.162 28.2273C171.253 28.2273 172.219 27.9886 173.06 27.5114C173.901 27.0341 174.56 26.375 175.037 25.5341C175.514 24.6818 175.753 23.7159 175.753 22.6364V1.09091ZM188.78 8.72727V1.09091H219.121V8.72727H208.621V36H199.28V8.72727H188.78ZM23.0298 70.6136C22.8821 70.0114 22.6491 69.483 22.331 69.0284C22.0128 68.5625 21.6151 68.1705 21.1378 67.8523C20.6719 67.5227 20.1264 67.2784 19.5014 67.1193C18.8878 66.9489 18.2116 66.8636 17.473 66.8636C15.8821 66.8636 14.5241 67.2443 13.3991 68.0057C12.2855 68.767 11.4332 69.8636 10.8423 71.2955C10.2628 72.7273 9.97301 74.4545 9.97301 76.4773C9.97301 78.5227 10.2514 80.2727 10.8082 81.7273C11.3651 83.1818 12.1946 84.2955 13.2969 85.0682C14.3991 85.8409 15.7685 86.2273 17.4048 86.2273C18.848 86.2273 20.0469 86.017 21.0014 85.5966C21.9673 85.1761 22.6889 84.5795 23.1662 83.8068C23.6435 83.0341 23.8821 82.125 23.8821 81.0795L25.5185 81.25H17.5412V74.5H33.0185V79.3409C33.0185 82.5227 32.3423 85.2443 30.9901 87.5057C29.6491 89.7557 27.7969 91.483 25.4332 92.6875C23.081 93.8807 20.3821 94.4773 17.3366 94.4773C13.9389 94.4773 10.956 93.7557 8.38778 92.3125C5.8196 90.8693 3.81392 88.8125 2.37074 86.142C0.938921 83.4716 0.223011 80.2955 0.223011 76.6136C0.223011 73.7273 0.660511 71.1705 1.53551 68.9432C2.42188 66.7159 3.64915 64.8352 5.21733 63.3011C6.78551 61.7557 8.59801 60.5909 10.6548 59.8068C12.7116 59.0114 14.9162 58.6136 17.2685 58.6136C19.3366 58.6136 21.2571 58.9091 23.0298 59.5C24.8139 60.0795 26.3878 60.9091 27.7514 61.9886C29.1264 63.0568 30.2344 64.3239 31.0753 65.7898C31.9162 67.2557 32.4276 68.8636 32.6094 70.6136H23.0298ZM37.4375 59.0909H49.233L57.3466 78.8636H57.7557L65.8693 59.0909H77.6648V94H68.392V73.8182H68.1193L60.3466 93.7273H54.7557L46.983 73.6818H46.7102V94H37.4375V59.0909ZM100.974 70C100.884 68.8636 100.457 67.9773 99.696 67.3409C98.946 66.7045 97.804 66.3864 96.2699 66.3864C95.2926 66.3864 94.4915 66.5057 93.8665 66.7443C93.2528 66.9716 92.7983 67.2841 92.5028 67.6818C92.2074 68.0795 92.054 68.5341 92.0426 69.0455C92.0199 69.4659 92.0938 69.8466 92.2642 70.1875C92.446 70.517 92.7301 70.8182 93.1165 71.0909C93.5028 71.3523 93.9972 71.5909 94.5994 71.8068C95.2017 72.0227 95.9176 72.2159 96.7472 72.3864L99.6108 73C101.543 73.4091 103.196 73.9489 104.571 74.6193C105.946 75.2898 107.071 76.0795 107.946 76.9886C108.821 77.8864 109.463 78.8977 109.872 80.0227C110.293 81.1477 110.509 82.375 110.52 83.7045C110.509 86 109.935 87.9432 108.798 89.5341C107.662 91.125 106.037 92.3352 103.923 93.1648C101.821 93.9943 99.2926 94.4091 96.3381 94.4091C93.304 94.4091 90.6563 93.9602 88.3949 93.0625C86.1449 92.1648 84.3949 90.7841 83.1449 88.9205C81.9063 87.0455 81.2813 84.6477 81.2699 81.7273H90.2699C90.3267 82.7955 90.5938 83.6932 91.071 84.4205C91.5483 85.1477 92.2188 85.6989 93.0824 86.0739C93.9574 86.4489 94.9972 86.6364 96.2017 86.6364C97.2131 86.6364 98.0597 86.5114 98.7415 86.2614C99.4233 86.0114 99.9403 85.6648 100.293 85.2216C100.645 84.7784 100.827 84.2727 100.838 83.7045C100.827 83.1705 100.651 82.7045 100.31 82.3068C99.9801 81.8977 99.4347 81.5341 98.6733 81.2159C97.9119 80.8864 96.8835 80.5795 95.5881 80.2955L92.1108 79.5455C89.0199 78.875 86.5824 77.7557 84.7983 76.1875C83.0256 74.608 82.1449 72.4545 82.1562 69.7273C82.1449 67.5114 82.7358 65.5739 83.929 63.9148C85.1335 62.2443 86.7983 60.9432 88.9233 60.0114C91.0597 59.0795 93.5085 58.6136 96.2699 58.6136C99.0881 58.6136 101.526 59.0852 103.582 60.0284C105.639 60.9716 107.224 62.3011 108.338 64.017C109.463 65.7216 110.031 67.7159 110.043 70H100.974ZM122.989 94L112.693 59.0909H123.261L128.034 80.5682H128.307L133.966 59.0909H142.284L147.943 80.6364H148.216L152.989 59.0909H163.557L153.261 94H144.193L138.261 74.5H137.989L132.057 94H122.989ZM171.615 94H161.388L172.911 59.0909H185.865L197.388 94H187.161L179.524 68.7045H179.251L171.615 94ZM169.706 80.2273H188.933V87.3182H169.706V80.2273ZM200.75 94V59.0909H215.818C218.409 59.0909 220.676 59.6023 222.619 60.625C224.563 61.6477 226.074 63.0852 227.153 64.9375C228.233 66.7898 228.773 68.9545 228.773 71.4318C228.773 73.9318 228.216 76.0966 227.102 77.9261C226 79.7557 224.449 81.1648 222.449 82.1534C220.46 83.142 218.136 83.6364 215.477 83.6364H206.477V76.2727H213.568C214.682 76.2727 215.631 76.0795 216.415 75.6932C217.21 75.2955 217.818 74.733 218.239 74.0057C218.67 73.2784 218.886 72.4205 218.886 71.4318C218.886 70.4318 218.67 69.5795 218.239 68.875C217.818 68.1591 217.21 67.6136 216.415 67.2386C215.631 66.8523 214.682 66.6591 213.568 66.6591H210.227V94H200.75Z" fill="url(#paint0_linear_224_803)"/>
  </g>
  <defs>
  <filter id="filter0_i_224_803" x="0.223022" y="0.61377" width="228.55" height="93.8633" filterUnits="userSpaceOnUse" color-interpolation-filters="sRGB">
  <feFlood flood-opacity="0" result="BackgroundImageFix"/>
  <feBlend mode="normal" in="SourceGraphic" in2="BackgroundImageFix" result="shape"/>
  <feColorMatrix in="SourceAlpha" type="matrix" values="0 0 0 0 0 0 0 0 0 0 0 0 0 0 0 0 0 0 127 0" result="hardAlpha"/>
  <feOffset dx="-1.5" dy="1"/>
  <feComposite in2="hardAlpha" operator="arithmetic" k2="-1" k3="1"/>
  <feColorMatrix type="matrix" values="0 0 0 0 0.533333 0 0 0 0 0.988235 0 0 0 0 1 0 0 0 1 0"/>
  <feBlend mode="normal" in2="shape" result="effect1_innerShadow_224_803"/>
  </filter>
  <linearGradient id="paint0_linear_224_803" x1="-293.562" y1="-69.871" x2="-16.1734" y2="297.183" gradientUnits="userSpaceOnUse">
  <stop offset="0.119731" stop-color="#850EDC"/>
  <stop offset="0.258828" stop-color="#FFB9EB"/>
  <stop offset="0.378722" stop-color="#FFB9EB"/>
  <stop offset="0.435962" stop-color="white"/>
  <stop offset="0.490889" stop-color="#88FCFF"/>
  <stop offset="0.571321" stop-color="#FF8CDE"/>
  <stop offset="0.814891" stop-color="#A73FF1"/>
  <stop offset="0.941928" stop-color="#FFB9EB"/>
  </linearGradient>
  </defs>
  </svg>
