<svg width="153" height="64" viewBox="0 0 153 64" fill="none" xmlns="http://www.w3.org/2000/svg">
  <g filter="url(#filter0_i_2_2273)">
  <path d="M22.1705 24H15.3523L23.0341 0.727272H31.6705L39.3523 24H32.5341L27.4432 7.13636H27.2614L22.1705 24ZM20.8977 14.8182H33.7159V19.5455H20.8977V14.8182ZM41.5938 24V0.727272H51.6847C53.4574 0.727272 54.946 0.965909 56.1506 1.44318C57.3627 1.92045 58.2756 2.5947 58.8892 3.46591C59.5104 4.33712 59.821 5.36364 59.821 6.54545C59.821 7.40151 59.6316 8.18182 59.2528 8.88636C58.8816 9.59091 58.3589 10.1818 57.6847 10.6591C57.0104 11.1288 56.2225 11.4545 55.321 11.6364V11.8636C56.321 11.9015 57.2301 12.1553 58.0483 12.625C58.8665 13.0871 59.518 13.7273 60.0028 14.5455C60.4877 15.3561 60.7301 16.3106 60.7301 17.4091C60.7301 18.6818 60.3968 19.8144 59.7301 20.8068C59.071 21.7992 58.1316 22.5795 56.9119 23.1477C55.6922 23.7159 54.2377 24 52.5483 24H41.5938ZM47.9119 18.9545H50.8665C51.9271 18.9545 52.7225 18.7576 53.2528 18.3636C53.7831 17.9621 54.0483 17.3712 54.0483 16.5909C54.0483 16.0455 53.9233 15.5833 53.6733 15.2045C53.4233 14.8258 53.0672 14.5379 52.6051 14.3409C52.1506 14.1439 51.6013 14.0455 50.9574 14.0455H47.9119V18.9545ZM47.9119 10.1364H50.5028C51.0559 10.1364 51.5445 10.0492 51.9688 9.875C52.393 9.70076 52.7225 9.45076 52.9574 9.125C53.1998 8.79167 53.321 8.38636 53.321 7.90909C53.321 7.18939 53.0634 6.64015 52.5483 6.26136C52.0331 5.875 51.3816 5.68182 50.5938 5.68182H47.9119V10.1364ZM85.5142 12.3636C85.5142 14.9545 85.0104 17.1402 84.0028 18.9205C82.9953 20.6932 81.6354 22.0379 79.9233 22.9545C78.2112 23.8636 76.3021 24.3182 74.196 24.3182C72.0748 24.3182 70.1581 23.8598 68.446 22.9432C66.7415 22.0189 65.3854 20.6705 64.3778 18.8977C63.3778 17.1174 62.8778 14.9394 62.8778 12.3636C62.8778 9.77273 63.3778 7.59091 64.3778 5.81818C65.3854 4.03788 66.7415 2.69318 68.446 1.78409C70.1581 0.867423 72.0748 0.40909 74.196 0.40909C76.3021 0.40909 78.2112 0.867423 79.9233 1.78409C81.6354 2.69318 82.9953 4.03788 84.0028 5.81818C85.0104 7.59091 85.5142 9.77273 85.5142 12.3636ZM79.0142 12.3636C79.0142 10.9697 78.8286 9.79545 78.4574 8.84091C78.0938 7.87879 77.5521 7.15151 76.8324 6.65909C76.1203 6.15909 75.2415 5.90909 74.196 5.90909C73.1506 5.90909 72.268 6.15909 71.5483 6.65909C70.8362 7.15151 70.2945 7.87879 69.9233 8.84091C69.5597 9.79545 69.3778 10.9697 69.3778 12.3636C69.3778 13.7576 69.5597 14.9356 69.9233 15.8977C70.2945 16.8523 70.8362 17.5795 71.5483 18.0795C72.268 18.572 73.1506 18.8182 74.196 18.8182C75.2415 18.8182 76.1203 18.572 76.8324 18.0795C77.5521 17.5795 78.0938 16.8523 78.4574 15.8977C78.8286 14.9356 79.0142 13.7576 79.0142 12.3636ZM102.21 0.727272H108.528V15.6364C108.528 17.4091 108.104 18.9432 107.256 20.2386C106.415 21.5265 105.241 22.5227 103.733 23.2273C102.225 23.9242 100.475 24.2727 98.483 24.2727C96.4754 24.2727 94.7178 23.9242 93.2102 23.2273C91.7027 22.5227 90.5284 21.5265 89.6875 20.2386C88.8542 18.9432 88.4375 17.4091 88.4375 15.6364V0.727272H94.7557V15.0909C94.7557 15.8106 94.9148 16.4545 95.233 17.0227C95.5511 17.5833 95.9905 18.0227 96.5511 18.3409C97.1193 18.6591 97.7633 18.8182 98.483 18.8182C99.2102 18.8182 99.8542 18.6591 100.415 18.3409C100.975 18.0227 101.415 17.5833 101.733 17.0227C102.051 16.4545 102.21 15.8106 102.21 15.0909V0.727272ZM110.895 5.81818V0.727272H131.122V5.81818H124.122V24H117.895V5.81818H110.895ZM15.8168 47.4091C15.7183 47.0076 15.563 46.6553 15.3509 46.3523C15.1387 46.0417 14.8736 45.7803 14.5554 45.5682C14.2448 45.3485 13.8812 45.1856 13.4645 45.0795C13.0554 44.9659 12.6046 44.9091 12.1122 44.9091C11.0516 44.9091 10.1463 45.1629 9.39631 45.6705C8.65388 46.178 8.0857 46.9091 7.69176 47.8636C7.3054 48.8182 7.11222 49.9697 7.11222 51.3182C7.11222 52.6818 7.29782 53.8485 7.66903 54.8182C8.04025 55.7879 8.59328 56.5303 9.32812 57.0455C10.063 57.5606 10.9759 57.8182 12.0668 57.8182C13.0289 57.8182 13.8281 57.678 14.4645 57.3977C15.1084 57.1174 15.5895 56.7197 15.9077 56.2045C16.2259 55.6894 16.3849 55.0833 16.3849 54.3864L17.4759 54.5H12.1577V50H22.4759V53.2273C22.4759 55.3485 22.0251 57.1629 21.1236 58.6705C20.2296 60.1705 18.9948 61.322 17.419 62.125C15.8509 62.9205 14.0516 63.3182 12.0213 63.3182C9.75616 63.3182 7.76752 62.8371 6.0554 61.875C4.34328 60.9129 3.00616 59.5417 2.04403 57.7614C1.08949 55.9811 0.612216 53.8636 0.612216 51.4091C0.612216 49.4848 0.903883 47.7803 1.48722 46.2955C2.07813 44.8106 2.89631 43.5568 3.94176 42.5341C4.98722 41.5038 6.19555 40.7273 7.56676 40.2045C8.93797 39.6742 10.4077 39.4091 11.9759 39.4091C13.3546 39.4091 14.6349 39.6061 15.8168 40C17.0062 40.3864 18.0554 40.9394 18.9645 41.6591C19.8812 42.3712 20.6198 43.2159 21.1804 44.1932C21.741 45.1705 22.0819 46.2424 22.2031 47.4091H15.8168ZM25.4219 39.7273H33.2855L38.6946 52.9091H38.9673L44.3764 39.7273H52.2401V63H46.0582V49.5455H45.8764L40.6946 62.8182H36.9673L31.7855 49.4545H31.6037V63H25.4219V39.7273ZM67.7798 47C67.7192 46.2424 67.4351 45.6515 66.9276 45.2273C66.4276 44.803 65.6662 44.5909 64.6435 44.5909C63.992 44.5909 63.4579 44.6705 63.0412 44.8295C62.6321 44.9811 62.3291 45.1894 62.1321 45.4545C61.9351 45.7197 61.8329 46.0227 61.8253 46.3636C61.8101 46.6439 61.8594 46.8977 61.973 47.125C62.0942 47.3447 62.2836 47.5455 62.5412 47.7273C62.7988 47.9015 63.1283 48.0606 63.5298 48.2045C63.9313 48.3485 64.4086 48.4773 64.9616 48.5909L66.8707 49C68.1586 49.2727 69.2609 49.6326 70.1776 50.0795C71.0942 50.5265 71.8442 51.053 72.4276 51.6591C73.0109 52.2576 73.4389 52.9318 73.7116 53.6818C73.992 54.4318 74.1359 55.25 74.1435 56.1364C74.1359 57.6667 73.7533 58.9621 72.9957 60.0227C72.2382 61.0833 71.1548 61.8902 69.7457 62.4432C68.3442 62.9962 66.6586 63.2727 64.6889 63.2727C62.6662 63.2727 60.901 62.9735 59.3935 62.375C57.8935 61.7765 56.7268 60.8561 55.8935 59.6136C55.0677 58.3636 54.651 56.7652 54.6435 54.8182H60.6435C60.6813 55.5303 60.8594 56.1288 61.1776 56.6136C61.4957 57.0985 61.9427 57.4659 62.5185 57.7159C63.1018 57.9659 63.795 58.0909 64.598 58.0909C65.2723 58.0909 65.8366 58.0076 66.2912 57.8409C66.7457 57.6742 67.0904 57.4432 67.3253 57.1477C67.5601 56.8523 67.6813 56.5152 67.6889 56.1364C67.6813 55.7803 67.5639 55.4697 67.3366 55.2045C67.117 54.9318 66.7533 54.6894 66.2457 54.4773C65.7382 54.2576 65.0526 54.053 64.1889 53.8636L61.8707 53.3636C59.8101 52.9167 58.1851 52.1705 56.9957 51.125C55.8139 50.072 55.2268 48.6364 55.2344 46.8182C55.2268 45.3409 55.6207 44.0492 56.4162 42.9432C57.2192 41.8295 58.3291 40.9621 59.7457 40.3409C61.17 39.7197 62.8026 39.4091 64.6435 39.4091C66.5223 39.4091 68.1473 39.7235 69.5185 40.3523C70.8897 40.9811 71.9465 41.8674 72.6889 43.0114C73.4389 44.1477 73.8177 45.4773 73.8253 47H67.7798ZM82.456 63L75.5923 39.7273H82.6378L85.8196 54.0455H86.0014L89.7741 39.7273H95.3196L99.0923 54.0909H99.2741L102.456 39.7273H109.501L102.638 63H96.5923L92.6378 50H92.456L88.5014 63H82.456ZM114.874 63H108.055L115.737 39.7273H124.374L132.055 63H125.237L120.146 46.1364H119.964L114.874 63ZM113.601 53.8182H126.419V58.5455H113.601V53.8182ZM134.297 63V39.7273H144.342C146.07 39.7273 147.581 40.0682 148.876 40.75C150.172 41.4318 151.179 42.3902 151.899 43.625C152.619 44.8598 152.979 46.303 152.979 47.9545C152.979 49.6212 152.607 51.0644 151.865 52.2841C151.13 53.5038 150.096 54.4432 148.763 55.1023C147.437 55.7614 145.888 56.0909 144.115 56.0909H138.115V51.1818H142.842C143.585 51.1818 144.217 51.053 144.74 50.7955C145.27 50.5303 145.676 50.1553 145.956 49.6705C146.244 49.1856 146.388 48.6136 146.388 47.9545C146.388 47.2879 146.244 46.7197 145.956 46.25C145.676 45.7727 145.27 45.4091 144.74 45.1591C144.217 44.9015 143.585 44.7727 142.842 44.7727H140.615V63H134.297Z" fill="url(#paint0_linear_2_2273)"/>
  </g>
  <defs>
  <filter id="filter0_i_2_2273" x="0.612305" y="0.40918" width="152.366" height="62.9092" filterUnits="userSpaceOnUse" color-interpolation-filters="sRGB">
  <feFlood flood-opacity="0" result="BackgroundImageFix"/>
  <feBlend mode="normal" in="SourceGraphic" in2="BackgroundImageFix" result="shape"/>
  <feColorMatrix in="SourceAlpha" type="matrix" values="0 0 0 0 0 0 0 0 0 0 0 0 0 0 0 0 0 0 127 0" result="hardAlpha"/>
  <feOffset dx="-1.5" dy="1"/>
  <feComposite in2="hardAlpha" operator="arithmetic" k2="-1" k3="1"/>
  <feColorMatrix type="matrix" values="0 0 0 0 0.533333 0 0 0 0 0.988235 0 0 0 0 1 0 0 0 1 0"/>
  <feBlend mode="normal" in2="shape" result="effect1_innerShadow_2_2273"/>
  </filter>
  <linearGradient id="paint0_linear_2_2273" x1="25.7976" y1="-47.2581" x2="177.441" y2="25.8146" gradientUnits="userSpaceOnUse">
  <stop offset="0.119731" stop-color="#850EDC"/>
  <stop offset="0.258828" stop-color="#FFB9EB"/>
  <stop offset="0.378722" stop-color="#FFB9EB"/>
  <stop offset="0.435962" stop-color="white"/>
  <stop offset="0.490889" stop-color="#88FCFF"/>
  <stop offset="0.571321" stop-color="#FF8CDE"/>
  <stop offset="0.814891" stop-color="#A73FF1"/>
  <stop offset="0.941928" stop-color="#FFB9EB"/>
  </linearGradient>
  </defs>
  </svg>
