<svg width="150" height="101" viewBox="0 0 150 101" fill="none" xmlns="http://www.w3.org/2000/svg">
  <mask id="path-1-outside-1_224_380" maskUnits="userSpaceOnUse" x="0" y="0" width="150" height="101" fill="black">
  <rect fill="white" width="150" height="101"/>
  <path d="M27.2727 13.3906C27.0241 12.5265 26.675 11.763 26.2251 11.1001C25.7753 10.4254 25.2249 9.85724 24.5739 9.3956C23.9347 8.92211 23.2008 8.56108 22.3722 8.3125C21.5554 8.06392 20.6499 7.93963 19.6555 7.93963C17.7971 7.93963 16.1636 8.40128 14.755 9.32457C13.3582 10.2479 12.2692 11.5914 11.4879 13.3551C10.7067 15.107 10.3161 17.2495 10.3161 19.7827C10.3161 22.3158 10.7008 24.4702 11.4702 26.2457C12.2396 28.0213 13.3286 29.3767 14.7372 30.3118C16.1458 31.2351 17.8089 31.6967 19.7266 31.6967C21.4666 31.6967 22.9522 31.389 24.1832 30.7734C25.4261 30.1461 26.3731 29.2642 27.0241 28.1278C27.687 26.9915 28.0185 25.648 28.0185 24.0973L29.581 24.3281H20.206V18.5398H35.4226V23.1207C35.4226 26.3168 34.7479 29.063 33.3984 31.3594C32.049 33.6439 30.1906 35.4077 27.8232 36.6506C25.4557 37.8816 22.745 38.4972 19.6911 38.4972C16.282 38.4972 13.2872 37.7455 10.7067 36.2422C8.12618 34.727 6.11387 32.5786 4.66974 29.7969C3.23745 27.0033 2.52131 23.6889 2.52131 19.8537C2.52131 16.9062 2.94744 14.2784 3.79972 11.9702C4.66383 9.65009 5.87121 7.68513 7.42188 6.07528C8.97254 4.46543 10.7777 3.24029 12.8374 2.39986C14.897 1.55942 17.1283 1.1392 19.5312 1.1392C21.5909 1.1392 23.5085 1.44105 25.2841 2.04474C27.0597 2.6366 28.634 3.47704 30.0071 4.56605C31.392 5.65506 32.5225 6.95123 33.3984 8.45454C34.2744 9.94602 34.8366 11.5914 35.0852 13.3906H27.2727ZM41.1976 1.63636H50.6792L60.6934 26.0682H61.1195L71.1337 1.63636H80.6152V38H73.1578V14.3317H72.856L63.4455 37.8224H58.3674L48.9569 14.2429H48.655V38H41.1976V1.63636ZM22.8871 73.0945C22.745 71.6622 22.1354 70.5495 21.0582 69.7564C19.9811 68.9633 18.5192 68.5668 16.6726 68.5668C15.4179 68.5668 14.3584 68.7443 13.4943 69.0994C12.6302 69.4427 11.9673 69.9221 11.5057 70.5376C11.0559 71.1532 10.831 71.8516 10.831 72.6328C10.8073 73.2839 10.9434 73.852 11.2393 74.3374C11.5471 74.8227 11.9673 75.2429 12.5 75.598C13.0327 75.9413 13.6482 76.2431 14.3466 76.5036C15.045 76.7521 15.7907 76.9652 16.5838 77.1428L19.8509 77.924C21.437 78.2791 22.893 78.7526 24.2188 79.3445C25.5445 79.9363 26.6927 80.6643 27.6634 81.5284C28.634 82.3925 29.3857 83.4105 29.9183 84.5824C30.4628 85.7543 30.741 87.0978 30.7528 88.6129C30.741 90.8383 30.1728 92.7678 29.0483 94.4013C27.9356 96.023 26.3258 97.2836 24.2188 98.1832C22.1236 99.071 19.5964 99.5149 16.6371 99.5149C13.7015 99.5149 11.1446 99.0651 8.96662 98.1655C6.80043 97.2659 5.10772 95.9342 3.88849 94.1705C2.68111 92.3949 2.04782 90.1991 1.98864 87.5831H9.42827C9.51113 88.8023 9.86032 89.8203 10.4759 90.6371C11.1032 91.442 11.9377 92.0516 12.9794 92.4659C14.0329 92.8684 15.2225 93.0696 16.5483 93.0696C17.8504 93.0696 18.9808 92.8802 19.9396 92.5014C20.9103 92.1226 21.6619 91.5959 22.1946 90.9212C22.7273 90.2464 22.9936 89.4711 22.9936 88.5952C22.9936 87.7784 22.7509 87.0919 22.2656 86.5355C21.7921 85.9792 21.0938 85.5057 20.1705 85.1151C19.259 84.7244 18.1404 84.3693 16.8146 84.0497L12.8551 83.0554C9.7893 82.3097 7.36861 81.1437 5.59304 79.5575C3.81747 77.9714 2.93561 75.8348 2.94744 73.1477C2.93561 70.946 3.52154 69.0225 4.70526 67.3771C5.90081 65.7318 7.54025 64.4474 9.62358 63.5241C11.7069 62.6009 14.0743 62.1392 16.7259 62.1392C19.4247 62.1392 21.7803 62.6009 23.7926 63.5241C25.8168 64.4474 27.3911 65.7318 28.5156 67.3771C29.6402 69.0225 30.2202 70.9283 30.2557 73.0945H22.8871ZM44.1096 99L33.7047 62.6364H42.1032L48.1223 87.9027H48.4242L55.0648 62.6364H62.2559L68.8787 87.956H69.1983L75.2175 62.6364H83.6159L73.2111 99H65.7182L58.7935 75.2251H58.5094L51.6025 99H44.1096ZM90.3365 99H82.0978L94.6511 62.6364H104.559L117.094 99H108.856L99.747 70.946H99.4629L90.3365 99ZM89.8216 84.7067H109.282V90.7081H89.8216V84.7067ZM121.471 99V62.6364H135.818C138.576 62.6364 140.925 63.1631 142.867 64.2166C144.808 65.2583 146.288 66.7083 147.306 68.5668C148.335 70.4134 148.85 72.544 148.85 74.9588C148.85 77.3736 148.329 79.5043 147.288 81.3509C146.246 83.1974 144.737 84.6357 142.76 85.6655C140.795 86.6953 138.416 87.2102 135.622 87.2102H126.478V81.049H134.379C135.859 81.049 137.078 80.7945 138.037 80.2855C139.008 79.7647 139.73 79.0485 140.203 78.1371C140.689 77.2138 140.931 76.1544 140.931 74.9588C140.931 73.7514 140.689 72.6979 140.203 71.7983C139.73 70.8868 139.008 70.1825 138.037 69.6854C137.066 69.1764 135.835 68.9219 134.344 68.9219H129.159V99H121.471Z"/>
  </mask>
  <path d="M27.2727 13.3906C27.0241 12.5265 26.675 11.763 26.2251 11.1001C25.7753 10.4254 25.2249 9.85724 24.5739 9.3956C23.9347 8.92211 23.2008 8.56108 22.3722 8.3125C21.5554 8.06392 20.6499 7.93963 19.6555 7.93963C17.7971 7.93963 16.1636 8.40128 14.755 9.32457C13.3582 10.2479 12.2692 11.5914 11.4879 13.3551C10.7067 15.107 10.3161 17.2495 10.3161 19.7827C10.3161 22.3158 10.7008 24.4702 11.4702 26.2457C12.2396 28.0213 13.3286 29.3767 14.7372 30.3118C16.1458 31.2351 17.8089 31.6967 19.7266 31.6967C21.4666 31.6967 22.9522 31.389 24.1832 30.7734C25.4261 30.1461 26.3731 29.2642 27.0241 28.1278C27.687 26.9915 28.0185 25.648 28.0185 24.0973L29.581 24.3281H20.206V18.5398H35.4226V23.1207C35.4226 26.3168 34.7479 29.063 33.3984 31.3594C32.049 33.6439 30.1906 35.4077 27.8232 36.6506C25.4557 37.8816 22.745 38.4972 19.6911 38.4972C16.282 38.4972 13.2872 37.7455 10.7067 36.2422C8.12618 34.727 6.11387 32.5786 4.66974 29.7969C3.23745 27.0033 2.52131 23.6889 2.52131 19.8537C2.52131 16.9062 2.94744 14.2784 3.79972 11.9702C4.66383 9.65009 5.87121 7.68513 7.42188 6.07528C8.97254 4.46543 10.7777 3.24029 12.8374 2.39986C14.897 1.55942 17.1283 1.1392 19.5312 1.1392C21.5909 1.1392 23.5085 1.44105 25.2841 2.04474C27.0597 2.6366 28.634 3.47704 30.0071 4.56605C31.392 5.65506 32.5225 6.95123 33.3984 8.45454C34.2744 9.94602 34.8366 11.5914 35.0852 13.3906H27.2727ZM41.1976 1.63636H50.6792L60.6934 26.0682H61.1195L71.1337 1.63636H80.6152V38H73.1578V14.3317H72.856L63.4455 37.8224H58.3674L48.9569 14.2429H48.655V38H41.1976V1.63636ZM22.8871 73.0945C22.745 71.6622 22.1354 70.5495 21.0582 69.7564C19.9811 68.9633 18.5192 68.5668 16.6726 68.5668C15.4179 68.5668 14.3584 68.7443 13.4943 69.0994C12.6302 69.4427 11.9673 69.9221 11.5057 70.5376C11.0559 71.1532 10.831 71.8516 10.831 72.6328C10.8073 73.2839 10.9434 73.852 11.2393 74.3374C11.5471 74.8227 11.9673 75.2429 12.5 75.598C13.0327 75.9413 13.6482 76.2431 14.3466 76.5036C15.045 76.7521 15.7907 76.9652 16.5838 77.1428L19.8509 77.924C21.437 78.2791 22.893 78.7526 24.2188 79.3445C25.5445 79.9363 26.6927 80.6643 27.6634 81.5284C28.634 82.3925 29.3857 83.4105 29.9183 84.5824C30.4628 85.7543 30.741 87.0978 30.7528 88.6129C30.741 90.8383 30.1728 92.7678 29.0483 94.4013C27.9356 96.023 26.3258 97.2836 24.2188 98.1832C22.1236 99.071 19.5964 99.5149 16.6371 99.5149C13.7015 99.5149 11.1446 99.0651 8.96662 98.1655C6.80043 97.2659 5.10772 95.9342 3.88849 94.1705C2.68111 92.3949 2.04782 90.1991 1.98864 87.5831H9.42827C9.51113 88.8023 9.86032 89.8203 10.4759 90.6371C11.1032 91.442 11.9377 92.0516 12.9794 92.4659C14.0329 92.8684 15.2225 93.0696 16.5483 93.0696C17.8504 93.0696 18.9808 92.8802 19.9396 92.5014C20.9103 92.1226 21.6619 91.5959 22.1946 90.9212C22.7273 90.2464 22.9936 89.4711 22.9936 88.5952C22.9936 87.7784 22.7509 87.0919 22.2656 86.5355C21.7921 85.9792 21.0938 85.5057 20.1705 85.1151C19.259 84.7244 18.1404 84.3693 16.8146 84.0497L12.8551 83.0554C9.7893 82.3097 7.36861 81.1437 5.59304 79.5575C3.81747 77.9714 2.93561 75.8348 2.94744 73.1477C2.93561 70.946 3.52154 69.0225 4.70526 67.3771C5.90081 65.7318 7.54025 64.4474 9.62358 63.5241C11.7069 62.6009 14.0743 62.1392 16.7259 62.1392C19.4247 62.1392 21.7803 62.6009 23.7926 63.5241C25.8168 64.4474 27.3911 65.7318 28.5156 67.3771C29.6402 69.0225 30.2202 70.9283 30.2557 73.0945H22.8871ZM44.1096 99L33.7047 62.6364H42.1032L48.1223 87.9027H48.4242L55.0648 62.6364H62.2559L68.8787 87.956H69.1983L75.2175 62.6364H83.6159L73.2111 99H65.7182L58.7935 75.2251H58.5094L51.6025 99H44.1096ZM90.3365 99H82.0978L94.6511 62.6364H104.559L117.094 99H108.856L99.747 70.946H99.4629L90.3365 99ZM89.8216 84.7067H109.282V90.7081H89.8216V84.7067ZM121.471 99V62.6364H135.818C138.576 62.6364 140.925 63.1631 142.867 64.2166C144.808 65.2583 146.288 66.7083 147.306 68.5668C148.335 70.4134 148.85 72.544 148.85 74.9588C148.85 77.3736 148.329 79.5043 147.288 81.3509C146.246 83.1974 144.737 84.6357 142.76 85.6655C140.795 86.6953 138.416 87.2102 135.622 87.2102H126.478V81.049H134.379C135.859 81.049 137.078 80.7945 138.037 80.2855C139.008 79.7647 139.73 79.0485 140.203 78.1371C140.689 77.2138 140.931 76.1544 140.931 74.9588C140.931 73.7514 140.689 72.6979 140.203 71.7983C139.73 70.8868 139.008 70.1825 138.037 69.6854C137.066 69.1764 135.835 68.9219 134.344 68.9219H129.159V99H121.471Z" fill="black" fill-opacity="0.6"/>
  <path d="M27.2727 13.3906L26.3117 13.6671L26.5198 14.3906H27.2727V13.3906ZM26.2251 11.1001L25.3931 11.6549L25.3977 11.6616L26.2251 11.1001ZM24.5739 9.3956L23.9786 10.1992L23.987 10.2053L23.9954 10.2113L24.5739 9.3956ZM22.3722 8.3125L22.081 9.26918L22.0848 9.27033L22.3722 8.3125ZM14.755 9.32457L14.2068 8.48821L14.2035 8.49035L14.755 9.32457ZM11.4879 13.3551L12.4012 13.7624L12.4022 13.7601L11.4879 13.3551ZM14.7372 30.3118L14.1841 31.1449L14.189 31.1481L14.7372 30.3118ZM24.1832 30.7734L24.6305 31.6679L24.6339 31.6662L24.1832 30.7734ZM27.0242 28.1278L26.1603 27.624L26.1565 27.6307L27.0242 28.1278ZM28.0185 24.0973L28.1646 23.108L27.0185 22.9387V24.0973H28.0185ZM29.581 24.3281V25.3281L29.7271 23.3389L29.581 24.3281ZM20.206 24.3281H19.206V25.3281H20.206V24.3281ZM20.206 18.5398V17.5398H19.206V18.5398H20.206ZM35.4226 18.5398H36.4226V17.5398H35.4226V18.5398ZM33.3984 31.3594L34.2595 31.868L34.2606 31.866L33.3984 31.3594ZM27.8232 36.6506L28.2845 37.5378L28.288 37.536L27.8232 36.6506ZM10.7067 36.2422L10.2003 37.1045L10.2033 37.1063L10.7067 36.2422ZM4.66974 29.7969L3.77988 30.2531L3.78222 30.2576L4.66974 29.7969ZM3.79972 11.9702L2.8626 11.6211L2.86162 11.6238L3.79972 11.9702ZM7.42188 6.07528L8.1421 6.76903L7.42188 6.07528ZM12.8374 2.39986L12.4596 1.47397L12.8374 2.39986ZM25.2841 2.04474L24.9622 2.99153L24.9679 2.99343L25.2841 2.04474ZM30.0071 4.56605L29.3857 5.34955L29.389 5.35213L30.0071 4.56605ZM33.3984 8.45454L32.5344 8.95799L32.5362 8.96097L33.3984 8.45454ZM35.0852 13.3906V14.3906H36.2329L36.0758 13.2538L35.0852 13.3906ZM28.2338 13.1142C27.9595 12.1609 27.5685 11.2989 27.0526 10.5386L25.3977 11.6616C25.7814 12.2272 26.0888 12.8922 26.3117 13.6671L28.2338 13.1142ZM27.0572 10.5454C26.5406 9.7706 25.9048 9.11343 25.1523 8.57986L23.9954 10.2113C24.5451 10.6011 25.01 11.0803 25.3931 11.6548L27.0572 10.5454ZM25.1691 8.59204C24.4292 8.04394 23.5892 7.63358 22.6595 7.35467L22.0848 9.27033C22.8123 9.48858 23.4402 9.80029 23.9786 10.1992L25.1691 8.59204ZM22.6633 7.35583C21.7381 7.07425 20.7327 6.93963 19.6555 6.93963V8.93963C20.567 8.93963 21.3727 9.05359 22.081 9.26917L22.6633 7.35583ZM19.6555 6.93963C17.6233 6.93963 15.7949 7.44724 14.2068 8.48822L15.3032 10.1609C16.5322 9.35532 17.971 8.93963 19.6555 8.93963V6.93963ZM14.2035 8.49035C12.6241 9.53438 11.4202 11.0388 10.5736 12.9501L12.4022 13.7601C13.1181 12.144 14.0923 10.9614 15.3064 10.1588L14.2035 8.49035ZM10.5746 12.9478C9.72102 14.862 9.31605 17.152 9.31605 19.7827H11.3161C11.3161 17.347 11.6923 15.352 12.4012 13.7624L10.5746 12.9478ZM9.31605 19.7827C9.31605 22.4123 9.7148 24.7099 10.5526 26.6433L12.3877 25.8481C11.6867 24.2304 11.3161 22.2193 11.3161 19.7827H9.31605ZM10.5526 26.6433C11.3875 28.5699 12.5922 30.0881 14.1841 31.1449L15.2903 29.4787C14.065 28.6653 13.0917 27.4727 12.3877 25.8481L10.5526 26.6433ZM14.189 31.1481C15.7823 32.1925 17.642 32.6967 19.7266 32.6967V30.6967C17.9759 30.6967 16.5094 30.2777 15.2854 29.4754L14.189 31.1481ZM19.7266 32.6967C21.5819 32.6967 23.2288 32.3687 24.6305 31.6679L23.736 29.879C22.6756 30.4092 21.3513 30.6967 19.7266 30.6967V32.6967ZM24.6339 31.6662C26.0399 30.9564 27.1372 29.9421 27.8918 28.625L26.1565 27.6307C25.609 28.5863 24.8124 29.3357 23.7326 29.8807L24.6339 31.6662ZM27.8879 28.6317C28.6548 27.317 29.0185 25.7931 29.0185 24.0973H27.0185C27.0185 25.5028 26.7192 26.6659 26.1604 27.624L27.8879 28.6317ZM27.8723 25.0866L29.4348 25.3174L29.7271 23.3389L28.1646 23.108L27.8723 25.0866ZM29.581 23.3281H20.206V25.3281H29.581V23.3281ZM21.206 24.3281V18.5398H19.206V24.3281H21.206ZM20.206 19.5398H35.4226V17.5398H20.206V19.5398ZM34.4226 18.5398V23.1207H36.4226V18.5398H34.4226ZM34.4226 23.1207C34.4226 26.1743 33.7789 28.738 32.5363 30.8527L34.2606 31.866C35.7168 29.3879 36.4226 26.4592 36.4226 23.1207H34.4226ZM32.5374 30.8508C31.2833 32.9741 29.5626 34.6079 27.3583 35.7652L28.288 37.536C30.8186 36.2074 32.8148 34.3138 34.2595 31.868L32.5374 30.8508ZM27.3618 35.7634C25.1563 36.9102 22.6078 37.4972 19.6911 37.4972V39.4972C22.8823 39.4972 25.7552 38.853 28.2845 37.5378L27.3618 35.7634ZM19.6911 37.4972C16.4334 37.4972 13.6171 36.7804 11.2101 35.3781L10.2033 37.1063C12.9572 38.7106 16.1306 39.4972 19.6911 39.4972V37.4972ZM11.213 35.3798C8.80273 33.9646 6.91898 31.9591 5.55727 29.3361L3.78222 30.2576C5.30877 33.1981 7.44964 35.4894 10.2003 37.1045L11.213 35.3798ZM5.5596 29.3406C4.21402 26.7162 3.52131 23.5649 3.52131 19.8537H1.52131C1.52131 23.8129 2.26089 27.2904 3.77989 30.2531L5.5596 29.3406ZM3.52131 19.8537C3.52131 17.0017 3.93369 14.4944 4.73781 12.3165L2.86162 11.6238C1.96119 14.0624 1.52131 16.8108 1.52131 19.8537H3.52131ZM4.73683 12.3192C5.55823 10.1138 6.69639 8.26991 8.1421 6.76903L6.70165 5.38154C5.04603 7.10035 3.76942 9.1864 2.8626 11.6211L4.73683 12.3192ZM8.1421 6.76903C9.59653 5.25908 11.2852 4.11325 13.2152 3.32574L12.4596 1.47397C10.2702 2.36733 8.34855 3.67179 6.70165 5.38154L8.1421 6.76903ZM13.2152 3.32574C15.1455 2.53806 17.2474 2.1392 19.5312 2.1392V0.139203C17.0092 0.139203 14.6485 0.580785 12.4596 1.47397L13.2152 3.32574ZM19.5312 2.1392C21.4921 2.1392 23.3 2.42636 24.9622 2.99152L25.606 1.09797C23.7171 0.455742 21.6897 0.139203 19.5312 0.139203V2.1392ZM24.9679 2.99343C26.6404 3.55095 28.11 4.33775 29.3857 5.34955L30.6285 3.78255C29.158 2.61632 27.4789 1.72225 25.6003 1.09606L24.9679 2.99343ZM29.389 5.35213C30.6762 6.36427 31.7227 7.56494 32.5344 8.95799L34.2625 7.9511C33.3223 6.33752 32.1079 4.94585 30.6252 3.77996L29.389 5.35213ZM32.5362 8.96097C33.3421 10.3333 33.8632 11.852 34.0946 13.5275L36.0758 13.2538C35.8101 11.3307 35.2067 9.55878 34.2607 7.94812L32.5362 8.96097ZM35.0852 12.3906H27.2727V14.3906H35.0852V12.3906ZM41.1976 1.63636V0.636362H40.1976V1.63636H41.1976ZM50.6792 1.63636L51.6044 1.2571L51.35 0.636362H50.6792V1.63636ZM60.6934 26.0682L59.7681 26.4474L60.0225 27.0682H60.6934V26.0682ZM61.1195 26.0682V27.0682H61.7904L62.0448 26.4474L61.1195 26.0682ZM71.1337 1.63636V0.636362H70.4628L70.2084 1.2571L71.1337 1.63636ZM80.6152 1.63636H81.6152V0.636362H80.6152V1.63636ZM80.6152 38V39H81.6152V38H80.6152ZM73.1579 38H72.1579V39H73.1579V38ZM73.1579 14.3317H74.1579V13.3317H73.1579V14.3317ZM72.856 14.3317V13.3317H72.1794L71.9277 13.9598L72.856 14.3317ZM63.4455 37.8224V38.8224H64.1221L64.3738 38.1943L63.4455 37.8224ZM58.3674 37.8224L57.4386 38.1931L57.6898 38.8224H58.3674V37.8224ZM48.9569 14.2429L49.8856 13.8722L49.6345 13.2429H48.9569V14.2429ZM48.655 14.2429V13.2429H47.655V14.2429H48.655ZM48.655 38V39H49.655V38H48.655ZM41.1976 38H40.1976V39H41.1976V38ZM41.1976 2.63636H50.6792V0.636362H41.1976V2.63636ZM49.7539 2.01562L59.7681 26.4474L61.6186 25.6889L51.6044 1.2571L49.7539 2.01562ZM60.6934 27.0682H61.1195V25.0682H60.6934V27.0682ZM62.0448 26.4474L72.059 2.01562L70.2084 1.2571L60.1942 25.6889L62.0448 26.4474ZM71.1337 2.63636H80.6152V0.636362H71.1337V2.63636ZM79.6152 1.63636V38H81.6152V1.63636H79.6152ZM80.6152 37H73.1579V39H80.6152V37ZM74.1579 38V14.3317H72.1579V38H74.1579ZM73.1579 13.3317H72.856V15.3317H73.1579V13.3317ZM71.9277 13.9598L62.5172 37.4506L64.3738 38.1943L73.7843 14.7036L71.9277 13.9598ZM63.4455 36.8224H58.3674V38.8224H63.4455V36.8224ZM59.2961 37.4518L49.8856 13.8722L48.0281 14.6136L57.4386 38.1931L59.2961 37.4518ZM48.9569 13.2429H48.655V15.2429H48.9569V13.2429ZM47.655 14.2429V38H49.655V14.2429H47.655ZM48.655 37H41.1976V39H48.655V37ZM42.1976 38V1.63636H40.1976V38H42.1976ZM22.8871 73.0945L21.892 73.1931L21.9813 74.0945H22.8871V73.0945ZM13.4943 69.0994L13.8635 70.0288L13.8744 70.0244L13.4943 69.0994ZM11.5057 70.5376L10.7056 69.9376L10.6983 69.9476L11.5057 70.5376ZM10.831 72.6328L11.8303 72.6692L11.831 72.651V72.6328H10.831ZM11.2393 74.3374L10.3856 74.858L10.3901 74.8655L10.3948 74.8729L11.2393 74.3374ZM12.5 75.598L11.9453 76.4301L11.9518 76.4344L11.9583 76.4386L12.5 75.598ZM14.3466 76.5035L13.9972 77.4405L14.0042 77.4431L14.0113 77.4457L14.3466 76.5035ZM16.5838 77.1428L16.8164 76.1702L16.8093 76.1685L16.8023 76.1669L16.5838 77.1428ZM19.8509 77.924L19.6183 78.8966L19.6253 78.8983L19.6324 78.8998L19.8509 77.924ZM24.2188 79.3445L23.8111 80.2576H23.8111L24.2188 79.3445ZM27.6634 81.5284L28.3283 80.7815H28.3283L27.6634 81.5284ZM29.9183 84.5824L29.0079 84.9962L29.0114 85.0038L29.9183 84.5824ZM30.7528 88.6129L31.7529 88.6182L31.7528 88.6051L30.7528 88.6129ZM29.0483 94.4013L28.2246 93.8342L28.2237 93.8355L29.0483 94.4013ZM24.2188 98.1832L24.6089 99.104L24.6114 99.1029L24.2188 98.1832ZM8.96662 98.1655L8.58308 99.089L8.58486 99.0897L8.96662 98.1655ZM3.88849 94.1705L3.06154 94.7328L3.06591 94.7391L3.88849 94.1705ZM1.98864 87.5831V86.5831H0.965756L0.988892 87.6057L1.98864 87.5831ZM9.42827 87.5831L10.426 87.5153L10.3626 86.5831H9.42827V87.5831ZM10.4759 90.6371L9.67724 91.2389L9.68213 91.2454L9.68713 91.2518L10.4759 90.6371ZM12.9794 92.4659L12.6098 93.3952L12.6225 93.4001L12.9794 92.4659ZM19.9396 92.5014L19.5761 91.5698L19.5722 91.5714L19.9396 92.5014ZM22.1946 90.9212L22.9795 91.5408L22.1946 90.9212ZM22.2656 86.5355L21.504 87.1837L21.5121 87.1929L22.2656 86.5355ZM20.1705 85.1151L19.7765 86.0342L19.7808 86.036L20.1705 85.1151ZM16.8146 84.0497L16.5711 85.0196L16.5803 85.0219L16.8146 84.0497ZM12.8551 83.0554L13.0987 82.0855L13.0915 82.0837L12.8551 83.0554ZM5.59304 79.5575L4.92683 80.3033L5.59304 79.5575ZM2.94744 73.1477L3.94748 73.1521L3.94743 73.1423L2.94744 73.1477ZM4.70526 67.3771L3.89626 66.7893L3.8935 66.7931L4.70526 67.3771ZM23.7926 63.5241L23.3756 64.433L23.3776 64.434L23.7926 63.5241ZM28.5156 67.3771L27.69 67.9414H27.69L28.5156 67.3771ZM30.2557 73.0945V74.0945H31.2722L31.2555 73.0781L30.2557 73.0945ZM23.8822 72.9958C23.7146 71.3057 22.9752 69.926 21.6511 68.9511L20.4653 70.5617C21.2956 71.173 21.7755 72.0186 21.892 73.1931L23.8822 72.9958ZM21.6511 68.9511C20.3476 67.9914 18.6531 67.5668 16.6726 67.5668V69.5668C18.3853 69.5668 19.6145 69.9352 20.4653 70.5617L21.6511 68.9511ZM16.6726 67.5668C15.3296 67.5668 14.1326 67.756 13.1142 68.1745L13.8744 70.0244C14.5843 69.7327 15.5061 69.5668 16.6726 69.5668V67.5668ZM13.1251 68.1701C12.1256 68.5671 11.2989 69.1467 10.7057 69.9376L12.3057 71.1376C12.6358 70.6975 13.1348 70.3183 13.8635 70.0288L13.1251 68.1701ZM10.6983 69.9476C10.12 70.7389 9.83097 71.6451 9.83097 72.6328H11.831C11.831 72.0581 11.9917 71.5674 12.3131 71.1277L10.6983 69.9476ZM9.83163 72.5965C9.8019 73.414 9.97325 74.1818 10.3856 74.858L12.0931 73.8167C11.9136 73.5223 11.8127 73.1537 11.8303 72.6692L9.83163 72.5965ZM10.3948 74.8729C10.7855 75.489 11.3097 76.0063 11.9453 76.4301L13.0547 74.766C12.625 74.4795 12.3087 74.1563 12.0839 73.8018L10.3948 74.8729ZM11.9583 76.4386C12.5609 76.8269 13.2429 77.1593 13.9972 77.4405L14.696 75.5666C14.0535 75.327 13.5044 75.0556 13.0417 74.7574L11.9583 76.4386ZM14.0113 77.4457C14.7513 77.7091 15.5364 77.933 16.3653 78.1186L16.8023 76.1669C16.0451 75.9974 15.3386 75.7952 14.6819 75.5614L14.0113 77.4457ZM16.3512 78.1153L19.6183 78.8966L20.0834 76.9514L16.8164 76.1702L16.3512 78.1153ZM19.6324 78.8998C21.1612 79.2421 22.5529 79.6959 23.8111 80.2576L24.6264 78.4313C23.2331 77.8093 21.7129 77.3161 20.0693 76.9482L19.6324 78.8998ZM23.8111 80.2576C25.0539 80.8124 26.1129 81.487 26.9984 82.2753L28.3283 80.7815C27.2725 79.8416 26.0351 79.0602 24.6264 78.4313L23.8111 80.2576ZM26.9984 82.2753C27.866 83.0476 28.5335 83.9525 29.008 84.9962L30.8287 84.1686C30.2378 82.8685 29.402 81.7374 28.3283 80.7815L26.9984 82.2753ZM29.0114 85.0038C29.4862 86.0256 29.742 87.2241 29.7529 88.6207L31.7528 88.6051C31.74 86.9715 31.4395 85.483 30.8252 84.161L29.0114 85.0038ZM29.7529 88.6076C29.742 90.6577 29.2217 92.3858 28.2246 93.8342L29.872 94.9683C31.1239 93.1497 31.7401 91.0189 31.7528 88.6182L29.7529 88.6076ZM28.2237 93.8355C27.2352 95.2762 25.7878 96.426 23.8261 97.2636L24.6114 99.1029C26.8637 98.1413 28.636 96.7697 29.8729 94.967L28.2237 93.8355ZM23.8286 97.2625C21.8879 98.0848 19.5008 98.5149 16.6371 98.5149V100.515C19.692 100.515 22.3592 100.057 24.6089 99.104L23.8286 97.2625ZM16.6371 98.5149C13.8013 98.5149 11.3796 98.0802 9.34838 97.2412L8.58486 99.0897C10.9097 100.05 13.6016 100.515 16.6371 100.515V98.5149ZM9.35016 97.242C7.34404 96.4088 5.81088 95.1928 4.71108 93.6018L3.06591 94.7391C4.40456 96.6756 6.25681 98.1229 8.58308 99.089L9.35016 97.242ZM4.71542 93.6081C3.63811 92.0239 3.04416 90.0261 2.98838 87.5605L0.988892 87.6057C1.05148 90.3721 1.72411 92.7659 3.06157 94.7328L4.71542 93.6081ZM1.98864 88.5831H9.42827V86.5831H1.98864V88.5831ZM8.43057 87.6509C8.52398 89.0254 8.92384 90.2392 9.67724 91.2389L11.2745 90.0352C10.7968 89.4014 10.4983 88.5792 10.426 87.5153L8.43057 87.6509ZM9.68713 91.2518C10.4343 92.2105 11.4197 92.9218 12.6098 93.3951L13.349 91.5367C12.4558 91.1814 11.7721 90.6735 11.2646 90.0223L9.68713 91.2518ZM12.6225 93.4001C13.8081 93.853 15.1216 94.0696 16.5483 94.0696V92.0696C15.3235 92.0696 14.2577 91.8838 13.3363 91.5318L12.6225 93.4001ZM16.5483 94.0696C17.9444 94.0696 19.205 93.8669 20.3071 93.4315L19.5722 91.5714C18.7567 91.8935 17.7564 92.0696 16.5483 92.0696V94.0696ZM20.3032 93.433C21.4044 93.0033 22.3154 92.382 22.9795 91.5408L21.4097 90.3015C21.0085 90.8098 20.4162 91.242 19.5761 91.5698L20.3032 93.433ZM22.9795 91.5408C23.6543 90.686 23.9936 89.6914 23.9936 88.5952H21.9936C21.9936 89.2509 21.8002 89.8069 21.4097 90.3015L22.9795 91.5408ZM23.9936 88.5952C23.9936 87.5643 23.6807 86.6364 23.0192 85.8781L21.5121 87.1929C21.8212 87.5473 21.9936 87.9925 21.9936 88.5952H23.9936ZM23.0272 85.8874C22.4222 85.1766 21.5763 84.624 20.5601 84.1941L19.7808 86.036C20.6112 86.3873 21.162 86.7817 21.5041 87.1836L23.0272 85.8874ZM20.5644 84.1959C19.5862 83.7767 18.4106 83.4058 17.049 83.0776L16.5803 85.0219C17.8702 85.3328 18.9318 85.6722 19.7765 86.0342L20.5644 84.1959ZM17.0582 83.0798L13.0987 82.0855L12.6116 84.0253L16.5711 85.0196L17.0582 83.0798ZM13.0915 82.0837C10.1353 81.3647 7.87892 80.2587 6.25925 78.8118L4.92683 80.3033C6.8583 82.0287 9.44327 83.2546 12.6188 84.0271L13.0915 82.0837ZM6.25925 78.8118C4.72596 77.442 3.93668 75.5938 3.94743 73.1521L1.94745 73.1433C1.93454 76.0757 2.90898 78.5007 4.92683 80.3033L6.25925 78.8118ZM3.94743 73.1423C3.93662 71.1328 4.46755 69.4199 5.51701 67.9611L3.8935 66.7931C2.57554 68.6251 1.93459 70.7592 1.94746 73.1531L3.94743 73.1423ZM5.51424 67.965C6.59424 66.4786 8.0866 65.2991 10.0288 64.4384L9.2184 62.6099C6.99389 63.5958 5.20737 64.9849 3.89627 66.7893L5.51424 67.965ZM10.0288 64.4384C11.9653 63.5801 14.1913 63.1392 16.7259 63.1392V61.1392C13.9574 61.1392 11.4485 61.6216 9.2184 62.6099L10.0288 64.4384ZM16.7259 63.1392C19.3116 63.1392 21.5195 63.5814 23.3756 64.433L24.2096 62.6152C22.0411 61.6203 19.5378 61.1392 16.7259 61.1392V63.1392ZM23.3776 64.434C25.2558 65.2907 26.68 66.4635 27.69 67.9414L29.3412 66.8129C28.1022 65.0001 26.3778 63.6042 24.2076 62.6143L23.3776 64.434ZM27.69 67.9414C28.6945 69.411 29.2232 71.1226 29.2558 73.1108L31.2555 73.0781C31.2171 70.7339 30.5858 68.6339 29.3412 66.8129L27.69 67.9414ZM30.2557 72.0945H22.8871V74.0945H30.2557V72.0945ZM44.1096 99L43.1481 99.2751L43.3556 100H44.1096V99ZM33.7047 62.6364V61.6364H32.3785L32.7433 62.9115L33.7047 62.6364ZM42.1032 62.6364L43.0759 62.4046L42.8929 61.6364H42.1032V62.6364ZM48.1223 87.9027L47.1496 88.1344L47.3326 88.9027H48.1223V87.9027ZM48.4242 87.9027V88.9027H49.1953L49.3913 88.1569L48.4242 87.9027ZM55.0648 62.6364V61.6364H54.2937L54.0977 62.3822L55.0648 62.6364ZM62.2559 62.6364L63.2233 62.3833L63.0279 61.6364H62.2559V62.6364ZM68.8787 87.956L67.9113 88.209L68.1067 88.956H68.8787V87.956ZM69.1983 87.956V88.956H69.9885L70.1712 88.1872L69.1983 87.956ZM75.2175 62.6364V61.6364H74.4274L74.2446 62.4051L75.2175 62.6364ZM83.6159 62.6364L84.5774 62.9115L84.9422 61.6364H83.6159V62.6364ZM73.2111 99V100H73.9651L74.1725 99.2751L73.2111 99ZM65.7182 99L64.7581 99.2796L64.9679 100H65.7182V99ZM58.7935 75.2251L59.7536 74.9455L59.5438 74.2251H58.7935V75.2251ZM58.5094 75.2251V74.2251H57.7586L57.5491 74.9462L58.5094 75.2251ZM51.6025 99V100H52.3533L52.5627 99.279L51.6025 99ZM45.071 98.7249L34.6661 62.3613L32.7433 62.9115L43.1481 99.2751L45.071 98.7249ZM33.7047 63.6364H42.1032V61.6364H33.7047V63.6364ZM41.1304 62.8681L47.1496 88.1344L49.0951 87.671L43.0759 62.4046L41.1304 62.8681ZM48.1223 88.9027H48.4242V86.9027H48.1223V88.9027ZM49.3913 88.1569L56.032 62.8906L54.0977 62.3822L47.457 87.6485L49.3913 88.1569ZM55.0648 63.6364H62.2559V61.6364H55.0648V63.6364ZM61.2884 62.8894L67.9113 88.209L69.8462 87.7029L63.2233 62.3833L61.2884 62.8894ZM68.8787 88.956H69.1983V86.956H68.8787V88.956ZM70.1712 88.1872L76.1904 62.8676L74.2446 62.4051L68.2254 87.7247L70.1712 88.1872ZM75.2175 63.6364H83.6159V61.6364H75.2175V63.6364ZM82.6545 62.3613L72.2497 98.7249L74.1725 99.2751L84.5774 62.9115L82.6545 62.3613ZM73.2111 98H65.7182V100H73.2111V98ZM66.6783 98.7204L59.7536 74.9455L57.8334 75.5048L64.7581 99.2796L66.6783 98.7204ZM58.7935 74.2251H58.5094V76.2251H58.7935V74.2251ZM57.5491 74.9462L50.6422 98.721L52.5627 99.279L59.4697 75.5041L57.5491 74.9462ZM51.6025 98H44.1096V100H51.6025V98ZM90.3365 99V100H91.0627L91.2874 99.3094L90.3365 99ZM82.0978 99L81.1526 98.6737L80.6947 100H82.0978V99ZM94.6511 62.6364V61.6364H93.9384L93.7058 62.31L94.6511 62.6364ZM104.559 62.6364L105.504 62.3105L105.272 61.6364H104.559V62.6364ZM117.094 99V100H118.497L118.04 98.6741L117.094 99ZM108.856 99L107.905 99.3088L108.129 100H108.856V99ZM99.747 70.946L100.698 70.6372L100.474 69.946H99.747V70.946ZM99.4629 70.946V69.946H98.7366L98.5119 70.6367L99.4629 70.946ZM89.8216 84.7067V83.7067H88.8216V84.7067H89.8216ZM109.282 84.7067H110.282V83.7067H109.282V84.7067ZM109.282 90.7081V91.7081H110.282V90.7081H109.282ZM89.8216 90.7081H88.8216V91.7081H89.8216V90.7081ZM90.3365 98H82.0978V100H90.3365V98ZM83.0431 99.3263L95.5964 62.9627L93.7058 62.31L81.1526 98.6737L83.0431 99.3263ZM94.6511 63.6364H104.559V61.6364H94.6511V63.6364ZM103.613 62.9623L116.149 99.3259L118.04 98.6741L105.504 62.3105L103.613 62.9623ZM117.094 98H108.856V100H117.094V98ZM109.807 98.6912L100.698 70.6372L98.7959 71.2548L107.905 99.3088L109.807 98.6912ZM99.747 69.946H99.4629V71.946H99.747V69.946ZM98.5119 70.6367L89.3855 98.6906L91.2874 99.3094L100.414 71.2554L98.5119 70.6367ZM89.8216 85.7067H109.282V83.7067H89.8216V85.7067ZM108.282 84.7067V90.7081H110.282V84.7067H108.282ZM109.282 89.7081H89.8216V91.7081H109.282V89.7081ZM90.8216 90.7081V84.7067H88.8216V90.7081H90.8216ZM121.471 99H120.471V100H121.471V99ZM121.471 62.6364V61.6364H120.471V62.6364H121.471ZM142.867 64.2166L142.39 65.0955L142.394 65.0978L142.867 64.2166ZM147.306 68.5668L146.429 69.0472L146.432 69.0538L147.306 68.5668ZM142.76 85.6655L142.298 84.7786L142.296 84.7798L142.76 85.6655ZM126.478 87.2102H125.478V88.2102H126.478V87.2102ZM126.478 81.049V80.049H125.478V81.049H126.478ZM138.037 80.2855L138.506 81.1688L138.51 81.1667L138.037 80.2855ZM140.203 78.1371L139.318 77.6718L139.316 77.6761L140.203 78.1371ZM140.203 71.7983L139.316 72.2593L139.32 72.2662L139.323 72.2731L140.203 71.7983ZM138.037 69.6854L137.573 70.571L137.581 70.5754L138.037 69.6854ZM129.159 68.9219V67.9219H128.159V68.9219H129.159ZM129.159 99V100H130.159V99H129.159ZM122.471 99V62.6364H120.471V99H122.471ZM121.471 63.6364H135.818V61.6364H121.471V63.6364ZM135.818 63.6364C138.45 63.6364 140.627 64.1389 142.39 65.0955L143.344 63.3377C141.224 62.1873 138.702 61.6364 135.818 61.6364V63.6364ZM142.394 65.0978C144.172 66.0517 145.507 67.3656 146.429 69.0472L148.183 68.0863C147.068 66.051 145.444 64.4649 143.339 63.3355L142.394 65.0978ZM146.432 69.0538C147.368 70.7315 147.85 72.69 147.85 74.9588H149.85C149.85 72.3981 149.303 70.0952 148.179 68.0797L146.432 69.0538ZM147.85 74.9588C147.85 77.2257 147.363 79.1827 146.417 80.8595L148.159 81.8422C149.296 79.8258 149.85 77.5214 149.85 74.9588H147.85ZM146.417 80.8595C145.475 82.5286 144.112 83.8334 142.298 84.7786L143.222 86.5524C145.361 85.4379 147.017 83.8663 148.159 81.8422L146.417 80.8595ZM142.296 84.7798C140.507 85.7176 138.295 86.2102 135.622 86.2102V88.2102C138.537 88.2102 141.084 87.6731 143.224 86.5512L142.296 84.7798ZM135.622 86.2102H126.478V88.2102H135.622V86.2102ZM127.478 87.2102V81.049H125.478V87.2102H127.478ZM126.478 82.049H134.379V80.049H126.478V82.049ZM134.379 82.049C135.966 82.049 137.36 81.7772 138.506 81.1688L137.568 79.4023C136.797 79.8119 135.752 80.049 134.379 80.049V82.049ZM138.51 81.1667C139.644 80.5579 140.518 79.7012 141.091 78.5981L139.316 77.6761C138.942 78.3958 138.371 78.9714 137.564 79.4044L138.51 81.1667ZM141.088 78.6023C141.66 77.5158 141.931 76.2926 141.931 74.9588H139.931C139.931 76.0161 139.718 76.9117 139.318 77.6718L141.088 78.6023ZM141.931 74.9588C141.931 73.6157 141.661 72.3933 141.083 71.3235L139.323 72.2731C139.717 73.0025 139.931 73.8871 139.931 74.9588H141.931ZM141.091 71.3373C140.515 70.2298 139.636 69.381 138.493 68.7953L137.581 70.5754C138.379 70.9841 138.944 71.5439 139.316 72.2593L141.091 71.3373ZM138.502 68.7998C137.345 68.1935 135.942 67.9219 134.344 67.9219V69.9219C135.729 69.9219 136.788 70.1593 137.573 70.571L138.502 68.7998ZM134.344 67.9219H129.159V69.9219H134.344V67.9219ZM128.159 68.9219V99H130.159V68.9219H128.159ZM129.159 98H121.471V100H129.159V98Z" fill="#FFB9EB" mask="url(#path-1-outside-1_224_380)"/>
  </svg>
