<svg width="316" height="162" viewBox="0 0 316 162" fill="none" xmlns="http://www.w3.org/2000/svg">
  <mask id="path-1-outside-1_224_404" maskUnits="userSpaceOnUse" x="0" y="0" width="316" height="162" fill="black">
  <rect fill="white" width="316" height="162"/>
  <path d="M26.2727 13.3906C26.0241 12.5265 25.675 11.763 25.2251 11.1001C24.7753 10.4254 24.2249 9.85724 23.5739 9.3956C22.9347 8.92211 22.2008 8.56108 21.3722 8.3125C20.5554 8.06392 19.6499 7.93963 18.6555 7.93963C16.7971 7.93963 15.1636 8.40128 13.755 9.32457C12.3582 10.2479 11.2692 11.5914 10.4879 13.3551C9.70668 15.107 9.31605 17.2495 9.31605 19.7827C9.31605 22.3158 9.70076 24.4702 10.4702 26.2457C11.2396 28.0213 12.3286 29.3767 13.7372 30.3118C15.1458 31.2351 16.8089 31.6967 18.7266 31.6967C20.4666 31.6967 21.9522 31.389 23.1832 30.7734C24.4261 30.1461 25.3731 29.2642 26.0241 28.1278C26.687 26.9915 27.0185 25.648 27.0185 24.0973L28.581 24.3281H19.206V18.5398H34.4226V23.1207C34.4226 26.3168 33.7479 29.063 32.3984 31.3594C31.049 33.6439 29.1906 35.4077 26.8232 36.6506C24.4557 37.8816 21.745 38.4972 18.6911 38.4972C15.282 38.4972 12.2872 37.7455 9.70668 36.2422C7.12618 34.727 5.11387 32.5786 3.66974 29.7969C2.23745 27.0033 1.52131 23.6889 1.52131 19.8537C1.52131 16.9062 1.94744 14.2784 2.79972 11.9702C3.66383 9.65009 4.87121 7.68513 6.42188 6.07528C7.97254 4.46543 9.7777 3.24029 11.8374 2.39986C13.897 1.55942 16.1283 1.1392 18.5312 1.1392C20.5909 1.1392 22.5085 1.44105 24.2841 2.04474C26.0597 2.6366 27.634 3.47704 29.0071 4.56605C30.392 5.65506 31.5225 6.95123 32.3984 8.45454C33.2744 9.94602 33.8366 11.5914 34.0852 13.3906H26.2727ZM40.1976 1.63636H49.6792L59.6934 26.0682H60.1195L70.1337 1.63636H79.6152V38H72.1578V14.3317H71.856L62.4455 37.8224H57.3674L47.9569 14.2429H47.655V38H40.1976V1.63636ZM26.2727 74.3906C26.0241 73.5265 25.675 72.763 25.2251 72.1001C24.7753 71.4254 24.2249 70.8572 23.5739 70.3956C22.9347 69.9221 22.2008 69.5611 21.3722 69.3125C20.5554 69.0639 19.6499 68.9396 18.6555 68.9396C16.7971 68.9396 15.1636 69.4013 13.755 70.3246C12.3582 71.2479 11.2692 72.5914 10.4879 74.3551C9.70668 76.107 9.31605 78.2495 9.31605 80.7827C9.31605 83.3158 9.70076 85.4702 10.4702 87.2457C11.2396 89.0213 12.3286 90.3767 13.7372 91.3118C15.1458 92.2351 16.8089 92.6967 18.7266 92.6967C20.4666 92.6967 21.9522 92.389 23.1832 91.7734C24.4261 91.1461 25.3731 90.2642 26.0241 89.1278C26.687 87.9915 27.0185 86.648 27.0185 85.0973L28.581 85.3281H19.206V79.5398H34.4226V84.1207C34.4226 87.3168 33.7479 90.063 32.3984 92.3594C31.049 94.6439 29.1906 96.4077 26.8232 97.6506C24.4557 98.8816 21.745 99.4972 18.6911 99.4972C15.282 99.4972 12.2872 98.7455 9.70668 97.2422C7.12618 95.727 5.11387 93.5786 3.66974 90.7969C2.23745 88.0033 1.52131 84.6889 1.52131 80.8537C1.52131 77.9062 1.94744 75.2784 2.79972 72.9702C3.66383 70.6501 4.87121 68.6851 6.42188 67.0753C7.97254 65.4654 9.7777 64.2403 11.8374 63.3999C13.897 62.5594 16.1283 62.1392 18.5312 62.1392C20.5909 62.1392 22.5085 62.4411 24.2841 63.0447C26.0597 63.6366 27.634 64.477 29.0071 65.5661C30.392 66.6551 31.5225 67.9512 32.3984 69.4545C33.2744 70.946 33.8366 72.5914 34.0852 74.3906H26.2727ZM45.3423 99H37.1037L49.657 62.6364H59.5646L72.1001 99H63.8615L54.7528 70.946H54.4688L45.3423 99ZM44.8274 84.7067H64.2876V90.7081H44.8274V84.7067ZM76.4769 62.6364H85.9585L95.9727 87.0682H96.3988L106.413 62.6364H115.895V99H108.437V75.3317H108.135L98.7248 98.8224H93.6467L84.2362 75.2429H83.9343V99H76.4769V62.6364ZM129.917 62.6364V99H122.229V62.6364H129.917ZM166.658 62.6364V99H160.017L144.197 76.1129H143.931V99H136.243V62.6364H142.99L158.686 85.5057H159.005V62.6364H166.658ZM197.122 74.3906C196.874 73.5265 196.525 72.763 196.075 72.1001C195.625 71.4254 195.075 70.8572 194.423 70.3956C193.784 69.9221 193.05 69.5611 192.222 69.3125C191.405 69.0639 190.499 68.9396 189.505 68.9396C187.647 68.9396 186.013 69.4013 184.605 70.3246C183.208 71.2479 182.119 72.5914 181.338 74.3551C180.556 76.107 180.166 78.2495 180.166 80.7827C180.166 83.3158 180.55 85.4702 181.32 87.2457C182.089 89.0213 183.178 90.3767 184.587 91.3118C185.995 92.2351 187.659 92.6967 189.576 92.6967C191.316 92.6967 192.802 92.389 194.033 91.7734C195.276 91.1461 196.223 90.2642 196.874 89.1278C197.537 87.9915 197.868 86.648 197.868 85.0973L199.431 85.3281H190.056V79.5398H205.272V84.1207C205.272 87.3168 204.597 90.063 203.248 92.3594C201.899 94.6439 200.04 96.4077 197.673 97.6506C195.305 98.8816 192.595 99.4972 189.541 99.4972C186.132 99.4972 183.137 98.7455 180.556 97.2422C177.976 95.727 175.963 93.5786 174.519 90.7969C173.087 88.0033 172.371 84.6889 172.371 80.8537C172.371 77.9062 172.797 75.2784 173.649 72.9702C174.513 70.6501 175.721 68.6851 177.271 67.0753C178.822 65.4654 180.627 64.2403 182.687 63.3999C184.747 62.5594 186.978 62.1392 189.381 62.1392C191.441 62.1392 193.358 62.4411 195.134 63.0447C196.909 63.6366 198.484 64.477 199.857 65.5661C201.242 66.6551 202.372 67.9512 203.248 69.4545C204.124 70.946 204.686 72.5914 204.935 74.3906H197.122ZM2.16051 160V123.636H26.6634V129.975H9.84872V138.64H25.4027V144.979H9.84872V153.661H26.7344V160H2.16051ZM64.8603 136.367H57.0833C56.9412 135.361 56.6512 134.467 56.2132 133.686C55.7753 132.893 55.213 132.218 54.5265 131.662C53.8399 131.106 53.0468 130.679 52.1472 130.384C51.2594 130.088 50.2947 129.94 49.253 129.94C47.3709 129.94 45.7315 130.407 44.3347 131.342C42.9379 132.266 41.8548 133.615 41.0854 135.391C40.316 137.154 39.9313 139.297 39.9313 141.818C39.9313 144.411 40.316 146.589 41.0854 148.352C41.8667 150.116 42.9557 151.448 44.3525 152.347C45.7492 153.247 47.365 153.697 49.1998 153.697C50.2296 153.697 51.1825 153.561 52.0584 153.288C52.9462 153.016 53.7334 152.62 54.4199 152.099C55.1065 151.566 55.6747 150.921 56.1245 150.163C56.5861 149.406 56.9057 148.542 57.0833 147.571L64.8603 147.607C64.659 149.276 64.156 150.885 63.351 152.436C62.5579 153.975 61.4867 155.354 60.1373 156.573C58.7997 157.781 57.2016 158.739 55.3432 159.45C53.4966 160.148 51.4074 160.497 49.0755 160.497C45.8321 160.497 42.932 159.763 40.3752 158.295C37.8302 156.828 35.8179 154.703 34.3382 151.921C32.8704 149.139 32.1365 145.772 32.1365 141.818C32.1365 137.853 32.8823 134.479 34.3738 131.697C35.8652 128.916 37.8894 126.797 40.4462 125.341C43.003 123.873 45.8794 123.139 49.0755 123.139C51.1825 123.139 53.1356 123.435 54.9348 124.027C56.7459 124.619 58.3498 125.483 59.7466 126.619C61.1434 127.744 62.2798 129.123 63.1557 130.756C64.0435 132.39 64.6117 134.26 64.8603 136.367ZM103.79 141.818C103.79 145.784 103.038 149.157 101.535 151.939C100.043 154.721 98.0072 156.845 95.4267 158.313C92.858 159.769 89.9698 160.497 86.7619 160.497C83.5304 160.497 80.6303 159.763 78.0616 158.295C75.493 156.828 73.4629 154.703 71.9714 151.921C70.4799 149.139 69.7342 145.772 69.7342 141.818C69.7342 137.853 70.4799 134.479 71.9714 131.697C73.4629 128.916 75.493 126.797 78.0616 125.341C80.6303 123.873 83.5304 123.139 86.7619 123.139C89.9698 123.139 92.858 123.873 95.4267 125.341C98.0072 126.797 100.043 128.916 101.535 131.697C103.038 134.479 103.79 137.853 103.79 141.818ZM95.9949 141.818C95.9949 139.25 95.6101 137.083 94.8407 135.32C94.0832 133.556 93.0119 132.218 91.627 131.307C90.242 130.395 88.6203 129.94 86.7619 129.94C84.9035 129.94 83.2818 130.395 81.8968 131.307C80.5119 132.218 79.4347 133.556 78.6653 135.32C77.9077 137.083 77.5289 139.25 77.5289 141.818C77.5289 144.387 77.9077 146.553 78.6653 148.317C79.4347 150.08 80.5119 151.418 81.8968 152.33C83.2818 153.241 84.9035 153.697 86.7619 153.697C88.6203 153.697 90.242 153.241 91.627 152.33C93.0119 151.418 94.0832 150.08 94.8407 148.317C95.6101 146.553 95.9949 144.387 95.9949 141.818ZM129.211 134.094C129.069 132.662 128.46 131.549 127.382 130.756C126.305 129.963 124.843 129.567 122.997 129.567C121.742 129.567 120.683 129.744 119.819 130.099C118.954 130.443 118.292 130.922 117.83 131.538C117.38 132.153 117.155 132.852 117.155 133.633C117.132 134.284 117.268 134.852 117.564 135.337C117.871 135.823 118.292 136.243 118.824 136.598C119.357 136.941 119.972 137.243 120.671 137.504C121.369 137.752 122.115 137.965 122.908 138.143L126.175 138.924C127.761 139.279 129.217 139.753 130.543 140.344C131.869 140.936 133.017 141.664 133.988 142.528C134.958 143.393 135.71 144.411 136.243 145.582C136.787 146.754 137.065 148.098 137.077 149.613C137.065 151.838 136.497 153.768 135.373 155.401C134.26 157.023 132.65 158.284 130.543 159.183C128.448 160.071 125.921 160.515 122.961 160.515C120.026 160.515 117.469 160.065 115.291 159.165C113.125 158.266 111.432 156.934 110.213 155.17C109.005 153.395 108.372 151.199 108.313 148.583H115.752C115.835 149.802 116.185 150.82 116.8 151.637C117.427 152.442 118.262 153.052 119.304 153.466C120.357 153.868 121.547 154.07 122.873 154.07C124.175 154.07 125.305 153.88 126.264 153.501C127.234 153.123 127.986 152.596 128.519 151.921C129.051 151.246 129.318 150.471 129.318 149.595C129.318 148.778 129.075 148.092 128.59 147.536C128.116 146.979 127.418 146.506 126.495 146.115C125.583 145.724 124.465 145.369 123.139 145.05L119.179 144.055C116.114 143.31 113.693 142.144 111.917 140.558C110.142 138.971 109.26 136.835 109.272 134.148C109.26 131.946 109.846 130.022 111.029 128.377C112.225 126.732 113.864 125.447 115.948 124.524C118.031 123.601 120.399 123.139 123.05 123.139C125.749 123.139 128.105 123.601 130.117 124.524C132.141 125.447 133.715 126.732 134.84 128.377C135.964 130.022 136.544 131.928 136.58 134.094H129.211ZM140.118 123.636H148.729L157.021 139.297H157.376L165.668 123.636H174.28L161.016 147.145V160H153.381V147.145L140.118 123.636ZM198.205 134.094C198.063 132.662 197.454 131.549 196.377 130.756C195.299 129.963 193.838 129.567 191.991 129.567C190.736 129.567 189.677 129.744 188.813 130.099C187.949 130.443 187.286 130.922 186.824 131.538C186.374 132.153 186.149 132.852 186.149 133.633C186.126 134.284 186.262 134.852 186.558 135.337C186.865 135.823 187.286 136.243 187.818 136.598C188.351 136.941 188.967 137.243 189.665 137.504C190.363 137.752 191.109 137.965 191.902 138.143L195.169 138.924C196.755 139.279 198.211 139.753 199.537 140.344C200.863 140.936 202.011 141.664 202.982 142.528C203.952 143.393 204.704 144.411 205.237 145.582C205.781 146.754 206.059 148.098 206.071 149.613C206.059 151.838 205.491 153.768 204.367 155.401C203.254 157.023 201.644 158.284 199.537 159.183C197.442 160.071 194.915 160.515 191.955 160.515C189.02 160.515 186.463 160.065 184.285 159.165C182.119 158.266 180.426 156.934 179.207 155.17C177.999 153.395 177.366 151.199 177.307 148.583H184.747C184.829 149.802 185.179 150.82 185.794 151.637C186.422 152.442 187.256 153.052 188.298 153.466C189.351 153.868 190.541 154.07 191.867 154.07C193.169 154.07 194.299 153.88 195.258 153.501C196.229 153.123 196.98 152.596 197.513 151.921C198.046 151.246 198.312 150.471 198.312 149.595C198.312 148.778 198.069 148.092 197.584 147.536C197.11 146.979 196.412 146.506 195.489 146.115C194.577 145.724 193.459 145.369 192.133 145.05L188.173 144.055C185.108 143.31 182.687 142.144 180.911 140.558C179.136 138.971 178.254 136.835 178.266 134.148C178.254 131.946 178.84 130.022 180.024 128.377C181.219 126.732 182.859 125.447 184.942 124.524C187.025 123.601 189.393 123.139 192.044 123.139C194.743 123.139 197.099 123.601 199.111 124.524C201.135 125.447 202.709 126.732 203.834 128.377C204.959 130.022 205.539 131.928 205.574 134.094H198.205ZM209.858 129.975V123.636H239.723V129.975H228.59V160H220.99V129.975H209.858ZM244.641 160V123.636H269.144V129.975H252.329V138.64H267.883V144.979H252.329V153.661H269.215V160H244.641ZM275.256 123.636H284.738L294.752 148.068H295.178L305.192 123.636H314.674V160H307.216V136.332H306.915L297.504 159.822H292.426L283.015 136.243H282.714V160H275.256V123.636Z"/>
  </mask>
  <path d="M26.2727 13.3906C26.0241 12.5265 25.675 11.763 25.2251 11.1001C24.7753 10.4254 24.2249 9.85724 23.5739 9.3956C22.9347 8.92211 22.2008 8.56108 21.3722 8.3125C20.5554 8.06392 19.6499 7.93963 18.6555 7.93963C16.7971 7.93963 15.1636 8.40128 13.755 9.32457C12.3582 10.2479 11.2692 11.5914 10.4879 13.3551C9.70668 15.107 9.31605 17.2495 9.31605 19.7827C9.31605 22.3158 9.70076 24.4702 10.4702 26.2457C11.2396 28.0213 12.3286 29.3767 13.7372 30.3118C15.1458 31.2351 16.8089 31.6967 18.7266 31.6967C20.4666 31.6967 21.9522 31.389 23.1832 30.7734C24.4261 30.1461 25.3731 29.2642 26.0241 28.1278C26.687 26.9915 27.0185 25.648 27.0185 24.0973L28.581 24.3281H19.206V18.5398H34.4226V23.1207C34.4226 26.3168 33.7479 29.063 32.3984 31.3594C31.049 33.6439 29.1906 35.4077 26.8232 36.6506C24.4557 37.8816 21.745 38.4972 18.6911 38.4972C15.282 38.4972 12.2872 37.7455 9.70668 36.2422C7.12618 34.727 5.11387 32.5786 3.66974 29.7969C2.23745 27.0033 1.52131 23.6889 1.52131 19.8537C1.52131 16.9062 1.94744 14.2784 2.79972 11.9702C3.66383 9.65009 4.87121 7.68513 6.42188 6.07528C7.97254 4.46543 9.7777 3.24029 11.8374 2.39986C13.897 1.55942 16.1283 1.1392 18.5312 1.1392C20.5909 1.1392 22.5085 1.44105 24.2841 2.04474C26.0597 2.6366 27.634 3.47704 29.0071 4.56605C30.392 5.65506 31.5225 6.95123 32.3984 8.45454C33.2744 9.94602 33.8366 11.5914 34.0852 13.3906H26.2727ZM40.1976 1.63636H49.6792L59.6934 26.0682H60.1195L70.1337 1.63636H79.6152V38H72.1578V14.3317H71.856L62.4455 37.8224H57.3674L47.9569 14.2429H47.655V38H40.1976V1.63636ZM26.2727 74.3906C26.0241 73.5265 25.675 72.763 25.2251 72.1001C24.7753 71.4254 24.2249 70.8572 23.5739 70.3956C22.9347 69.9221 22.2008 69.5611 21.3722 69.3125C20.5554 69.0639 19.6499 68.9396 18.6555 68.9396C16.7971 68.9396 15.1636 69.4013 13.755 70.3246C12.3582 71.2479 11.2692 72.5914 10.4879 74.3551C9.70668 76.107 9.31605 78.2495 9.31605 80.7827C9.31605 83.3158 9.70076 85.4702 10.4702 87.2457C11.2396 89.0213 12.3286 90.3767 13.7372 91.3118C15.1458 92.2351 16.8089 92.6967 18.7266 92.6967C20.4666 92.6967 21.9522 92.389 23.1832 91.7734C24.4261 91.1461 25.3731 90.2642 26.0241 89.1278C26.687 87.9915 27.0185 86.648 27.0185 85.0973L28.581 85.3281H19.206V79.5398H34.4226V84.1207C34.4226 87.3168 33.7479 90.063 32.3984 92.3594C31.049 94.6439 29.1906 96.4077 26.8232 97.6506C24.4557 98.8816 21.745 99.4972 18.6911 99.4972C15.282 99.4972 12.2872 98.7455 9.70668 97.2422C7.12618 95.727 5.11387 93.5786 3.66974 90.7969C2.23745 88.0033 1.52131 84.6889 1.52131 80.8537C1.52131 77.9062 1.94744 75.2784 2.79972 72.9702C3.66383 70.6501 4.87121 68.6851 6.42188 67.0753C7.97254 65.4654 9.7777 64.2403 11.8374 63.3999C13.897 62.5594 16.1283 62.1392 18.5312 62.1392C20.5909 62.1392 22.5085 62.4411 24.2841 63.0447C26.0597 63.6366 27.634 64.477 29.0071 65.5661C30.392 66.6551 31.5225 67.9512 32.3984 69.4545C33.2744 70.946 33.8366 72.5914 34.0852 74.3906H26.2727ZM45.3423 99H37.1037L49.657 62.6364H59.5646L72.1001 99H63.8615L54.7528 70.946H54.4688L45.3423 99ZM44.8274 84.7067H64.2876V90.7081H44.8274V84.7067ZM76.4769 62.6364H85.9585L95.9727 87.0682H96.3988L106.413 62.6364H115.895V99H108.437V75.3317H108.135L98.7248 98.8224H93.6467L84.2362 75.2429H83.9343V99H76.4769V62.6364ZM129.917 62.6364V99H122.229V62.6364H129.917ZM166.658 62.6364V99H160.017L144.197 76.1129H143.931V99H136.243V62.6364H142.99L158.686 85.5057H159.005V62.6364H166.658ZM197.122 74.3906C196.874 73.5265 196.525 72.763 196.075 72.1001C195.625 71.4254 195.075 70.8572 194.423 70.3956C193.784 69.9221 193.05 69.5611 192.222 69.3125C191.405 69.0639 190.499 68.9396 189.505 68.9396C187.647 68.9396 186.013 69.4013 184.605 70.3246C183.208 71.2479 182.119 72.5914 181.338 74.3551C180.556 76.107 180.166 78.2495 180.166 80.7827C180.166 83.3158 180.55 85.4702 181.32 87.2457C182.089 89.0213 183.178 90.3767 184.587 91.3118C185.995 92.2351 187.659 92.6967 189.576 92.6967C191.316 92.6967 192.802 92.389 194.033 91.7734C195.276 91.1461 196.223 90.2642 196.874 89.1278C197.537 87.9915 197.868 86.648 197.868 85.0973L199.431 85.3281H190.056V79.5398H205.272V84.1207C205.272 87.3168 204.597 90.063 203.248 92.3594C201.899 94.6439 200.04 96.4077 197.673 97.6506C195.305 98.8816 192.595 99.4972 189.541 99.4972C186.132 99.4972 183.137 98.7455 180.556 97.2422C177.976 95.727 175.963 93.5786 174.519 90.7969C173.087 88.0033 172.371 84.6889 172.371 80.8537C172.371 77.9062 172.797 75.2784 173.649 72.9702C174.513 70.6501 175.721 68.6851 177.271 67.0753C178.822 65.4654 180.627 64.2403 182.687 63.3999C184.747 62.5594 186.978 62.1392 189.381 62.1392C191.441 62.1392 193.358 62.4411 195.134 63.0447C196.909 63.6366 198.484 64.477 199.857 65.5661C201.242 66.6551 202.372 67.9512 203.248 69.4545C204.124 70.946 204.686 72.5914 204.935 74.3906H197.122ZM2.16051 160V123.636H26.6634V129.975H9.84872V138.64H25.4027V144.979H9.84872V153.661H26.7344V160H2.16051ZM64.8603 136.367H57.0833C56.9412 135.361 56.6512 134.467 56.2132 133.686C55.7753 132.893 55.213 132.218 54.5265 131.662C53.8399 131.106 53.0468 130.679 52.1472 130.384C51.2594 130.088 50.2947 129.94 49.253 129.94C47.3709 129.94 45.7315 130.407 44.3347 131.342C42.9379 132.266 41.8548 133.615 41.0854 135.391C40.316 137.154 39.9313 139.297 39.9313 141.818C39.9313 144.411 40.316 146.589 41.0854 148.352C41.8667 150.116 42.9557 151.448 44.3525 152.347C45.7492 153.247 47.365 153.697 49.1998 153.697C50.2296 153.697 51.1825 153.561 52.0584 153.288C52.9462 153.016 53.7334 152.62 54.4199 152.099C55.1065 151.566 55.6747 150.921 56.1245 150.163C56.5861 149.406 56.9057 148.542 57.0833 147.571L64.8603 147.607C64.659 149.276 64.156 150.885 63.351 152.436C62.5579 153.975 61.4867 155.354 60.1373 156.573C58.7997 157.781 57.2016 158.739 55.3432 159.45C53.4966 160.148 51.4074 160.497 49.0755 160.497C45.8321 160.497 42.932 159.763 40.3752 158.295C37.8302 156.828 35.8179 154.703 34.3382 151.921C32.8704 149.139 32.1365 145.772 32.1365 141.818C32.1365 137.853 32.8823 134.479 34.3738 131.697C35.8652 128.916 37.8894 126.797 40.4462 125.341C43.003 123.873 45.8794 123.139 49.0755 123.139C51.1825 123.139 53.1356 123.435 54.9348 124.027C56.7459 124.619 58.3498 125.483 59.7466 126.619C61.1434 127.744 62.2798 129.123 63.1557 130.756C64.0435 132.39 64.6117 134.26 64.8603 136.367ZM103.79 141.818C103.79 145.784 103.038 149.157 101.535 151.939C100.043 154.721 98.0072 156.845 95.4267 158.313C92.858 159.769 89.9698 160.497 86.7619 160.497C83.5304 160.497 80.6303 159.763 78.0616 158.295C75.493 156.828 73.4629 154.703 71.9714 151.921C70.4799 149.139 69.7342 145.772 69.7342 141.818C69.7342 137.853 70.4799 134.479 71.9714 131.697C73.4629 128.916 75.493 126.797 78.0616 125.341C80.6303 123.873 83.5304 123.139 86.7619 123.139C89.9698 123.139 92.858 123.873 95.4267 125.341C98.0072 126.797 100.043 128.916 101.535 131.697C103.038 134.479 103.79 137.853 103.79 141.818ZM95.9949 141.818C95.9949 139.25 95.6101 137.083 94.8407 135.32C94.0832 133.556 93.0119 132.218 91.627 131.307C90.242 130.395 88.6203 129.94 86.7619 129.94C84.9035 129.94 83.2818 130.395 81.8968 131.307C80.5119 132.218 79.4347 133.556 78.6653 135.32C77.9077 137.083 77.5289 139.25 77.5289 141.818C77.5289 144.387 77.9077 146.553 78.6653 148.317C79.4347 150.08 80.5119 151.418 81.8968 152.33C83.2818 153.241 84.9035 153.697 86.7619 153.697C88.6203 153.697 90.242 153.241 91.627 152.33C93.0119 151.418 94.0832 150.08 94.8407 148.317C95.6101 146.553 95.9949 144.387 95.9949 141.818ZM129.211 134.094C129.069 132.662 128.46 131.549 127.382 130.756C126.305 129.963 124.843 129.567 122.997 129.567C121.742 129.567 120.683 129.744 119.819 130.099C118.954 130.443 118.292 130.922 117.83 131.538C117.38 132.153 117.155 132.852 117.155 133.633C117.132 134.284 117.268 134.852 117.564 135.337C117.871 135.823 118.292 136.243 118.824 136.598C119.357 136.941 119.972 137.243 120.671 137.504C121.369 137.752 122.115 137.965 122.908 138.143L126.175 138.924C127.761 139.279 129.217 139.753 130.543 140.344C131.869 140.936 133.017 141.664 133.988 142.528C134.958 143.393 135.71 144.411 136.243 145.582C136.787 146.754 137.065 148.098 137.077 149.613C137.065 151.838 136.497 153.768 135.373 155.401C134.26 157.023 132.65 158.284 130.543 159.183C128.448 160.071 125.921 160.515 122.961 160.515C120.026 160.515 117.469 160.065 115.291 159.165C113.125 158.266 111.432 156.934 110.213 155.17C109.005 153.395 108.372 151.199 108.313 148.583H115.752C115.835 149.802 116.185 150.82 116.8 151.637C117.427 152.442 118.262 153.052 119.304 153.466C120.357 153.868 121.547 154.07 122.873 154.07C124.175 154.07 125.305 153.88 126.264 153.501C127.234 153.123 127.986 152.596 128.519 151.921C129.051 151.246 129.318 150.471 129.318 149.595C129.318 148.778 129.075 148.092 128.59 147.536C128.116 146.979 127.418 146.506 126.495 146.115C125.583 145.724 124.465 145.369 123.139 145.05L119.179 144.055C116.114 143.31 113.693 142.144 111.917 140.558C110.142 138.971 109.26 136.835 109.272 134.148C109.26 131.946 109.846 130.022 111.029 128.377C112.225 126.732 113.864 125.447 115.948 124.524C118.031 123.601 120.399 123.139 123.05 123.139C125.749 123.139 128.105 123.601 130.117 124.524C132.141 125.447 133.715 126.732 134.84 128.377C135.964 130.022 136.544 131.928 136.58 134.094H129.211ZM140.118 123.636H148.729L157.021 139.297H157.376L165.668 123.636H174.28L161.016 147.145V160H153.381V147.145L140.118 123.636ZM198.205 134.094C198.063 132.662 197.454 131.549 196.377 130.756C195.299 129.963 193.838 129.567 191.991 129.567C190.736 129.567 189.677 129.744 188.813 130.099C187.949 130.443 187.286 130.922 186.824 131.538C186.374 132.153 186.149 132.852 186.149 133.633C186.126 134.284 186.262 134.852 186.558 135.337C186.865 135.823 187.286 136.243 187.818 136.598C188.351 136.941 188.967 137.243 189.665 137.504C190.363 137.752 191.109 137.965 191.902 138.143L195.169 138.924C196.755 139.279 198.211 139.753 199.537 140.344C200.863 140.936 202.011 141.664 202.982 142.528C203.952 143.393 204.704 144.411 205.237 145.582C205.781 146.754 206.059 148.098 206.071 149.613C206.059 151.838 205.491 153.768 204.367 155.401C203.254 157.023 201.644 158.284 199.537 159.183C197.442 160.071 194.915 160.515 191.955 160.515C189.02 160.515 186.463 160.065 184.285 159.165C182.119 158.266 180.426 156.934 179.207 155.17C177.999 153.395 177.366 151.199 177.307 148.583H184.747C184.829 149.802 185.179 150.82 185.794 151.637C186.422 152.442 187.256 153.052 188.298 153.466C189.351 153.868 190.541 154.07 191.867 154.07C193.169 154.07 194.299 153.88 195.258 153.501C196.229 153.123 196.98 152.596 197.513 151.921C198.046 151.246 198.312 150.471 198.312 149.595C198.312 148.778 198.069 148.092 197.584 147.536C197.11 146.979 196.412 146.506 195.489 146.115C194.577 145.724 193.459 145.369 192.133 145.05L188.173 144.055C185.108 143.31 182.687 142.144 180.911 140.558C179.136 138.971 178.254 136.835 178.266 134.148C178.254 131.946 178.84 130.022 180.024 128.377C181.219 126.732 182.859 125.447 184.942 124.524C187.025 123.601 189.393 123.139 192.044 123.139C194.743 123.139 197.099 123.601 199.111 124.524C201.135 125.447 202.709 126.732 203.834 128.377C204.959 130.022 205.539 131.928 205.574 134.094H198.205ZM209.858 129.975V123.636H239.723V129.975H228.59V160H220.99V129.975H209.858ZM244.641 160V123.636H269.144V129.975H252.329V138.64H267.883V144.979H252.329V153.661H269.215V160H244.641ZM275.256 123.636H284.738L294.752 148.068H295.178L305.192 123.636H314.674V160H307.216V136.332H306.915L297.504 159.822H292.426L283.015 136.243H282.714V160H275.256V123.636Z" fill="black" fill-opacity="0.6"/>
  <path d="M26.2727 13.3906L25.3117 13.6671L25.5198 14.3906H26.2727V13.3906ZM25.2251 11.1001L24.3931 11.6549L24.3977 11.6616L25.2251 11.1001ZM23.5739 9.3956L22.9786 10.1992L22.987 10.2053L22.9954 10.2113L23.5739 9.3956ZM21.3722 8.3125L21.081 9.26918L21.0848 9.27033L21.3722 8.3125ZM13.755 9.32457L13.2068 8.48821L13.2035 8.49035L13.755 9.32457ZM10.4879 13.3551L11.4012 13.7624L11.4022 13.7601L10.4879 13.3551ZM13.7372 30.3118L13.1841 31.1449L13.189 31.1481L13.7372 30.3118ZM23.1832 30.7734L23.6305 31.6679L23.6339 31.6662L23.1832 30.7734ZM26.0242 28.1278L25.1603 27.624L25.1565 27.6307L26.0242 28.1278ZM27.0185 24.0973L27.1646 23.108L26.0185 22.9387V24.0973H27.0185ZM28.581 24.3281V25.3281L28.7271 23.3389L28.581 24.3281ZM19.206 24.3281H18.206V25.3281H19.206V24.3281ZM19.206 18.5398V17.5398H18.206V18.5398H19.206ZM34.4226 18.5398H35.4226V17.5398H34.4226V18.5398ZM32.3984 31.3594L33.2595 31.868L33.2606 31.866L32.3984 31.3594ZM26.8232 36.6506L27.2845 37.5378L27.288 37.536L26.8232 36.6506ZM9.70668 36.2422L9.20035 37.1045L9.2033 37.1063L9.70668 36.2422ZM3.66974 29.7969L2.77988 30.2531L2.78222 30.2576L3.66974 29.7969ZM2.79972 11.9702L1.8626 11.6211L1.86162 11.6238L2.79972 11.9702ZM6.42188 6.07528L7.1421 6.76903L6.42188 6.07528ZM11.8374 2.39986L11.4596 1.47397L11.8374 2.39986ZM24.2841 2.04474L23.9622 2.99153L23.9679 2.99343L24.2841 2.04474ZM29.0071 4.56605L28.3857 5.34955L28.389 5.35213L29.0071 4.56605ZM32.3984 8.45454L31.5344 8.95799L31.5362 8.96097L32.3984 8.45454ZM34.0852 13.3906V14.3906H35.2329L35.0758 13.2538L34.0852 13.3906ZM27.2338 13.1142C26.9595 12.1609 26.5685 11.2989 26.0526 10.5386L24.3977 11.6616C24.7814 12.2272 25.0888 12.8922 25.3117 13.6671L27.2338 13.1142ZM26.0572 10.5454C25.5406 9.7706 24.9048 9.11343 24.1523 8.57986L22.9954 10.2113C23.5451 10.6011 24.01 11.0803 24.3931 11.6548L26.0572 10.5454ZM24.1691 8.59204C23.4292 8.04394 22.5892 7.63358 21.6595 7.35467L21.0848 9.27033C21.8123 9.48858 22.4402 9.80029 22.9786 10.1992L24.1691 8.59204ZM21.6633 7.35583C20.7381 7.07425 19.7327 6.93963 18.6555 6.93963V8.93963C19.567 8.93963 20.3727 9.05359 21.081 9.26917L21.6633 7.35583ZM18.6555 6.93963C16.6233 6.93963 14.7949 7.44724 13.2068 8.48822L14.3032 10.1609C15.5322 9.35532 16.971 8.93963 18.6555 8.93963V6.93963ZM13.2035 8.49035C11.6241 9.53438 10.4202 11.0388 9.57361 12.9501L11.4022 13.7601C12.1181 12.144 13.0923 10.9614 14.3064 10.1588L13.2035 8.49035ZM9.57463 12.9478C8.72102 14.862 8.31605 17.152 8.31605 19.7827H10.3161C10.3161 17.347 10.6923 15.352 11.4012 13.7624L9.57463 12.9478ZM8.31605 19.7827C8.31605 22.4123 8.7148 24.7099 9.55262 26.6433L11.3877 25.8481C10.6867 24.2304 10.3161 22.2193 10.3161 19.7827H8.31605ZM9.55262 26.6433C10.3875 28.5699 11.5922 30.0881 13.1841 31.1449L14.2903 29.4787C13.065 28.6653 12.0917 27.4727 11.3877 25.8481L9.55262 26.6433ZM13.189 31.1481C14.7823 32.1925 16.642 32.6967 18.7266 32.6967V30.6967C16.9759 30.6967 15.5094 30.2777 14.2854 29.4754L13.189 31.1481ZM18.7266 32.6967C20.5819 32.6967 22.2288 32.3687 23.6305 31.6679L22.736 29.879C21.6756 30.4092 20.3513 30.6967 18.7266 30.6967V32.6967ZM23.6339 31.6662C25.0399 30.9564 26.1372 29.9421 26.8918 28.625L25.1565 27.6307C24.609 28.5863 23.8124 29.3357 22.7326 29.8807L23.6339 31.6662ZM26.8879 28.6317C27.6548 27.317 28.0185 25.7931 28.0185 24.0973H26.0185C26.0185 25.5028 25.7192 26.6659 25.1604 27.624L26.8879 28.6317ZM26.8723 25.0866L28.4348 25.3174L28.7271 23.3389L27.1646 23.108L26.8723 25.0866ZM28.581 23.3281H19.206V25.3281H28.581V23.3281ZM20.206 24.3281V18.5398H18.206V24.3281H20.206ZM19.206 19.5398H34.4226V17.5398H19.206V19.5398ZM33.4226 18.5398V23.1207H35.4226V18.5398H33.4226ZM33.4226 23.1207C33.4226 26.1743 32.7789 28.738 31.5363 30.8527L33.2606 31.866C34.7168 29.3879 35.4226 26.4592 35.4226 23.1207H33.4226ZM31.5374 30.8508C30.2833 32.9741 28.5626 34.6079 26.3583 35.7652L27.288 37.536C29.8186 36.2074 31.8148 34.3138 33.2595 31.868L31.5374 30.8508ZM26.3618 35.7634C24.1563 36.9102 21.6078 37.4972 18.6911 37.4972V39.4972C21.8823 39.4972 24.7552 38.853 27.2845 37.5378L26.3618 35.7634ZM18.6911 37.4972C15.4334 37.4972 12.6171 36.7804 10.2101 35.3781L9.2033 37.1063C11.9572 38.7106 15.1306 39.4972 18.6911 39.4972V37.4972ZM10.213 35.3798C7.80273 33.9646 5.91898 31.9591 4.55727 29.3361L2.78222 30.2576C4.30877 33.1981 6.44964 35.4894 9.20035 37.1045L10.213 35.3798ZM4.5596 29.3406C3.21402 26.7162 2.52131 23.5649 2.52131 19.8537H0.521307C0.521307 23.8129 1.26089 27.2904 2.77989 30.2531L4.5596 29.3406ZM2.52131 19.8537C2.52131 17.0017 2.93369 14.4944 3.73781 12.3165L1.86162 11.6238C0.961194 14.0624 0.521307 16.8108 0.521307 19.8537H2.52131ZM3.73683 12.3192C4.55823 10.1138 5.69639 8.26991 7.1421 6.76903L5.70165 5.38154C4.04603 7.10035 2.76942 9.1864 1.8626 11.6211L3.73683 12.3192ZM7.1421 6.76903C8.59653 5.25908 10.2852 4.11325 12.2152 3.32574L11.4596 1.47397C9.27018 2.36733 7.34855 3.67179 5.70165 5.38154L7.1421 6.76903ZM12.2152 3.32574C14.1455 2.53806 16.2474 2.1392 18.5312 2.1392V0.139203C16.0092 0.139203 13.6485 0.580785 11.4596 1.47397L12.2152 3.32574ZM18.5312 2.1392C20.4921 2.1392 22.3 2.42636 23.9622 2.99152L24.606 1.09797C22.7171 0.455742 20.6897 0.139203 18.5312 0.139203V2.1392ZM23.9679 2.99343C25.6404 3.55095 27.11 4.33775 28.3857 5.34955L29.6285 3.78255C28.158 2.61632 26.4789 1.72225 24.6003 1.09606L23.9679 2.99343ZM28.389 5.35213C29.6762 6.36427 30.7227 7.56494 31.5344 8.95799L33.2625 7.9511C32.3223 6.33752 31.1079 4.94585 29.6252 3.77996L28.389 5.35213ZM31.5362 8.96097C32.3421 10.3333 32.8632 11.852 33.0946 13.5275L35.0758 13.2538C34.8101 11.3307 34.2067 9.55878 33.2607 7.94812L31.5362 8.96097ZM34.0852 12.3906H26.2727V14.3906H34.0852V12.3906ZM40.1976 1.63636V0.636362H39.1976V1.63636H40.1976ZM49.6792 1.63636L50.6044 1.2571L50.35 0.636362H49.6792V1.63636ZM59.6934 26.0682L58.7681 26.4474L59.0225 27.0682H59.6934V26.0682ZM60.1195 26.0682V27.0682H60.7904L61.0448 26.4474L60.1195 26.0682ZM70.1337 1.63636V0.636362H69.4628L69.2084 1.2571L70.1337 1.63636ZM79.6152 1.63636H80.6152V0.636362H79.6152V1.63636ZM79.6152 38V39H80.6152V38H79.6152ZM72.1579 38H71.1579V39H72.1579V38ZM72.1579 14.3317H73.1579V13.3317H72.1579V14.3317ZM71.856 14.3317V13.3317H71.1794L70.9277 13.9598L71.856 14.3317ZM62.4455 37.8224V38.8224H63.1221L63.3738 38.1943L62.4455 37.8224ZM57.3674 37.8224L56.4386 38.1931L56.6898 38.8224H57.3674V37.8224ZM47.9569 14.2429L48.8856 13.8722L48.6345 13.2429H47.9569V14.2429ZM47.655 14.2429V13.2429H46.655V14.2429H47.655ZM47.655 38V39H48.655V38H47.655ZM40.1976 38H39.1976V39H40.1976V38ZM40.1976 2.63636H49.6792V0.636362H40.1976V2.63636ZM48.7539 2.01562L58.7681 26.4474L60.6186 25.6889L50.6044 1.2571L48.7539 2.01562ZM59.6934 27.0682H60.1195V25.0682H59.6934V27.0682ZM61.0448 26.4474L71.059 2.01562L69.2084 1.2571L59.1942 25.6889L61.0448 26.4474ZM70.1337 2.63636H79.6152V0.636362H70.1337V2.63636ZM78.6152 1.63636V38H80.6152V1.63636H78.6152ZM79.6152 37H72.1579V39H79.6152V37ZM73.1579 38V14.3317H71.1579V38H73.1579ZM72.1579 13.3317H71.856V15.3317H72.1579V13.3317ZM70.9277 13.9598L61.5172 37.4506L63.3738 38.1943L72.7843 14.7036L70.9277 13.9598ZM62.4455 36.8224H57.3674V38.8224H62.4455V36.8224ZM58.2961 37.4518L48.8856 13.8722L47.0281 14.6136L56.4386 38.1931L58.2961 37.4518ZM47.9569 13.2429H47.655V15.2429H47.9569V13.2429ZM46.655 14.2429V38H48.655V14.2429H46.655ZM47.655 37H40.1976V39H47.655V37ZM41.1976 38V1.63636H39.1976V38H41.1976ZM26.2727 74.3906L25.3117 74.6671L25.5198 75.3906H26.2727V74.3906ZM25.2251 72.1001L24.3931 72.6549L24.3977 72.6616L25.2251 72.1001ZM23.5739 70.3956L22.9786 71.1992L22.987 71.2053L22.9954 71.2113L23.5739 70.3956ZM21.3722 69.3125L21.081 70.2692L21.0848 70.2703L21.3722 69.3125ZM13.755 70.3246L13.2068 69.4882L13.2035 69.4904L13.755 70.3246ZM10.4879 74.3551L11.4012 74.7624L11.4022 74.7601L10.4879 74.3551ZM13.7372 91.3118L13.1841 92.1449L13.189 92.1481L13.7372 91.3118ZM23.1832 91.7734L23.6305 92.6679L23.6339 92.6662L23.1832 91.7734ZM26.0242 89.1278L25.1603 88.624L25.1565 88.6307L26.0242 89.1278ZM27.0185 85.0973L27.1646 84.108L26.0185 83.9387V85.0973H27.0185ZM28.581 85.3281V86.3281L28.7271 84.3389L28.581 85.3281ZM19.206 85.3281H18.206V86.3281H19.206V85.3281ZM19.206 79.5398V78.5398H18.206V79.5398H19.206ZM34.4226 79.5398H35.4226V78.5398H34.4226V79.5398ZM32.3984 92.3594L33.2595 92.868L33.2606 92.866L32.3984 92.3594ZM26.8232 97.6506L27.2845 98.5378L27.288 98.536L26.8232 97.6506ZM9.70668 97.2422L9.20035 98.1045L9.2033 98.1063L9.70668 97.2422ZM3.66974 90.7969L2.77988 91.2531L2.78222 91.2576L3.66974 90.7969ZM2.79972 72.9702L1.8626 72.6211L1.86162 72.6238L2.79972 72.9702ZM6.42188 67.0753L7.1421 67.769L6.42188 67.0753ZM11.8374 63.3999L11.4596 62.474L11.8374 63.3999ZM24.2841 63.0447L23.9622 63.9915L23.9679 63.9934L24.2841 63.0447ZM29.0071 65.566L28.3857 66.3496L28.389 66.3521L29.0071 65.566ZM32.3984 69.4545L31.5344 69.958L31.5362 69.961L32.3984 69.4545ZM34.0852 74.3906V75.3906H35.2329L35.0758 74.2538L34.0852 74.3906ZM27.2338 74.1142C26.9595 73.1609 26.5685 72.2989 26.0526 71.5386L24.3977 72.6616C24.7814 73.2272 25.0888 73.8922 25.3117 74.6671L27.2338 74.1142ZM26.0572 71.5454C25.5406 70.7706 24.9048 70.1134 24.1523 69.5799L22.9954 71.2113C23.5451 71.6011 24.01 72.0803 24.3931 72.6548L26.0572 71.5454ZM24.1691 69.592C23.4292 69.0439 22.5892 68.6336 21.6595 68.3547L21.0848 70.2703C21.8123 70.4886 22.4402 70.8003 22.9786 71.1992L24.1691 69.592ZM21.6633 68.3558C20.7381 68.0742 19.7327 67.9396 18.6555 67.9396V69.9396C19.567 69.9396 20.3727 70.0536 21.081 70.2692L21.6633 68.3558ZM18.6555 67.9396C16.6233 67.9396 14.7949 68.4472 13.2068 69.4882L14.3032 71.1609C15.5322 70.3553 16.971 69.9396 18.6555 69.9396V67.9396ZM13.2035 69.4904C11.6241 70.5344 10.4202 72.0388 9.57361 73.9501L11.4022 74.7601C12.1181 73.144 13.0923 71.9614 14.3064 71.1588L13.2035 69.4904ZM9.57463 73.9478C8.72102 75.862 8.31605 78.152 8.31605 80.7827H10.3161C10.3161 78.347 10.6923 76.352 11.4012 74.7624L9.57463 73.9478ZM8.31605 80.7827C8.31605 83.4123 8.7148 85.7099 9.55262 87.6433L11.3877 86.8481C10.6867 85.2304 10.3161 83.2193 10.3161 80.7827H8.31605ZM9.55262 87.6433C10.3875 89.5699 11.5922 91.0881 13.1841 92.1449L14.2903 90.4787C13.065 89.6653 12.0917 88.4727 11.3877 86.8481L9.55262 87.6433ZM13.189 92.1481C14.7823 93.1925 16.642 93.6967 18.7266 93.6967V91.6967C16.9759 91.6967 15.5094 91.2777 14.2854 90.4754L13.189 92.1481ZM18.7266 93.6967C20.5819 93.6967 22.2288 93.3687 23.6305 92.6679L22.736 90.879C21.6756 91.4092 20.3513 91.6967 18.7266 91.6967V93.6967ZM23.6339 92.6662C25.0399 91.9564 26.1372 90.9421 26.8918 89.625L25.1565 88.6307C24.609 89.5863 23.8124 90.3357 22.7326 90.8807L23.6339 92.6662ZM26.8879 89.6317C27.6548 88.317 28.0185 86.7931 28.0185 85.0973H26.0185C26.0185 86.5028 25.7192 87.6659 25.1604 88.624L26.8879 89.6317ZM26.8723 86.0866L28.4348 86.3174L28.7271 84.3389L27.1646 84.108L26.8723 86.0866ZM28.581 84.3281H19.206V86.3281H28.581V84.3281ZM20.206 85.3281V79.5398H18.206V85.3281H20.206ZM19.206 80.5398H34.4226V78.5398H19.206V80.5398ZM33.4226 79.5398V84.1207H35.4226V79.5398H33.4226ZM33.4226 84.1207C33.4226 87.1743 32.7789 89.738 31.5363 91.8527L33.2606 92.866C34.7168 90.3879 35.4226 87.4592 35.4226 84.1207H33.4226ZM31.5374 91.8508C30.2833 93.9741 28.5626 95.6079 26.3583 96.7652L27.288 98.536C29.8186 97.2074 31.8148 95.3138 33.2595 92.868L31.5374 91.8508ZM26.3618 96.7634C24.1563 97.9102 21.6078 98.4972 18.6911 98.4972V100.497C21.8823 100.497 24.7552 99.853 27.2845 98.5378L26.3618 96.7634ZM18.6911 98.4972C15.4334 98.4972 12.6171 97.7804 10.2101 96.3781L9.2033 98.1063C11.9572 99.7106 15.1306 100.497 18.6911 100.497V98.4972ZM10.213 96.3798C7.80273 94.9646 5.91898 92.9591 4.55727 90.3361L2.78222 91.2576C4.30877 94.1981 6.44964 96.4894 9.20035 98.1045L10.213 96.3798ZM4.5596 90.3406C3.21402 87.7162 2.52131 84.5649 2.52131 80.8537H0.521307C0.521307 84.8129 1.26089 88.2904 2.77989 91.2531L4.5596 90.3406ZM2.52131 80.8537C2.52131 78.0017 2.93369 75.4944 3.73781 73.3165L1.86162 72.6238C0.961194 75.0624 0.521307 77.8108 0.521307 80.8537H2.52131ZM3.73683 73.3192C4.55823 71.1138 5.69639 69.2699 7.1421 67.769L5.70165 66.3815C4.04603 68.1003 2.76942 70.1864 1.8626 72.6211L3.73683 73.3192ZM7.1421 67.769C8.59653 66.2591 10.2852 65.1133 12.2152 64.3257L11.4596 62.474C9.27018 63.3673 7.34855 64.6718 5.70165 66.3815L7.1421 67.769ZM12.2152 64.3257C14.1455 63.5381 16.2474 63.1392 18.5312 63.1392V61.1392C16.0092 61.1392 13.6485 61.5808 11.4596 62.474L12.2152 64.3257ZM18.5312 63.1392C20.4921 63.1392 22.3 63.4264 23.9622 63.9915L24.606 62.098C22.7171 61.4557 20.6897 61.1392 18.5312 61.1392V63.1392ZM23.9679 63.9934C25.6404 64.5509 27.11 65.3377 28.3857 66.3495L29.6285 64.7826C28.158 63.6163 26.4789 62.7223 24.6003 62.0961L23.9679 63.9934ZM28.389 66.3521C29.6762 67.3643 30.7227 68.5649 31.5344 69.958L33.2625 68.9511C32.3223 67.3375 31.1079 65.9459 29.6252 64.78L28.389 66.3521ZM31.5362 69.961C32.3421 71.3333 32.8632 72.852 33.0946 74.5275L35.0758 74.2538C34.8101 72.3307 34.2067 70.5588 33.2607 68.9481L31.5362 69.961ZM34.0852 73.3906H26.2727V75.3906H34.0852V73.3906ZM45.3423 99V100H46.0686L46.2933 99.3094L45.3423 99ZM37.1037 99L36.1584 98.6737L35.7006 100H37.1037V99ZM49.657 62.6364V61.6364H48.9443L48.7117 62.31L49.657 62.6364ZM59.5646 62.6364L60.51 62.3105L60.2777 61.6364H59.5646V62.6364ZM72.1001 99V100H73.5026L73.0455 98.6741L72.1001 99ZM63.8615 99L62.9104 99.3088L63.1348 100H63.8615V99ZM54.7528 70.946L55.704 70.6372L55.4795 69.946H54.7528V70.946ZM54.4688 70.946V69.946H53.7425L53.5178 70.6367L54.4688 70.946ZM44.8274 84.7067V83.7067H43.8274V84.7067H44.8274ZM64.2876 84.7067H65.2876V83.7067H64.2876V84.7067ZM64.2876 90.7081V91.7081H65.2876V90.7081H64.2876ZM44.8274 90.7081H43.8274V91.7081H44.8274V90.7081ZM45.3423 98H37.1037V100H45.3423V98ZM38.049 99.3263L50.6022 62.9627L48.7117 62.31L36.1584 98.6737L38.049 99.3263ZM49.657 63.6364H59.5646V61.6364H49.657V63.6364ZM58.6192 62.9623L71.1547 99.3259L73.0455 98.6741L60.51 62.3105L58.6192 62.9623ZM72.1001 98H63.8615V100H72.1001V98ZM64.8126 98.6912L55.704 70.6372L53.8017 71.2548L62.9104 99.3088L64.8126 98.6912ZM54.7528 69.946H54.4688V71.946H54.7528V69.946ZM53.5178 70.6367L44.3914 98.6906L46.2933 99.3094L55.4197 71.2554L53.5178 70.6367ZM44.8274 85.7067H64.2876V83.7067H44.8274V85.7067ZM63.2876 84.7067V90.7081H65.2876V84.7067H63.2876ZM64.2876 89.7081H44.8274V91.7081H64.2876V89.7081ZM45.8274 90.7081V84.7067H43.8274V90.7081H45.8274ZM76.4769 62.6364V61.6364H75.4769V62.6364H76.4769ZM85.9585 62.6364L86.8837 62.2571L86.6293 61.6364H85.9585V62.6364ZM95.9727 87.0682L95.0474 87.4474L95.3018 88.0682H95.9727V87.0682ZM96.3988 87.0682V88.0682H97.0697L97.3241 87.4474L96.3988 87.0682ZM106.413 62.6364V61.6364H105.742L105.488 62.2571L106.413 62.6364ZM115.895 62.6364H116.895V61.6364H115.895V62.6364ZM115.895 99V100H116.895V99H115.895ZM108.437 99H107.437V100H108.437V99ZM108.437 75.3317H109.437V74.3317H108.437V75.3317ZM108.135 75.3317V74.3317H107.459L107.207 74.9598L108.135 75.3317ZM98.7248 98.8224V99.8224H99.4014L99.6531 99.1943L98.7248 98.8224ZM93.6467 98.8224L92.7179 99.1931L92.9691 99.8224H93.6467V98.8224ZM84.2362 75.2429L85.1649 74.8722L84.9137 74.2429H84.2362V75.2429ZM83.9343 75.2429V74.2429H82.9343V75.2429H83.9343ZM83.9343 99V100H84.9343V99H83.9343ZM76.4769 99H75.4769V100H76.4769V99ZM76.4769 63.6364H85.9585V61.6364H76.4769V63.6364ZM85.0332 63.0156L95.0474 87.4474L96.8979 86.6889L86.8837 62.2571L85.0332 63.0156ZM95.9727 88.0682H96.3988V86.0682H95.9727V88.0682ZM97.3241 87.4474L107.338 63.0156L105.488 62.2571L95.4735 86.6889L97.3241 87.4474ZM106.413 63.6364H115.895V61.6364H106.413V63.6364ZM114.895 62.6364V99H116.895V62.6364H114.895ZM115.895 98H108.437V100H115.895V98ZM109.437 99V75.3317H107.437V99H109.437ZM108.437 74.3317H108.135V76.3317H108.437V74.3317ZM107.207 74.9598L97.7965 98.4506L99.6531 99.1943L109.064 75.7036L107.207 74.9598ZM98.7248 97.8224H93.6467V99.8224H98.7248V97.8224ZM94.5754 98.4518L85.1649 74.8722L83.3074 75.6136L92.7179 99.1931L94.5754 98.4518ZM84.2362 74.2429H83.9343V76.2429H84.2362V74.2429ZM82.9343 75.2429V99H84.9343V75.2429H82.9343ZM83.9343 98H76.4769V100H83.9343V98ZM77.4769 99V62.6364H75.4769V99H77.4769ZM129.917 62.6364H130.917V61.6364H129.917V62.6364ZM129.917 99V100H130.917V99H129.917ZM122.229 99H121.229V100H122.229V99ZM122.229 62.6364V61.6364H121.229V62.6364H122.229ZM128.917 62.6364V99H130.917V62.6364H128.917ZM129.917 98H122.229V100H129.917V98ZM123.229 99V62.6364H121.229V99H123.229ZM122.229 63.6364H129.917V61.6364H122.229V63.6364ZM166.658 62.6364H167.658V61.6364H166.658V62.6364ZM166.658 99V100H167.658V99H166.658ZM160.017 99L159.195 99.5686L159.493 100H160.017V99ZM144.197 76.1129L145.02 75.5443L144.722 75.1129H144.197V76.1129ZM143.931 76.1129V75.1129H142.931V76.1129H143.931ZM143.931 99V100H144.931V99H143.931ZM136.243 99H135.243V100H136.243V99ZM136.243 62.6364V61.6364H135.243V62.6364H136.243ZM142.99 62.6364L143.814 62.0705L143.516 61.6364H142.99V62.6364ZM158.686 85.5057L157.861 86.0716L158.159 86.5057H158.686V85.5057ZM159.005 85.5057V86.5057H160.005V85.5057H159.005ZM159.005 62.6364V61.6364H158.005V62.6364H159.005ZM165.658 62.6364V99H167.658V62.6364H165.658ZM166.658 98H160.017V100H166.658V98ZM160.84 98.4314L145.02 75.5443L143.374 76.6815L159.195 99.5686L160.84 98.4314ZM144.197 75.1129H143.931V77.1129H144.197V75.1129ZM142.931 76.1129V99H144.931V76.1129H142.931ZM143.931 98H136.243V100H143.931V98ZM137.243 99V62.6364H135.243V99H137.243ZM136.243 63.6364H142.99V61.6364H136.243V63.6364ZM142.165 63.2022L157.861 86.0716L159.51 84.9398L143.814 62.0705L142.165 63.2022ZM158.686 86.5057H159.005V84.5057H158.686V86.5057ZM160.005 85.5057V62.6364H158.005V85.5057H160.005ZM159.005 63.6364H166.658V61.6364H159.005V63.6364ZM197.122 74.3906L196.161 74.6671L196.369 75.3906H197.122V74.3906ZM196.075 72.1001L195.243 72.6549L195.247 72.6616L196.075 72.1001ZM194.423 70.3956L193.828 71.1992L193.837 71.2053L193.845 71.2113L194.423 70.3956ZM192.222 69.3125L191.931 70.2692L191.934 70.2703L192.222 69.3125ZM184.605 70.3246L184.056 69.4882L184.053 69.4904L184.605 70.3246ZM181.338 74.3551L182.251 74.7624L182.252 74.7601L181.338 74.3551ZM184.587 91.3118L184.034 92.1449L184.039 92.1481L184.587 91.3118ZM194.033 91.7734L194.48 92.6679L194.483 92.6662L194.033 91.7734ZM196.874 89.1278L196.01 88.624L196.006 88.6307L196.874 89.1278ZM197.868 85.0973L198.014 84.108L196.868 83.9387V85.0973H197.868ZM199.431 85.3281V86.3281L199.577 84.3389L199.431 85.3281ZM190.056 85.3281H189.056V86.3281H190.056V85.3281ZM190.056 79.5398V78.5398H189.056V79.5398H190.056ZM205.272 79.5398H206.272V78.5398H205.272V79.5398ZM203.248 92.3594L204.109 92.868L204.11 92.866L203.248 92.3594ZM197.673 97.6506L198.134 98.5378L198.138 98.536L197.673 97.6506ZM180.556 97.2422L180.05 98.1045L180.053 98.1063L180.556 97.2422ZM174.519 90.7969L173.629 91.2531L173.632 91.2576L174.519 90.7969ZM173.649 72.9702L172.712 72.6211L172.711 72.6238L173.649 72.9702ZM177.271 67.0753L177.992 67.769H177.992L177.271 67.0753ZM182.687 63.3999L182.309 62.474L182.687 63.3999ZM195.134 63.0447L194.812 63.9915L194.817 63.9934L195.134 63.0447ZM199.857 65.566L199.235 66.3496L199.239 66.3521L199.857 65.566ZM203.248 69.4545L202.384 69.958L202.386 69.961L203.248 69.4545ZM204.935 74.3906V75.3906H206.082L205.925 74.2538L204.935 74.3906ZM198.083 74.1142C197.809 73.1609 197.418 72.2989 196.902 71.5386L195.247 72.6616C195.631 73.2272 195.938 73.8922 196.161 74.6671L198.083 74.1142ZM196.907 71.5454C196.39 70.7706 195.754 70.1134 195.002 69.5799L193.845 71.2113C194.395 71.6011 194.86 72.0803 195.243 72.6548L196.907 71.5454ZM195.019 69.592C194.279 69.0439 193.439 68.6336 192.509 68.3547L191.934 70.2703C192.662 70.4886 193.29 70.8003 193.828 71.1992L195.019 69.592ZM192.513 68.3558C191.588 68.0742 190.582 67.9396 189.505 67.9396V69.9396C190.417 69.9396 191.222 70.0536 191.931 70.2692L192.513 68.3558ZM189.505 67.9396C187.473 67.9396 185.645 68.4472 184.056 69.4882L185.153 71.1609C186.382 70.3553 187.821 69.9396 189.505 69.9396V67.9396ZM184.053 69.4904C182.474 70.5344 181.27 72.0388 180.423 73.9501L182.252 74.7601C182.968 73.144 183.942 71.9614 185.156 71.1588L184.053 69.4904ZM180.424 73.9478C179.571 75.862 179.166 78.152 179.166 80.7827H181.166C181.166 78.347 181.542 76.352 182.251 74.7624L180.424 73.9478ZM179.166 80.7827C179.166 83.4123 179.564 85.7099 180.402 87.6433L182.237 86.8481C181.536 85.2304 181.166 83.2193 181.166 80.7827H179.166ZM180.402 87.6433C181.237 89.5699 182.442 91.0881 184.034 92.1449L185.14 90.4787C183.915 89.6653 182.941 88.4727 182.237 86.8481L180.402 87.6433ZM184.039 92.1481C185.632 93.1925 187.492 93.6967 189.576 93.6967V91.6967C187.826 91.6967 186.359 91.2777 185.135 90.4754L184.039 92.1481ZM189.576 93.6967C191.432 93.6967 193.078 93.3687 194.48 92.6679L193.586 90.879C192.525 91.4092 191.201 91.6967 189.576 91.6967V93.6967ZM194.483 92.6662C195.89 91.9564 196.987 90.9421 197.741 89.625L196.006 88.6307C195.459 89.5863 194.662 90.3357 193.582 90.8807L194.483 92.6662ZM197.738 89.6317C198.504 88.317 198.868 86.7931 198.868 85.0973H196.868C196.868 86.5028 196.569 87.6659 196.01 88.624L197.738 89.6317ZM197.722 86.0866L199.284 86.3174L199.577 84.3389L198.014 84.108L197.722 86.0866ZM199.431 84.3281H190.056V86.3281H199.431V84.3281ZM191.056 85.3281V79.5398H189.056V85.3281H191.056ZM190.056 80.5398H205.272V78.5398H190.056V80.5398ZM204.272 79.5398V84.1207H206.272V79.5398H204.272ZM204.272 84.1207C204.272 87.1743 203.629 89.738 202.386 91.8527L204.11 92.866C205.566 90.3879 206.272 87.4592 206.272 84.1207H204.272ZM202.387 91.8508C201.133 93.9741 199.412 95.6079 197.208 96.7652L198.138 98.536C200.668 97.2074 202.664 95.3138 204.109 92.868L202.387 91.8508ZM197.211 96.7634C195.006 97.9102 192.457 98.4972 189.541 98.4972V100.497C192.732 100.497 195.605 99.853 198.134 98.5378L197.211 96.7634ZM189.541 98.4972C186.283 98.4972 183.467 97.7804 181.06 96.3781L180.053 98.1063C182.807 99.7106 185.98 100.497 189.541 100.497V98.4972ZM181.063 96.3798C178.652 94.9646 176.769 92.9591 175.407 90.3361L173.632 91.2576C175.158 94.1981 177.299 96.4894 180.05 98.1045L181.063 96.3798ZM175.409 90.3406C174.064 87.7162 173.371 84.5649 173.371 80.8537H171.371C171.371 84.8129 172.111 88.2904 173.63 91.2531L175.409 90.3406ZM173.371 80.8537C173.371 78.0017 173.783 75.4944 174.587 73.3165L172.711 72.6238C171.811 75.0624 171.371 77.8108 171.371 80.8537H173.371ZM174.586 73.3192C175.408 71.1138 176.546 69.2699 177.992 67.769L176.551 66.3815C174.896 68.1003 173.619 70.1864 172.712 72.6211L174.586 73.3192ZM177.992 67.769C179.446 66.2591 181.135 65.1133 183.065 64.3257L182.309 62.474C180.12 63.3673 178.198 64.6718 176.551 66.3815L177.992 67.769ZM183.065 64.3257C184.995 63.5381 187.097 63.1392 189.381 63.1392V61.1392C186.859 61.1392 184.498 61.5808 182.309 62.474L183.065 64.3257ZM189.381 63.1392C191.342 63.1392 193.15 63.4264 194.812 63.9915L195.456 62.098C193.567 61.4557 191.539 61.1392 189.381 61.1392V63.1392ZM194.817 63.9934C196.49 64.5509 197.96 65.3377 199.235 66.3495L200.478 64.7826C199.008 63.6163 197.329 62.7223 195.45 62.0961L194.817 63.9934ZM199.239 66.3521C200.526 67.3643 201.572 68.5649 202.384 69.958L204.112 68.9511C203.172 67.3375 201.958 65.9459 200.475 64.78L199.239 66.3521ZM202.386 69.961C203.192 71.3333 203.713 72.852 203.944 74.5275L205.925 74.2538C205.66 72.3307 205.056 70.5588 204.11 68.9481L202.386 69.961ZM204.935 73.3906H197.122V75.3906H204.935V73.3906ZM2.16051 160H1.16051V161H2.16051V160ZM2.16051 123.636V122.636H1.16051V123.636H2.16051ZM26.6634 123.636H27.6634V122.636H26.6634V123.636ZM26.6634 129.975V130.975H27.6634V129.975H26.6634ZM9.84872 129.975V128.975H8.84872V129.975H9.84872ZM9.84872 138.64H8.84872V139.64H9.84872V138.64ZM25.4027 138.64H26.4027V137.64H25.4027V138.64ZM25.4027 144.979V145.979H26.4027V144.979H25.4027ZM9.84872 144.979V143.979H8.84872V144.979H9.84872ZM9.84872 153.661H8.84872V154.661H9.84872V153.661ZM26.7344 153.661H27.7344V152.661H26.7344V153.661ZM26.7344 160V161H27.7344V160H26.7344ZM3.16051 160V123.636H1.16051V160H3.16051ZM2.16051 124.636H26.6634V122.636H2.16051V124.636ZM25.6634 123.636V129.975H27.6634V123.636H25.6634ZM26.6634 128.975H9.84872V130.975H26.6634V128.975ZM8.84872 129.975V138.64H10.8487V129.975H8.84872ZM9.84872 139.64H25.4027V137.64H9.84872V139.64ZM24.4027 138.64V144.979H26.4027V138.64H24.4027ZM25.4027 143.979H9.84872V145.979H25.4027V143.979ZM8.84872 144.979V153.661H10.8487V144.979H8.84872ZM9.84872 154.661H26.7344V152.661H9.84872V154.661ZM25.7344 153.661V160H27.7344V153.661H25.7344ZM26.7344 159H2.16051V161H26.7344V159ZM64.8603 136.367V137.367H65.9852L65.8534 136.25L64.8603 136.367ZM57.0833 136.367L56.0931 136.507L56.2145 137.367H57.0833V136.367ZM56.2132 133.686L55.3378 134.17L55.341 134.175L56.2132 133.686ZM54.5265 131.662L53.8969 132.439L54.5265 131.662ZM52.1472 130.384L51.831 131.332L51.8347 131.333L52.1472 130.384ZM44.3347 131.342L44.8861 132.177L44.891 132.173L44.3347 131.342ZM41.0854 135.391L42.002 135.79L42.003 135.788L41.0854 135.391ZM41.0854 148.352L40.1688 148.752L40.1711 148.757L41.0854 148.352ZM44.3525 152.347L43.811 153.188L44.3525 152.347ZM52.0584 153.288L51.7652 152.332L51.7616 152.333L52.0584 153.288ZM54.4199 152.099L55.0243 152.895L55.0329 152.889L54.4199 152.099ZM56.1245 150.163L55.2705 149.643L55.2646 149.653L56.1245 150.163ZM57.0833 147.571L57.0878 146.571L56.2503 146.567L56.0996 147.391L57.0833 147.571ZM64.8603 147.607L65.8531 147.726L65.9874 146.612L64.8648 146.607L64.8603 147.607ZM63.351 152.436L62.4635 151.975L62.4621 151.978L63.351 152.436ZM60.1373 156.573L60.8073 157.315L60.8077 157.315L60.1373 156.573ZM55.3432 159.45L55.697 160.385L55.7002 160.384L55.3432 159.45ZM40.3752 158.295L39.8756 159.162L39.8773 159.163L40.3752 158.295ZM34.3382 151.921L33.4538 152.388L33.4554 152.391L34.3382 151.921ZM34.3738 131.697L35.2551 132.17L34.3738 131.697ZM40.4462 125.341L40.941 126.21L40.9441 126.208L40.4462 125.341ZM54.9348 124.027L54.6224 124.977L54.6242 124.978L54.9348 124.027ZM59.7466 126.619L59.1155 127.395L59.1195 127.398L59.7466 126.619ZM63.1557 130.756L62.2744 131.229L62.2771 131.234L63.1557 130.756ZM64.8603 135.367H57.0833V137.367H64.8603V135.367ZM58.0735 136.227C57.9164 135.115 57.5917 134.1 57.0855 133.197L55.341 134.175C55.7108 134.835 55.9661 135.607 56.0931 136.507L58.0735 136.227ZM57.0886 133.203C56.59 132.3 55.9452 131.525 55.156 130.885L53.8969 132.439C54.4808 132.912 54.9605 133.486 55.3379 134.169L57.0886 133.203ZM55.156 130.885C54.3686 130.247 53.4663 129.765 52.4597 129.434L51.8347 131.333C52.6273 131.594 53.3112 131.964 53.8969 132.439L55.156 130.885ZM52.4634 129.435C51.4628 129.101 50.3901 128.94 49.253 128.94V130.94C50.1993 130.94 51.056 131.074 51.831 131.332L52.4634 129.435ZM49.253 128.94C47.1974 128.94 45.3591 129.453 43.7784 130.511L44.891 132.173C46.1039 131.361 47.5444 130.94 49.253 130.94V128.94ZM43.7833 130.508C42.2007 131.554 41.0021 133.068 40.1679 134.993L42.003 135.788C42.7076 134.162 43.6752 132.977 44.8861 132.177L43.7833 130.508ZM40.1688 134.991C39.3302 136.913 38.9313 139.2 38.9313 141.818H40.9313C40.9313 139.394 41.3018 137.395 42.002 135.79L40.1688 134.991ZM38.9313 141.818C38.9313 144.503 39.3288 146.827 40.1688 148.752L42.002 147.952C41.3032 146.35 40.9313 144.318 40.9313 141.818H38.9313ZM40.1711 148.757C41.0184 150.67 42.2249 152.166 43.811 153.188L44.8939 151.507C43.6864 150.729 42.7149 149.562 41.9997 147.947L40.1711 148.757ZM43.811 153.188C45.3858 154.202 47.1937 154.697 49.1998 154.697V152.697C47.5363 152.697 46.1126 152.292 44.8939 151.507L43.811 153.188ZM49.1998 154.697C50.318 154.697 51.3722 154.549 52.3552 154.243L51.7616 152.333C50.9927 152.572 50.1411 152.697 49.1998 152.697V154.697ZM52.3516 154.244C53.3429 153.94 54.2372 153.493 55.0243 152.895L53.8155 151.302C53.2296 151.747 52.5495 152.092 51.7652 152.332L52.3516 154.244ZM55.0329 152.889C55.82 152.278 56.4714 151.538 56.9843 150.674L55.2646 149.653C54.8779 150.304 54.393 150.854 53.8069 151.309L55.0329 152.889ZM56.9784 150.684C57.5105 149.81 57.8698 148.829 58.067 147.751L56.0996 147.391C55.9416 148.255 55.6617 149.001 55.2705 149.643L56.9784 150.684ZM57.0787 148.571L64.8557 148.607L64.8648 146.607L57.0878 146.571L57.0787 148.571ZM63.8675 147.487C63.6811 149.032 63.2154 150.527 62.4635 151.975L64.2386 152.897C65.0966 151.244 65.6369 149.519 65.8531 147.726L63.8675 147.487ZM62.4621 151.978C61.727 153.404 60.7315 154.689 59.4669 155.831L60.8077 157.315C62.2418 156.019 63.3889 154.545 64.2399 152.894L62.4621 151.978ZM59.4672 155.831C58.2303 156.947 56.7414 157.845 54.9862 158.515L55.7002 160.384C57.6619 159.634 59.369 158.614 60.8073 157.315L59.4672 155.831ZM54.9895 158.514C53.2744 159.163 51.3079 159.497 49.0755 159.497V161.497C51.5068 161.497 53.7189 161.133 55.697 160.385L54.9895 158.514ZM49.0755 159.497C45.9888 159.497 43.2635 158.801 40.873 157.428L39.8773 159.163C42.6005 160.726 45.6753 161.497 49.0755 161.497V159.497ZM40.8748 157.429C38.5041 156.062 36.6194 154.08 35.2211 151.452L33.4554 152.391C35.0164 155.326 37.1563 157.593 39.8756 159.162L40.8748 157.429ZM35.2227 151.454C33.8478 148.849 33.1365 145.65 33.1365 141.818H31.1365C31.1365 145.893 31.8931 149.43 33.4538 152.388L35.2227 151.454ZM33.1365 141.818C33.1365 137.976 33.859 134.774 35.2551 132.17L33.4924 131.225C31.9056 134.185 31.1365 137.729 31.1365 141.818H33.1365ZM35.2551 132.17C36.6643 129.542 38.5598 127.566 40.941 126.21L39.9514 124.472C37.219 126.028 35.0661 128.29 33.4924 131.225L35.2551 132.17ZM40.9441 126.208C43.3368 124.835 46.039 124.139 49.0755 124.139V122.139C45.7199 122.139 42.6693 122.912 39.9483 124.474L40.9441 126.208ZM49.0755 124.139C51.0881 124.139 52.9346 124.422 54.6224 124.977L55.2473 123.077C53.3366 122.449 51.2768 122.139 49.0755 122.139V124.139ZM54.6242 124.978C56.3255 125.533 57.8194 126.341 59.1155 127.395L60.3777 125.844C58.8803 124.625 57.1663 123.704 55.2455 123.076L54.6242 124.978ZM59.1195 127.398C60.4084 128.436 61.4596 129.71 62.2744 131.229L64.037 130.284C63.0999 128.536 61.8784 127.052 60.3737 125.84L59.1195 127.398ZM62.2771 131.234C63.0962 132.741 63.6314 134.486 63.8671 136.484L65.8534 136.25C65.592 134.034 64.9908 132.039 64.0343 130.279L62.2771 131.234ZM101.535 151.939L100.655 151.463L100.653 151.466L101.535 151.939ZM95.4267 158.313L95.9198 159.183L95.9211 159.182L95.4267 158.313ZM78.0616 158.295L78.5578 157.427L78.0616 158.295ZM71.9714 151.921L71.0901 152.394L71.9714 151.921ZM71.9714 131.697L72.8527 132.17L71.9714 131.697ZM78.0616 125.341L78.5547 126.211L78.5578 126.209L78.0616 125.341ZM95.4267 125.341L94.9305 126.209L94.9353 126.212L95.4267 125.341ZM101.535 131.697L100.653 132.17L100.655 132.173L101.535 131.697ZM94.8407 135.32L93.9219 135.714L93.9241 135.719L94.8407 135.32ZM91.627 131.307L91.0772 132.142L91.627 131.307ZM81.8968 131.307L82.4466 132.142L81.8968 131.307ZM78.6653 135.32L77.7487 134.92L77.7465 134.925L78.6653 135.32ZM78.6653 148.317L77.7465 148.711L77.7487 148.717L78.6653 148.317ZM81.8968 152.33L82.4466 151.494L81.8968 152.33ZM91.627 152.33L91.0772 151.494L91.627 152.33ZM94.8407 148.317L93.9241 147.917L93.9219 147.922L94.8407 148.317ZM102.79 141.818C102.79 145.659 102.062 148.86 100.655 151.463L102.414 152.414C104.014 149.454 104.79 145.908 104.79 141.818H102.79ZM100.653 151.466C99.245 154.093 97.3385 156.075 94.9323 157.444L95.9211 159.182C98.6758 157.616 100.841 155.348 102.416 152.411L100.653 151.466ZM94.9336 157.443C92.5281 158.807 89.8123 159.497 86.7619 159.497V161.497C90.1272 161.497 93.1879 160.732 95.9198 159.183L94.9336 157.443ZM86.7619 159.497C83.6879 159.497 80.9616 158.801 78.5578 157.427L77.5655 159.164C80.299 160.726 83.3729 161.497 86.7619 161.497V159.497ZM78.5578 157.427C76.1631 156.059 74.2617 154.076 72.8527 151.449L71.0901 152.394C72.6641 155.329 74.8228 157.596 77.5655 159.164L78.5578 157.427ZM72.8527 151.449C71.4564 148.844 70.7342 145.648 70.7342 141.818H68.7342C68.7342 145.896 69.5034 149.434 71.0901 152.394L72.8527 151.449ZM70.7342 141.818C70.7342 137.976 71.4566 134.774 72.8527 132.17L71.0901 131.225C69.5032 134.185 68.7342 137.729 68.7342 141.818H70.7342ZM72.8527 132.17C74.2614 129.543 76.1619 127.567 78.5547 126.211L77.5685 124.471C74.8241 126.027 72.6644 128.289 71.0901 131.225L72.8527 132.17ZM78.5578 126.209C80.9616 124.836 83.6879 124.139 86.7619 124.139V122.139C83.3729 122.139 80.299 122.911 77.5655 124.473L78.5578 126.209ZM86.7619 124.139C89.8108 124.139 92.5256 124.835 94.9305 126.209L95.9228 124.473C93.1905 122.911 90.1287 122.139 86.7619 122.139V124.139ZM94.9353 126.212C97.3397 127.568 99.2453 129.544 100.653 132.17L102.416 131.225C100.841 128.288 98.6746 126.025 95.9181 124.47L94.9353 126.212ZM100.655 132.173C102.062 134.776 102.79 137.977 102.79 141.818H104.79C104.79 137.728 104.014 134.182 102.414 131.222L100.655 132.173ZM96.9949 141.818C96.9949 139.156 96.5969 136.844 95.7573 134.92L93.9241 135.719C94.6234 137.322 94.9949 139.343 94.9949 141.818H96.9949ZM95.7596 134.925C94.9372 133.01 93.7497 131.507 92.1767 130.471L91.0772 132.142C92.2741 132.93 93.2291 134.101 93.9219 135.714L95.7596 134.925ZM92.1767 130.471C90.6092 129.44 88.7913 128.94 86.7619 128.94V130.94C88.4494 130.94 89.8748 131.351 91.0772 132.142L92.1767 130.471ZM86.7619 128.94C84.7325 128.94 82.9145 129.44 81.3471 130.471L82.4466 132.142C83.649 131.351 85.0744 130.94 86.7619 130.94V128.94ZM81.3471 130.471C79.7756 131.506 78.5829 133.008 77.7487 134.92L79.5819 135.719C80.2865 134.104 81.2482 132.931 82.4466 132.142L81.3471 130.471ZM77.7465 134.925C76.9205 136.848 76.5289 139.157 76.5289 141.818H78.5289C78.5289 139.342 78.8949 137.319 79.5841 135.714L77.7465 134.925ZM76.5289 141.818C76.5289 144.479 76.9205 146.789 77.7465 148.711L79.5841 147.922C78.8949 146.318 78.5289 144.295 78.5289 141.818H76.5289ZM77.7487 148.717C78.5829 150.629 79.7756 152.131 81.3471 153.165L82.4466 151.494C81.2482 150.706 80.2865 149.532 79.5819 147.917L77.7487 148.717ZM81.3471 153.165C82.9145 154.196 84.7325 154.697 86.7619 154.697V152.697C85.0744 152.697 83.649 152.286 82.4466 151.494L81.3471 153.165ZM86.7619 154.697C88.7913 154.697 90.6092 154.196 92.1767 153.165L91.0772 151.494C89.8748 152.286 88.4494 152.697 86.7619 152.697V154.697ZM92.1767 153.165C93.7497 152.13 94.9372 150.626 95.7596 148.711L93.9219 147.922C93.2291 149.535 92.2741 150.707 91.0772 151.494L92.1767 153.165ZM95.7573 148.717C96.5969 146.792 96.9949 144.481 96.9949 141.818H94.9949C94.9949 144.293 94.6234 146.314 93.9241 147.917L95.7573 148.717ZM129.211 134.094L128.216 134.193L128.306 135.094H129.211V134.094ZM119.819 130.099L120.188 131.029L120.199 131.024L119.819 130.099ZM117.83 131.538L117.03 130.938L117.023 130.948L117.83 131.538ZM117.155 133.633L118.155 133.669L118.155 133.651V133.633H117.155ZM117.564 135.337L116.71 135.858L116.714 135.865L116.719 135.873L117.564 135.337ZM118.824 136.598L118.27 137.43L118.276 137.434L118.283 137.439L118.824 136.598ZM120.671 137.504L120.321 138.441L120.328 138.443L120.335 138.446L120.671 137.504ZM122.908 138.143L123.141 137.17L123.134 137.168L123.126 137.167L122.908 138.143ZM126.175 138.924L125.942 139.897L125.95 139.898L125.957 139.9L126.175 138.924ZM130.543 140.344L130.135 141.258L130.543 140.344ZM133.988 142.528L134.652 141.781L133.988 142.528ZM136.243 145.582L135.332 145.996L135.336 146.004L136.243 145.582ZM137.077 149.613L138.077 149.618L138.077 149.605L137.077 149.613ZM135.373 155.401L134.549 154.834L134.548 154.836L135.373 155.401ZM130.543 159.183L130.933 160.104L130.936 160.103L130.543 159.183ZM115.291 159.165L114.907 160.089L114.909 160.09L115.291 159.165ZM110.213 155.17L109.386 155.733L109.39 155.739L110.213 155.17ZM108.313 148.583V147.583H107.29L107.313 148.606L108.313 148.583ZM115.752 148.583L116.75 148.515L116.687 147.583H115.752V148.583ZM116.8 151.637L116.001 152.239L116.006 152.245L116.011 152.252L116.8 151.637ZM119.304 153.466L118.934 154.395L118.947 154.4L119.304 153.466ZM126.264 153.501L125.9 152.57L125.896 152.571L126.264 153.501ZM128.519 151.921L129.304 152.541L128.519 151.921ZM128.59 147.536L127.828 148.184L127.836 148.193L128.59 147.536ZM126.495 146.115L126.101 147.034L126.105 147.036L126.495 146.115ZM123.139 145.05L122.895 146.02L122.904 146.022L123.139 145.05ZM119.179 144.055L119.423 143.085L119.416 143.084L119.179 144.055ZM111.917 140.558L111.251 141.303L111.917 140.558ZM109.272 134.148L110.272 134.152L110.272 134.142L109.272 134.148ZM111.029 128.377L110.22 127.789L110.218 127.793L111.029 128.377ZM130.117 124.524L129.7 125.433L129.702 125.434L130.117 124.524ZM134.84 128.377L134.014 128.941L134.84 128.377ZM136.58 134.094V135.094H137.596L137.58 134.078L136.58 134.094ZM130.206 133.996C130.039 132.306 129.299 130.926 127.975 129.951L126.79 131.562C127.62 132.173 128.1 133.019 128.216 134.193L130.206 133.996ZM127.975 129.951C126.672 128.991 124.977 128.567 122.997 128.567V130.567C124.709 130.567 125.939 130.935 126.79 131.562L127.975 129.951ZM122.997 128.567C121.654 128.567 120.457 128.756 119.438 129.174L120.199 131.024C120.908 130.733 121.83 130.567 122.997 130.567V128.567ZM119.449 129.17C118.45 129.567 117.623 130.147 117.03 130.938L118.63 132.138C118.96 131.698 119.459 131.318 120.188 131.029L119.449 129.17ZM117.023 130.948C116.444 131.739 116.155 132.645 116.155 133.633H118.155C118.155 133.058 118.316 132.567 118.637 132.128L117.023 130.948ZM116.156 133.596C116.126 134.414 116.297 135.182 116.71 135.858L118.417 134.817C118.238 134.522 118.137 134.154 118.155 133.669L116.156 133.596ZM116.719 135.873C117.11 136.489 117.634 137.006 118.27 137.43L119.379 135.766C118.949 135.479 118.633 135.156 118.408 134.802L116.719 135.873ZM118.283 137.439C118.885 137.827 119.567 138.159 120.321 138.441L121.02 136.567C120.378 136.327 119.829 136.056 119.366 135.757L118.283 137.439ZM120.335 138.446C121.076 138.709 121.861 138.933 122.69 139.119L123.126 137.167C122.369 136.997 121.663 136.795 121.006 136.561L120.335 138.446ZM122.675 139.115L125.942 139.897L126.408 137.951L123.141 137.17L122.675 139.115ZM125.957 139.9C127.485 140.242 128.877 140.696 130.135 141.258L130.951 139.431C129.557 138.809 128.037 138.316 126.394 137.948L125.957 139.9ZM130.135 141.258C131.378 141.812 132.437 142.487 133.323 143.275L134.652 141.781C133.597 140.842 132.359 140.06 130.951 139.431L130.135 141.258ZM133.323 143.275C134.19 144.048 134.858 144.952 135.332 145.996L137.153 145.169C136.562 143.869 135.726 142.737 134.652 141.781L133.323 143.275ZM135.336 146.004C135.81 147.026 136.066 148.224 136.077 149.621L138.077 149.605C138.064 147.971 137.764 146.483 137.149 145.161L135.336 146.004ZM136.077 149.608C136.066 151.658 135.546 153.386 134.549 154.834L136.196 155.968C137.448 154.15 138.064 152.019 138.077 149.618L136.077 149.608ZM134.548 154.836C133.559 156.276 132.112 157.426 130.15 158.264L130.936 160.103C133.188 159.141 134.96 157.77 136.197 155.967L134.548 154.836ZM130.153 158.262C128.212 159.085 125.825 159.515 122.961 159.515V161.515C126.016 161.515 128.683 161.057 130.933 160.104L130.153 158.262ZM122.961 159.515C120.126 159.515 117.704 159.08 115.673 158.241L114.909 160.09C117.234 161.05 119.926 161.515 122.961 161.515V159.515ZM115.674 158.242C113.668 157.409 112.135 156.193 111.035 154.602L109.39 155.739C110.729 157.676 112.581 159.123 114.907 160.089L115.674 158.242ZM111.04 154.608C109.962 153.024 109.368 151.026 109.313 148.56L107.313 148.606C107.376 151.372 108.048 153.766 109.386 155.733L111.04 154.608ZM108.313 149.583H115.752V147.583H108.313V149.583ZM114.755 148.651C114.848 150.025 115.248 151.239 116.001 152.239L117.599 151.035C117.121 150.401 116.822 149.579 116.75 148.515L114.755 148.651ZM116.011 152.252C116.759 153.211 117.744 153.922 118.934 154.395L119.673 152.537C118.78 152.181 118.096 151.673 117.589 151.022L116.011 152.252ZM118.947 154.4C120.132 154.853 121.446 155.07 122.873 155.07V153.07C121.648 153.07 120.582 152.884 119.66 152.532L118.947 154.4ZM122.873 155.07C124.269 155.07 125.529 154.867 126.631 154.431L125.896 152.571C125.081 152.894 124.081 153.07 122.873 153.07V155.07ZM126.627 154.433C127.729 154.003 128.64 153.382 129.304 152.541L127.734 151.302C127.333 151.81 126.74 152.242 125.9 152.57L126.627 154.433ZM129.304 152.541C129.979 151.686 130.318 150.691 130.318 149.595H128.318C128.318 150.251 128.124 150.807 127.734 151.302L129.304 152.541ZM130.318 149.595C130.318 148.564 130.005 147.636 129.343 146.878L127.836 148.193C128.145 148.547 128.318 148.992 128.318 149.595H130.318ZM129.351 146.887C128.746 146.177 127.901 145.624 126.884 145.194L126.105 147.036C126.935 147.387 127.486 147.782 127.828 148.184L129.351 146.887ZM126.889 145.196C125.91 144.777 124.735 144.406 123.373 144.078L122.904 146.022C124.194 146.333 125.256 146.672 126.101 147.034L126.889 145.196ZM123.382 144.08L119.423 143.086L118.936 145.025L122.895 146.02L123.382 144.08ZM119.416 143.084C116.46 142.365 114.203 141.259 112.583 139.812L111.251 141.303C113.183 143.029 115.767 144.255 118.943 145.027L119.416 143.084ZM112.583 139.812C111.05 138.442 110.261 136.594 110.272 134.152L108.272 134.143C108.259 137.076 109.233 139.501 111.251 141.303L112.583 139.812ZM110.272 134.142C110.261 132.133 110.792 130.42 111.841 128.961L110.218 127.793C108.9 129.625 108.259 131.759 108.272 134.153L110.272 134.142ZM111.838 128.965C112.918 127.479 114.411 126.299 116.353 125.438L115.543 123.61C113.318 124.596 111.532 125.985 110.22 127.789L111.838 128.965ZM116.353 125.438C118.29 124.58 120.515 124.139 123.05 124.139V122.139C120.282 122.139 117.773 122.622 115.543 123.61L116.353 125.438ZM123.05 124.139C125.636 124.139 127.844 124.581 129.7 125.433L130.534 123.615C128.365 122.62 125.862 122.139 123.05 122.139V124.139ZM129.702 125.434C131.58 126.291 133.004 127.463 134.014 128.941L135.665 127.813C134.426 126 132.702 124.604 130.532 123.614L129.702 125.434ZM134.014 128.941C135.019 130.411 135.547 132.123 135.58 134.111L137.58 134.078C137.541 131.734 136.91 129.634 135.665 127.813L134.014 128.941ZM136.58 133.094H129.211V135.094H136.58V133.094ZM140.118 123.636V122.636H138.405L139.247 124.128L140.118 123.636ZM148.729 123.636L149.613 123.168L149.331 122.636H148.729V123.636ZM157.021 139.297L156.137 139.765L156.419 140.297H157.021V139.297ZM157.376 139.297V140.297H157.978L158.26 139.765L157.376 139.297ZM165.668 123.636V122.636H165.066L164.784 123.168L165.668 123.636ZM174.28 123.636L175.151 124.128L175.992 122.636H174.28V123.636ZM161.016 147.145L160.145 146.654L160.016 146.882V147.145H161.016ZM161.016 160V161H162.016V160H161.016ZM153.381 160H152.381V161H153.381V160ZM153.381 147.145H154.381V146.882L154.252 146.654L153.381 147.145ZM140.118 124.636H148.729V122.636H140.118V124.636ZM147.845 124.104L156.137 139.765L157.905 138.829L149.613 123.168L147.845 124.104ZM157.021 140.297H157.376V138.297H157.021V140.297ZM158.26 139.765L166.552 124.104L164.784 123.168L156.492 138.829L158.26 139.765ZM165.668 124.636H174.28V122.636H165.668V124.636ZM173.409 123.145L160.145 146.654L161.887 147.636L175.151 124.128L173.409 123.145ZM160.016 147.145V160H162.016V147.145H160.016ZM161.016 159H153.381V161H161.016V159ZM154.381 160V147.145H152.381V160H154.381ZM154.252 146.654L140.989 123.145L139.247 124.128L152.51 147.636L154.252 146.654ZM198.205 134.094L197.21 134.193L197.3 135.094H198.205V134.094ZM188.813 130.099L189.182 131.029L189.193 131.024L188.813 130.099ZM186.824 131.538L186.024 130.938L186.017 130.948L186.824 131.538ZM186.149 133.633L187.149 133.669L187.149 133.651V133.633H186.149ZM186.558 135.337L185.704 135.858L185.708 135.865L185.713 135.873L186.558 135.337ZM187.818 136.598L187.264 137.43L187.27 137.434L187.277 137.439L187.818 136.598ZM189.665 137.504L189.316 138.441L189.323 138.443L189.33 138.446L189.665 137.504ZM191.902 138.143L192.135 137.17L192.128 137.168L192.121 137.167L191.902 138.143ZM195.169 138.924L194.937 139.897L194.944 139.898L194.951 139.9L195.169 138.924ZM199.537 140.344L199.129 141.258L199.537 140.344ZM202.982 142.528L203.647 141.781L202.982 142.528ZM205.237 145.582L204.326 145.996L204.33 146.004L205.237 145.582ZM206.071 149.613L207.071 149.618L207.071 149.605L206.071 149.613ZM204.367 155.401L203.543 154.834L203.542 154.836L204.367 155.401ZM199.537 159.183L199.927 160.104L199.93 160.103L199.537 159.183ZM184.285 159.165L183.901 160.089L183.903 160.09L184.285 159.165ZM179.207 155.17L178.38 155.733L178.384 155.739L179.207 155.17ZM177.307 148.583V147.583H176.284L176.307 148.606L177.307 148.583ZM184.747 148.583L185.744 148.515L185.681 147.583H184.747V148.583ZM185.794 151.637L184.996 152.239L185 152.245L185.005 152.252L185.794 151.637ZM188.298 153.466L187.928 154.395L187.941 154.4L188.298 153.466ZM195.258 153.501L194.894 152.57L194.891 152.571L195.258 153.501ZM197.513 151.921L198.298 152.541L197.513 151.921ZM197.584 147.536L196.822 148.184L196.83 148.193L197.584 147.536ZM195.489 146.115L195.095 147.034L195.099 147.036L195.489 146.115ZM192.133 145.05L191.889 146.02L191.899 146.022L192.133 145.05ZM188.173 144.055L188.417 143.085L188.41 143.084L188.173 144.055ZM180.911 140.558L180.245 141.303H180.245L180.911 140.558ZM178.266 134.148L179.266 134.152L179.266 134.142L178.266 134.148ZM180.024 128.377L179.215 127.789L179.212 127.793L180.024 128.377ZM199.111 124.524L198.694 125.433L198.696 125.434L199.111 124.524ZM203.834 128.377L203.008 128.941L203.834 128.377ZM205.574 134.094V135.094H206.591L206.574 134.078L205.574 134.094ZM199.201 133.996C199.033 132.306 198.294 130.926 196.969 129.951L195.784 131.562C196.614 132.173 197.094 133.019 197.21 134.193L199.201 133.996ZM196.969 129.951C195.666 128.991 193.971 128.567 191.991 128.567V130.567C193.704 130.567 194.933 130.935 195.784 131.562L196.969 129.951ZM191.991 128.567C190.648 128.567 189.451 128.756 188.433 129.174L189.193 131.024C189.903 130.733 190.824 130.567 191.991 130.567V128.567ZM188.443 129.17C187.444 129.567 186.617 130.147 186.024 130.938L187.624 132.138C187.954 131.698 188.453 131.318 189.182 131.029L188.443 129.17ZM186.017 130.948C185.438 131.739 185.149 132.645 185.149 133.633H187.149C187.149 133.058 187.31 132.567 187.631 132.128L186.017 130.948ZM185.15 133.596C185.12 134.414 185.292 135.182 185.704 135.858L187.411 134.817C187.232 134.522 187.131 134.154 187.149 133.669L185.15 133.596ZM185.713 135.873C186.104 136.489 186.628 137.006 187.264 137.43L188.373 135.766C187.943 135.479 187.627 135.156 187.402 134.802L185.713 135.873ZM187.277 137.439C187.879 137.827 188.561 138.159 189.316 138.441L190.014 136.567C189.372 136.327 188.823 136.056 188.36 135.757L187.277 137.439ZM189.33 138.446C190.07 138.709 190.855 138.933 191.684 139.119L192.121 137.167C191.363 136.997 190.657 136.795 190 136.561L189.33 138.446ZM191.67 139.115L194.937 139.897L195.402 137.951L192.135 137.17L191.67 139.115ZM194.951 139.9C196.48 140.242 197.871 140.696 199.129 141.258L199.945 139.431C198.551 138.809 197.031 138.316 195.388 137.948L194.951 139.9ZM199.129 141.258C200.372 141.812 201.431 142.487 202.317 143.275L203.647 141.781C202.591 140.842 201.353 140.06 199.945 139.431L199.129 141.258ZM202.317 143.275C203.184 144.048 203.852 144.952 204.326 145.996L206.147 145.169C205.556 143.869 204.72 142.737 203.647 141.781L202.317 143.275ZM204.33 146.004C204.805 147.026 205.06 148.224 205.071 149.621L207.071 149.605C207.058 147.971 206.758 146.483 206.144 145.161L204.33 146.004ZM205.071 149.608C205.06 151.658 204.54 153.386 203.543 154.834L205.19 155.968C206.442 154.15 207.058 152.019 207.071 149.618L205.071 149.608ZM203.542 154.836C202.554 156.276 201.106 157.426 199.144 158.264L199.93 160.103C202.182 159.141 203.954 157.77 205.191 155.967L203.542 154.836ZM199.147 158.262C197.206 159.085 194.819 159.515 191.955 159.515V161.515C195.01 161.515 197.678 161.057 199.927 160.104L199.147 158.262ZM191.955 159.515C189.12 159.515 186.698 159.08 184.667 158.241L183.903 160.09C186.228 161.05 188.92 161.515 191.955 161.515V159.515ZM184.669 158.242C182.662 157.409 181.129 156.193 180.029 154.602L178.384 155.739C179.723 157.676 181.575 159.123 183.901 160.089L184.669 158.242ZM180.034 154.608C178.956 153.024 178.363 151.026 178.307 148.56L176.307 148.606C176.37 151.372 177.042 153.766 178.38 155.733L180.034 154.608ZM177.307 149.583H184.747V147.583H177.307V149.583ZM183.749 148.651C183.842 150.025 184.242 151.239 184.996 152.239L186.593 151.035C186.115 150.401 185.817 149.579 185.744 148.515L183.749 148.651ZM185.005 152.252C185.753 153.211 186.738 153.922 187.928 154.395L188.667 152.537C187.774 152.181 187.09 151.673 186.583 151.022L185.005 152.252ZM187.941 154.4C189.126 154.853 190.44 155.07 191.867 155.07V153.07C190.642 153.07 189.576 152.884 188.655 152.532L187.941 154.4ZM191.867 155.07C193.263 155.07 194.523 154.867 195.625 154.431L194.891 152.571C194.075 152.894 193.075 153.07 191.867 153.07V155.07ZM195.622 154.433C196.723 154.003 197.634 153.382 198.298 152.541L196.728 151.302C196.327 151.81 195.735 152.242 194.894 152.57L195.622 154.433ZM198.298 152.541C198.973 151.686 199.312 150.691 199.312 149.595H197.312C197.312 150.251 197.119 150.807 196.728 151.302L198.298 152.541ZM199.312 149.595C199.312 148.564 198.999 147.636 198.338 146.878L196.83 148.193C197.14 148.547 197.312 148.992 197.312 149.595H199.312ZM198.346 146.887C197.741 146.177 196.895 145.624 195.878 145.194L195.099 147.036C195.93 147.387 196.48 147.782 196.822 148.184L198.346 146.887ZM195.883 145.196C194.905 144.777 193.729 144.406 192.367 144.078L191.899 146.022C193.189 146.333 194.25 146.672 195.095 147.034L195.883 145.196ZM192.377 144.08L188.417 143.086L187.93 145.025L191.889 146.02L192.377 144.08ZM188.41 143.084C185.454 142.365 183.197 141.259 181.578 139.812L180.245 141.303C182.177 143.029 184.762 144.255 187.937 145.027L188.41 143.084ZM181.578 139.812C180.044 138.442 179.255 136.594 179.266 134.152L177.266 134.143C177.253 137.076 178.227 139.501 180.245 141.303L181.578 139.812ZM179.266 134.142C179.255 132.133 179.786 130.42 180.835 128.961L179.212 127.793C177.894 129.625 177.253 131.759 177.266 134.153L179.266 134.142ZM180.833 128.965C181.913 127.479 183.405 126.299 185.347 125.438L184.537 123.61C182.312 124.596 180.526 125.985 179.215 127.789L180.833 128.965ZM185.347 125.438C187.284 124.58 189.51 124.139 192.044 124.139V122.139C189.276 122.139 186.767 122.622 184.537 123.61L185.347 125.438ZM192.044 124.139C194.63 124.139 196.838 124.581 198.694 125.433L199.528 123.615C197.359 122.62 194.856 122.139 192.044 122.139V124.139ZM198.696 125.434C200.574 126.291 201.998 127.463 203.008 128.941L204.66 127.813C203.421 126 201.696 124.604 199.526 123.614L198.696 125.434ZM203.008 128.941C204.013 130.411 204.542 132.123 204.574 134.111L206.574 134.078C206.535 131.734 205.904 129.634 204.66 127.813L203.008 128.941ZM205.574 133.094H198.205V135.094H205.574V133.094ZM209.858 129.975H208.858V130.975H209.858V129.975ZM209.858 123.636V122.636H208.858V123.636H209.858ZM239.723 123.636H240.723V122.636H239.723V123.636ZM239.723 129.975V130.975H240.723V129.975H239.723ZM228.59 129.975V128.975H227.59V129.975H228.59ZM228.59 160V161H229.59V160H228.59ZM220.99 160H219.99V161H220.99V160ZM220.99 129.975H221.99V128.975H220.99V129.975ZM210.858 129.975V123.636H208.858V129.975H210.858ZM209.858 124.636H239.723V122.636H209.858V124.636ZM238.723 123.636V129.975H240.723V123.636H238.723ZM239.723 128.975H228.59V130.975H239.723V128.975ZM227.59 129.975V160H229.59V129.975H227.59ZM228.59 159H220.99V161H228.59V159ZM221.99 160V129.975H219.99V160H221.99ZM220.99 128.975H209.858V130.975H220.99V128.975ZM244.641 160H243.641V161H244.641V160ZM244.641 123.636V122.636H243.641V123.636H244.641ZM269.144 123.636H270.144V122.636H269.144V123.636ZM269.144 129.975V130.975H270.144V129.975H269.144ZM252.329 129.975V128.975H251.329V129.975H252.329ZM252.329 138.64H251.329V139.64H252.329V138.64ZM267.883 138.64H268.883V137.64H267.883V138.64ZM267.883 144.979V145.979H268.883V144.979H267.883ZM252.329 144.979V143.979H251.329V144.979H252.329ZM252.329 153.661H251.329V154.661H252.329V153.661ZM269.215 153.661H270.215V152.661H269.215V153.661ZM269.215 160V161H270.215V160H269.215ZM245.641 160V123.636H243.641V160H245.641ZM244.641 124.636H269.144V122.636H244.641V124.636ZM268.144 123.636V129.975H270.144V123.636H268.144ZM269.144 128.975H252.329V130.975H269.144V128.975ZM251.329 129.975V138.64H253.329V129.975H251.329ZM252.329 139.64H267.883V137.64H252.329V139.64ZM266.883 138.64V144.979H268.883V138.64H266.883ZM267.883 143.979H252.329V145.979H267.883V143.979ZM251.329 144.979V153.661H253.329V144.979H251.329ZM252.329 154.661H269.215V152.661H252.329V154.661ZM268.215 153.661V160H270.215V153.661H268.215ZM269.215 159H244.641V161H269.215V159ZM275.256 123.636V122.636H274.256V123.636H275.256ZM284.738 123.636L285.663 123.257L285.409 122.636H284.738V123.636ZM294.752 148.068L293.827 148.447L294.081 149.068H294.752V148.068ZM295.178 148.068V149.068H295.849L296.103 148.447L295.178 148.068ZM305.192 123.636V122.636H304.521L304.267 123.257L305.192 123.636ZM314.674 123.636H315.674V122.636H314.674V123.636ZM314.674 160V161H315.674V160H314.674ZM307.216 160H306.216V161H307.216V160ZM307.216 136.332H308.216V135.332H307.216V136.332ZM306.915 136.332V135.332H306.238L305.986 135.96L306.915 136.332ZM297.504 159.822V160.822H298.181L298.432 160.194L297.504 159.822ZM292.426 159.822L291.497 160.193L291.748 160.822H292.426V159.822ZM283.015 136.243L283.944 135.872L283.693 135.243H283.015V136.243ZM282.714 136.243V135.243H281.714V136.243H282.714ZM282.714 160V161H283.714V160H282.714ZM275.256 160H274.256V161H275.256V160ZM275.256 124.636H284.738V122.636H275.256V124.636ZM283.812 124.016L293.827 148.447L295.677 147.689L285.663 123.257L283.812 124.016ZM294.752 149.068H295.178V147.068H294.752V149.068ZM296.103 148.447L306.118 124.016L304.267 123.257L294.253 147.689L296.103 148.447ZM305.192 124.636H314.674V122.636H305.192V124.636ZM313.674 123.636V160H315.674V123.636H313.674ZM314.674 159H307.216V161H314.674V159ZM308.216 160V136.332H306.216V160H308.216ZM307.216 135.332H306.915V137.332H307.216V135.332ZM305.986 135.96L296.576 159.451L298.432 160.194L307.843 136.704L305.986 135.96ZM297.504 158.822H292.426V160.822H297.504V158.822ZM293.355 159.452L283.944 135.872L282.087 136.614L291.497 160.193L293.355 159.452ZM283.015 135.243H282.714V137.243H283.015V135.243ZM281.714 136.243V160H283.714V136.243H281.714ZM282.714 159H275.256V161H282.714V159ZM276.256 160V123.636H274.256V160H276.256Z" fill="#22E2F8" mask="url(#path-1-outside-1_224_404)"/>
  </svg>
