<svg width="317" height="101" viewBox="0 0 317 101" fill="none" xmlns="http://www.w3.org/2000/svg">
  <mask id="path-1-outside-1_224_388" maskUnits="userSpaceOnUse" x="0" y="0" width="317" height="101" fill="black">
  <rect fill="white" width="317" height="101"/>
  <path d="M22.8871 12.0945C22.745 10.6622 22.1354 9.54948 21.0582 8.75639C19.9811 7.9633 18.5192 7.56676 16.6726 7.56676C15.4179 7.56676 14.3584 7.74432 13.4943 8.09943C12.6302 8.44271 11.9673 8.92211 11.5057 9.53764C11.0559 10.1532 10.831 10.8516 10.831 11.6328C10.8073 12.2839 10.9434 12.852 11.2393 13.3374C11.5471 13.8227 11.9673 14.2429 12.5 14.598C13.0327 14.9413 13.6482 15.2431 14.3466 15.5036C15.045 15.7521 15.7907 15.9652 16.5838 16.1428L19.8509 16.924C21.437 17.2791 22.893 17.7526 24.2188 18.3445C25.5445 18.9363 26.6927 19.6643 27.6634 20.5284C28.634 21.3925 29.3857 22.4105 29.9183 23.5824C30.4628 24.7543 30.741 26.0978 30.7528 27.6129C30.741 29.8383 30.1728 31.7678 29.0483 33.4013C27.9356 35.023 26.3258 36.2836 24.2188 37.1832C22.1236 38.071 19.5964 38.5149 16.6371 38.5149C13.7015 38.5149 11.1446 38.0651 8.96662 37.1655C6.80043 36.2659 5.10772 34.9342 3.88849 33.1705C2.68111 31.3949 2.04782 29.1991 1.98864 26.5831H9.42827C9.51113 27.8023 9.86032 28.8203 10.4759 29.6371C11.1032 30.442 11.9377 31.0516 12.9794 31.4659C14.0329 31.8684 15.2225 32.0696 16.5483 32.0696C17.8504 32.0696 18.9808 31.8802 19.9396 31.5014C20.9103 31.1226 21.6619 30.5959 22.1946 29.9212C22.7273 29.2464 22.9936 28.4711 22.9936 27.5952C22.9936 26.7784 22.7509 26.0919 22.2656 25.5355C21.7921 24.9792 21.0938 24.5057 20.1705 24.1151C19.259 23.7244 18.1404 23.3693 16.8146 23.0497L12.8551 22.0554C9.7893 21.3097 7.36861 20.1437 5.59304 18.5575C3.81747 16.9714 2.93561 14.8348 2.94744 12.1477C2.93561 9.94602 3.52154 8.02249 4.70526 6.37713C5.90081 4.73177 7.54025 3.44744 9.62358 2.52415C11.7069 1.60085 14.0743 1.1392 16.7259 1.1392C19.4247 1.1392 21.7803 1.60085 23.7926 2.52415C25.8168 3.44744 27.3911 4.73177 28.5156 6.37713C29.6402 8.02249 30.2202 9.92827 30.2557 12.0945H22.8871ZM34.5392 7.97514V1.63636H64.4043V7.97514H53.2715V38H45.6721V7.97514H34.5392ZM67.9377 7.97514V1.63636H97.8027V7.97514H86.6699V38H79.0705V7.97514H67.9377ZM3.16051 99V62.6364H27.6634V68.9751H10.8487V77.6399H26.4027V83.9787H10.8487V92.6612H27.7344V99H3.16051ZM65.8603 75.3672H58.0833C57.9412 74.361 57.6512 73.4673 57.2132 72.6861C56.7753 71.893 56.213 71.2183 55.5265 70.6619C54.8399 70.1056 54.0468 69.6794 53.1472 69.3835C52.2594 69.0876 51.2947 68.9396 50.253 68.9396C48.3709 68.9396 46.7315 69.4072 45.3347 70.3423C43.9379 71.2656 42.8548 72.6151 42.0854 74.3906C41.316 76.1544 40.9313 78.2969 40.9313 80.8182C40.9313 83.4105 41.316 85.5885 42.0854 87.3523C42.8667 89.116 43.9557 90.4477 45.3525 91.3473C46.7492 92.2469 48.365 92.6967 50.1998 92.6967C51.2296 92.6967 52.1825 92.5606 53.0584 92.2884C53.9462 92.0161 54.7334 91.6196 55.4199 91.0987C56.1065 90.5661 56.6747 89.9209 57.1245 89.1634C57.5861 88.4058 57.9057 87.5417 58.0833 86.571L65.8603 86.6065C65.659 88.2756 65.156 89.8854 64.351 91.4361C63.5579 92.9749 62.4867 94.3539 61.1373 95.5732C59.7997 96.7805 58.2016 97.7393 56.3432 98.4496C54.4966 99.148 52.4074 99.4972 50.0755 99.4972C46.8321 99.4972 43.932 98.7633 41.3752 97.2955C38.8302 95.8277 36.8179 93.7029 35.3382 90.9212C33.8704 88.1394 33.1365 84.7718 33.1365 80.8182C33.1365 76.8527 33.8823 73.4792 35.3738 70.6974C36.8652 67.9157 38.8894 65.7969 41.4462 64.3409C44.003 62.8731 46.8794 62.1392 50.0755 62.1392C52.1825 62.1392 54.1356 62.4351 55.9348 63.027C57.7459 63.6188 59.3498 64.483 60.7466 65.6193C62.1434 66.7438 63.2798 68.1229 64.1557 69.7564C65.0435 71.3899 65.6117 73.2602 65.8603 75.3672ZM104.79 80.8182C104.79 84.7836 104.038 88.1572 102.535 90.9389C101.043 93.7206 99.0072 95.8454 96.4267 97.3132C93.858 98.7692 90.9698 99.4972 87.7619 99.4972C84.5304 99.4972 81.6303 98.7633 79.0616 97.2955C76.493 95.8277 74.4629 93.7029 72.9714 90.9212C71.4799 88.1394 70.7342 84.7718 70.7342 80.8182C70.7342 76.8527 71.4799 73.4792 72.9714 70.6974C74.4629 67.9157 76.493 65.7969 79.0616 64.3409C81.6303 62.8731 84.5304 62.1392 87.7619 62.1392C90.9698 62.1392 93.858 62.8731 96.4267 64.3409C99.0072 65.7969 101.043 67.9157 102.535 70.6974C104.038 73.4792 104.79 76.8527 104.79 80.8182ZM96.9949 80.8182C96.9949 78.2495 96.6101 76.0833 95.8407 74.3196C95.0832 72.5559 94.0119 71.2183 92.627 70.3068C91.242 69.3954 89.6203 68.9396 87.7619 68.9396C85.9035 68.9396 84.2818 69.3954 82.8968 70.3068C81.5119 71.2183 80.4347 72.5559 79.6653 74.3196C78.9077 76.0833 78.5289 78.2495 78.5289 80.8182C78.5289 83.3868 78.9077 85.553 79.6653 87.3168C80.4347 89.0805 81.5119 90.4181 82.8968 91.3295C84.2818 92.241 85.9035 92.6967 87.7619 92.6967C89.6203 92.6967 91.242 92.241 92.627 91.3295C94.0119 90.4181 95.0832 89.0805 95.8407 87.3168C96.6101 85.553 96.9949 83.3868 96.9949 80.8182ZM130.211 73.0945C130.069 71.6622 129.46 70.5495 128.382 69.7564C127.305 68.9633 125.843 68.5668 123.997 68.5668C122.742 68.5668 121.683 68.7443 120.819 69.0994C119.954 69.4427 119.292 69.9221 118.83 70.5376C118.38 71.1532 118.155 71.8516 118.155 72.6328C118.132 73.2839 118.268 73.852 118.564 74.3374C118.871 74.8227 119.292 75.2429 119.824 75.598C120.357 75.9413 120.972 76.2431 121.671 76.5036C122.369 76.7521 123.115 76.9652 123.908 77.1428L127.175 77.924C128.761 78.2791 130.217 78.7526 131.543 79.3445C132.869 79.9363 134.017 80.6643 134.988 81.5284C135.958 82.3925 136.71 83.4105 137.243 84.5824C137.787 85.7543 138.065 87.0978 138.077 88.6129C138.065 90.8383 137.497 92.7678 136.373 94.4013C135.26 96.023 133.65 97.2836 131.543 98.1832C129.448 99.071 126.921 99.5149 123.961 99.5149C121.026 99.5149 118.469 99.0651 116.291 98.1655C114.125 97.2659 112.432 95.9342 111.213 94.1705C110.005 92.3949 109.372 90.1991 109.313 87.5831H116.752C116.835 88.8023 117.185 89.8203 117.8 90.6371C118.427 91.442 119.262 92.0516 120.304 92.4659C121.357 92.8684 122.547 93.0696 123.873 93.0696C125.175 93.0696 126.305 92.8802 127.264 92.5014C128.234 92.1226 128.986 91.5959 129.519 90.9212C130.051 90.2464 130.318 89.4711 130.318 88.5952C130.318 87.7784 130.075 87.0919 129.59 86.5355C129.116 85.9792 128.418 85.5057 127.495 85.1151C126.583 84.7244 125.465 84.3693 124.139 84.0497L120.179 83.0554C117.114 82.3097 114.693 81.1437 112.917 79.5575C111.142 77.9714 110.26 75.8348 110.272 73.1477C110.26 70.946 110.846 69.0225 112.029 67.3771C113.225 65.7318 114.864 64.4474 116.948 63.5241C119.031 62.6009 121.399 62.1392 124.05 62.1392C126.749 62.1392 129.105 62.6009 131.117 63.5241C133.141 64.4474 134.715 65.7318 135.84 67.3771C136.964 69.0225 137.544 70.9283 137.58 73.0945H130.211ZM141.118 62.6364H149.729L158.021 78.2969H158.376L166.668 62.6364H175.28L162.016 86.1449V99H154.381V86.1449L141.118 62.6364ZM199.205 73.0945C199.063 71.6622 198.454 70.5495 197.377 69.7564C196.299 68.9633 194.838 68.5668 192.991 68.5668C191.736 68.5668 190.677 68.7443 189.813 69.0994C188.949 69.4427 188.286 69.9221 187.824 70.5376C187.374 71.1532 187.149 71.8516 187.149 72.6328C187.126 73.2839 187.262 73.852 187.558 74.3374C187.865 74.8227 188.286 75.2429 188.818 75.598C189.351 75.9413 189.967 76.2431 190.665 76.5036C191.363 76.7521 192.109 76.9652 192.902 77.1428L196.169 77.924C197.755 78.2791 199.211 78.7526 200.537 79.3445C201.863 79.9363 203.011 80.6643 203.982 81.5284C204.952 82.3925 205.704 83.4105 206.237 84.5824C206.781 85.7543 207.059 87.0978 207.071 88.6129C207.059 90.8383 206.491 92.7678 205.367 94.4013C204.254 96.023 202.644 97.2836 200.537 98.1832C198.442 99.071 195.915 99.5149 192.955 99.5149C190.02 99.5149 187.463 99.0651 185.285 98.1655C183.119 97.2659 181.426 95.9342 180.207 94.1705C178.999 92.3949 178.366 90.1991 178.307 87.5831H185.747C185.829 88.8023 186.179 89.8203 186.794 90.6371C187.422 91.442 188.256 92.0516 189.298 92.4659C190.351 92.8684 191.541 93.0696 192.867 93.0696C194.169 93.0696 195.299 92.8802 196.258 92.5014C197.229 92.1226 197.98 91.5959 198.513 90.9212C199.046 90.2464 199.312 89.4711 199.312 88.5952C199.312 87.7784 199.069 87.0919 198.584 86.5355C198.11 85.9792 197.412 85.5057 196.489 85.1151C195.577 84.7244 194.459 84.3693 193.133 84.0497L189.173 83.0554C186.108 82.3097 183.687 81.1437 181.911 79.5575C180.136 77.9714 179.254 75.8348 179.266 73.1477C179.254 70.946 179.84 69.0225 181.024 67.3771C182.219 65.7318 183.859 64.4474 185.942 63.5241C188.025 62.6009 190.393 62.1392 193.044 62.1392C195.743 62.1392 198.099 62.6009 200.111 63.5241C202.135 64.4474 203.709 65.7318 204.834 67.3771C205.959 69.0225 206.539 70.9283 206.574 73.0945H199.205ZM210.858 68.9751V62.6364H240.723V68.9751H229.59V99H221.99V68.9751H210.858ZM245.641 99V62.6364H270.144V68.9751H253.329V77.6399H268.883V83.9787H253.329V92.6612H270.215V99H245.641ZM276.256 62.6364H285.738L295.752 87.0682H296.178L306.192 62.6364H315.674V99H308.216V75.3317H307.915L298.504 98.8224H293.426L284.015 75.2429H283.714V99H276.256V62.6364Z"/>
  </mask>
  <path d="M22.8871 12.0945C22.745 10.6622 22.1354 9.54948 21.0582 8.75639C19.9811 7.9633 18.5192 7.56676 16.6726 7.56676C15.4179 7.56676 14.3584 7.74432 13.4943 8.09943C12.6302 8.44271 11.9673 8.92211 11.5057 9.53764C11.0559 10.1532 10.831 10.8516 10.831 11.6328C10.8073 12.2839 10.9434 12.852 11.2393 13.3374C11.5471 13.8227 11.9673 14.2429 12.5 14.598C13.0327 14.9413 13.6482 15.2431 14.3466 15.5036C15.045 15.7521 15.7907 15.9652 16.5838 16.1428L19.8509 16.924C21.437 17.2791 22.893 17.7526 24.2188 18.3445C25.5445 18.9363 26.6927 19.6643 27.6634 20.5284C28.634 21.3925 29.3857 22.4105 29.9183 23.5824C30.4628 24.7543 30.741 26.0978 30.7528 27.6129C30.741 29.8383 30.1728 31.7678 29.0483 33.4013C27.9356 35.023 26.3258 36.2836 24.2188 37.1832C22.1236 38.071 19.5964 38.5149 16.6371 38.5149C13.7015 38.5149 11.1446 38.0651 8.96662 37.1655C6.80043 36.2659 5.10772 34.9342 3.88849 33.1705C2.68111 31.3949 2.04782 29.1991 1.98864 26.5831H9.42827C9.51113 27.8023 9.86032 28.8203 10.4759 29.6371C11.1032 30.442 11.9377 31.0516 12.9794 31.4659C14.0329 31.8684 15.2225 32.0696 16.5483 32.0696C17.8504 32.0696 18.9808 31.8802 19.9396 31.5014C20.9103 31.1226 21.6619 30.5959 22.1946 29.9212C22.7273 29.2464 22.9936 28.4711 22.9936 27.5952C22.9936 26.7784 22.7509 26.0919 22.2656 25.5355C21.7921 24.9792 21.0938 24.5057 20.1705 24.1151C19.259 23.7244 18.1404 23.3693 16.8146 23.0497L12.8551 22.0554C9.7893 21.3097 7.36861 20.1437 5.59304 18.5575C3.81747 16.9714 2.93561 14.8348 2.94744 12.1477C2.93561 9.94602 3.52154 8.02249 4.70526 6.37713C5.90081 4.73177 7.54025 3.44744 9.62358 2.52415C11.7069 1.60085 14.0743 1.1392 16.7259 1.1392C19.4247 1.1392 21.7803 1.60085 23.7926 2.52415C25.8168 3.44744 27.3911 4.73177 28.5156 6.37713C29.6402 8.02249 30.2202 9.92827 30.2557 12.0945H22.8871ZM34.5392 7.97514V1.63636H64.4043V7.97514H53.2715V38H45.6721V7.97514H34.5392ZM67.9377 7.97514V1.63636H97.8027V7.97514H86.6699V38H79.0705V7.97514H67.9377ZM3.16051 99V62.6364H27.6634V68.9751H10.8487V77.6399H26.4027V83.9787H10.8487V92.6612H27.7344V99H3.16051ZM65.8603 75.3672H58.0833C57.9412 74.361 57.6512 73.4673 57.2132 72.6861C56.7753 71.893 56.213 71.2183 55.5265 70.6619C54.8399 70.1056 54.0468 69.6794 53.1472 69.3835C52.2594 69.0876 51.2947 68.9396 50.253 68.9396C48.3709 68.9396 46.7315 69.4072 45.3347 70.3423C43.9379 71.2656 42.8548 72.6151 42.0854 74.3906C41.316 76.1544 40.9313 78.2969 40.9313 80.8182C40.9313 83.4105 41.316 85.5885 42.0854 87.3523C42.8667 89.116 43.9557 90.4477 45.3525 91.3473C46.7492 92.2469 48.365 92.6967 50.1998 92.6967C51.2296 92.6967 52.1825 92.5606 53.0584 92.2884C53.9462 92.0161 54.7334 91.6196 55.4199 91.0987C56.1065 90.5661 56.6747 89.9209 57.1245 89.1634C57.5861 88.4058 57.9057 87.5417 58.0833 86.571L65.8603 86.6065C65.659 88.2756 65.156 89.8854 64.351 91.4361C63.5579 92.9749 62.4867 94.3539 61.1373 95.5732C59.7997 96.7805 58.2016 97.7393 56.3432 98.4496C54.4966 99.148 52.4074 99.4972 50.0755 99.4972C46.8321 99.4972 43.932 98.7633 41.3752 97.2955C38.8302 95.8277 36.8179 93.7029 35.3382 90.9212C33.8704 88.1394 33.1365 84.7718 33.1365 80.8182C33.1365 76.8527 33.8823 73.4792 35.3738 70.6974C36.8652 67.9157 38.8894 65.7969 41.4462 64.3409C44.003 62.8731 46.8794 62.1392 50.0755 62.1392C52.1825 62.1392 54.1356 62.4351 55.9348 63.027C57.7459 63.6188 59.3498 64.483 60.7466 65.6193C62.1434 66.7438 63.2798 68.1229 64.1557 69.7564C65.0435 71.3899 65.6117 73.2602 65.8603 75.3672ZM104.79 80.8182C104.79 84.7836 104.038 88.1572 102.535 90.9389C101.043 93.7206 99.0072 95.8454 96.4267 97.3132C93.858 98.7692 90.9698 99.4972 87.7619 99.4972C84.5304 99.4972 81.6303 98.7633 79.0616 97.2955C76.493 95.8277 74.4629 93.7029 72.9714 90.9212C71.4799 88.1394 70.7342 84.7718 70.7342 80.8182C70.7342 76.8527 71.4799 73.4792 72.9714 70.6974C74.4629 67.9157 76.493 65.7969 79.0616 64.3409C81.6303 62.8731 84.5304 62.1392 87.7619 62.1392C90.9698 62.1392 93.858 62.8731 96.4267 64.3409C99.0072 65.7969 101.043 67.9157 102.535 70.6974C104.038 73.4792 104.79 76.8527 104.79 80.8182ZM96.9949 80.8182C96.9949 78.2495 96.6101 76.0833 95.8407 74.3196C95.0832 72.5559 94.0119 71.2183 92.627 70.3068C91.242 69.3954 89.6203 68.9396 87.7619 68.9396C85.9035 68.9396 84.2818 69.3954 82.8968 70.3068C81.5119 71.2183 80.4347 72.5559 79.6653 74.3196C78.9077 76.0833 78.5289 78.2495 78.5289 80.8182C78.5289 83.3868 78.9077 85.553 79.6653 87.3168C80.4347 89.0805 81.5119 90.4181 82.8968 91.3295C84.2818 92.241 85.9035 92.6967 87.7619 92.6967C89.6203 92.6967 91.242 92.241 92.627 91.3295C94.0119 90.4181 95.0832 89.0805 95.8407 87.3168C96.6101 85.553 96.9949 83.3868 96.9949 80.8182ZM130.211 73.0945C130.069 71.6622 129.46 70.5495 128.382 69.7564C127.305 68.9633 125.843 68.5668 123.997 68.5668C122.742 68.5668 121.683 68.7443 120.819 69.0994C119.954 69.4427 119.292 69.9221 118.83 70.5376C118.38 71.1532 118.155 71.8516 118.155 72.6328C118.132 73.2839 118.268 73.852 118.564 74.3374C118.871 74.8227 119.292 75.2429 119.824 75.598C120.357 75.9413 120.972 76.2431 121.671 76.5036C122.369 76.7521 123.115 76.9652 123.908 77.1428L127.175 77.924C128.761 78.2791 130.217 78.7526 131.543 79.3445C132.869 79.9363 134.017 80.6643 134.988 81.5284C135.958 82.3925 136.71 83.4105 137.243 84.5824C137.787 85.7543 138.065 87.0978 138.077 88.6129C138.065 90.8383 137.497 92.7678 136.373 94.4013C135.26 96.023 133.65 97.2836 131.543 98.1832C129.448 99.071 126.921 99.5149 123.961 99.5149C121.026 99.5149 118.469 99.0651 116.291 98.1655C114.125 97.2659 112.432 95.9342 111.213 94.1705C110.005 92.3949 109.372 90.1991 109.313 87.5831H116.752C116.835 88.8023 117.185 89.8203 117.8 90.6371C118.427 91.442 119.262 92.0516 120.304 92.4659C121.357 92.8684 122.547 93.0696 123.873 93.0696C125.175 93.0696 126.305 92.8802 127.264 92.5014C128.234 92.1226 128.986 91.5959 129.519 90.9212C130.051 90.2464 130.318 89.4711 130.318 88.5952C130.318 87.7784 130.075 87.0919 129.59 86.5355C129.116 85.9792 128.418 85.5057 127.495 85.1151C126.583 84.7244 125.465 84.3693 124.139 84.0497L120.179 83.0554C117.114 82.3097 114.693 81.1437 112.917 79.5575C111.142 77.9714 110.26 75.8348 110.272 73.1477C110.26 70.946 110.846 69.0225 112.029 67.3771C113.225 65.7318 114.864 64.4474 116.948 63.5241C119.031 62.6009 121.399 62.1392 124.05 62.1392C126.749 62.1392 129.105 62.6009 131.117 63.5241C133.141 64.4474 134.715 65.7318 135.84 67.3771C136.964 69.0225 137.544 70.9283 137.58 73.0945H130.211ZM141.118 62.6364H149.729L158.021 78.2969H158.376L166.668 62.6364H175.28L162.016 86.1449V99H154.381V86.1449L141.118 62.6364ZM199.205 73.0945C199.063 71.6622 198.454 70.5495 197.377 69.7564C196.299 68.9633 194.838 68.5668 192.991 68.5668C191.736 68.5668 190.677 68.7443 189.813 69.0994C188.949 69.4427 188.286 69.9221 187.824 70.5376C187.374 71.1532 187.149 71.8516 187.149 72.6328C187.126 73.2839 187.262 73.852 187.558 74.3374C187.865 74.8227 188.286 75.2429 188.818 75.598C189.351 75.9413 189.967 76.2431 190.665 76.5036C191.363 76.7521 192.109 76.9652 192.902 77.1428L196.169 77.924C197.755 78.2791 199.211 78.7526 200.537 79.3445C201.863 79.9363 203.011 80.6643 203.982 81.5284C204.952 82.3925 205.704 83.4105 206.237 84.5824C206.781 85.7543 207.059 87.0978 207.071 88.6129C207.059 90.8383 206.491 92.7678 205.367 94.4013C204.254 96.023 202.644 97.2836 200.537 98.1832C198.442 99.071 195.915 99.5149 192.955 99.5149C190.02 99.5149 187.463 99.0651 185.285 98.1655C183.119 97.2659 181.426 95.9342 180.207 94.1705C178.999 92.3949 178.366 90.1991 178.307 87.5831H185.747C185.829 88.8023 186.179 89.8203 186.794 90.6371C187.422 91.442 188.256 92.0516 189.298 92.4659C190.351 92.8684 191.541 93.0696 192.867 93.0696C194.169 93.0696 195.299 92.8802 196.258 92.5014C197.229 92.1226 197.98 91.5959 198.513 90.9212C199.046 90.2464 199.312 89.4711 199.312 88.5952C199.312 87.7784 199.069 87.0919 198.584 86.5355C198.11 85.9792 197.412 85.5057 196.489 85.1151C195.577 84.7244 194.459 84.3693 193.133 84.0497L189.173 83.0554C186.108 82.3097 183.687 81.1437 181.911 79.5575C180.136 77.9714 179.254 75.8348 179.266 73.1477C179.254 70.946 179.84 69.0225 181.024 67.3771C182.219 65.7318 183.859 64.4474 185.942 63.5241C188.025 62.6009 190.393 62.1392 193.044 62.1392C195.743 62.1392 198.099 62.6009 200.111 63.5241C202.135 64.4474 203.709 65.7318 204.834 67.3771C205.959 69.0225 206.539 70.9283 206.574 73.0945H199.205ZM210.858 68.9751V62.6364H240.723V68.9751H229.59V99H221.99V68.9751H210.858ZM245.641 99V62.6364H270.144V68.9751H253.329V77.6399H268.883V83.9787H253.329V92.6612H270.215V99H245.641ZM276.256 62.6364H285.738L295.752 87.0682H296.178L306.192 62.6364H315.674V99H308.216V75.3317H307.915L298.504 98.8224H293.426L284.015 75.2429H283.714V99H276.256V62.6364Z" fill="black" fill-opacity="0.6"/>
  <path d="M22.8871 12.0945L21.892 12.1931L21.9813 13.0945H22.8871V12.0945ZM13.4943 8.09943L13.8635 9.02885L13.8744 9.02437L13.4943 8.09943ZM11.5057 9.53764L10.7056 8.93759L10.6983 8.94762L11.5057 9.53764ZM10.831 11.6328L11.8303 11.6692L11.831 11.651V11.6328H10.831ZM11.2393 13.3374L10.3856 13.858L10.3901 13.8655L10.3948 13.8729L11.2393 13.3374ZM12.5 14.598L11.9453 15.4301L11.9518 15.4344L11.9583 15.4386L12.5 14.598ZM14.3466 15.5035L13.9972 16.4405L14.0042 16.4431L14.0113 16.4457L14.3466 15.5035ZM16.5838 16.1428L16.8164 15.1702L16.8093 15.1685L16.8023 15.1669L16.5838 16.1428ZM19.8509 16.924L19.6183 17.8966L19.6253 17.8983L19.6324 17.8998L19.8509 16.924ZM24.2188 18.3445L23.8111 19.2576H23.8111L24.2188 18.3445ZM27.6634 20.5284L28.3283 19.7815H28.3283L27.6634 20.5284ZM29.9183 23.5824L29.0079 23.9962L29.0114 24.0038L29.9183 23.5824ZM30.7528 27.6129L31.7529 27.6182L31.7528 27.6051L30.7528 27.6129ZM29.0483 33.4013L28.2246 32.8342L28.2237 32.8355L29.0483 33.4013ZM24.2188 37.1832L24.6089 38.104L24.6114 38.1029L24.2188 37.1832ZM8.96662 37.1655L8.58308 38.089L8.58486 38.0897L8.96662 37.1655ZM3.88849 33.1705L3.06154 33.7328L3.06591 33.7391L3.88849 33.1705ZM1.98864 26.5831V25.5831H0.965756L0.988892 26.6057L1.98864 26.5831ZM9.42827 26.5831L10.426 26.5153L10.3626 25.5831H9.42827V26.5831ZM10.4759 29.6371L9.67724 30.2389L9.68213 30.2454L9.68713 30.2518L10.4759 29.6371ZM12.9794 31.4659L12.6098 32.3952L12.6225 32.4001L12.9794 31.4659ZM19.9396 31.5014L19.5761 30.5698L19.5722 30.5714L19.9396 31.5014ZM22.1946 29.9212L22.9795 30.5408L22.1946 29.9212ZM22.2656 25.5355L21.504 26.1837L21.5121 26.1929L22.2656 25.5355ZM20.1705 24.1151L19.7765 25.0342L19.7808 25.036L20.1705 24.1151ZM16.8146 23.0497L16.5711 24.0196L16.5803 24.0219L16.8146 23.0497ZM12.8551 22.0554L13.0987 21.0855L13.0915 21.0837L12.8551 22.0554ZM5.59304 18.5575L4.92683 19.3033L5.59304 18.5575ZM2.94744 12.1477L3.94748 12.1521L3.94743 12.1423L2.94744 12.1477ZM4.70526 6.37713L3.89626 5.7893L3.8935 5.79313L4.70526 6.37713ZM23.7926 2.52415L23.3756 3.43305L23.3776 3.43397L23.7926 2.52415ZM28.5156 6.37713L27.69 6.94139H27.69L28.5156 6.37713ZM30.2557 12.0945V13.0945H31.2722L31.2555 12.0781L30.2557 12.0945ZM23.8822 11.9958C23.7146 10.3057 22.9752 8.92597 21.6511 7.95111L20.4653 9.56167C21.2956 10.173 21.7755 11.0186 21.892 12.1931L23.8822 11.9958ZM21.6511 7.95111C20.3476 6.9914 18.6531 6.56676 16.6726 6.56676V8.56676C18.3853 8.56676 19.6145 8.93521 20.4653 9.56167L21.6511 7.95111ZM16.6726 6.56676C15.3296 6.56676 14.1326 6.75598 13.1142 7.17449L13.8744 9.02437C14.5843 8.73266 15.5061 8.56676 16.6726 8.56676V6.56676ZM13.1251 7.17008C12.1256 7.56713 11.2989 8.14668 10.7057 8.93764L12.3057 10.1376C12.6358 9.69754 13.1348 9.31828 13.8635 9.02878L13.1251 7.17008ZM10.6983 8.94762C10.12 9.73892 9.83097 10.6451 9.83097 11.6328H11.831C11.831 11.0581 11.9917 10.5674 12.3131 10.1277L10.6983 8.94762ZM9.83163 11.5965C9.8019 12.414 9.97325 13.1818 10.3856 13.858L12.0931 12.8167C11.9136 12.5223 11.8127 12.1537 11.8303 11.6692L9.83163 11.5965ZM10.3948 13.8729C10.7855 14.489 11.3097 15.0063 11.9453 15.4301L13.0547 13.766C12.625 13.4795 12.3087 13.1563 12.0839 12.8018L10.3948 13.8729ZM11.9583 15.4386C12.5609 15.8269 13.2429 16.1593 13.9972 16.4405L14.696 14.5666C14.0535 14.327 13.5044 14.0557 13.0417 13.7574L11.9583 15.4386ZM14.0113 16.4457C14.7513 16.7091 15.5364 16.933 16.3653 17.1186L16.8023 15.1669C16.0451 14.9974 15.3386 14.7952 14.6819 14.5614L14.0113 16.4457ZM16.3512 17.1153L19.6183 17.8966L20.0834 15.9514L16.8164 15.1702L16.3512 17.1153ZM19.6324 17.8998C21.1612 18.2421 22.5529 18.6959 23.8111 19.2576L24.6264 17.4313C23.2331 16.8093 21.7129 16.3161 20.0693 15.9482L19.6324 17.8998ZM23.8111 19.2576C25.0539 19.8124 26.1129 20.487 26.9984 21.2753L28.3283 19.7815C27.2725 18.8416 26.0351 18.0602 24.6264 17.4313L23.8111 19.2576ZM26.9984 21.2753C27.866 22.0476 28.5335 22.9525 29.008 23.9962L30.8287 23.1686C30.2378 21.8685 29.402 20.7374 28.3283 19.7815L26.9984 21.2753ZM29.0114 24.0038C29.4862 25.0256 29.742 26.2241 29.7529 27.6207L31.7528 27.6051C31.74 25.9715 31.4395 24.483 30.8252 23.161L29.0114 24.0038ZM29.7529 27.6076C29.742 29.6577 29.2217 31.3858 28.2246 32.8342L29.872 33.9683C31.1239 32.1497 31.7401 30.0189 31.7528 27.6182L29.7529 27.6076ZM28.2237 32.8355C27.2352 34.2762 25.7878 35.426 23.8261 36.2636L24.6114 38.1029C26.8637 37.1413 28.636 35.7697 29.8729 33.967L28.2237 32.8355ZM23.8286 36.2625C21.8879 37.0848 19.5008 37.5149 16.6371 37.5149V39.5149C19.692 39.5149 22.3592 39.0572 24.6089 38.104L23.8286 36.2625ZM16.6371 37.5149C13.8013 37.5149 11.3796 37.0802 9.34838 36.2412L8.58486 38.0897C10.9097 39.05 13.6016 39.5149 16.6371 39.5149V37.5149ZM9.35016 36.242C7.34404 35.4088 5.81088 34.1928 4.71108 32.6018L3.06591 33.7391C4.40456 35.6756 6.25681 37.1229 8.58308 38.089L9.35016 36.242ZM4.71542 32.6081C3.63811 31.0239 3.04416 29.0261 2.98838 26.5605L0.988892 26.6057C1.05148 29.3721 1.72411 31.7659 3.06157 33.7328L4.71542 32.6081ZM1.98864 27.5831H9.42827V25.5831H1.98864V27.5831ZM8.43057 26.6509C8.52398 28.0254 8.92384 29.2392 9.67724 30.2389L11.2745 29.0352C10.7968 28.4014 10.4983 27.5792 10.426 26.5153L8.43057 26.6509ZM9.68713 30.2518C10.4343 31.2105 11.4197 31.9218 12.6098 32.3951L13.349 30.5367C12.4558 30.1814 11.7721 29.6735 11.2646 29.0223L9.68713 30.2518ZM12.6225 32.4001C13.8081 32.853 15.1216 33.0696 16.5483 33.0696V31.0696C15.3235 31.0696 14.2577 30.8838 13.3363 30.5318L12.6225 32.4001ZM16.5483 33.0696C17.9444 33.0696 19.205 32.8669 20.3071 32.4315L19.5722 30.5714C18.7567 30.8935 17.7564 31.0696 16.5483 31.0696V33.0696ZM20.3032 32.433C21.4044 32.0033 22.3154 31.382 22.9795 30.5408L21.4097 29.3015C21.0085 29.8098 20.4162 30.242 19.5761 30.5698L20.3032 32.433ZM22.9795 30.5408C23.6543 29.686 23.9936 28.6914 23.9936 27.5952H21.9936C21.9936 28.2509 21.8002 28.8069 21.4097 29.3015L22.9795 30.5408ZM23.9936 27.5952C23.9936 26.5643 23.6807 25.6364 23.0192 24.8781L21.5121 26.1929C21.8212 26.5473 21.9936 26.9925 21.9936 27.5952H23.9936ZM23.0272 24.8874C22.4222 24.1766 21.5763 23.624 20.5601 23.1941L19.7808 25.036C20.6112 25.3873 21.162 25.7817 21.5041 26.1836L23.0272 24.8874ZM20.5644 23.1959C19.5862 22.7767 18.4106 22.4058 17.049 22.0776L16.5803 24.0219C17.8702 24.3328 18.9318 24.6722 19.7765 25.0342L20.5644 23.1959ZM17.0582 22.0798L13.0987 21.0855L12.6116 23.0253L16.5711 24.0196L17.0582 22.0798ZM13.0915 21.0837C10.1353 20.3647 7.87892 19.2587 6.25925 17.8118L4.92683 19.3033C6.8583 21.0287 9.44327 22.2546 12.6188 23.0271L13.0915 21.0837ZM6.25925 17.8118C4.72596 16.442 3.93668 14.5938 3.94743 12.1521L1.94745 12.1433C1.93454 15.0757 2.90898 17.5007 4.92683 19.3033L6.25925 17.8118ZM3.94743 12.1423C3.93662 10.1328 4.46755 8.41988 5.51701 6.96113L3.8935 5.79313C2.57554 7.6251 1.93459 9.75923 1.94746 12.1531L3.94743 12.1423ZM5.51424 6.96496C6.59424 5.47862 8.0866 4.29911 10.0288 3.43839L9.2184 1.60991C6.99389 2.59577 5.20737 3.98492 3.89627 5.78931L5.51424 6.96496ZM10.0288 3.43839C11.9653 2.58014 14.1913 2.1392 16.7259 2.1392V0.139203C13.9574 0.139203 11.4485 0.621563 9.2184 1.60991L10.0288 3.43839ZM16.7259 2.1392C19.3116 2.1392 21.5195 2.58144 23.3756 3.43304L24.2096 1.61525C22.0411 0.620264 19.5378 0.139203 16.7259 0.139203V2.1392ZM23.3776 3.43397C25.2558 4.29067 26.68 5.46349 27.69 6.94139L29.3412 5.81287C28.1022 4.00005 26.3778 2.60421 24.2076 1.61433L23.3776 3.43397ZM27.69 6.94139C28.6945 8.41103 29.2232 10.1226 29.2558 12.1108L31.2555 12.0781C31.2171 9.73392 30.5858 7.63395 29.3412 5.81287L27.69 6.94139ZM30.2557 11.0945H22.8871V13.0945H30.2557V11.0945ZM34.5392 7.97514H33.5392V8.97514H34.5392V7.97514ZM34.5392 1.63636V0.636362H33.5392V1.63636H34.5392ZM64.4043 1.63636H65.4043V0.636362H64.4043V1.63636ZM64.4043 7.97514V8.97514H65.4043V7.97514H64.4043ZM53.2715 7.97514V6.97514H52.2715V7.97514H53.2715ZM53.2715 38V39H54.2715V38H53.2715ZM45.6721 38H44.6721V39H45.6721V38ZM45.6721 7.97514H46.6721V6.97514H45.6721V7.97514ZM35.5392 7.97514V1.63636H33.5392V7.97514H35.5392ZM34.5392 2.63636H64.4043V0.636362H34.5392V2.63636ZM63.4043 1.63636V7.97514H65.4043V1.63636H63.4043ZM64.4043 6.97514H53.2715V8.97514H64.4043V6.97514ZM52.2715 7.97514V38H54.2715V7.97514H52.2715ZM53.2715 37H45.6721V39H53.2715V37ZM46.6721 38V7.97514H44.6721V38H46.6721ZM45.6721 6.97514H34.5392V8.97514H45.6721V6.97514ZM67.9377 7.97514H66.9377V8.97514H67.9377V7.97514ZM67.9377 1.63636V0.636362H66.9377V1.63636H67.9377ZM97.8027 1.63636H98.8027V0.636362H97.8027V1.63636ZM97.8027 7.97514V8.97514H98.8027V7.97514H97.8027ZM86.6699 7.97514V6.97514H85.6699V7.97514H86.6699ZM86.6699 38V39H87.6699V38H86.6699ZM79.0705 38H78.0705V39H79.0705V38ZM79.0705 7.97514H80.0705V6.97514H79.0705V7.97514ZM68.9377 7.97514V1.63636H66.9377V7.97514H68.9377ZM67.9377 2.63636H97.8027V0.636362H67.9377V2.63636ZM96.8027 1.63636V7.97514H98.8027V1.63636H96.8027ZM97.8027 6.97514H86.6699V8.97514H97.8027V6.97514ZM85.6699 7.97514V38H87.6699V7.97514H85.6699ZM86.6699 37H79.0705V39H86.6699V37ZM80.0705 38V7.97514H78.0705V38H80.0705ZM79.0705 6.97514H67.9377V8.97514H79.0705V6.97514ZM3.16051 99H2.16051V100H3.16051V99ZM3.16051 62.6364V61.6364H2.16051V62.6364H3.16051ZM27.6634 62.6364H28.6634V61.6364H27.6634V62.6364ZM27.6634 68.9751V69.9751H28.6634V68.9751H27.6634ZM10.8487 68.9751V67.9751H9.84872V68.9751H10.8487ZM10.8487 77.6399H9.84872V78.6399H10.8487V77.6399ZM26.4027 77.6399H27.4027V76.6399H26.4027V77.6399ZM26.4027 83.9787V84.9787H27.4027V83.9787H26.4027ZM10.8487 83.9787V82.9787H9.84872V83.9787H10.8487ZM10.8487 92.6612H9.84872V93.6612H10.8487V92.6612ZM27.7344 92.6612H28.7344V91.6612H27.7344V92.6612ZM27.7344 99V100H28.7344V99H27.7344ZM4.16051 99V62.6364H2.16051V99H4.16051ZM3.16051 63.6364H27.6634V61.6364H3.16051V63.6364ZM26.6634 62.6364V68.9751H28.6634V62.6364H26.6634ZM27.6634 67.9751H10.8487V69.9751H27.6634V67.9751ZM9.84872 68.9751V77.6399H11.8487V68.9751H9.84872ZM10.8487 78.6399H26.4027V76.6399H10.8487V78.6399ZM25.4027 77.6399V83.9787H27.4027V77.6399H25.4027ZM26.4027 82.9787H10.8487V84.9787H26.4027V82.9787ZM9.84872 83.9787V92.6612H11.8487V83.9787H9.84872ZM10.8487 93.6612H27.7344V91.6612H10.8487V93.6612ZM26.7344 92.6612V99H28.7344V92.6612H26.7344ZM27.7344 98H3.16051V100H27.7344V98ZM65.8603 75.3672V76.3672H66.9852L66.8534 75.25L65.8603 75.3672ZM58.0833 75.3672L57.0931 75.507L57.2145 76.3672H58.0833V75.3672ZM57.2132 72.6861L56.3378 73.1695L56.341 73.1751L57.2132 72.6861ZM55.5265 70.6619L54.8969 71.4389L55.5265 70.6619ZM53.1472 69.3835L52.831 70.3322L52.8347 70.3335L53.1472 69.3835ZM45.3347 70.3423L45.8861 71.1766L45.891 71.1733L45.3347 70.3423ZM42.0854 74.3906L43.002 74.7905L43.003 74.7882L42.0854 74.3906ZM42.0854 87.3523L41.1688 87.7521L41.1711 87.7573L42.0854 87.3523ZM45.3525 91.3473L44.811 92.188L45.3525 91.3473ZM53.0584 92.2884L52.7652 91.3323L52.7616 91.3334L53.0584 92.2884ZM55.4199 91.0987L56.0243 91.8955L56.0329 91.8888L55.4199 91.0987ZM57.1245 89.1634L56.2705 88.6429L56.2646 88.6528L57.1245 89.1634ZM58.0833 86.571L58.0878 85.571L57.2503 85.5672L57.0996 86.3911L58.0833 86.571ZM65.8603 86.6065L66.8531 86.7262L66.9874 85.6117L65.8648 85.6065L65.8603 86.6065ZM64.351 91.4361L63.4635 90.9754L63.4621 90.978L64.351 91.4361ZM61.1373 95.5732L61.8073 96.3155L61.8077 96.3151L61.1373 95.5732ZM56.3432 98.4496L56.697 99.3849L56.7002 99.3837L56.3432 98.4496ZM41.3752 97.2955L40.8756 98.1617L40.8773 98.1627L41.3752 97.2955ZM35.3382 90.9212L34.4538 91.3878L34.4554 91.3908L35.3382 90.9212ZM35.3738 70.6974L36.2551 71.17L35.3738 70.6974ZM41.4462 64.3409L41.941 65.2099L41.9441 65.2082L41.4462 64.3409ZM55.9348 63.027L55.6224 63.9769L55.6242 63.9775L55.9348 63.027ZM60.7466 65.6193L60.1155 66.395L60.1195 66.3982L60.7466 65.6193ZM64.1557 69.7564L63.2744 70.229L63.2771 70.2339L64.1557 69.7564ZM65.8603 74.3672H58.0833V76.3672H65.8603V74.3672ZM59.0735 75.2274C58.9164 74.1149 58.5917 73.1 58.0855 72.1971L56.341 73.1751C56.7108 73.8347 56.9661 74.6072 57.0931 75.507L59.0735 75.2274ZM58.0886 72.2027C57.59 71.2997 56.9452 70.5245 56.156 69.885L54.8969 71.4389C55.4808 71.912 55.9605 72.4863 56.3379 73.1695L58.0886 72.2027ZM56.156 69.885C55.3686 69.2469 54.4663 68.7647 53.4597 68.4336L52.8347 70.3335C53.6273 70.5942 54.3112 70.9643 54.8969 71.4389L56.156 69.885ZM53.4634 68.4348C52.4628 68.1013 51.3901 67.9396 50.253 67.9396V69.9396C51.1993 69.9396 52.056 70.0739 52.831 70.3322L53.4634 68.4348ZM50.253 67.9396C48.1974 67.9396 46.3591 68.4531 44.7784 69.5114L45.891 71.1733C47.1039 70.3613 48.5444 69.9396 50.253 69.9396V67.9396ZM44.7833 69.5081C43.2007 70.5542 42.0021 72.0679 41.1679 73.993L43.003 74.7882C43.7076 73.1622 44.6752 71.977 45.8861 71.1765L44.7833 69.5081ZM41.1688 73.9908C40.3302 75.9132 39.9313 78.2 39.9313 80.8182H41.9313C41.9313 78.3938 42.3018 76.3955 43.002 74.7905L41.1688 73.9908ZM39.9313 80.8182C39.9313 83.503 40.3288 85.8266 41.1688 87.7521L43.002 86.9524C42.3032 85.3505 41.9313 83.318 41.9313 80.8182H39.9313ZM41.1711 87.7573C42.0184 89.6701 43.2249 91.1665 44.811 92.188L45.8939 90.5066C44.6864 89.7289 43.7149 88.5619 42.9997 86.9473L41.1711 87.7573ZM44.811 92.188C46.3858 93.2023 48.1937 93.6967 50.1998 93.6967V91.6967C48.5363 91.6967 47.1126 91.2915 45.8939 90.5066L44.811 92.188ZM50.1998 93.6967C51.318 93.6967 52.3722 93.5488 53.3552 93.2433L52.7616 91.3334C51.9927 91.5724 51.1411 91.6967 50.1998 91.6967V93.6967ZM53.3516 93.2444C54.3429 92.9404 55.2372 92.4926 56.0243 91.8954L54.8155 90.302C54.2296 90.7466 53.5495 91.0918 52.7652 91.3323L53.3516 93.2444ZM56.0329 91.8888C56.82 91.2782 57.4714 90.5378 57.9843 89.6739L56.2646 88.6528C55.8779 89.3041 55.393 89.8539 54.8069 90.3086L56.0329 91.8888ZM57.9784 89.6837C58.5105 88.8105 58.8698 87.8286 59.067 86.751L57.0996 86.3911C56.9416 87.2547 56.6617 88.0011 56.2705 88.643L57.9784 89.6837ZM58.0787 87.571L65.8557 87.6065L65.8648 85.6065L58.0878 85.571L58.0787 87.571ZM64.8675 86.4868C64.6811 88.0322 64.2154 89.5269 63.4635 90.9754L65.2386 91.8968C66.0966 90.2439 66.6369 88.519 66.8531 86.7262L64.8675 86.4868ZM63.4621 90.978C62.727 92.4044 61.7315 93.6885 60.4669 94.8312L61.8077 96.3151C63.2418 95.0193 64.3889 93.5454 65.2399 91.8942L63.4621 90.978ZM60.4672 94.8308C59.2303 95.9473 57.7414 96.8447 55.9862 97.5155L56.7002 99.3837C58.6619 98.634 60.369 97.6137 61.8073 96.3155L60.4672 94.8308ZM55.9895 97.5142C54.2744 98.1629 52.3079 98.4972 50.0755 98.4972V100.497C52.5068 100.497 54.7189 100.133 56.697 99.3849L55.9895 97.5142ZM50.0755 98.4972C46.9888 98.4972 44.2635 97.8005 41.873 96.4282L40.8773 98.1627C43.6005 99.726 46.6753 100.497 50.0755 100.497V98.4972ZM41.8748 96.4292C39.5041 95.0619 37.6194 93.0802 36.2211 90.4516L34.4554 91.3908C36.0164 94.3255 38.1563 96.5934 40.8756 98.1617L41.8748 96.4292ZM36.2227 90.4545C34.8478 87.8489 34.1365 84.6501 34.1365 80.8182H32.1365C32.1365 84.8935 32.8931 88.43 34.4538 91.3878L36.2227 90.4545ZM34.1365 80.8182C34.1365 76.9762 34.859 73.7738 36.2551 71.17L34.4924 70.2249C32.9056 73.1845 32.1365 76.7293 32.1365 80.8182H34.1365ZM36.2551 71.17C37.6643 68.5416 39.5598 66.5659 41.941 65.2099L40.9514 63.4719C38.219 65.0279 36.0661 67.2899 34.4924 70.2249L36.2551 71.17ZM41.9441 65.2082C44.3368 63.8346 47.039 63.1392 50.0755 63.1392V61.1392C46.7199 61.1392 43.6693 61.9116 40.9483 63.4737L41.9441 65.2082ZM50.0755 63.1392C52.0881 63.1392 53.9346 63.4217 55.6224 63.9769L56.2473 62.0771C54.3366 61.4485 52.2768 61.1392 50.0755 61.1392V63.1392ZM55.6242 63.9775C57.3255 64.5335 58.8194 65.3405 60.1155 66.395L61.3777 64.8436C59.8803 63.6254 58.1663 62.7042 56.2455 62.0765L55.6242 63.9775ZM60.1195 66.3982C61.4084 67.4359 62.4596 68.7095 63.2744 70.229L65.037 69.2838C64.0999 67.5362 62.8784 66.0518 61.3737 64.8404L60.1195 66.3982ZM63.2771 70.2339C64.0962 71.741 64.6314 73.486 64.8671 75.4844L66.8534 75.25C66.592 73.0344 65.9908 71.0388 65.0343 69.2789L63.2771 70.2339ZM102.535 90.9389L101.655 90.4635L101.653 90.4664L102.535 90.9389ZM96.4267 97.3132L96.9198 98.1832L96.9211 98.1824L96.4267 97.3132ZM79.0616 97.2955L79.5578 96.4272L79.0616 97.2955ZM72.9714 90.9212L72.0901 91.3937L72.9714 90.9212ZM72.9714 70.6974L73.8527 71.17L72.9714 70.6974ZM79.0616 64.3409L79.5547 65.2109L79.5578 65.2092L79.0616 64.3409ZM96.4267 64.3409L95.9305 65.2092L95.9353 65.2118L96.4267 64.3409ZM102.535 70.6974L101.653 71.17L101.655 71.1729L102.535 70.6974ZM95.8407 74.3196L94.9219 74.7143L94.9241 74.7195L95.8407 74.3196ZM92.627 70.3068L92.0772 71.1422L92.627 70.3068ZM82.8968 70.3068L83.4466 71.1422L82.8968 70.3068ZM79.6653 74.3196L78.7487 73.9197L78.7465 73.9249L79.6653 74.3196ZM79.6653 87.3168L78.7465 87.7114L78.7487 87.7166L79.6653 87.3168ZM82.8968 91.3295L83.4466 90.4942L82.8968 91.3295ZM92.627 91.3295L92.0772 90.4942L92.627 91.3295ZM95.8407 87.3168L94.9241 86.9169L94.9219 86.9221L95.8407 87.3168ZM103.79 80.8182C103.79 84.659 103.062 87.8603 101.655 90.4635L103.414 91.4144C105.014 88.4541 105.79 84.9082 105.79 80.8182H103.79ZM101.653 90.4664C100.245 93.093 98.3385 95.0753 95.9323 96.444L96.9211 98.1824C99.6758 96.6155 101.841 94.3482 103.416 91.4115L101.653 90.4664ZM95.9336 96.4432C93.5281 97.8067 90.8123 98.4972 87.7619 98.4972V100.497C91.1272 100.497 94.1879 99.7317 96.9198 98.1832L95.9336 96.4432ZM87.7619 98.4972C84.6879 98.4972 81.9616 97.8008 79.5578 96.4272L78.5655 98.1637C81.299 99.7257 84.3729 100.497 87.7619 100.497V98.4972ZM79.5578 96.4272C77.1631 95.0588 75.2617 93.0765 73.8527 90.4486L72.0901 91.3937C73.6641 94.3293 75.8228 96.5965 78.5655 98.1637L79.5578 96.4272ZM73.8527 90.4486C72.4564 87.8444 71.7342 84.6478 71.7342 80.8182H69.7342C69.7342 84.8958 70.5034 88.4345 72.0901 91.3937L73.8527 90.4486ZM71.7342 80.8182C71.7342 76.9762 72.4566 73.7738 73.8527 71.17L72.0901 70.2249C70.5032 73.1845 69.7342 76.7293 69.7342 80.8182H71.7342ZM73.8527 71.17C75.2614 68.5427 77.1619 66.5672 79.5547 65.2109L78.5685 63.4709C75.8241 65.0266 73.6644 67.2887 72.0901 70.2249L73.8527 71.17ZM79.5578 65.2092C81.9616 63.8355 84.6879 63.1392 87.7619 63.1392V61.1392C84.3729 61.1392 81.299 61.9107 78.5655 63.4727L79.5578 65.2092ZM87.7619 63.1392C90.8108 63.1392 93.5256 63.8349 95.9305 65.2092L96.9228 63.4727C94.1905 61.9113 91.1287 61.1392 87.7619 61.1392V63.1392ZM95.9353 65.2118C98.3397 66.5685 100.245 68.5439 101.653 71.17L103.416 70.2249C101.841 67.2875 99.6746 65.0253 96.9181 63.47L95.9353 65.2118ZM101.655 71.1729C103.062 73.776 103.79 76.9773 103.79 80.8182H105.79C105.79 76.7281 105.014 73.1823 103.414 70.222L101.655 71.1729ZM97.9949 80.8182C97.9949 78.1556 97.5969 75.8443 96.7573 73.9198L94.9241 74.7195C95.6234 76.3224 95.9949 78.3435 95.9949 80.8182H97.9949ZM96.7596 73.9249C95.9372 72.0104 94.7497 70.5067 93.1767 69.4715L92.0772 71.1422C93.2741 71.9298 94.2291 73.1013 94.9219 74.7143L96.7596 73.9249ZM93.1767 69.4715C91.6092 68.4399 89.7913 67.9396 87.7619 67.9396V69.9396C89.4494 69.9396 90.8748 70.3508 92.0772 71.1422L93.1767 69.4715ZM87.7619 67.9396C85.7325 67.9396 83.9145 68.4399 82.3471 69.4715L83.4466 71.1422C84.649 70.3508 86.0744 69.9396 87.7619 69.9396V67.9396ZM82.3471 69.4715C80.7756 70.5057 79.5829 72.0076 78.7487 73.9198L80.5819 74.7195C81.2865 73.1042 82.2482 71.9308 83.4466 71.1422L82.3471 69.4715ZM78.7465 73.9249C77.9205 75.8479 77.5289 78.1572 77.5289 80.8182H79.5289C79.5289 78.3418 79.8949 76.3188 80.5841 74.7143L78.7465 73.9249ZM77.5289 80.8182C77.5289 83.4791 77.9205 85.7885 78.7465 87.7114L80.5841 86.9221C79.8949 85.3176 79.5289 83.2945 79.5289 80.8182H77.5289ZM78.7487 87.7166C79.5829 89.6288 80.7756 91.1306 82.3471 92.1649L83.4466 90.4942C82.2482 89.7056 81.2865 88.5322 80.5819 86.9169L78.7487 87.7166ZM82.3471 92.1649C83.9145 93.1964 85.7325 93.6967 87.7619 93.6967V91.6967C86.0744 91.6967 84.649 91.2856 83.4466 90.4942L82.3471 92.1649ZM87.7619 93.6967C89.7913 93.6967 91.6092 93.1964 93.1767 92.1649L92.0772 90.4942C90.8748 91.2856 89.4494 91.6967 87.7619 91.6967V93.6967ZM93.1767 92.1649C94.7497 91.1296 95.9372 89.6259 96.7596 87.7114L94.9219 86.9221C94.2291 88.5351 93.2741 89.7065 92.0772 90.4942L93.1767 92.1649ZM96.7573 87.7166C97.5969 85.7921 97.9949 83.4808 97.9949 80.8182H95.9949C95.9949 83.2929 95.6234 85.314 94.9241 86.9169L96.7573 87.7166ZM130.211 73.0945L129.216 73.1931L129.306 74.0945H130.211V73.0945ZM120.819 69.0994L121.188 70.0288L121.199 70.0244L120.819 69.0994ZM118.83 70.5376L118.03 69.9376L118.023 69.9476L118.83 70.5376ZM118.155 72.6328L119.155 72.6692L119.155 72.651V72.6328H118.155ZM118.564 74.3374L117.71 74.858L117.714 74.8655L117.719 74.8729L118.564 74.3374ZM119.824 75.598L119.27 76.4301L119.276 76.4344L119.283 76.4386L119.824 75.598ZM121.671 76.5035L121.321 77.4405L121.328 77.4431L121.335 77.4457L121.671 76.5035ZM123.908 77.1428L124.141 76.1702L124.134 76.1685L124.126 76.1669L123.908 77.1428ZM127.175 77.924L126.942 78.8966L126.95 78.8983L126.957 78.8998L127.175 77.924ZM131.543 79.3445L131.135 80.2576L131.543 79.3445ZM134.988 81.5284L135.652 80.7815L134.988 81.5284ZM137.243 84.5824L136.332 84.9962L136.336 85.0038L137.243 84.5824ZM138.077 88.6129L139.077 88.6182L139.077 88.6051L138.077 88.6129ZM136.373 94.4013L135.549 93.8342L135.548 93.8355L136.373 94.4013ZM131.543 98.1832L131.933 99.104L131.936 99.1029L131.543 98.1832ZM116.291 98.1655L115.907 99.089L115.909 99.0897L116.291 98.1655ZM111.213 94.1705L110.386 94.7328L110.39 94.7391L111.213 94.1705ZM109.313 87.5831V86.5831H108.29L108.313 87.6057L109.313 87.5831ZM116.752 87.5831L117.75 87.5153L117.687 86.5831H116.752V87.5831ZM117.8 90.6371L117.001 91.2389L117.006 91.2454L117.011 91.2518L117.8 90.6371ZM120.304 92.4659L119.934 93.3952L119.947 93.4001L120.304 92.4659ZM127.264 92.5014L126.9 91.5698L126.896 91.5714L127.264 92.5014ZM129.519 90.9212L130.304 91.5408L129.519 90.9212ZM129.59 86.5355L128.828 87.1837L128.836 87.1929L129.59 86.5355ZM127.495 85.1151L127.101 86.0342L127.105 86.036L127.495 85.1151ZM124.139 84.0497L123.895 85.0196L123.904 85.0219L124.139 84.0497ZM120.179 83.0554L120.423 82.0855L120.416 82.0837L120.179 83.0554ZM112.917 79.5575L112.251 80.3033L112.917 79.5575ZM110.272 73.1477L111.272 73.1521L111.272 73.1423L110.272 73.1477ZM112.029 67.3771L111.22 66.7893L111.218 66.7931L112.029 67.3771ZM131.117 63.5241L130.7 64.433L130.702 64.434L131.117 63.5241ZM135.84 67.3771L135.014 67.9414L135.84 67.3771ZM137.58 73.0945V74.0945H138.596L138.58 73.0781L137.58 73.0945ZM131.206 72.9958C131.039 71.3057 130.299 69.926 128.975 68.9511L127.79 70.5617C128.62 71.173 129.1 72.0186 129.216 73.1931L131.206 72.9958ZM128.975 68.9511C127.672 67.9914 125.977 67.5668 123.997 67.5668V69.5668C125.709 69.5668 126.939 69.9352 127.79 70.5617L128.975 68.9511ZM123.997 67.5668C122.654 67.5668 121.457 67.756 120.438 68.1745L121.199 70.0244C121.908 69.7327 122.83 69.5668 123.997 69.5668V67.5668ZM120.449 68.1701C119.45 68.5671 118.623 69.1467 118.03 69.9376L119.63 71.1376C119.96 70.6975 120.459 70.3183 121.188 70.0288L120.449 68.1701ZM118.023 69.9476C117.444 70.7389 117.155 71.6451 117.155 72.6328H119.155C119.155 72.0581 119.316 71.5674 119.637 71.1277L118.023 69.9476ZM117.156 72.5965C117.126 73.414 117.297 74.1818 117.71 74.858L119.417 73.8167C119.238 73.5223 119.137 73.1537 119.155 72.6692L117.156 72.5965ZM117.719 74.8729C118.11 75.489 118.634 76.0063 119.27 76.4301L120.379 74.766C119.949 74.4795 119.633 74.1563 119.408 73.8018L117.719 74.8729ZM119.283 76.4386C119.885 76.8269 120.567 77.1593 121.321 77.4405L122.02 75.5666C121.378 75.327 120.829 75.0556 120.366 74.7574L119.283 76.4386ZM121.335 77.4457C122.076 77.7091 122.861 77.933 123.69 78.1186L124.126 76.1669C123.369 75.9974 122.663 75.7952 122.006 75.5614L121.335 77.4457ZM123.675 78.1153L126.942 78.8966L127.408 76.9514L124.141 76.1702L123.675 78.1153ZM126.957 78.8998C128.485 79.2421 129.877 79.6959 131.135 80.2576L131.951 78.4313C130.557 77.8093 129.037 77.3161 127.394 76.9482L126.957 78.8998ZM131.135 80.2576C132.378 80.8124 133.437 81.487 134.323 82.2753L135.652 80.7815C134.597 79.8416 133.359 79.0602 131.951 78.4313L131.135 80.2576ZM134.323 82.2753C135.19 83.0476 135.858 83.9525 136.332 84.9962L138.153 84.1686C137.562 82.8685 136.726 81.7374 135.652 80.7815L134.323 82.2753ZM136.336 85.0038C136.81 86.0256 137.066 87.2241 137.077 88.6207L139.077 88.6051C139.064 86.9715 138.764 85.483 138.149 84.161L136.336 85.0038ZM137.077 88.6076C137.066 90.6577 136.546 92.3858 135.549 93.8342L137.196 94.9683C138.448 93.1497 139.064 91.0189 139.077 88.6182L137.077 88.6076ZM135.548 93.8355C134.559 95.2762 133.112 96.426 131.15 97.2636L131.936 99.1029C134.188 98.1413 135.96 96.7697 137.197 94.967L135.548 93.8355ZM131.153 97.2625C129.212 98.0848 126.825 98.5149 123.961 98.5149V100.515C127.016 100.515 129.683 100.057 131.933 99.104L131.153 97.2625ZM123.961 98.5149C121.126 98.5149 118.704 98.0802 116.673 97.2412L115.909 99.0897C118.234 100.05 120.926 100.515 123.961 100.515V98.5149ZM116.674 97.242C114.668 96.4088 113.135 95.1928 112.035 93.6018L110.39 94.7391C111.729 96.6756 113.581 98.1229 115.907 99.089L116.674 97.242ZM112.04 93.6081C110.962 92.0239 110.368 90.0261 110.313 87.5605L108.313 87.6057C108.376 90.3721 109.048 92.7659 110.386 94.7328L112.04 93.6081ZM109.313 88.5831H116.752V86.5831H109.313V88.5831ZM115.755 87.6509C115.848 89.0254 116.248 90.2392 117.001 91.2389L118.599 90.0352C118.121 89.4014 117.822 88.5792 117.75 87.5153L115.755 87.6509ZM117.011 91.2518C117.759 92.2105 118.744 92.9218 119.934 93.3951L120.673 91.5367C119.78 91.1814 119.096 90.6735 118.589 90.0223L117.011 91.2518ZM119.947 93.4001C121.132 93.853 122.446 94.0696 123.873 94.0696V92.0696C122.648 92.0696 121.582 91.8838 120.66 91.5318L119.947 93.4001ZM123.873 94.0696C125.269 94.0696 126.529 93.8669 127.631 93.4315L126.896 91.5714C126.081 91.8935 125.081 92.0696 123.873 92.0696V94.0696ZM127.627 93.433C128.729 93.0033 129.64 92.382 130.304 91.5408L128.734 90.3015C128.333 90.8098 127.74 91.242 126.9 91.5698L127.627 93.433ZM130.304 91.5408C130.979 90.686 131.318 89.6914 131.318 88.5952H129.318C129.318 89.2509 129.124 89.8069 128.734 90.3015L130.304 91.5408ZM131.318 88.5952C131.318 87.5643 131.005 86.6364 130.343 85.8781L128.836 87.1929C129.145 87.5473 129.318 87.9925 129.318 88.5952H131.318ZM130.351 85.8874C129.746 85.1766 128.901 84.624 127.884 84.1941L127.105 86.036C127.935 86.3873 128.486 86.7817 128.828 87.1836L130.351 85.8874ZM127.889 84.1959C126.91 83.7767 125.735 83.4058 124.373 83.0776L123.904 85.0219C125.194 85.3328 126.256 85.6722 127.101 86.0342L127.889 84.1959ZM124.382 83.0798L120.423 82.0855L119.936 84.0253L123.895 85.0196L124.382 83.0798ZM120.416 82.0837C117.46 81.3647 115.203 80.2587 113.583 78.8118L112.251 80.3033C114.183 82.0287 116.767 83.2546 119.943 84.0271L120.416 82.0837ZM113.583 78.8118C112.05 77.442 111.261 75.5938 111.272 73.1521L109.272 73.1433C109.259 76.0757 110.233 78.5007 112.251 80.3033L113.583 78.8118ZM111.272 73.1423C111.261 71.1328 111.792 69.4199 112.841 67.9611L111.218 66.7931C109.9 68.6251 109.259 70.7592 109.272 73.1531L111.272 73.1423ZM112.838 67.965C113.918 66.4786 115.411 65.2991 117.353 64.4384L116.543 62.6099C114.318 63.5958 112.532 64.9849 111.22 66.7893L112.838 67.965ZM117.353 64.4384C119.29 63.5801 121.515 63.1392 124.05 63.1392V61.1392C121.282 61.1392 118.773 61.6216 116.543 62.6099L117.353 64.4384ZM124.05 63.1392C126.636 63.1392 128.844 63.5814 130.7 64.433L131.534 62.6152C129.365 61.6203 126.862 61.1392 124.05 61.1392V63.1392ZM130.702 64.434C132.58 65.2907 134.004 66.4635 135.014 67.9414L136.665 66.8129C135.426 65.0001 133.702 63.6042 131.532 62.6143L130.702 64.434ZM135.014 67.9414C136.019 69.411 136.547 71.1226 136.58 73.1108L138.58 73.0781C138.541 70.7339 137.91 68.6339 136.665 66.8129L135.014 67.9414ZM137.58 72.0945H130.211V74.0945H137.58V72.0945ZM141.118 62.6364V61.6364H139.405L140.247 63.1277L141.118 62.6364ZM149.729 62.6364L150.613 62.1684L150.331 61.6364H149.729V62.6364ZM158.021 78.2969L157.137 78.7648L157.419 79.2969H158.021V78.2969ZM158.376 78.2969V79.2969H158.978L159.26 78.7648L158.376 78.2969ZM166.668 62.6364V61.6364H166.066L165.784 62.1684L166.668 62.6364ZM175.28 62.6364L176.151 63.1277L176.992 61.6364H175.28V62.6364ZM162.016 86.1449L161.145 85.6535L161.016 85.8822V86.1449H162.016ZM162.016 99V100H163.016V99H162.016ZM154.381 99H153.381V100H154.381V99ZM154.381 86.1449H155.381V85.8822L155.252 85.6535L154.381 86.1449ZM141.118 63.6364H149.729V61.6364H141.118V63.6364ZM148.845 63.1043L157.137 78.7648L158.905 77.8289L150.613 62.1684L148.845 63.1043ZM158.021 79.2969H158.376V77.2969H158.021V79.2969ZM159.26 78.7648L167.552 63.1043L165.784 62.1684L157.492 77.8289L159.26 78.7648ZM166.668 63.6364H175.28V61.6364H166.668V63.6364ZM174.409 62.145L161.145 85.6535L162.887 86.6363L176.151 63.1277L174.409 62.145ZM161.016 86.1449V99H163.016V86.1449H161.016ZM162.016 98H154.381V100H162.016V98ZM155.381 99V86.1449H153.381V99H155.381ZM155.252 85.6535L141.989 62.145L140.247 63.1277L153.51 86.6363L155.252 85.6535ZM199.205 73.0945L198.21 73.1931L198.3 74.0945H199.205V73.0945ZM189.813 69.0994L190.182 70.0288L190.193 70.0244L189.813 69.0994ZM187.824 70.5376L187.024 69.9376L187.017 69.9476L187.824 70.5376ZM187.149 72.6328L188.149 72.6692L188.149 72.651V72.6328H187.149ZM187.558 74.3374L186.704 74.858L186.708 74.8655L186.713 74.8729L187.558 74.3374ZM188.818 75.598L188.264 76.4301L188.27 76.4344L188.277 76.4386L188.818 75.598ZM190.665 76.5035L190.316 77.4405L190.323 77.4431L190.33 77.4457L190.665 76.5035ZM192.902 77.1428L193.135 76.1702L193.128 76.1685L193.121 76.1669L192.902 77.1428ZM196.169 77.924L195.937 78.8966L195.944 78.8983L195.951 78.8998L196.169 77.924ZM200.537 79.3445L200.129 80.2576L200.537 79.3445ZM203.982 81.5284L204.647 80.7815L203.982 81.5284ZM206.237 84.5824L205.326 84.9962L205.33 85.0038L206.237 84.5824ZM207.071 88.6129L208.071 88.6182L208.071 88.6051L207.071 88.6129ZM205.367 94.4013L204.543 93.8342L204.542 93.8355L205.367 94.4013ZM200.537 98.1832L200.927 99.104L200.93 99.1029L200.537 98.1832ZM185.285 98.1655L184.901 99.089L184.903 99.0897L185.285 98.1655ZM180.207 94.1705L179.38 94.7328L179.384 94.7391L180.207 94.1705ZM178.307 87.5831V86.5831H177.284L177.307 87.6057L178.307 87.5831ZM185.747 87.5831L186.744 87.5153L186.681 86.5831H185.747V87.5831ZM186.794 90.6371L185.996 91.2389L186 91.2454L186.005 91.2518L186.794 90.6371ZM189.298 92.4659L188.928 93.3952L188.941 93.4001L189.298 92.4659ZM196.258 92.5014L195.894 91.5698L195.891 91.5714L196.258 92.5014ZM198.513 90.9212L199.298 91.5408L198.513 90.9212ZM198.584 86.5355L197.822 87.1837L197.83 87.1929L198.584 86.5355ZM196.489 85.1151L196.095 86.0342L196.099 86.036L196.489 85.1151ZM193.133 84.0497L192.889 85.0196L192.899 85.0219L193.133 84.0497ZM189.173 83.0554L189.417 82.0855L189.41 82.0837L189.173 83.0554ZM181.911 79.5575L181.245 80.3033H181.245L181.911 79.5575ZM179.266 73.1477L180.266 73.1521L180.266 73.1423L179.266 73.1477ZM181.024 67.3771L180.215 66.7893L180.212 66.7931L181.024 67.3771ZM200.111 63.5241L199.694 64.433L199.696 64.434L200.111 63.5241ZM204.834 67.3771L204.008 67.9414L204.834 67.3771ZM206.574 73.0945V74.0945H207.591L207.574 73.0781L206.574 73.0945ZM200.201 72.9958C200.033 71.3057 199.294 69.926 197.969 68.9511L196.784 70.5617C197.614 71.173 198.094 72.0186 198.21 73.1931L200.201 72.9958ZM197.969 68.9511C196.666 67.9914 194.971 67.5668 192.991 67.5668V69.5668C194.704 69.5668 195.933 69.9352 196.784 70.5617L197.969 68.9511ZM192.991 67.5668C191.648 67.5668 190.451 67.756 189.433 68.1745L190.193 70.0244C190.903 69.7327 191.824 69.5668 192.991 69.5668V67.5668ZM189.443 68.1701C188.444 68.5671 187.617 69.1467 187.024 69.9376L188.624 71.1376C188.954 70.6975 189.453 70.3183 190.182 70.0288L189.443 68.1701ZM187.017 69.9476C186.438 70.7389 186.149 71.6451 186.149 72.6328H188.149C188.149 72.0581 188.31 71.5674 188.631 71.1277L187.017 69.9476ZM186.15 72.5965C186.12 73.414 186.292 74.1818 186.704 74.858L188.411 73.8167C188.232 73.5223 188.131 73.1537 188.149 72.6692L186.15 72.5965ZM186.713 74.8729C187.104 75.489 187.628 76.0063 188.264 76.4301L189.373 74.766C188.943 74.4795 188.627 74.1563 188.402 73.8018L186.713 74.8729ZM188.277 76.4386C188.879 76.8269 189.561 77.1593 190.316 77.4405L191.014 75.5666C190.372 75.327 189.823 75.0556 189.36 74.7574L188.277 76.4386ZM190.33 77.4457C191.07 77.7091 191.855 77.933 192.684 78.1186L193.121 76.1669C192.363 75.9974 191.657 75.7952 191 75.5614L190.33 77.4457ZM192.67 78.1153L195.937 78.8966L196.402 76.9514L193.135 76.1702L192.67 78.1153ZM195.951 78.8998C197.48 79.2421 198.871 79.6959 200.129 80.2576L200.945 78.4313C199.551 77.8093 198.031 77.3161 196.388 76.9482L195.951 78.8998ZM200.129 80.2576C201.372 80.8124 202.431 81.487 203.317 82.2753L204.647 80.7815C203.591 79.8416 202.353 79.0602 200.945 78.4313L200.129 80.2576ZM203.317 82.2753C204.184 83.0476 204.852 83.9525 205.326 84.9962L207.147 84.1686C206.556 82.8685 205.72 81.7374 204.647 80.7815L203.317 82.2753ZM205.33 85.0038C205.805 86.0256 206.06 87.2241 206.071 88.6207L208.071 88.6051C208.058 86.9715 207.758 85.483 207.144 84.161L205.33 85.0038ZM206.071 88.6076C206.06 90.6577 205.54 92.3858 204.543 93.8342L206.19 94.9683C207.442 93.1497 208.058 91.0189 208.071 88.6182L206.071 88.6076ZM204.542 93.8355C203.554 95.2762 202.106 96.426 200.144 97.2636L200.93 99.1029C203.182 98.1413 204.954 96.7697 206.191 94.967L204.542 93.8355ZM200.147 97.2625C198.206 98.0848 195.819 98.5149 192.955 98.5149V100.515C196.01 100.515 198.678 100.057 200.927 99.104L200.147 97.2625ZM192.955 98.5149C190.12 98.5149 187.698 98.0802 185.667 97.2412L184.903 99.0897C187.228 100.05 189.92 100.515 192.955 100.515V98.5149ZM185.669 97.242C183.662 96.4088 182.129 95.1928 181.029 93.6018L179.384 94.7391C180.723 96.6756 182.575 98.1229 184.901 99.089L185.669 97.242ZM181.034 93.6081C179.956 92.0239 179.363 90.0261 179.307 87.5605L177.307 87.6057C177.37 90.3721 178.042 92.7659 179.38 94.7328L181.034 93.6081ZM178.307 88.5831H185.747V86.5831H178.307V88.5831ZM184.749 87.6509C184.842 89.0254 185.242 90.2392 185.996 91.2389L187.593 90.0352C187.115 89.4014 186.817 88.5792 186.744 87.5153L184.749 87.6509ZM186.005 91.2518C186.753 92.2105 187.738 92.9218 188.928 93.3951L189.667 91.5367C188.774 91.1814 188.09 90.6735 187.583 90.0223L186.005 91.2518ZM188.941 93.4001C190.126 93.853 191.44 94.0696 192.867 94.0696V92.0696C191.642 92.0696 190.576 91.8838 189.655 91.5318L188.941 93.4001ZM192.867 94.0696C194.263 94.0696 195.523 93.8669 196.625 93.4315L195.891 91.5714C195.075 91.8935 194.075 92.0696 192.867 92.0696V94.0696ZM196.622 93.433C197.723 93.0033 198.634 92.382 199.298 91.5408L197.728 90.3015C197.327 90.8098 196.735 91.242 195.894 91.5698L196.622 93.433ZM199.298 91.5408C199.973 90.686 200.312 89.6914 200.312 88.5952H198.312C198.312 89.2509 198.119 89.8069 197.728 90.3015L199.298 91.5408ZM200.312 88.5952C200.312 87.5643 199.999 86.6364 199.338 85.8781L197.83 87.1929C198.14 87.5473 198.312 87.9925 198.312 88.5952H200.312ZM199.346 85.8874C198.741 85.1766 197.895 84.624 196.878 84.1941L196.099 86.036C196.93 86.3873 197.48 86.7817 197.822 87.1836L199.346 85.8874ZM196.883 84.1959C195.905 83.7767 194.729 83.4058 193.367 83.0776L192.899 85.0219C194.189 85.3328 195.25 85.6722 196.095 86.0342L196.883 84.1959ZM193.377 83.0798L189.417 82.0855L188.93 84.0253L192.889 85.0196L193.377 83.0798ZM189.41 82.0837C186.454 81.3647 184.197 80.2587 182.578 78.8118L181.245 80.3033C183.177 82.0287 185.762 83.2546 188.937 84.0271L189.41 82.0837ZM182.578 78.8118C181.044 77.442 180.255 75.5938 180.266 73.1521L178.266 73.1433C178.253 76.0757 179.227 78.5007 181.245 80.3033L182.578 78.8118ZM180.266 73.1423C180.255 71.1328 180.786 69.4199 181.835 67.9611L180.212 66.7931C178.894 68.6251 178.253 70.7592 178.266 73.1531L180.266 73.1423ZM181.833 67.965C182.913 66.4786 184.405 65.2991 186.347 64.4384L185.537 62.6099C183.312 63.5958 181.526 64.9849 180.215 66.7893L181.833 67.965ZM186.347 64.4384C188.284 63.5801 190.51 63.1392 193.044 63.1392V61.1392C190.276 61.1392 187.767 61.6216 185.537 62.6099L186.347 64.4384ZM193.044 63.1392C195.63 63.1392 197.838 63.5814 199.694 64.433L200.528 62.6152C198.359 61.6203 195.856 61.1392 193.044 61.1392V63.1392ZM199.696 64.434C201.574 65.2907 202.998 66.4635 204.008 67.9414L205.66 66.8129C204.421 65.0001 202.696 63.6042 200.526 62.6143L199.696 64.434ZM204.008 67.9414C205.013 69.411 205.542 71.1226 205.574 73.1108L207.574 73.0781C207.535 70.7339 206.904 68.6339 205.66 66.8129L204.008 67.9414ZM206.574 72.0945H199.205V74.0945H206.574V72.0945ZM210.858 68.9751H209.858V69.9751H210.858V68.9751ZM210.858 62.6364V61.6364H209.858V62.6364H210.858ZM240.723 62.6364H241.723V61.6364H240.723V62.6364ZM240.723 68.9751V69.9751H241.723V68.9751H240.723ZM229.59 68.9751V67.9751H228.59V68.9751H229.59ZM229.59 99V100H230.59V99H229.59ZM221.99 99H220.99V100H221.99V99ZM221.99 68.9751H222.99V67.9751H221.99V68.9751ZM211.858 68.9751V62.6364H209.858V68.9751H211.858ZM210.858 63.6364H240.723V61.6364H210.858V63.6364ZM239.723 62.6364V68.9751H241.723V62.6364H239.723ZM240.723 67.9751H229.59V69.9751H240.723V67.9751ZM228.59 68.9751V99H230.59V68.9751H228.59ZM229.59 98H221.99V100H229.59V98ZM222.99 99V68.9751H220.99V99H222.99ZM221.99 67.9751H210.858V69.9751H221.99V67.9751ZM245.641 99H244.641V100H245.641V99ZM245.641 62.6364V61.6364H244.641V62.6364H245.641ZM270.144 62.6364H271.144V61.6364H270.144V62.6364ZM270.144 68.9751V69.9751H271.144V68.9751H270.144ZM253.329 68.9751V67.9751H252.329V68.9751H253.329ZM253.329 77.6399H252.329V78.6399H253.329V77.6399ZM268.883 77.6399H269.883V76.6399H268.883V77.6399ZM268.883 83.9787V84.9787H269.883V83.9787H268.883ZM253.329 83.9787V82.9787H252.329V83.9787H253.329ZM253.329 92.6612H252.329V93.6612H253.329V92.6612ZM270.215 92.6612H271.215V91.6612H270.215V92.6612ZM270.215 99V100H271.215V99H270.215ZM246.641 99V62.6364H244.641V99H246.641ZM245.641 63.6364H270.144V61.6364H245.641V63.6364ZM269.144 62.6364V68.9751H271.144V62.6364H269.144ZM270.144 67.9751H253.329V69.9751H270.144V67.9751ZM252.329 68.9751V77.6399H254.329V68.9751H252.329ZM253.329 78.6399H268.883V76.6399H253.329V78.6399ZM267.883 77.6399V83.9787H269.883V77.6399H267.883ZM268.883 82.9787H253.329V84.9787H268.883V82.9787ZM252.329 83.9787V92.6612H254.329V83.9787H252.329ZM253.329 93.6612H270.215V91.6612H253.329V93.6612ZM269.215 92.6612V99H271.215V92.6612H269.215ZM270.215 98H245.641V100H270.215V98ZM276.256 62.6364V61.6364H275.256V62.6364H276.256ZM285.738 62.6364L286.663 62.2571L286.409 61.6364H285.738V62.6364ZM295.752 87.0682L294.827 87.4474L295.081 88.0682H295.752V87.0682ZM296.178 87.0682V88.0682H296.849L297.103 87.4474L296.178 87.0682ZM306.192 62.6364V61.6364H305.521L305.267 62.2571L306.192 62.6364ZM315.674 62.6364H316.674V61.6364H315.674V62.6364ZM315.674 99V100H316.674V99H315.674ZM308.216 99H307.216V100H308.216V99ZM308.216 75.3317H309.216V74.3317H308.216V75.3317ZM307.915 75.3317V74.3317H307.238L306.986 74.9598L307.915 75.3317ZM298.504 98.8224V99.8224H299.181L299.432 99.1943L298.504 98.8224ZM293.426 98.8224L292.497 99.1931L292.748 99.8224H293.426V98.8224ZM284.015 75.2429L284.944 74.8722L284.693 74.2429H284.015V75.2429ZM283.714 75.2429V74.2429H282.714V75.2429H283.714ZM283.714 99V100H284.714V99H283.714ZM276.256 99H275.256V100H276.256V99ZM276.256 63.6364H285.738V61.6364H276.256V63.6364ZM284.812 63.0156L294.827 87.4474L296.677 86.6889L286.663 62.2571L284.812 63.0156ZM295.752 88.0682H296.178V86.0682H295.752V88.0682ZM297.103 87.4474L307.118 63.0156L305.267 62.2571L295.253 86.6889L297.103 87.4474ZM306.192 63.6364H315.674V61.6364H306.192V63.6364ZM314.674 62.6364V99H316.674V62.6364H314.674ZM315.674 98H308.216V100H315.674V98ZM309.216 99V75.3317H307.216V99H309.216ZM308.216 74.3317H307.915V76.3317H308.216V74.3317ZM306.986 74.9598L297.576 98.4506L299.432 99.1943L308.843 75.7036L306.986 74.9598ZM298.504 97.8224H293.426V99.8224H298.504V97.8224ZM294.355 98.4518L284.944 74.8722L283.087 75.6136L292.497 99.1931L294.355 98.4518ZM284.015 74.2429H283.714V76.2429H284.015V74.2429ZM282.714 75.2429V99H284.714V75.2429H282.714ZM283.714 98H276.256V100H283.714V98ZM277.256 99V62.6364H275.256V99H277.256Z" fill="#E99A46" mask="url(#path-1-outside-1_224_388)"/>
  </svg>
