<svg width="270" height="159" viewBox="0 0 270 159" fill="none" xmlns="http://www.w3.org/2000/svg">
<mask id="path-1-outside-1_2_199" maskUnits="userSpaceOnUse" x="-2" y="-1" width="274" height="161" fill="black">
<rect fill="white" x="-2" y="-1" width="274" height="161"/>
<path d="M8.42827 37H0.189631L12.7429 0.636363H22.6506L35.1861 37H26.9474L17.8388 8.94602H17.5547L8.42827 37ZM7.91335 22.7067H27.3736V28.7081H7.91335V22.7067ZM58.4593 11.0945C58.3173 9.66217 57.7077 8.54948 56.6305 7.75639C55.5533 6.9633 54.0914 6.56676 52.2449 6.56676C50.9901 6.56676 49.9307 6.74432 49.0666 7.09943C48.2025 7.44271 47.5396 7.92211 47.0779 8.53764C46.6281 9.15317 46.4032 9.85156 46.4032 10.6328C46.3796 11.2839 46.5157 11.852 46.8116 12.3374C47.1194 12.8227 47.5396 13.2429 48.0723 13.598C48.6049 13.9413 49.2205 14.2431 49.9189 14.5036C50.6172 14.7521 51.363 14.9652 52.1561 15.1428L55.4231 15.924C57.0093 16.2791 58.4653 16.7526 59.791 17.3445C61.1168 17.9363 62.265 18.6643 63.2356 19.5284C64.2063 20.3925 64.9579 21.4105 65.4906 22.5824C66.0351 23.7543 66.3133 25.0978 66.3251 26.6129C66.3133 28.8383 65.7451 30.7678 64.6206 32.4013C63.5079 34.023 61.898 35.2836 59.791 36.1832C57.6958 37.071 55.1686 37.5149 52.2093 37.5149C49.2737 37.5149 46.7169 37.0651 44.5389 36.1655C42.3727 35.2659 40.68 33.9342 39.4608 32.1705C38.2534 30.3949 37.6201 28.1991 37.5609 25.5831H45.0005C45.0834 26.8023 45.4326 27.8203 46.0481 28.6371C46.6755 29.442 47.51 30.0516 48.5517 30.4659C49.6052 30.8684 50.7948 31.0696 52.1206 31.0696C53.4226 31.0696 54.5531 30.8802 55.5119 30.5014C56.4825 30.1226 57.2342 29.5959 57.7669 28.9212C58.2995 28.2464 58.5659 27.4711 58.5659 26.5952C58.5659 25.7784 58.3232 25.0919 57.8379 24.5355C57.3644 23.9792 56.666 23.5057 55.7427 23.1151C54.8313 22.7244 53.7127 22.3693 52.3869 22.0497L48.4274 21.0554C45.3616 20.3097 42.9409 19.1437 41.1653 17.5575C39.3897 15.9714 38.5079 13.8348 38.5197 11.1477C38.5079 8.94602 39.0938 7.02249 40.2775 5.37713C41.4731 3.73177 43.1125 2.44744 45.1958 1.52415C47.2792 0.600851 49.6466 0.139203 52.2981 0.139203C54.997 0.139203 57.3526 0.600851 59.3649 1.52415C61.389 2.44744 62.9634 3.73177 64.0879 5.37713C65.2124 7.02249 65.7924 8.92827 65.8279 11.0945H58.4593ZM91.223 11.0945C91.081 9.66217 90.4714 8.54948 89.3942 7.75639C88.317 6.9633 86.8551 6.56676 85.0085 6.56676C83.7538 6.56676 82.6944 6.74432 81.8303 7.09943C80.9661 7.44271 80.3033 7.92211 79.8416 8.53764C79.3918 9.15317 79.1669 9.85156 79.1669 10.6328C79.1432 11.2839 79.2794 11.852 79.5753 12.3374C79.883 12.8227 80.3033 13.2429 80.8359 13.598C81.3686 13.9413 81.9841 14.2431 82.6825 14.5036C83.3809 14.7521 84.1267 14.9652 84.9197 15.1428L88.1868 15.924C89.773 16.2791 91.2289 16.7526 92.5547 17.3445C93.8804 17.9363 95.0286 18.6643 95.9993 19.5284C96.9699 20.3925 97.7216 21.4105 98.2543 22.5824C98.7988 23.7543 99.0769 25.0978 99.0888 26.6129C99.0769 28.8383 98.5088 30.7678 97.3842 32.4013C96.2715 34.023 94.6617 35.2836 92.5547 36.1832C90.4595 37.071 87.9323 37.5149 84.973 37.5149C82.0374 37.5149 79.4806 37.0651 77.3026 36.1655C75.1364 35.2659 73.4437 33.9342 72.2244 32.1705C71.017 30.3949 70.3838 28.1991 70.3246 25.5831H77.7642C77.8471 26.8023 78.1963 27.8203 78.8118 28.6371C79.4392 29.442 80.2737 30.0516 81.3153 30.4659C82.3688 30.8684 83.5585 31.0696 84.8842 31.0696C86.1863 31.0696 87.3168 30.8802 88.2756 30.5014C89.2462 30.1226 89.9979 29.5959 90.5305 28.9212C91.0632 28.2464 91.3295 27.4711 91.3295 26.5952C91.3295 25.7784 91.0869 25.0919 90.6016 24.5355C90.1281 23.9792 89.4297 23.5057 88.5064 23.1151C87.5949 22.7244 86.4763 22.3693 85.1506 22.0497L81.1911 21.0554C78.1252 20.3097 75.7045 19.1437 73.929 17.5575C72.1534 15.9714 71.2715 13.8348 71.2834 11.1477C71.2715 8.94602 71.8575 7.02249 73.0412 5.37713C74.2367 3.73177 75.8762 2.44744 77.9595 1.52415C80.0429 0.600851 82.4103 0.139203 85.0618 0.139203C87.7607 0.139203 90.1162 0.600851 92.1286 1.52415C94.1527 2.44744 95.727 3.73177 96.8516 5.37713C97.9761 7.02249 98.5561 8.92827 98.5916 11.0945H91.223ZM104.26 37V0.636363H128.763V6.97514H111.948V15.6399H127.502V21.9787H111.948V30.6612H128.834V37H104.26ZM134.875 0.636363H144.357L154.371 25.0682H154.797L164.811 0.636363H174.293V37H166.836V13.3317H166.534L157.123 36.8224H152.045L142.635 13.2429H142.333V37H134.875V0.636363ZM180.627 37V0.636363H195.187C197.862 0.636363 200.093 1.03291 201.881 1.82599C203.668 2.61908 205.012 3.71993 205.911 5.12855C206.811 6.52533 207.261 8.13518 207.261 9.9581C207.261 11.3786 206.977 12.6274 206.409 13.7045C205.84 14.7699 205.059 15.6458 204.065 16.3324C203.082 17.0071 201.958 17.4865 200.691 17.7706V18.1257C202.076 18.1849 203.372 18.5755 204.58 19.2976C205.799 20.0196 206.787 21.0317 207.545 22.3338C208.302 23.6241 208.681 25.1629 208.681 26.9503C208.681 28.8797 208.202 30.602 207.243 32.1172C206.296 33.6205 204.893 34.8101 203.035 35.6861C201.177 36.562 198.886 37 196.164 37H180.627ZM188.316 30.7145H194.583C196.726 30.7145 198.288 30.3061 199.271 29.4893C200.253 28.6607 200.744 27.5599 200.744 26.1868C200.744 25.1806 200.502 24.2929 200.017 23.5234C199.531 22.754 198.839 22.1503 197.939 21.7124C197.051 21.2744 195.992 21.0554 194.761 21.0554H188.316V30.7145ZM188.316 15.853H194.015C195.069 15.853 196.004 15.6695 196.82 15.3026C197.649 14.9238 198.3 14.3911 198.774 13.7045C199.259 13.018 199.502 12.1953 199.502 11.2365C199.502 9.92259 199.034 8.86316 198.099 8.05824C197.176 7.25331 195.862 6.85085 194.157 6.85085H188.316V15.853ZM213.684 37V0.636363H221.372V30.6612H236.962V37H213.684ZM235.284 0.636363H243.895L252.187 16.2969H252.542L260.834 0.636363H269.446L256.182 24.1449V37H248.547V24.1449L235.284 0.636363ZM32.576 61.6364V98H25.9354L10.1151 75.1129H9.84872V98H2.16051V61.6364H8.90767L24.6037 84.5057H24.9233V61.6364H32.576ZM38.9281 98V61.6364H63.4309V67.9751H46.6163V76.6399H62.1703V82.9787H46.6163V91.6612H63.502V98H38.9281ZM76.7521 61.6364L84.0852 74.0298H84.3693L91.7379 61.6364H100.42L89.3232 79.8182L100.669 98H91.8267L84.3693 85.5888H84.0852L76.6278 98H67.821L79.2024 79.8182L68.0341 61.6364H76.7521ZM127.746 61.6364H135.435V85.2514C135.435 87.9029 134.801 90.223 133.535 92.2116C132.28 94.2003 130.522 95.7509 128.261 96.8636C126 97.9645 123.367 98.5149 120.36 98.5149C117.342 98.5149 114.702 97.9645 112.441 96.8636C110.18 95.7509 108.422 94.2003 107.168 92.2116C105.913 90.223 105.286 87.9029 105.286 85.2514V61.6364H112.974V84.5945C112.974 85.9794 113.276 87.2105 113.879 88.2876C114.495 89.3648 115.359 90.2112 116.472 90.8267C117.584 91.4422 118.88 91.75 120.36 91.75C121.852 91.75 123.148 91.4422 124.249 90.8267C125.361 90.2112 126.219 89.3648 126.823 88.2876C127.439 87.2105 127.746 85.9794 127.746 84.5945V61.6364ZM161.487 72.0945C161.345 70.6622 160.735 69.5495 159.658 68.7564C158.581 67.9633 157.119 67.5668 155.272 67.5668C154.017 67.5668 152.958 67.7443 152.094 68.0994C151.23 68.4427 150.567 68.9221 150.105 69.5376C149.655 70.1532 149.431 70.8516 149.431 71.6328C149.407 72.2839 149.543 72.852 149.839 73.3374C150.147 73.8227 150.567 74.2429 151.1 74.598C151.632 74.9413 152.248 75.2431 152.946 75.5036C153.645 75.7521 154.39 75.9652 155.183 76.1428L158.45 76.924C160.037 77.2791 161.493 77.7526 162.818 78.3445C164.144 78.9363 165.292 79.6643 166.263 80.5284C167.234 81.3925 167.985 82.4105 168.518 83.5824C169.062 84.7543 169.341 86.0978 169.352 87.6129C169.341 89.8383 168.772 91.7678 167.648 93.4013C166.535 95.023 164.925 96.2836 162.818 97.1832C160.723 98.071 158.196 98.5149 155.237 98.5149C152.301 98.5149 149.744 98.0651 147.566 97.1655C145.4 96.2659 143.707 94.9342 142.488 93.1705C141.281 91.3949 140.647 89.1991 140.588 86.5831H148.028C148.111 87.8023 148.46 88.8203 149.075 89.6371C149.703 90.442 150.537 91.0516 151.579 91.4659C152.633 91.8684 153.822 92.0696 155.148 92.0696C156.45 92.0696 157.58 91.8802 158.539 91.5014C159.51 91.1226 160.262 90.5959 160.794 89.9212C161.327 89.2464 161.593 88.4711 161.593 87.5952C161.593 86.7784 161.351 86.0919 160.865 85.5355C160.392 84.9792 159.693 84.5057 158.77 84.1151C157.859 83.7244 156.74 83.3693 155.414 83.0497L151.455 82.0554C148.389 81.3097 145.968 80.1437 144.193 78.5575C142.417 76.9714 141.535 74.8348 141.547 72.1477C141.535 69.946 142.121 68.0225 143.305 66.3771C144.5 64.7318 146.14 63.4474 148.223 62.5241C150.307 61.6009 152.674 61.1392 155.325 61.1392C158.024 61.1392 160.38 61.6009 162.392 62.5241C164.416 63.4474 165.991 64.7318 167.115 66.3771C168.24 68.0225 168.82 69.9283 168.855 72.0945H161.487ZM2.16051 159V122.636H9.84872V137.64H25.456V122.636H33.1264V159H25.456V143.979H9.84872V159H2.16051ZM45.733 159H37.4943L50.0476 122.636H59.9553L72.4908 159H64.2521L55.1435 130.946H54.8594L45.733 159ZM45.218 144.707H64.6783V150.708H45.218V144.707ZM76.8675 159V122.636H84.5558V152.661H100.145V159H76.8675ZM105.237 159V122.636H112.925V152.661H128.514V159H105.237Z"/>
</mask>
<path d="M8.42827 37H0.189631L12.7429 0.636363H22.6506L35.1861 37H26.9474L17.8388 8.94602H17.5547L8.42827 37ZM7.91335 22.7067H27.3736V28.7081H7.91335V22.7067ZM58.4593 11.0945C58.3173 9.66217 57.7077 8.54948 56.6305 7.75639C55.5533 6.9633 54.0914 6.56676 52.2449 6.56676C50.9901 6.56676 49.9307 6.74432 49.0666 7.09943C48.2025 7.44271 47.5396 7.92211 47.0779 8.53764C46.6281 9.15317 46.4032 9.85156 46.4032 10.6328C46.3796 11.2839 46.5157 11.852 46.8116 12.3374C47.1194 12.8227 47.5396 13.2429 48.0723 13.598C48.6049 13.9413 49.2205 14.2431 49.9189 14.5036C50.6172 14.7521 51.363 14.9652 52.1561 15.1428L55.4231 15.924C57.0093 16.2791 58.4653 16.7526 59.791 17.3445C61.1168 17.9363 62.265 18.6643 63.2356 19.5284C64.2063 20.3925 64.9579 21.4105 65.4906 22.5824C66.0351 23.7543 66.3133 25.0978 66.3251 26.6129C66.3133 28.8383 65.7451 30.7678 64.6206 32.4013C63.5079 34.023 61.898 35.2836 59.791 36.1832C57.6958 37.071 55.1686 37.5149 52.2093 37.5149C49.2737 37.5149 46.7169 37.0651 44.5389 36.1655C42.3727 35.2659 40.68 33.9342 39.4608 32.1705C38.2534 30.3949 37.6201 28.1991 37.5609 25.5831H45.0005C45.0834 26.8023 45.4326 27.8203 46.0481 28.6371C46.6755 29.442 47.51 30.0516 48.5517 30.4659C49.6052 30.8684 50.7948 31.0696 52.1206 31.0696C53.4226 31.0696 54.5531 30.8802 55.5119 30.5014C56.4825 30.1226 57.2342 29.5959 57.7669 28.9212C58.2995 28.2464 58.5659 27.4711 58.5659 26.5952C58.5659 25.7784 58.3232 25.0919 57.8379 24.5355C57.3644 23.9792 56.666 23.5057 55.7427 23.1151C54.8313 22.7244 53.7127 22.3693 52.3869 22.0497L48.4274 21.0554C45.3616 20.3097 42.9409 19.1437 41.1653 17.5575C39.3897 15.9714 38.5079 13.8348 38.5197 11.1477C38.5079 8.94602 39.0938 7.02249 40.2775 5.37713C41.4731 3.73177 43.1125 2.44744 45.1958 1.52415C47.2792 0.600851 49.6466 0.139203 52.2981 0.139203C54.997 0.139203 57.3526 0.600851 59.3649 1.52415C61.389 2.44744 62.9634 3.73177 64.0879 5.37713C65.2124 7.02249 65.7924 8.92827 65.8279 11.0945H58.4593ZM91.223 11.0945C91.081 9.66217 90.4714 8.54948 89.3942 7.75639C88.317 6.9633 86.8551 6.56676 85.0085 6.56676C83.7538 6.56676 82.6944 6.74432 81.8303 7.09943C80.9661 7.44271 80.3033 7.92211 79.8416 8.53764C79.3918 9.15317 79.1669 9.85156 79.1669 10.6328C79.1432 11.2839 79.2794 11.852 79.5753 12.3374C79.883 12.8227 80.3033 13.2429 80.8359 13.598C81.3686 13.9413 81.9841 14.2431 82.6825 14.5036C83.3809 14.7521 84.1267 14.9652 84.9197 15.1428L88.1868 15.924C89.773 16.2791 91.2289 16.7526 92.5547 17.3445C93.8804 17.9363 95.0286 18.6643 95.9993 19.5284C96.9699 20.3925 97.7216 21.4105 98.2543 22.5824C98.7988 23.7543 99.0769 25.0978 99.0888 26.6129C99.0769 28.8383 98.5088 30.7678 97.3842 32.4013C96.2715 34.023 94.6617 35.2836 92.5547 36.1832C90.4595 37.071 87.9323 37.5149 84.973 37.5149C82.0374 37.5149 79.4806 37.0651 77.3026 36.1655C75.1364 35.2659 73.4437 33.9342 72.2244 32.1705C71.017 30.3949 70.3838 28.1991 70.3246 25.5831H77.7642C77.8471 26.8023 78.1963 27.8203 78.8118 28.6371C79.4392 29.442 80.2737 30.0516 81.3153 30.4659C82.3688 30.8684 83.5585 31.0696 84.8842 31.0696C86.1863 31.0696 87.3168 30.8802 88.2756 30.5014C89.2462 30.1226 89.9979 29.5959 90.5305 28.9212C91.0632 28.2464 91.3295 27.4711 91.3295 26.5952C91.3295 25.7784 91.0869 25.0919 90.6016 24.5355C90.1281 23.9792 89.4297 23.5057 88.5064 23.1151C87.5949 22.7244 86.4763 22.3693 85.1506 22.0497L81.1911 21.0554C78.1252 20.3097 75.7045 19.1437 73.929 17.5575C72.1534 15.9714 71.2715 13.8348 71.2834 11.1477C71.2715 8.94602 71.8575 7.02249 73.0412 5.37713C74.2367 3.73177 75.8762 2.44744 77.9595 1.52415C80.0429 0.600851 82.4103 0.139203 85.0618 0.139203C87.7607 0.139203 90.1162 0.600851 92.1286 1.52415C94.1527 2.44744 95.727 3.73177 96.8516 5.37713C97.9761 7.02249 98.5561 8.92827 98.5916 11.0945H91.223ZM104.26 37V0.636363H128.763V6.97514H111.948V15.6399H127.502V21.9787H111.948V30.6612H128.834V37H104.26ZM134.875 0.636363H144.357L154.371 25.0682H154.797L164.811 0.636363H174.293V37H166.836V13.3317H166.534L157.123 36.8224H152.045L142.635 13.2429H142.333V37H134.875V0.636363ZM180.627 37V0.636363H195.187C197.862 0.636363 200.093 1.03291 201.881 1.82599C203.668 2.61908 205.012 3.71993 205.911 5.12855C206.811 6.52533 207.261 8.13518 207.261 9.9581C207.261 11.3786 206.977 12.6274 206.409 13.7045C205.84 14.7699 205.059 15.6458 204.065 16.3324C203.082 17.0071 201.958 17.4865 200.691 17.7706V18.1257C202.076 18.1849 203.372 18.5755 204.58 19.2976C205.799 20.0196 206.787 21.0317 207.545 22.3338C208.302 23.6241 208.681 25.1629 208.681 26.9503C208.681 28.8797 208.202 30.602 207.243 32.1172C206.296 33.6205 204.893 34.8101 203.035 35.6861C201.177 36.562 198.886 37 196.164 37H180.627ZM188.316 30.7145H194.583C196.726 30.7145 198.288 30.3061 199.271 29.4893C200.253 28.6607 200.744 27.5599 200.744 26.1868C200.744 25.1806 200.502 24.2929 200.017 23.5234C199.531 22.754 198.839 22.1503 197.939 21.7124C197.051 21.2744 195.992 21.0554 194.761 21.0554H188.316V30.7145ZM188.316 15.853H194.015C195.069 15.853 196.004 15.6695 196.82 15.3026C197.649 14.9238 198.3 14.3911 198.774 13.7045C199.259 13.018 199.502 12.1953 199.502 11.2365C199.502 9.92259 199.034 8.86316 198.099 8.05824C197.176 7.25331 195.862 6.85085 194.157 6.85085H188.316V15.853ZM213.684 37V0.636363H221.372V30.6612H236.962V37H213.684ZM235.284 0.636363H243.895L252.187 16.2969H252.542L260.834 0.636363H269.446L256.182 24.1449V37H248.547V24.1449L235.284 0.636363ZM32.576 61.6364V98H25.9354L10.1151 75.1129H9.84872V98H2.16051V61.6364H8.90767L24.6037 84.5057H24.9233V61.6364H32.576ZM38.9281 98V61.6364H63.4309V67.9751H46.6163V76.6399H62.1703V82.9787H46.6163V91.6612H63.502V98H38.9281ZM76.7521 61.6364L84.0852 74.0298H84.3693L91.7379 61.6364H100.42L89.3232 79.8182L100.669 98H91.8267L84.3693 85.5888H84.0852L76.6278 98H67.821L79.2024 79.8182L68.0341 61.6364H76.7521ZM127.746 61.6364H135.435V85.2514C135.435 87.9029 134.801 90.223 133.535 92.2116C132.28 94.2003 130.522 95.7509 128.261 96.8636C126 97.9645 123.367 98.5149 120.36 98.5149C117.342 98.5149 114.702 97.9645 112.441 96.8636C110.18 95.7509 108.422 94.2003 107.168 92.2116C105.913 90.223 105.286 87.9029 105.286 85.2514V61.6364H112.974V84.5945C112.974 85.9794 113.276 87.2105 113.879 88.2876C114.495 89.3648 115.359 90.2112 116.472 90.8267C117.584 91.4422 118.88 91.75 120.36 91.75C121.852 91.75 123.148 91.4422 124.249 90.8267C125.361 90.2112 126.219 89.3648 126.823 88.2876C127.439 87.2105 127.746 85.9794 127.746 84.5945V61.6364ZM161.487 72.0945C161.345 70.6622 160.735 69.5495 159.658 68.7564C158.581 67.9633 157.119 67.5668 155.272 67.5668C154.017 67.5668 152.958 67.7443 152.094 68.0994C151.23 68.4427 150.567 68.9221 150.105 69.5376C149.655 70.1532 149.431 70.8516 149.431 71.6328C149.407 72.2839 149.543 72.852 149.839 73.3374C150.147 73.8227 150.567 74.2429 151.1 74.598C151.632 74.9413 152.248 75.2431 152.946 75.5036C153.645 75.7521 154.39 75.9652 155.183 76.1428L158.45 76.924C160.037 77.2791 161.493 77.7526 162.818 78.3445C164.144 78.9363 165.292 79.6643 166.263 80.5284C167.234 81.3925 167.985 82.4105 168.518 83.5824C169.062 84.7543 169.341 86.0978 169.352 87.6129C169.341 89.8383 168.772 91.7678 167.648 93.4013C166.535 95.023 164.925 96.2836 162.818 97.1832C160.723 98.071 158.196 98.5149 155.237 98.5149C152.301 98.5149 149.744 98.0651 147.566 97.1655C145.4 96.2659 143.707 94.9342 142.488 93.1705C141.281 91.3949 140.647 89.1991 140.588 86.5831H148.028C148.111 87.8023 148.46 88.8203 149.075 89.6371C149.703 90.442 150.537 91.0516 151.579 91.4659C152.633 91.8684 153.822 92.0696 155.148 92.0696C156.45 92.0696 157.58 91.8802 158.539 91.5014C159.51 91.1226 160.262 90.5959 160.794 89.9212C161.327 89.2464 161.593 88.4711 161.593 87.5952C161.593 86.7784 161.351 86.0919 160.865 85.5355C160.392 84.9792 159.693 84.5057 158.77 84.1151C157.859 83.7244 156.74 83.3693 155.414 83.0497L151.455 82.0554C148.389 81.3097 145.968 80.1437 144.193 78.5575C142.417 76.9714 141.535 74.8348 141.547 72.1477C141.535 69.946 142.121 68.0225 143.305 66.3771C144.5 64.7318 146.14 63.4474 148.223 62.5241C150.307 61.6009 152.674 61.1392 155.325 61.1392C158.024 61.1392 160.38 61.6009 162.392 62.5241C164.416 63.4474 165.991 64.7318 167.115 66.3771C168.24 68.0225 168.82 69.9283 168.855 72.0945H161.487ZM2.16051 159V122.636H9.84872V137.64H25.456V122.636H33.1264V159H25.456V143.979H9.84872V159H2.16051ZM45.733 159H37.4943L50.0476 122.636H59.9553L72.4908 159H64.2521L55.1435 130.946H54.8594L45.733 159ZM45.218 144.707H64.6783V150.708H45.218V144.707ZM76.8675 159V122.636H84.5558V152.661H100.145V159H76.8675ZM105.237 159V122.636H112.925V152.661H128.514V159H105.237Z" fill="black" fill-opacity="0.6"/>
<path d="M8.42827 37V38H9.15454L9.37921 37.3094L8.42827 37ZM0.189631 37L-0.755629 36.6737L-1.21349 38H0.189631V37ZM12.7429 0.636362V-0.363638H12.0302L11.7976 0.310044L12.7429 0.636362ZM22.6506 0.636362L23.596 0.310457L23.3636 -0.363638H22.6506V0.636362ZM35.1861 37V38H36.5886L36.1315 36.6741L35.1861 37ZM26.9474 37L25.9963 37.3088L26.2207 38H26.9474V37ZM17.8388 8.94602L18.7899 8.63721L18.5655 7.94602H17.8388V8.94602ZM17.5547 8.94602V7.94602H16.8284L16.6037 8.63666L17.5547 8.94602ZM7.91335 22.7067V21.7067H6.91335V22.7067H7.91335ZM27.3736 22.7067H28.3736V21.7067H27.3736V22.7067ZM27.3736 28.7081V29.7081H28.3736V28.7081H27.3736ZM7.91335 28.7081H6.91335V29.7081H7.91335V28.7081ZM8.42827 36H0.189631V38H8.42827V36ZM1.13489 37.3263L13.6882 0.962681L11.7976 0.310044L-0.755629 36.6737L1.13489 37.3263ZM12.7429 1.63636H22.6506V-0.363638H12.7429V1.63636ZM21.7052 0.962268L34.2407 37.3259L36.1315 36.6741L23.596 0.310457L21.7052 0.962268ZM35.1861 36H26.9474V38H35.1861V36ZM27.8986 36.6912L18.7899 8.63721L16.8877 9.25484L25.9963 37.3088L27.8986 36.6912ZM17.8388 7.94602H17.5547V9.94602H17.8388V7.94602ZM16.6037 8.63666L7.47732 36.6906L9.37921 37.3094L18.5056 9.25538L16.6037 8.63666ZM7.91335 23.7067H27.3736V21.7067H7.91335V23.7067ZM26.3736 22.7067V28.7081H28.3736V22.7067H26.3736ZM27.3736 27.7081H7.91335V29.7081H27.3736V27.7081ZM8.91335 28.7081V22.7067H6.91335V28.7081H8.91335ZM58.4593 11.0945L57.4642 11.1931L57.5536 12.0945H58.4593V11.0945ZM49.0666 7.09943L49.4358 8.02885L49.4467 8.02437L49.0666 7.09943ZM47.0779 8.53764L46.2779 7.93759L46.2706 7.94762L47.0779 8.53764ZM46.4032 10.6328L47.4026 10.6692L47.4032 10.651V10.6328H46.4032ZM46.8116 12.3374L45.9578 12.858L45.9624 12.8655L45.9671 12.8729L46.8116 12.3374ZM48.0723 13.598L47.5176 14.4301L47.524 14.4344L47.5306 14.4386L48.0723 13.598ZM49.9189 14.5035L49.5695 15.4405L49.5765 15.4431L49.5835 15.4457L49.9189 14.5035ZM52.1561 15.1428L52.3886 14.1702L52.3816 14.1685L52.3745 14.1669L52.1561 15.1428ZM55.4231 15.924L55.1905 16.8966L55.1976 16.8983L55.2046 16.8998L55.4231 15.924ZM59.791 17.3445L59.3834 18.2576L59.791 17.3445ZM63.2356 19.5284L63.9006 18.7815L63.2356 19.5284ZM65.4906 22.5824L64.5802 22.9962L64.5837 23.0038L65.4906 22.5824ZM66.3251 26.6129L67.3252 26.6182L67.3251 26.6051L66.3251 26.6129ZM64.6206 32.4013L63.7969 31.8342L63.796 31.8355L64.6206 32.4013ZM59.791 36.1832L60.1812 37.104L60.1837 37.1029L59.791 36.1832ZM44.5389 36.1655L44.1553 37.089L44.1571 37.0897L44.5389 36.1655ZM39.4608 32.1705L38.6338 32.7328L38.6382 32.7391L39.4608 32.1705ZM37.5609 25.5831V24.5831H36.538L36.5612 25.6057L37.5609 25.5831ZM45.0005 25.5831L45.9982 25.5153L45.9349 24.5831H45.0005V25.5831ZM46.0481 28.6371L45.2495 29.2389L45.2544 29.2454L45.2594 29.2518L46.0481 28.6371ZM48.5517 30.4659L48.1821 31.3952L48.1948 31.4001L48.5517 30.4659ZM55.5119 30.5014L55.1483 29.5698L55.1445 29.5714L55.5119 30.5014ZM57.7669 28.9212L58.5518 29.5408L57.7669 28.9212ZM57.8379 24.5355L57.0763 25.1837L57.0843 25.1929L57.8379 24.5355ZM55.7427 23.1151L55.3488 24.0342L55.3531 24.036L55.7427 23.1151ZM52.3869 22.0497L52.1433 23.0196L52.1525 23.0219L52.3869 22.0497ZM48.4274 21.0554L48.6709 20.0855L48.6637 20.0837L48.4274 21.0554ZM41.1653 17.5575L40.4991 18.3033L41.1653 17.5575ZM38.5197 11.1477L39.5197 11.1521L39.5197 11.1423L38.5197 11.1477ZM40.2775 5.37713L39.4685 4.7893L39.4658 4.79313L40.2775 5.37713ZM59.3649 1.52415L58.9479 2.43305L58.9499 2.43397L59.3649 1.52415ZM64.0879 5.37713L63.2623 5.94139L64.0879 5.37713ZM65.8279 11.0945V12.0945H66.8445L66.8278 11.0781L65.8279 11.0945ZM59.4545 10.9958C59.2868 9.3057 58.5475 7.92597 57.2234 6.95111L56.0376 8.56167C56.8679 9.17299 57.3477 10.0186 57.4642 11.1931L59.4545 10.9958ZM57.2234 6.95111C55.9199 5.9914 54.2253 5.56676 52.2449 5.56676V7.56676C53.9575 7.56676 55.1867 7.93521 56.0376 8.56167L57.2234 6.95111ZM52.2449 5.56676C50.9019 5.56676 49.7048 5.75598 48.6865 6.17449L49.4467 8.02437C50.1565 7.73266 51.0784 7.56676 52.2449 7.56676V5.56676ZM48.6974 6.17008C47.6979 6.56713 46.8712 7.14668 46.2779 7.93764L47.8779 9.13764C48.208 8.69754 48.707 8.31828 49.4358 8.02878L48.6974 6.17008ZM46.2706 7.94762C45.6923 8.73892 45.4032 9.64507 45.4032 10.6328H47.4032C47.4032 10.0581 47.564 9.56743 47.8853 9.12766L46.2706 7.94762ZM45.4039 10.5965C45.3742 11.414 45.5455 12.1818 45.9578 12.858L47.6654 11.8167C47.4859 11.5223 47.385 11.1537 47.4026 10.6692L45.4039 10.5965ZM45.9671 12.8729C46.3578 13.489 46.8819 14.0063 47.5176 14.4301L48.627 12.766C48.1972 12.4795 47.8809 12.1563 47.6561 11.8018L45.9671 12.8729ZM47.5306 14.4386C48.1332 14.8269 48.8152 15.1593 49.5695 15.4405L50.2682 13.5666C49.6258 13.327 49.0767 13.0557 48.614 12.7574L47.5306 14.4386ZM49.5835 15.4457C50.3236 15.7091 51.1086 15.933 51.9376 16.1186L52.3745 14.1669C51.6173 13.9974 50.9109 13.7952 50.2542 13.5614L49.5835 15.4457ZM51.9235 16.1153L55.1905 16.8966L55.6557 14.9514L52.3886 14.1702L51.9235 16.1153ZM55.2046 16.8998C56.7334 17.2421 58.1251 17.6959 59.3834 18.2576L60.1987 16.4313C58.8054 15.8093 57.2852 15.3161 55.6416 14.9482L55.2046 16.8998ZM59.3834 18.2576C60.6262 18.8124 61.6852 19.487 62.5707 20.2753L63.9006 18.7815C62.8448 17.8416 61.6073 17.0602 60.1987 16.4313L59.3834 18.2576ZM62.5707 20.2753C63.4382 21.0476 64.1058 21.9525 64.5802 22.9962L66.401 22.1686C65.81 20.8685 64.9743 19.7374 63.9006 18.7815L62.5707 20.2753ZM64.5837 23.0038C65.0585 24.0256 65.3142 25.2241 65.3251 26.6207L67.3251 26.6051C67.3123 24.9715 67.0117 23.483 66.3975 22.161L64.5837 23.0038ZM65.3251 26.6076C65.3142 28.6577 64.794 30.3858 63.7969 31.8342L65.4443 32.9683C66.6962 31.1497 67.3123 29.0189 67.3251 26.6182L65.3251 26.6076ZM63.796 31.8355C62.8075 33.2762 61.3601 34.426 59.3983 35.2636L60.1837 37.1029C62.436 36.1413 64.2083 34.7697 65.4451 32.967L63.796 31.8355ZM59.4009 35.2625C57.4602 36.0848 55.073 36.5149 52.2093 36.5149V38.5149C55.2642 38.5149 57.9315 38.0572 60.1812 37.104L59.4009 35.2625ZM52.2093 36.5149C49.3736 36.5149 46.9518 36.0802 44.9206 35.2412L44.1571 37.0897C46.482 38.05 49.1739 38.5149 52.2093 38.5149V36.5149ZM44.9224 35.242C42.9163 34.4088 41.3831 33.1928 40.2833 31.6018L38.6382 32.7391C39.9768 34.6756 41.8291 36.1229 44.1553 37.089L44.9224 35.242ZM40.2877 31.6081C39.2104 30.0239 38.6164 28.0261 38.5606 25.5605L36.5612 25.6057C36.6237 28.3721 37.2964 30.7659 38.6338 32.7328L40.2877 31.6081ZM37.5609 26.5831H45.0005V24.5831H37.5609V26.5831ZM44.0028 25.6509C44.0962 27.0254 44.4961 28.2392 45.2495 29.2389L46.8467 28.0352C46.3691 27.4014 46.0705 26.5792 45.9982 25.5153L44.0028 25.6509ZM45.2594 29.2518C46.0066 30.2105 46.992 30.9218 48.1821 31.3951L48.9212 29.5367C48.028 29.1814 47.3444 28.6735 46.8368 28.0223L45.2594 29.2518ZM48.1948 31.4001C49.3803 31.853 50.6938 32.0696 52.1206 32.0696V30.0696C50.8958 30.0696 49.83 29.8838 48.9085 29.5318L48.1948 31.4001ZM52.1206 32.0696C53.5167 32.0696 54.7772 31.8669 55.8793 31.4315L55.1445 29.5714C54.3289 29.8935 53.3286 30.0696 52.1206 30.0696V32.0696ZM55.8754 31.433C56.9767 31.0033 57.8877 30.382 58.5518 29.5408L56.982 28.3015C56.5807 28.8098 55.9884 29.242 55.1484 29.5698L55.8754 31.433ZM58.5518 29.5408C59.2266 28.686 59.5659 27.6914 59.5659 26.5952H57.5659C57.5659 27.2509 57.3725 27.8069 56.982 28.3015L58.5518 29.5408ZM59.5659 26.5952C59.5659 25.5643 59.2529 24.6364 58.5915 23.8781L57.0843 25.1929C57.3935 25.5473 57.5659 25.9925 57.5659 26.5952H59.5659ZM58.5994 23.8874C57.9945 23.1766 57.1486 22.624 56.1324 22.1941L55.3531 24.036C56.1834 24.3873 56.7343 24.7817 57.0764 25.1836L58.5994 23.8874ZM56.1366 22.1959C55.1585 21.7767 53.9829 21.4058 52.6213 21.0776L52.1525 23.0219C53.4424 23.3328 54.504 23.6722 55.3488 24.0342L56.1366 22.1959ZM52.6305 21.0798L48.6709 20.0855L48.1838 22.0253L52.1433 23.0196L52.6305 21.0798ZM48.6637 20.0837C45.7076 19.3647 43.4512 18.2587 41.8315 16.8118L40.4991 18.3033C42.4306 20.0287 45.0155 21.2546 48.191 22.0271L48.6637 20.0837ZM41.8315 16.8118C40.2982 15.442 39.5089 13.5938 39.5197 11.1521L37.5197 11.1433C37.5068 14.0757 38.4813 16.5007 40.4991 18.3033L41.8315 16.8118ZM39.5197 11.1423C39.5089 9.13282 40.0398 7.41988 41.0893 5.96113L39.4658 4.79313C38.1478 6.6251 37.5069 8.75923 37.5197 11.1531L39.5197 11.1423ZM41.0865 5.96496C42.1665 4.47862 43.6589 3.29911 45.601 2.43839L44.7907 0.609907C42.5662 1.59577 40.7796 2.98492 39.4685 4.78931L41.0865 5.96496ZM45.601 2.43839C47.5376 1.58014 49.7635 1.1392 52.2981 1.1392V-0.860797C49.5297 -0.860797 47.0208 -0.378437 44.7907 0.609907L45.601 2.43839ZM52.2981 1.1392C54.8839 1.1392 57.0918 1.58144 58.9479 2.43304L59.7819 0.615251C57.6133 -0.379736 55.1101 -0.860797 52.2981 -0.860797V1.1392ZM58.9499 2.43397C60.828 3.29067 62.2522 4.46349 63.2623 5.94139L64.9135 4.81287C63.6745 3.00005 61.95 1.60421 59.7799 0.614327L58.9499 2.43397ZM63.2623 5.94139C64.2667 7.41103 64.7955 9.12261 64.8281 11.1108L66.8278 11.0781C66.7894 8.73392 66.1581 6.63395 64.9135 4.81287L63.2623 5.94139ZM65.8279 10.0945H58.4593V12.0945H65.8279V10.0945ZM91.223 11.0945L90.2279 11.1931L90.3173 12.0945H91.223V11.0945ZM81.8303 7.09943L82.1995 8.02885L82.2104 8.02437L81.8303 7.09943ZM79.8416 8.53764L79.0416 7.93759L79.0342 7.94762L79.8416 8.53764ZM79.1669 10.6328L80.1662 10.6692L80.1669 10.651V10.6328H79.1669ZM79.5753 12.3374L78.7215 12.858L78.7261 12.8655L78.7308 12.8729L79.5753 12.3374ZM80.8359 13.598L80.2812 14.4301L80.2877 14.4344L80.2942 14.4386L80.8359 13.598ZM82.6825 14.5035L82.3331 15.4405L82.3402 15.4431L82.3472 15.4457L82.6825 14.5035ZM84.9197 15.1428L85.1523 14.1702L85.1453 14.1685L85.1382 14.1669L84.9197 15.1428ZM88.1868 15.924L87.9542 16.8966L87.9613 16.8983L87.9683 16.8998L88.1868 15.924ZM92.5547 17.3445L92.147 18.2576L92.5547 17.3445ZM95.9993 19.5284L96.6642 18.7815L95.9993 19.5284ZM98.2543 22.5824L97.3439 22.9962L97.3474 23.0038L98.2543 22.5824ZM99.0888 26.6129L100.089 26.6182L100.089 26.6051L99.0888 26.6129ZM97.3842 32.4013L96.5605 31.8342L96.5597 31.8355L97.3842 32.4013ZM92.5547 36.1832L92.9448 37.104L92.9474 37.1029L92.5547 36.1832ZM77.3026 36.1655L76.919 37.089L76.9208 37.0897L77.3026 36.1655ZM72.2244 32.1705L71.3975 32.7328L71.4018 32.7391L72.2244 32.1705ZM70.3246 25.5831V24.5831H69.3017L69.3248 25.6057L70.3246 25.5831ZM77.7642 25.5831L78.7619 25.5153L78.6985 24.5831H77.7642V25.5831ZM78.8118 28.6371L78.0132 29.2389L78.0181 29.2454L78.0231 29.2518L78.8118 28.6371ZM81.3153 30.4659L80.9457 31.3952L80.9585 31.4001L81.3153 30.4659ZM88.2756 30.5014L87.912 29.5698L87.9081 29.5714L88.2756 30.5014ZM90.5305 28.9212L91.3154 29.5408L90.5305 28.9212ZM90.6016 24.5355L89.84 25.1837L89.848 25.1929L90.6016 24.5355ZM88.5064 23.1151L88.1125 24.0342L88.1168 24.036L88.5064 23.1151ZM85.1506 22.0497L84.907 23.0196L84.9162 23.0219L85.1506 22.0497ZM81.1911 21.0554L81.4346 20.0855L81.4274 20.0837L81.1911 21.0554ZM73.929 17.5575L73.2628 18.3033L73.929 17.5575ZM71.2834 11.1477L72.2834 11.1521L72.2834 11.1423L71.2834 11.1477ZM73.0412 5.37713L72.2322 4.7893L72.2294 4.79313L73.0412 5.37713ZM92.1286 1.52415L91.7115 2.43305L91.7135 2.43397L92.1286 1.52415ZM96.8516 5.37713L96.026 5.94139L96.8516 5.37713ZM98.5916 11.0945V12.0945H99.6081L99.5915 11.0781L98.5916 11.0945ZM92.2181 10.9958C92.0505 9.3057 91.3111 7.92597 89.9871 6.95111L88.8013 8.56167C89.6316 9.17299 90.1114 10.0186 90.2279 11.1931L92.2181 10.9958ZM89.9871 6.95111C88.6836 5.9914 86.989 5.56676 85.0085 5.56676V7.56676C86.7212 7.56676 87.9504 7.93521 88.8013 8.56167L89.9871 6.95111ZM85.0085 5.56676C83.6656 5.56676 82.4685 5.75598 81.4501 6.17449L82.2104 8.02437C82.9202 7.73266 83.842 7.56676 85.0085 7.56676V5.56676ZM81.4611 6.17008C80.4616 6.56713 79.6348 7.14668 79.0416 7.93764L80.6416 9.13764C80.9717 8.69754 81.4707 8.31828 82.1994 8.02878L81.4611 6.17008ZM79.0342 7.94762C78.456 8.73892 78.1669 9.64507 78.1669 10.6328H80.1669C80.1669 10.0581 80.3276 9.56743 80.649 9.12766L79.0342 7.94762ZM78.1676 10.5965C78.1378 11.414 78.3092 12.1818 78.7215 12.858L80.4291 11.8167C80.2495 11.5223 80.1486 11.1537 80.1662 10.6692L78.1676 10.5965ZM78.7308 12.8729C79.1215 13.489 79.6456 14.0063 80.2812 14.4301L81.3906 12.766C80.9609 12.4795 80.6446 12.1563 80.4198 11.8018L78.7308 12.8729ZM80.2942 14.4386C80.8968 14.8269 81.5788 15.1593 82.3331 15.4405L83.0319 13.5666C82.3895 13.327 81.8404 13.0557 81.3776 12.7574L80.2942 14.4386ZM82.3472 15.4457C83.0873 15.7091 83.8723 15.933 84.7013 16.1186L85.1382 14.1669C84.381 13.9974 83.6746 13.7952 83.0179 13.5614L82.3472 15.4457ZM84.6872 16.1153L87.9542 16.8966L88.4194 14.9514L85.1523 14.1702L84.6872 16.1153ZM87.9683 16.8998C89.4971 17.2421 90.8888 17.6959 92.147 18.2576L92.9623 16.4313C91.5691 15.8093 90.0488 15.3161 88.4053 14.9482L87.9683 16.8998ZM92.147 18.2576C93.3899 18.8124 94.4488 19.487 95.3344 20.2753L96.6642 18.7815C95.6085 17.8416 94.371 17.0602 92.9623 16.4313L92.147 18.2576ZM95.3344 20.2753C96.2019 21.0476 96.8695 21.9525 97.3439 22.9962L99.1646 22.1686C98.5737 20.8685 97.738 19.7374 96.6642 18.7815L95.3344 20.2753ZM97.3474 23.0038C97.8222 24.0256 98.0779 25.2241 98.0888 26.6207L100.089 26.6051C100.076 24.9715 99.7754 23.483 99.1611 22.161L97.3474 23.0038ZM98.0888 26.6076C98.0779 28.6577 97.5576 30.3858 96.5605 31.8342L98.2079 32.9683C99.4599 31.1497 100.076 29.0189 100.089 26.6182L98.0888 26.6076ZM96.5597 31.8355C95.5712 33.2762 94.1237 34.426 92.162 35.2636L92.9474 37.1029C95.1997 36.1413 96.9719 34.7697 98.2088 32.967L96.5597 31.8355ZM92.1645 35.2625C90.2238 36.0848 87.8367 36.5149 84.973 36.5149V38.5149C88.0279 38.5149 90.6952 38.0572 92.9448 37.104L92.1645 35.2625ZM84.973 36.5149C82.1373 36.5149 79.7155 36.0802 77.6843 35.2412L76.9208 37.0897C79.2457 38.05 81.9375 38.5149 84.973 38.5149V36.5149ZM77.6861 35.242C75.68 34.4088 74.1468 33.1928 73.047 31.6018L71.4018 32.7391C72.7405 34.6756 74.5928 36.1229 76.919 37.089L77.6861 35.242ZM73.0514 31.6081C71.974 30.0239 71.3801 28.0261 71.3243 25.5605L69.3248 25.6057C69.3874 28.3721 70.06 30.7659 71.3975 32.7328L73.0514 31.6081ZM70.3246 26.5831H77.7642V24.5831H70.3246V26.5831ZM76.7665 25.6509C76.8599 27.0254 77.2598 28.2392 78.0132 29.2389L79.6104 28.0352C79.1327 27.4014 78.8342 26.5792 78.7619 25.5153L76.7665 25.6509ZM78.0231 29.2518C78.7703 30.2105 79.7557 30.9218 80.9458 31.3951L81.6849 29.5367C80.7917 29.1814 80.108 28.6735 79.6005 28.0223L78.0231 29.2518ZM80.9585 31.4001C82.144 31.853 83.4575 32.0696 84.8842 32.0696V30.0696C83.6595 30.0696 82.5937 29.8838 81.6722 29.5318L80.9585 31.4001ZM84.8842 32.0696C86.2803 32.0696 87.5409 31.8669 88.643 31.4315L87.9081 29.5714C87.0926 29.8935 86.0923 30.0696 84.8842 30.0696V32.0696ZM88.6391 31.433C89.7403 31.0033 90.6513 30.382 91.3154 29.5408L89.7457 28.3015C89.3444 28.8098 88.7521 29.242 87.912 29.5698L88.6391 31.433ZM91.3154 29.5408C91.9903 28.686 92.3295 27.6914 92.3295 26.5952H90.3295C90.3295 27.2509 90.1362 27.8069 89.7457 28.3015L91.3154 29.5408ZM92.3295 26.5952C92.3295 25.5643 92.0166 24.6364 91.3551 23.8781L89.848 25.1929C90.1572 25.5473 90.3295 25.9925 90.3295 26.5952H92.3295ZM91.3631 23.8874C90.7582 23.1766 89.9123 22.624 88.896 22.1941L88.1168 24.036C88.9471 24.3873 89.498 24.7817 89.84 25.1836L91.3631 23.8874ZM88.9003 22.1959C87.9221 21.7767 86.7466 21.4058 85.3849 21.0776L84.9162 23.0219C86.2061 23.3328 87.2677 23.6722 88.1125 24.0342L88.9003 22.1959ZM85.3941 21.0798L81.4346 20.0855L80.9475 22.0253L84.907 23.0196L85.3941 21.0798ZM81.4274 20.0837C78.4713 19.3647 76.2149 18.2587 74.5952 16.8118L73.2628 18.3033C75.1942 20.0287 77.7792 21.2546 80.9547 22.0271L81.4274 20.0837ZM74.5952 16.8118C73.0619 15.442 72.2726 13.5938 72.2834 11.1521L70.2834 11.1433C70.2705 14.0757 71.2449 16.5007 73.2628 18.3033L74.5952 16.8118ZM72.2834 11.1423C72.2726 9.13282 72.8035 7.41988 73.853 5.96113L72.2294 4.79313C70.9115 6.6251 70.2705 8.75923 70.2834 11.1531L72.2834 11.1423ZM73.8502 5.96496C74.9302 4.47862 76.4225 3.29911 78.3647 2.43839L77.5543 0.609907C75.3298 1.59577 73.5433 2.98492 72.2322 4.78931L73.8502 5.96496ZM78.3647 2.43839C80.3012 1.58014 82.5272 1.1392 85.0618 1.1392V-0.860797C82.2933 -0.860797 79.7845 -0.378437 77.5543 0.609907L78.3647 2.43839ZM85.0618 1.1392C87.6476 1.1392 89.8555 1.58144 91.7115 2.43304L92.5456 0.615251C90.377 -0.379736 87.8737 -0.860797 85.0618 -0.860797V1.1392ZM91.7135 2.43397C93.5917 3.29067 95.0159 4.46349 96.026 5.94139L97.6772 4.81287C96.4382 3.00005 94.7137 1.60421 92.5436 0.614327L91.7135 2.43397ZM96.026 5.94139C97.0304 7.41103 97.5592 9.12261 97.5918 11.1108L99.5915 11.0781C99.5531 8.73392 98.9218 6.63395 97.6772 4.81287L96.026 5.94139ZM98.5916 10.0945H91.223V12.0945H98.5916V10.0945ZM104.26 37H103.26V38H104.26V37ZM104.26 0.636362V-0.363638H103.26V0.636362H104.26ZM128.763 0.636362H129.763V-0.363638H128.763V0.636362ZM128.763 6.97514V7.97514H129.763V6.97514H128.763ZM111.948 6.97514V5.97514H110.948V6.97514H111.948ZM111.948 15.6399H110.948V16.6399H111.948V15.6399ZM127.502 15.6399H128.502V14.6399H127.502V15.6399ZM127.502 21.9787V22.9787H128.502V21.9787H127.502ZM111.948 21.9787V20.9787H110.948V21.9787H111.948ZM111.948 30.6612H110.948V31.6612H111.948V30.6612ZM128.834 30.6612H129.834V29.6612H128.834V30.6612ZM128.834 37V38H129.834V37H128.834ZM105.26 37V0.636362H103.26V37H105.26ZM104.26 1.63636H128.763V-0.363638H104.26V1.63636ZM127.763 0.636362V6.97514H129.763V0.636362H127.763ZM128.763 5.97514H111.948V7.97514H128.763V5.97514ZM110.948 6.97514V15.6399H112.948V6.97514H110.948ZM111.948 16.6399H127.502V14.6399H111.948V16.6399ZM126.502 15.6399V21.9787H128.502V15.6399H126.502ZM127.502 20.9787H111.948V22.9787H127.502V20.9787ZM110.948 21.9787V30.6612H112.948V21.9787H110.948ZM111.948 31.6612H128.834V29.6612H111.948V31.6612ZM127.834 30.6612V37H129.834V30.6612H127.834ZM128.834 36H104.26V38H128.834V36ZM134.875 0.636362V-0.363638H133.875V0.636362H134.875ZM144.357 0.636362L145.282 0.257101L145.028 -0.363638H144.357V0.636362ZM154.371 25.0682L153.446 25.4474L153.7 26.0682H154.371V25.0682ZM154.797 25.0682V26.0682H155.468L155.723 25.4474L154.797 25.0682ZM164.811 0.636362V-0.363638H164.141L163.886 0.257101L164.811 0.636362ZM174.293 0.636362H175.293V-0.363638H174.293V0.636362ZM174.293 37V38H175.293V37H174.293ZM166.836 37H165.836V38H166.836V37ZM166.836 13.3317H167.836V12.3317H166.836V13.3317ZM166.534 13.3317V12.3317H165.857L165.605 12.9598L166.534 13.3317ZM157.123 36.8224V37.8224H157.8L158.052 37.1943L157.123 36.8224ZM152.045 36.8224L151.116 37.1931L151.367 37.8224H152.045V36.8224ZM142.635 13.2429L143.563 12.8722L143.312 12.2429H142.635V13.2429ZM142.333 13.2429V12.2429H141.333V13.2429H142.333ZM142.333 37V38H143.333V37H142.333ZM134.875 37H133.875V38H134.875V37ZM134.875 1.63636H144.357V-0.363638H134.875V1.63636ZM143.432 1.01562L153.446 25.4474L155.296 24.6889L145.282 0.257101L143.432 1.01562ZM154.371 26.0682H154.797V24.0682H154.371V26.0682ZM155.723 25.4474L165.737 1.01562L163.886 0.257101L153.872 24.6889L155.723 25.4474ZM164.811 1.63636H174.293V-0.363638H164.811V1.63636ZM173.293 0.636362V37H175.293V0.636362H173.293ZM174.293 36H166.836V38H174.293V36ZM167.836 37V13.3317H165.836V37H167.836ZM166.836 12.3317H166.534V14.3317H166.836V12.3317ZM165.605 12.9598L156.195 36.4506L158.052 37.1943L167.462 13.7036L165.605 12.9598ZM157.123 35.8224H152.045V37.8224H157.123V35.8224ZM152.974 36.4518L143.563 12.8722L141.706 13.6136L151.116 37.1931L152.974 36.4518ZM142.635 12.2429H142.333V14.2429H142.635V12.2429ZM141.333 13.2429V37H143.333V13.2429H141.333ZM142.333 36H134.875V38H142.333V36ZM135.875 37V0.636362H133.875V37H135.875ZM180.627 37H179.627V38H180.627V37ZM180.627 0.636362V-0.363638H179.627V0.636362H180.627ZM201.881 1.82599L201.475 2.74006L201.881 1.82599ZM205.911 5.12855L205.069 5.6668L205.071 5.67003L205.911 5.12855ZM206.409 13.7045L207.291 14.1751L207.293 14.1711L206.409 13.7045ZM204.065 16.3324L204.631 17.1567L204.633 17.1553L204.065 16.3324ZM200.691 17.7706L200.472 16.7948L199.691 16.97V17.7706H200.691ZM200.691 18.1257H199.691V19.0839L200.649 19.1248L200.691 18.1257ZM204.58 19.2976L204.066 20.1558L204.07 20.158L204.58 19.2976ZM207.545 22.3338L206.681 22.8367L206.683 22.8401L207.545 22.3338ZM207.243 32.1172L206.398 31.5824L206.397 31.5842L207.243 32.1172ZM203.035 35.6861L202.609 34.7815L203.035 35.6861ZM188.316 30.7145H187.316V31.7145H188.316V30.7145ZM199.271 29.4893L199.91 30.2583L199.915 30.2538L199.271 29.4893ZM200.017 23.5234L199.171 24.0569L200.017 23.5234ZM197.939 21.7124L197.497 22.6092L197.501 22.6115L197.939 21.7124ZM188.316 21.0554V20.0554H187.316V21.0554H188.316ZM188.316 15.853H187.316V16.853H188.316V15.853ZM196.82 15.3026L197.23 16.2147L197.236 16.212L196.82 15.3026ZM198.774 13.7045L197.957 13.1273L197.95 13.1368L198.774 13.7045ZM198.099 8.05824L197.442 8.81203L197.447 8.81614L198.099 8.05824ZM188.316 6.85085V5.85085H187.316V6.85085H188.316ZM181.627 37V0.636362H179.627V37H181.627ZM180.627 1.63636H195.187V-0.363638H180.627V1.63636ZM195.187 1.63636C197.771 1.63636 199.853 2.02041 201.475 2.74006L202.286 0.911933C200.334 0.0453997 197.954 -0.363638 195.187 -0.363638V1.63636ZM201.475 2.74006C203.114 3.46734 204.292 4.45024 205.069 5.6668L206.754 4.5903C205.732 2.98963 204.222 1.77082 202.286 0.911933L201.475 2.74006ZM205.071 5.67003C205.856 6.8898 206.261 8.30784 206.261 9.9581H208.261C208.261 7.96252 207.766 6.16087 206.752 4.58707L205.071 5.67003ZM206.261 9.9581C206.261 11.2431 206.005 12.3268 205.524 13.238L207.293 14.1711C207.949 12.9279 208.261 11.514 208.261 9.9581H206.261ZM205.526 13.234C205.033 14.1584 204.36 14.9135 203.497 15.5095L204.633 17.1553C205.759 16.3781 206.648 15.3814 207.291 14.1751L205.526 13.234ZM203.499 15.5081C202.63 16.1044 201.626 16.5361 200.472 16.7948L200.91 18.7464C202.29 18.4369 203.534 17.9098 204.631 17.1567L203.499 15.5081ZM199.691 17.7706V18.1257H201.691V17.7706H199.691ZM200.649 19.1248C201.865 19.1768 203 19.5178 204.066 20.1558L205.093 18.4394C203.745 17.6333 202.288 17.193 200.734 17.1266L200.649 19.1248ZM204.07 20.158C205.133 20.7876 206.003 21.6725 206.681 22.8367L208.409 21.8309C207.571 20.391 206.465 19.2517 205.089 18.4372L204.07 20.158ZM206.683 22.8401C207.334 23.9494 207.681 25.3061 207.681 26.9503H209.681C209.681 25.0196 209.271 23.2987 208.407 21.8275L206.683 22.8401ZM207.681 26.9503C207.681 28.7054 207.248 30.2395 206.398 31.5825L208.088 32.6519C209.156 30.9646 209.681 29.054 209.681 26.9503H207.681ZM206.397 31.5842C205.567 32.9022 204.322 33.9739 202.609 34.7815L203.461 36.5906C205.465 35.6464 207.025 34.3388 208.089 32.6502L206.397 31.5842ZM202.609 34.7815C200.92 35.5777 198.784 36 196.164 36V38C198.988 38 201.434 37.5464 203.461 36.5906L202.609 34.7815ZM196.164 36H180.627V38H196.164V36ZM188.316 31.7145H194.583V29.7145H188.316V31.7145ZM194.583 31.7145C196.814 31.7145 198.661 31.2964 199.91 30.2583L198.632 28.7204C197.915 29.3158 196.638 29.7145 194.583 29.7145V31.7145ZM199.915 30.2538C201.14 29.2209 201.744 27.8317 201.744 26.1868H199.744C199.744 27.2881 199.366 28.1006 198.626 28.7249L199.915 30.2538ZM201.744 26.1868C201.744 25.0125 201.459 23.9357 200.862 22.9899L199.171 24.0569C199.545 24.65 199.744 25.3488 199.744 26.1868H201.744ZM200.862 22.9899C200.268 22.0475 199.427 21.3243 198.377 20.8132L197.501 22.6115C198.251 22.9764 198.795 23.4605 199.171 24.0569L200.862 22.9899ZM198.382 20.8156C197.327 20.2952 196.109 20.0554 194.761 20.0554V22.0554C195.875 22.0554 196.776 22.2536 197.497 22.6092L198.382 20.8156ZM194.761 20.0554H188.316V22.0554H194.761V20.0554ZM187.316 21.0554V30.7145H189.316V21.0554H187.316ZM188.316 16.853H194.015V14.853H188.316V16.853ZM194.015 16.853C195.185 16.853 196.264 16.6489 197.23 16.2147L196.411 14.3904C195.744 14.6901 194.952 14.853 194.015 14.853V16.853ZM197.236 16.212C198.213 15.7654 199.012 15.121 199.597 14.2723L197.95 13.1368C197.589 13.6612 197.085 14.0822 196.405 14.3931L197.236 16.212ZM199.59 14.2818C200.211 13.4034 200.502 12.372 200.502 11.2365H198.502C198.502 12.0187 198.307 12.6326 197.957 13.1273L199.59 14.2818ZM200.502 11.2365C200.502 9.65286 199.923 8.30881 198.751 7.30034L197.447 8.81614C198.145 9.41752 198.502 10.1923 198.502 11.2365H200.502ZM198.756 7.30446C197.59 6.28817 196.009 5.85085 194.157 5.85085V7.85085C195.714 7.85085 196.761 8.21846 197.442 8.81201L198.756 7.30446ZM194.157 5.85085H188.316V7.85085H194.157V5.85085ZM187.316 6.85085V15.853H189.316V6.85085H187.316ZM213.684 37H212.684V38H213.684V37ZM213.684 0.636362V-0.363638H212.684V0.636362H213.684ZM221.372 0.636362H222.372V-0.363638H221.372V0.636362ZM221.372 30.6612H220.372V31.6612H221.372V30.6612ZM236.962 30.6612H237.962V29.6612H236.962V30.6612ZM236.962 37V38H237.962V37H236.962ZM214.684 37V0.636362H212.684V37H214.684ZM213.684 1.63636H221.372V-0.363638H213.684V1.63636ZM220.372 0.636362V30.6612H222.372V0.636362H220.372ZM221.372 31.6612H236.962V29.6612H221.372V31.6612ZM235.962 30.6612V37H237.962V30.6612H235.962ZM236.962 36H213.684V38H236.962V36ZM235.284 0.636362V-0.363638H233.571L234.413 1.12775L235.284 0.636362ZM243.895 0.636362L244.779 0.168428L244.497 -0.363638H243.895V0.636362ZM252.187 16.2969L251.303 16.7648L251.585 17.2969H252.187V16.2969ZM252.542 16.2969V17.2969H253.144L253.426 16.7648L252.542 16.2969ZM260.834 0.636362V-0.363638H260.232L259.95 0.168428L260.834 0.636362ZM269.446 0.636362L270.317 1.12775L271.158 -0.363638H269.446V0.636362ZM256.182 24.1449L255.311 23.6535L255.182 23.8822V24.1449H256.182ZM256.182 37V38H257.182V37H256.182ZM248.547 37H247.547V38H248.547V37ZM248.547 24.1449H249.547V23.8822L249.418 23.6535L248.547 24.1449ZM235.284 1.63636H243.895V-0.363638H235.284V1.63636ZM243.011 1.1043L251.303 16.7648L253.071 15.8289L244.779 0.168428L243.011 1.1043ZM252.187 17.2969H252.542V15.2969H252.187V17.2969ZM253.426 16.7648L261.718 1.1043L259.95 0.168428L251.658 15.8289L253.426 16.7648ZM260.834 1.63636H269.446V-0.363638H260.834V1.63636ZM268.575 0.144978L255.311 23.6535L257.053 24.6363L270.317 1.12775L268.575 0.144978ZM255.182 24.1449V37H257.182V24.1449H255.182ZM256.182 36H248.547V38H256.182V36ZM249.547 37V24.1449H247.547V37H249.547ZM249.418 23.6535L236.155 0.144978L234.413 1.12775L247.676 24.6363L249.418 23.6535ZM32.576 61.6364H33.576V60.6364H32.576V61.6364ZM32.576 98V99H33.576V98H32.576ZM25.9354 98L25.1128 98.5686L25.411 99H25.9354V98ZM10.1151 75.1129L10.9377 74.5443L10.6395 74.1129H10.1151V75.1129ZM9.84872 75.1129V74.1129H8.84872V75.1129H9.84872ZM9.84872 98V99H10.8487V98H9.84872ZM2.16051 98H1.16051V99H2.16051V98ZM2.16051 61.6364V60.6364H1.16051V61.6364H2.16051ZM8.90767 61.6364L9.73216 61.0705L9.43421 60.6364H8.90767V61.6364ZM24.6037 84.5057L23.7792 85.0716L24.0772 85.5057H24.6037V84.5057ZM24.9233 84.5057V85.5057H25.9233V84.5057H24.9233ZM24.9233 61.6364V60.6364H23.9233V61.6364H24.9233ZM31.576 61.6364V98H33.576V61.6364H31.576ZM32.576 97H25.9354V99H32.576V97ZM26.758 97.4314L10.9377 74.5443L9.29245 75.6815L25.1128 98.5686L26.758 97.4314ZM10.1151 74.1129H9.84872V76.1129H10.1151V74.1129ZM8.84872 75.1129V98H10.8487V75.1129H8.84872ZM9.84872 97H2.16051V99H9.84872V97ZM3.16051 98V61.6364H1.16051V98H3.16051ZM2.16051 62.6364H8.90767V60.6364H2.16051V62.6364ZM8.08318 62.2022L23.7792 85.0716L25.4282 83.9398L9.73216 61.0705L8.08318 62.2022ZM24.6037 85.5057H24.9233V83.5057H24.6037V85.5057ZM25.9233 84.5057V61.6364H23.9233V84.5057H25.9233ZM24.9233 62.6364H32.576V60.6364H24.9233V62.6364ZM38.9281 98H37.9281V99H38.9281V98ZM38.9281 61.6364V60.6364H37.9281V61.6364H38.9281ZM63.4309 61.6364H64.4309V60.6364H63.4309V61.6364ZM63.4309 67.9751V68.9751H64.4309V67.9751H63.4309ZM46.6163 67.9751V66.9751H45.6163V67.9751H46.6163ZM46.6163 76.6399H45.6163V77.6399H46.6163V76.6399ZM62.1703 76.6399H63.1703V75.6399H62.1703V76.6399ZM62.1703 82.9787V83.9787H63.1703V82.9787H62.1703ZM46.6163 82.9787V81.9787H45.6163V82.9787H46.6163ZM46.6163 91.6612H45.6163V92.6612H46.6163V91.6612ZM63.502 91.6612H64.502V90.6612H63.502V91.6612ZM63.502 98V99H64.502V98H63.502ZM39.9281 98V61.6364H37.9281V98H39.9281ZM38.9281 62.6364H63.4309V60.6364H38.9281V62.6364ZM62.4309 61.6364V67.9751H64.4309V61.6364H62.4309ZM63.4309 66.9751H46.6163V68.9751H63.4309V66.9751ZM45.6163 67.9751V76.6399H47.6163V67.9751H45.6163ZM46.6163 77.6399H62.1703V75.6399H46.6163V77.6399ZM61.1703 76.6399V82.9787H63.1703V76.6399H61.1703ZM62.1703 81.9787H46.6163V83.9787H62.1703V81.9787ZM45.6163 82.9787V91.6612H47.6163V82.9787H45.6163ZM46.6163 92.6612H63.502V90.6612H46.6163V92.6612ZM62.502 91.6612V98H64.502V91.6612H62.502ZM63.502 97H38.9281V99H63.502V97ZM76.7521 61.6364L77.6128 61.1271L77.3224 60.6364H76.7521V61.6364ZM84.0852 74.0298L83.2246 74.5391L83.515 75.0298H84.0852V74.0298ZM84.3693 74.0298V75.0298H84.9382L85.2289 74.5409L84.3693 74.0298ZM91.7379 61.6364V60.6364H91.1691L90.8784 61.1253L91.7379 61.6364ZM100.42 61.6364L101.274 62.1573L102.202 60.6364H100.42V61.6364ZM89.3232 79.8182L88.4696 79.2972L88.1481 79.824L88.4748 80.3476L89.3232 79.8182ZM100.669 98V99H102.472L101.517 97.4706L100.669 98ZM91.8267 98L90.9695 98.515L91.2609 99H91.8267V98ZM84.3693 85.5888L85.2265 85.0737L84.9351 84.5888H84.3693V85.5888ZM84.0852 85.5888V84.5888H83.5195L83.2281 85.0737L84.0852 85.5888ZM76.6278 98V99H77.1936L77.485 98.515L76.6278 98ZM67.821 98L66.9734 97.4694L66.0153 99H67.821V98ZM79.2024 79.8182L80.05 80.3488L80.3791 79.8232L80.0545 79.2948L79.2024 79.8182ZM68.0341 61.6364V60.6364H66.2462L67.182 62.1598L68.0341 61.6364ZM75.8915 62.1456L83.2246 74.5391L84.9459 73.5206L77.6128 61.1271L75.8915 62.1456ZM84.0852 75.0298H84.3693V73.0298H84.0852V75.0298ZM85.2289 74.5409L92.5975 62.1474L90.8784 61.1253L83.5098 73.5188L85.2289 74.5409ZM91.7379 62.6364H100.42V60.6364H91.7379V62.6364ZM99.5669 61.1154L88.4696 79.2972L90.1767 80.3392L101.274 62.1573L99.5669 61.1154ZM88.4748 80.3476L99.8207 98.5294L101.517 97.4706L90.1715 79.2888L88.4748 80.3476ZM100.669 97H91.8267V99H100.669V97ZM92.6839 97.485L85.2265 85.0737L83.5122 86.1038L90.9695 98.515L92.6839 97.485ZM84.3693 84.5888H84.0852V86.5888H84.3693V84.5888ZM83.2281 85.0737L75.7707 97.485L77.485 98.515L84.9424 86.1038L83.2281 85.0737ZM76.6278 97H67.821V99H76.6278V97ZM68.6686 98.5306L80.05 80.3488L78.3548 79.2876L66.9734 97.4694L68.6686 98.5306ZM80.0545 79.2948L68.8862 61.113L67.182 62.1598L78.3503 80.3416L80.0545 79.2948ZM68.0341 62.6364H76.7521V60.6364H68.0341V62.6364ZM127.746 61.6364V60.6364H126.746V61.6364H127.746ZM135.435 61.6364H136.435V60.6364H135.435V61.6364ZM133.535 92.2116L132.691 91.6744L132.689 91.678L133.535 92.2116ZM128.261 96.8636L128.699 97.7627L128.703 97.7609L128.261 96.8636ZM112.441 96.8636L111.999 97.7609L112.003 97.7627L112.441 96.8636ZM107.168 92.2116L106.322 92.7453L107.168 92.2116ZM105.286 61.6364V60.6364H104.286V61.6364H105.286ZM112.974 61.6364H113.974V60.6364H112.974V61.6364ZM113.879 88.2876L113.007 88.7766L113.011 88.7838L113.879 88.2876ZM116.472 90.8267L115.988 91.7017L116.472 90.8267ZM124.249 90.8267L123.765 89.9517L123.761 89.9539L124.249 90.8267ZM126.823 88.2876L125.955 87.7915L125.951 87.7987L126.823 88.2876ZM127.746 62.6364H135.435V60.6364H127.746V62.6364ZM134.435 61.6364V85.2514H136.435V61.6364H134.435ZM134.435 85.2514C134.435 87.737 133.843 89.8658 132.691 91.6744L134.378 92.7488C135.759 90.5803 136.435 88.0688 136.435 85.2514H134.435ZM132.689 91.678C131.54 93.4992 129.927 94.9292 127.82 95.9664L128.703 97.7609C131.117 96.5727 133.02 94.9014 134.381 92.7453L132.689 91.678ZM127.824 95.9646C125.723 96.9872 123.244 97.5149 120.36 97.5149V99.5149C123.489 99.5149 126.278 98.9417 128.699 97.7627L127.824 95.9646ZM120.36 97.5149C117.463 97.5149 114.979 96.987 112.879 95.9646L112.003 97.7627C114.425 98.942 117.22 99.5149 120.36 99.5149V97.5149ZM112.883 95.9664C110.775 94.9292 109.162 93.4992 108.013 91.678L106.322 92.7453C107.682 94.9014 109.585 96.5727 111.999 97.7609L112.883 95.9664ZM108.013 91.678C106.872 89.8689 106.286 87.7389 106.286 85.2514H104.286C104.286 88.067 104.954 90.5771 106.322 92.7453L108.013 91.678ZM106.286 85.2514V61.6364H104.286V85.2514H106.286ZM105.286 62.6364H112.974V60.6364H105.286V62.6364ZM111.974 61.6364V84.5945H113.974V61.6364H111.974ZM111.974 84.5945C111.974 86.1294 112.31 87.5325 113.007 88.7765L114.752 87.7987C114.241 86.8884 113.974 85.8294 113.974 84.5945H111.974ZM113.011 88.7838C113.72 90.0242 114.719 90.9998 115.988 91.7017L116.956 89.9517C115.999 89.4225 115.27 88.7054 114.748 87.7915L113.011 88.7838ZM115.988 91.7017C117.271 92.4118 118.739 92.75 120.36 92.75V90.75C119.022 90.75 117.898 90.4727 116.956 89.9517L115.988 91.7017ZM120.36 92.75C121.991 92.75 123.462 92.4125 124.737 91.6995L123.761 89.9539C122.834 90.472 121.712 90.75 120.36 90.75V92.75ZM124.733 91.7017C126.003 90.999 126.998 90.0211 127.695 88.7765L125.951 87.7987C125.441 88.7086 124.719 89.4234 123.765 89.9517L124.733 91.7017ZM127.691 88.7838C128.403 87.5385 128.746 86.1327 128.746 84.5945H126.746C126.746 85.8261 126.474 86.8824 125.955 87.7915L127.691 88.7838ZM128.746 84.5945V61.6364H126.746V84.5945H128.746ZM161.487 72.0945L160.492 72.1931L160.581 73.0945H161.487V72.0945ZM152.094 68.0994L152.463 69.0288L152.474 69.0244L152.094 68.0994ZM150.105 69.5376L149.305 68.9376L149.298 68.9476L150.105 69.5376ZM149.431 71.6328L150.43 71.6692L150.431 71.651V71.6328H149.431ZM149.839 73.3374L148.985 73.858L148.99 73.8655L148.994 73.8729L149.839 73.3374ZM151.1 74.598L150.545 75.4301L150.551 75.4344L150.558 75.4386L151.1 74.598ZM152.946 75.5035L152.597 76.4405L152.604 76.4431L152.611 76.4457L152.946 75.5035ZM155.183 76.1428L155.416 75.1702L155.409 75.1685L155.402 75.1669L155.183 76.1428ZM158.45 76.924L158.218 77.8966L158.225 77.8983L158.232 77.8998L158.45 76.924ZM162.818 78.3445L162.411 79.2576L162.818 78.3445ZM166.263 80.5284L166.928 79.7815L166.263 80.5284ZM168.518 83.5824L167.608 83.9962L167.611 84.0038L168.518 83.5824ZM169.352 87.6129L170.353 87.6182L170.352 87.6051L169.352 87.6129ZM167.648 93.4013L166.824 92.8342L166.823 92.8355L167.648 93.4013ZM162.818 97.1832L163.209 98.104L163.211 98.1029L162.818 97.1832ZM147.566 97.1655L147.183 98.089L147.184 98.0897L147.566 97.1655ZM142.488 93.1705L141.661 93.7328L141.666 93.7391L142.488 93.1705ZM140.588 86.5831V85.5831H139.565L139.589 86.6057L140.588 86.5831ZM148.028 86.5831L149.026 86.5153L148.962 85.5831H148.028V86.5831ZM149.075 89.6371L148.277 90.2389L148.282 90.2454L148.287 90.2518L149.075 89.6371ZM151.579 91.4659L151.209 92.3952L151.222 92.4001L151.579 91.4659ZM158.539 91.5014L158.176 90.5698L158.172 90.5714L158.539 91.5014ZM160.794 89.9212L161.579 90.5408L160.794 89.9212ZM160.865 85.5355L160.104 86.1837L160.112 86.1929L160.865 85.5355ZM158.77 84.1151L158.376 85.0342L158.38 85.036L158.77 84.1151ZM155.414 83.0497L155.171 84.0196L155.18 84.0219L155.414 83.0497ZM151.455 82.0554L151.698 81.0855L151.691 81.0837L151.455 82.0554ZM144.193 78.5575L143.526 79.3033H143.526L144.193 78.5575ZM141.547 72.1477L142.547 72.1521L142.547 72.1423L141.547 72.1477ZM143.305 66.3771L142.496 65.7893L142.493 65.7931L143.305 66.3771ZM162.392 62.5241L161.975 63.433L161.977 63.434L162.392 62.5241ZM167.115 66.3771L166.29 66.9414L167.115 66.3771ZM168.855 72.0945V73.0945H169.872L169.855 72.0781L168.855 72.0945ZM162.482 71.9958C162.314 70.3057 161.575 68.926 160.251 67.9511L159.065 69.5617C159.895 70.173 160.375 71.0186 160.492 72.1931L162.482 71.9958ZM160.251 67.9511C158.947 66.9914 157.253 66.5668 155.272 66.5668V68.5668C156.985 68.5668 158.214 68.9352 159.065 69.5617L160.251 67.9511ZM155.272 66.5668C153.929 66.5668 152.732 66.756 151.714 67.1745L152.474 69.0244C153.184 68.7327 154.106 68.5668 155.272 68.5668V66.5668ZM151.725 67.1701C150.725 67.5671 149.899 68.1467 149.305 68.9376L150.905 70.1376C151.235 69.6975 151.734 69.3183 152.463 69.0288L151.725 67.1701ZM149.298 68.9476C148.72 69.7389 148.431 70.6451 148.431 71.6328H150.431C150.431 71.0581 150.591 70.5674 150.913 70.1277L149.298 68.9476ZM148.431 71.5965C148.402 72.414 148.573 73.1818 148.985 73.858L150.693 72.8167C150.513 72.5223 150.412 72.1537 150.43 71.6692L148.431 71.5965ZM148.994 73.8729C149.385 74.489 149.909 75.0063 150.545 75.4301L151.654 73.766C151.225 73.4795 150.908 73.1563 150.683 72.8018L148.994 73.8729ZM150.558 75.4386C151.161 75.8269 151.842 76.1593 152.597 76.4405L153.296 74.5666C152.653 74.327 152.104 74.0556 151.641 73.7574L150.558 75.4386ZM152.611 76.4457C153.351 76.7091 154.136 76.933 154.965 77.1186L155.402 75.1669C154.645 74.9974 153.938 74.7952 153.282 74.5614L152.611 76.4457ZM154.951 77.1153L158.218 77.8966L158.683 75.9514L155.416 75.1702L154.951 77.1153ZM158.232 77.8998C159.761 78.2421 161.152 78.6959 162.411 79.2576L163.226 77.4313C161.833 76.8093 160.312 76.3161 158.669 75.9482L158.232 77.8998ZM162.411 79.2576C163.654 79.8124 164.713 80.487 165.598 81.2753L166.928 79.7815C165.872 78.8416 164.635 78.0602 163.226 77.4313L162.411 79.2576ZM165.598 81.2753C166.466 82.0476 167.133 82.9525 167.608 83.9962L169.428 83.1686C168.837 81.8685 168.002 80.7374 166.928 79.7815L165.598 81.2753ZM167.611 84.0038C168.086 85.0256 168.342 86.2241 168.352 87.6207L170.352 87.6051C170.34 85.9715 170.039 84.483 169.425 83.161L167.611 84.0038ZM168.352 87.6076C168.342 89.6577 167.821 91.3858 166.824 92.8342L168.472 93.9683C169.724 92.1497 170.34 90.0189 170.352 87.6182L168.352 87.6076ZM166.823 92.8355C165.835 94.2762 164.387 95.426 162.426 96.2636L163.211 98.1029C165.463 97.1413 167.236 95.7697 168.472 93.967L166.823 92.8355ZM162.428 96.2625C160.488 97.0848 158.1 97.5149 155.237 97.5149V99.5149C158.292 99.5149 160.959 99.0572 163.209 98.104L162.428 96.2625ZM155.237 97.5149C152.401 97.5149 149.979 97.0802 147.948 96.2412L147.184 98.0897C149.509 99.05 152.201 99.5149 155.237 99.5149V97.5149ZM147.95 96.242C145.944 95.4088 144.41 94.1928 143.311 92.6018L141.666 93.7391C143.004 95.6756 144.856 97.1229 147.183 98.089L147.95 96.242ZM143.315 92.6081C142.238 91.0239 141.644 89.0261 141.588 86.5605L139.589 86.6057C139.651 89.3721 140.324 91.7659 141.661 93.7328L143.315 92.6081ZM140.588 87.5831H148.028V85.5831H140.588V87.5831ZM147.03 86.6509C147.124 88.0254 147.523 89.2392 148.277 90.2389L149.874 89.0352C149.396 88.4014 149.098 87.5792 149.026 86.5153L147.03 86.6509ZM148.287 90.2518C149.034 91.2105 150.019 91.9218 151.209 92.3951L151.949 90.5367C151.055 90.1814 150.372 89.6735 149.864 89.0223L148.287 90.2518ZM151.222 92.4001C152.408 92.853 153.721 93.0696 155.148 93.0696V91.0696C153.923 91.0696 152.857 90.8838 151.936 90.5318L151.222 92.4001ZM155.148 93.0696C156.544 93.0696 157.805 92.8669 158.907 92.4315L158.172 90.5714C157.356 90.8935 156.356 91.0696 155.148 91.0696V93.0696ZM158.903 92.433C160.004 92.0033 160.915 91.382 161.579 90.5408L160.009 89.3015C159.608 89.8098 159.016 90.242 158.176 90.5698L158.903 92.433ZM161.579 90.5408C162.254 89.686 162.593 88.6914 162.593 87.5952H160.593C160.593 88.2509 160.4 88.8069 160.009 89.3015L161.579 90.5408ZM162.593 87.5952C162.593 86.5643 162.28 85.6364 161.619 84.8781L160.112 86.1929C160.421 86.5473 160.593 86.9925 160.593 87.5952H162.593ZM161.627 84.8874C161.022 84.1766 160.176 83.624 159.16 83.1941L158.38 85.036C159.211 85.3873 159.762 85.7817 160.104 86.1836L161.627 84.8874ZM159.164 83.1959C158.186 82.7767 157.01 82.4058 155.649 82.0776L155.18 84.0219C156.47 84.3328 157.531 84.6722 158.376 85.0342L159.164 83.1959ZM155.658 82.0798L151.698 81.0855L151.211 83.0253L155.171 84.0196L155.658 82.0798ZM151.691 81.0837C148.735 80.3647 146.479 79.2587 144.859 77.8118L143.526 79.3033C145.458 81.0287 148.043 82.2546 151.218 83.0271L151.691 81.0837ZM144.859 77.8118C143.326 76.442 142.536 74.5938 142.547 72.1521L140.547 72.1433C140.534 75.0757 141.509 77.5007 143.526 79.3033L144.859 77.8118ZM142.547 72.1423C142.536 70.1328 143.067 68.4199 144.117 66.9611L142.493 65.7931C141.175 67.6251 140.534 69.7592 140.547 72.1531L142.547 72.1423ZM144.114 66.965C145.194 65.4786 146.686 64.2991 148.628 63.4384L147.818 61.6099C145.594 62.5958 143.807 63.9849 142.496 65.7893L144.114 66.965ZM148.628 63.4384C150.565 62.5801 152.791 62.1392 155.325 62.1392V60.1392C152.557 60.1392 150.048 60.6216 147.818 61.6099L148.628 63.4384ZM155.325 62.1392C157.911 62.1392 160.119 62.5814 161.975 63.433L162.809 61.6152C160.641 60.6203 158.137 60.1392 155.325 60.1392V62.1392ZM161.977 63.434C163.855 64.2907 165.28 65.4635 166.29 66.9414L167.941 65.8129C166.702 64.0001 164.977 62.6042 162.807 61.6143L161.977 63.434ZM166.29 66.9414C167.294 68.411 167.823 70.1226 167.855 72.1108L169.855 72.0781C169.817 69.7339 169.185 67.6339 167.941 65.8129L166.29 66.9414ZM168.855 71.0945H161.487V73.0945H168.855V71.0945ZM2.16051 159H1.16051V160H2.16051V159ZM2.16051 122.636V121.636H1.16051V122.636H2.16051ZM9.84872 122.636H10.8487V121.636H9.84872V122.636ZM9.84872 137.64H8.84872V138.64H9.84872V137.64ZM25.456 137.64V138.64H26.456V137.64H25.456ZM25.456 122.636V121.636H24.456V122.636H25.456ZM33.1264 122.636H34.1264V121.636H33.1264V122.636ZM33.1264 159V160H34.1264V159H33.1264ZM25.456 159H24.456V160H25.456V159ZM25.456 143.979H26.456V142.979H25.456V143.979ZM9.84872 143.979V142.979H8.84872V143.979H9.84872ZM9.84872 159V160H10.8487V159H9.84872ZM3.16051 159V122.636H1.16051V159H3.16051ZM2.16051 123.636H9.84872V121.636H2.16051V123.636ZM8.84872 122.636V137.64H10.8487V122.636H8.84872ZM9.84872 138.64H25.456V136.64H9.84872V138.64ZM26.456 137.64V122.636H24.456V137.64H26.456ZM25.456 123.636H33.1264V121.636H25.456V123.636ZM32.1264 122.636V159H34.1264V122.636H32.1264ZM33.1264 158H25.456V160H33.1264V158ZM26.456 159V143.979H24.456V159H26.456ZM25.456 142.979H9.84872V144.979H25.456V142.979ZM8.84872 143.979V159H10.8487V143.979H8.84872ZM9.84872 158H2.16051V160H9.84872V158ZM45.733 159V160H46.4592L46.6839 159.309L45.733 159ZM37.4943 159L36.5491 158.674L36.0912 160H37.4943V159ZM50.0476 122.636V121.636H49.3349L49.1023 122.31L50.0476 122.636ZM59.9553 122.636L60.9007 122.31L60.6683 121.636H59.9553V122.636ZM72.4908 159V160H73.8932L73.4362 158.674L72.4908 159ZM64.2521 159L63.301 159.309L63.5254 160H64.2521V159ZM55.1435 130.946L56.0946 130.637L55.8702 129.946H55.1435V130.946ZM54.8594 130.946V129.946H54.1331L53.9084 130.637L54.8594 130.946ZM45.218 144.707V143.707H44.218V144.707H45.218ZM64.6783 144.707H65.6783V143.707H64.6783V144.707ZM64.6783 150.708V151.708H65.6783V150.708H64.6783ZM45.218 150.708H44.218V151.708H45.218V150.708ZM45.733 158H37.4943V160H45.733V158ZM38.4396 159.326L50.9928 122.963L49.1023 122.31L36.5491 158.674L38.4396 159.326ZM50.0476 123.636H59.9553V121.636H50.0476V123.636ZM59.0099 122.962L71.5454 159.326L73.4362 158.674L60.9007 122.31L59.0099 122.962ZM72.4908 158H64.2521V160H72.4908V158ZM65.2033 158.691L56.0946 130.637L54.1923 131.255L63.301 159.309L65.2033 158.691ZM55.1435 129.946H54.8594V131.946H55.1435V129.946ZM53.9084 130.637L44.782 158.691L46.6839 159.309L55.8103 131.255L53.9084 130.637ZM45.218 145.707H64.6783V143.707H45.218V145.707ZM63.6783 144.707V150.708H65.6783V144.707H63.6783ZM64.6783 149.708H45.218V151.708H64.6783V149.708ZM46.218 150.708V144.707H44.218V150.708H46.218ZM76.8675 159H75.8675V160H76.8675V159ZM76.8675 122.636V121.636H75.8675V122.636H76.8675ZM84.5558 122.636H85.5558V121.636H84.5558V122.636ZM84.5558 152.661H83.5558V153.661H84.5558V152.661ZM100.145 152.661H101.145V151.661H100.145V152.661ZM100.145 159V160H101.145V159H100.145ZM77.8675 159V122.636H75.8675V159H77.8675ZM76.8675 123.636H84.5558V121.636H76.8675V123.636ZM83.5558 122.636V152.661H85.5558V122.636H83.5558ZM84.5558 153.661H100.145V151.661H84.5558V153.661ZM99.1452 152.661V159H101.145V152.661H99.1452ZM100.145 158H76.8675V160H100.145V158ZM105.237 159H104.237V160H105.237V159ZM105.237 122.636V121.636H104.237V122.636H105.237ZM112.925 122.636H113.925V121.636H112.925V122.636ZM112.925 152.661H111.925V153.661H112.925V152.661ZM128.514 152.661H129.514V151.661H128.514V152.661ZM128.514 159V160H129.514V159H128.514ZM106.237 159V122.636H104.237V159H106.237ZM105.237 123.636H112.925V121.636H105.237V123.636ZM111.925 122.636V152.661H113.925V122.636H111.925ZM112.925 153.661H128.514V151.661H112.925V153.661ZM127.514 152.661V159H129.514V152.661H127.514ZM128.514 158H105.237V160H128.514V158Z" fill="#A73FF1" mask="url(#path-1-outside-1_2_199)"/>
</svg>
