<svg width="569" height="37" viewBox="0 0 569 37" fill="none" xmlns="http://www.w3.org/2000/svg">
<g filter="url(#filter0_i_2_295)">
<path d="M0.662642 8.72727V1.09091H31.0036V8.72727H20.5036V36H11.1626V8.72727H0.662642ZM34.5703 36V1.09091H44.0476V14.7273H56.593V1.09091H66.0703V36H56.593V22.3636H44.0476V36H34.5703ZM70.5703 36V1.09091H95.7294V8.72727H80.0476V14.7273H94.434V22.3636H80.0476V28.3636H95.6612V36H70.5703ZM109.992 36V1.09091H125.06C127.651 1.09091 129.918 1.5625 131.862 2.50568C133.805 3.44886 135.316 4.80682 136.396 6.57955C137.475 8.35227 138.015 10.4773 138.015 12.9545C138.015 15.4545 137.458 17.5625 136.344 19.2784C135.242 20.9943 133.691 22.2898 131.691 23.1648C129.702 24.0398 127.379 24.4773 124.719 24.4773H115.719V17.1136H122.81C123.924 17.1136 124.873 16.9773 125.657 16.7045C126.452 16.4205 127.06 15.9716 127.481 15.358C127.913 14.7443 128.129 13.9432 128.129 12.9545C128.129 11.9545 127.913 11.142 127.481 10.517C127.06 9.88068 126.452 9.41477 125.657 9.11932C124.873 8.8125 123.924 8.65909 122.81 8.65909H119.469V36H109.992ZM130.447 19.9773L139.174 36H128.879L120.356 19.9773H130.447ZM151.532 1.09091V36H142.055V1.09091H151.532ZM174.842 12C174.751 10.8636 174.325 9.97727 173.563 9.34091C172.813 8.70454 171.671 8.38636 170.137 8.38636C169.16 8.38636 168.359 8.50568 167.734 8.74432C167.12 8.97159 166.665 9.28409 166.37 9.68182C166.075 10.0795 165.921 10.5341 165.91 11.0455C165.887 11.4659 165.961 11.8466 166.131 12.1875C166.313 12.517 166.597 12.8182 166.984 13.0909C167.37 13.3523 167.864 13.5909 168.467 13.8068C169.069 14.0227 169.785 14.2159 170.614 14.3864L173.478 15C175.41 15.4091 177.063 15.9489 178.438 16.6193C179.813 17.2898 180.938 18.0795 181.813 18.9886C182.688 19.8864 183.33 20.8977 183.739 22.0227C184.16 23.1477 184.376 24.375 184.387 25.7045C184.376 28 183.802 29.9432 182.665 31.5341C181.529 33.125 179.904 34.3352 177.79 35.1648C175.688 35.9943 173.16 36.4091 170.205 36.4091C167.171 36.4091 164.523 35.9602 162.262 35.0625C160.012 34.1648 158.262 32.7841 157.012 30.9205C155.773 29.0455 155.148 26.6477 155.137 23.7273H164.137C164.194 24.7955 164.461 25.6932 164.938 26.4205C165.415 27.1477 166.086 27.6989 166.95 28.0739C167.825 28.4489 168.864 28.6364 170.069 28.6364C171.08 28.6364 171.927 28.5114 172.609 28.2614C173.29 28.0114 173.808 27.6648 174.16 27.2216C174.512 26.7784 174.694 26.2727 174.705 25.7045C174.694 25.1705 174.518 24.7045 174.177 24.3068C173.847 23.8977 173.302 23.5341 172.54 23.2159C171.779 22.8864 170.751 22.5795 169.455 22.2955L165.978 21.5455C162.887 20.875 160.45 19.7557 158.665 18.1875C156.893 16.608 156.012 14.4545 156.023 11.7273C156.012 9.51136 156.603 7.57386 157.796 5.91477C159.001 4.24432 160.665 2.94318 162.79 2.01136C164.927 1.07954 167.376 0.613635 170.137 0.613635C172.955 0.613635 175.393 1.08523 177.45 2.02841C179.506 2.97159 181.092 4.30114 182.205 6.01705C183.33 7.72159 183.898 9.71591 183.91 12H174.842ZM187.992 36V1.09091H213.151V8.72727H197.469V14.7273H211.856V22.3636H197.469V28.3636H213.083V36H187.992ZM261.232 18.5455C261.232 22.4318 260.477 25.7102 258.965 28.3807C257.454 31.0398 255.414 33.0568 252.846 34.4318C250.278 35.7955 247.414 36.4773 244.255 36.4773C241.073 36.4773 238.198 35.7898 235.63 34.4148C233.073 33.0284 231.039 31.0057 229.528 28.3466C228.028 25.6761 227.278 22.4091 227.278 18.5455C227.278 14.6591 228.028 11.3864 229.528 8.72727C231.039 6.05682 233.073 4.03977 235.63 2.67614C238.198 1.30114 241.073 0.613635 244.255 0.613635C247.414 0.613635 250.278 1.30114 252.846 2.67614C255.414 4.03977 257.454 6.05682 258.965 8.72727C260.477 11.3864 261.232 14.6591 261.232 18.5455ZM251.482 18.5455C251.482 16.4545 251.204 14.6932 250.647 13.2614C250.102 11.8182 249.289 10.7273 248.21 9.98864C247.141 9.23864 245.823 8.86364 244.255 8.86364C242.687 8.86364 241.363 9.23864 240.283 9.98864C239.215 10.7273 238.403 11.8182 237.846 13.2614C237.3 14.6932 237.028 16.4545 237.028 18.5455C237.028 20.6364 237.3 22.4034 237.846 23.8466C238.403 25.2784 239.215 26.3693 240.283 27.1193C241.363 27.858 242.687 28.2273 244.255 28.2273C245.823 28.2273 247.141 27.858 248.21 27.1193C249.289 26.3693 250.102 25.2784 250.647 23.8466C251.204 22.4034 251.482 20.6364 251.482 18.5455ZM265.617 36V1.09091H290.163V8.72727H275.094V14.7273H288.663V22.3636H275.094V36H265.617ZM302.256 8.72727V1.09091H332.597V8.72727H322.097V36H312.756V8.72727H302.256ZM336.164 36V1.09091H345.641V14.7273H358.187V1.09091H367.664V36H358.187V22.3636H345.641V36H336.164ZM372.164 36V1.09091H397.323V8.72727H381.641V14.7273H396.028V22.3636H381.641V28.3636H397.255V36H372.164ZM444.177 14.1818H434.563C434.495 13.3864 434.313 12.6648 434.018 12.017C433.734 11.3693 433.336 10.8125 432.825 10.3466C432.325 9.86932 431.717 9.50568 431.001 9.25568C430.285 8.99432 429.472 8.86364 428.563 8.86364C426.972 8.86364 425.626 9.25 424.523 10.0227C423.433 10.7955 422.603 11.9034 422.035 13.3466C421.478 14.7898 421.2 16.5227 421.2 18.5455C421.2 20.6818 421.484 22.4716 422.052 23.9148C422.631 25.3466 423.467 26.4261 424.558 27.1534C425.648 27.8693 426.961 28.2273 428.495 28.2273C429.37 28.2273 430.154 28.1193 430.847 27.9034C431.54 27.6761 432.143 27.3523 432.654 26.9318C433.165 26.5114 433.58 26.0057 433.898 25.4148C434.228 24.8125 434.45 24.1364 434.563 23.3864L444.177 23.4545C444.063 24.9318 443.648 26.4375 442.933 27.9716C442.217 29.4943 441.2 30.9034 439.881 32.1989C438.575 33.483 436.955 34.517 435.023 35.3011C433.092 36.0852 430.847 36.4773 428.29 36.4773C425.086 36.4773 422.211 35.7898 419.665 34.4148C417.131 33.0398 415.126 31.017 413.648 28.3466C412.183 25.6761 411.45 22.4091 411.45 18.5455C411.45 14.6591 412.2 11.3864 413.7 8.72727C415.2 6.05682 417.222 4.03977 419.768 2.67614C422.313 1.30114 425.154 0.613635 428.29 0.613635C430.495 0.613635 432.523 0.914771 434.376 1.51704C436.228 2.11932 437.853 3 439.251 4.15909C440.648 5.30682 441.773 6.72159 442.626 8.40341C443.478 10.0852 443.995 12.0114 444.177 14.1818ZM448.477 36V1.09091H463.545C466.136 1.09091 468.403 1.5625 470.346 2.50568C472.289 3.44886 473.8 4.80682 474.88 6.57955C475.96 8.35227 476.499 10.4773 476.499 12.9545C476.499 15.4545 475.942 17.5625 474.829 19.2784C473.727 20.9943 472.175 22.2898 470.175 23.1648C468.187 24.0398 465.863 24.4773 463.204 24.4773H454.204V17.1136H461.295C462.408 17.1136 463.357 16.9773 464.141 16.7045C464.937 16.4205 465.545 15.9716 465.965 15.358C466.397 14.7443 466.613 13.9432 466.613 12.9545C466.613 11.9545 466.397 11.142 465.965 10.517C465.545 9.88068 464.937 9.41477 464.141 9.11932C463.357 8.8125 462.408 8.65909 461.295 8.65909H457.954V36H448.477ZM468.931 19.9773L477.658 36H467.363L458.84 19.9773H468.931ZM490.016 1.09091V36H480.539V1.09091H490.016ZM513.326 12C513.235 10.8636 512.809 9.97727 512.048 9.34091C511.298 8.70454 510.156 8.38636 508.621 8.38636C507.644 8.38636 506.843 8.50568 506.218 8.74432C505.604 8.97159 505.15 9.28409 504.854 9.68182C504.559 10.0795 504.406 10.5341 504.394 11.0455C504.371 11.4659 504.445 11.8466 504.616 12.1875C504.798 12.517 505.082 12.8182 505.468 13.0909C505.854 13.3523 506.349 13.5909 506.951 13.8068C507.553 14.0227 508.269 14.2159 509.099 14.3864L511.962 15C513.894 15.4091 515.548 15.9489 516.923 16.6193C518.298 17.2898 519.423 18.0795 520.298 18.9886C521.173 19.8864 521.815 20.8977 522.224 22.0227C522.644 23.1477 522.86 24.375 522.871 25.7045C522.86 28 522.286 29.9432 521.15 31.5341C520.013 33.125 518.388 34.3352 516.275 35.1648C514.173 35.9943 511.644 36.4091 508.69 36.4091C505.656 36.4091 503.008 35.9602 500.746 35.0625C498.496 34.1648 496.746 32.7841 495.496 30.9205C494.258 29.0455 493.633 26.6477 493.621 23.7273H502.621C502.678 24.7955 502.945 25.6932 503.423 26.4205C503.9 27.1477 504.57 27.6989 505.434 28.0739C506.309 28.4489 507.349 28.6364 508.553 28.6364C509.565 28.6364 510.411 28.5114 511.093 28.2614C511.775 28.0114 512.292 27.6648 512.644 27.2216C512.996 26.7784 513.178 26.2727 513.19 25.7045C513.178 25.1705 513.002 24.7045 512.661 24.3068C512.332 23.8977 511.786 23.5341 511.025 23.2159C510.263 22.8864 509.235 22.5795 507.94 22.2955L504.462 21.5455C501.371 20.875 498.934 19.7557 497.15 18.1875C495.377 16.608 494.496 14.4545 494.508 11.7273C494.496 9.51136 495.087 7.57386 496.281 5.91477C497.485 4.24432 499.15 2.94318 501.275 2.01136C503.411 1.07954 505.86 0.613635 508.621 0.613635C511.44 0.613635 513.877 1.08523 515.934 2.02841C517.991 2.97159 519.576 4.30114 520.69 6.01705C521.815 7.72159 522.383 9.71591 522.394 12H513.326ZM535.954 1.09091V36H526.477V1.09091H535.954ZM559.263 12C559.173 10.8636 558.746 9.97727 557.985 9.34091C557.235 8.70454 556.093 8.38636 554.559 8.38636C553.582 8.38636 552.781 8.50568 552.156 8.74432C551.542 8.97159 551.087 9.28409 550.792 9.68182C550.496 10.0795 550.343 10.5341 550.332 11.0455C550.309 11.4659 550.383 11.8466 550.553 12.1875C550.735 12.517 551.019 12.8182 551.406 13.0909C551.792 13.3523 552.286 13.5909 552.888 13.8068C553.491 14.0227 554.207 14.2159 555.036 14.3864L557.9 15C559.832 15.4091 561.485 15.9489 562.86 16.6193C564.235 17.2898 565.36 18.0795 566.235 18.9886C567.11 19.8864 567.752 20.8977 568.161 22.0227C568.582 23.1477 568.798 24.375 568.809 25.7045C568.798 28 568.224 29.9432 567.087 31.5341C565.951 33.125 564.326 34.3352 562.212 35.1648C560.11 35.9943 557.582 36.4091 554.627 36.4091C551.593 36.4091 548.945 35.9602 546.684 35.0625C544.434 34.1648 542.684 32.7841 541.434 30.9205C540.195 29.0455 539.57 26.6477 539.559 23.7273H548.559C548.616 24.7955 548.883 25.6932 549.36 26.4205C549.837 27.1477 550.508 27.6989 551.371 28.0739C552.246 28.4489 553.286 28.6364 554.491 28.6364C555.502 28.6364 556.349 28.5114 557.031 28.2614C557.712 28.0114 558.229 27.6648 558.582 27.2216C558.934 26.7784 559.116 26.2727 559.127 25.7045C559.116 25.1705 558.94 24.7045 558.599 24.3068C558.269 23.8977 557.724 23.5341 556.962 23.2159C556.201 22.8864 555.173 22.5795 553.877 22.2955L550.4 21.5455C547.309 20.875 544.871 19.7557 543.087 18.1875C541.315 16.608 540.434 14.4545 540.445 11.7273C540.434 9.51136 541.025 7.57386 542.218 5.91477C543.423 4.24432 545.087 2.94318 547.212 2.01136C549.349 1.07954 551.798 0.613635 554.559 0.613635C557.377 0.613635 559.815 1.08523 561.871 2.02841C563.928 2.97159 565.513 4.30114 566.627 6.01705C567.752 7.72159 568.32 9.71591 568.332 12H559.263Z" fill="url(#paint0_linear_2_295)"/>
</g>
<defs>
<filter id="filter0_i_2_295" x="0.662659" y="0.61377" width="568.146" height="35.8633" filterUnits="userSpaceOnUse" color-interpolation-filters="sRGB">
<feFlood flood-opacity="0" result="BackgroundImageFix"/>
<feBlend mode="normal" in="SourceGraphic" in2="BackgroundImageFix" result="shape"/>
<feColorMatrix in="SourceAlpha" type="matrix" values="0 0 0 0 0 0 0 0 0 0 0 0 0 0 0 0 0 0 127 0" result="hardAlpha"/>
<feOffset dx="-1.5" dy="1"/>
<feComposite in2="hardAlpha" operator="arithmetic" k2="-1" k3="1"/>
<feColorMatrix type="matrix" values="0 0 0 0 0.533333 0 0 0 0 0.988235 0 0 0 0 1 0 0 0 1 0"/>
<feBlend mode="normal" in2="shape" result="effect1_innerShadow_2_295"/>
</filter>
<linearGradient id="paint0_linear_2_295" x1="-3.40077" y1="-39.9355" x2="68.1735" y2="229.383" gradientUnits="userSpaceOnUse">
<stop offset="0.119731" stop-color="#850EDC"/>
<stop offset="0.258828" stop-color="#FFB9EB"/>
<stop offset="0.378722" stop-color="#FFB9EB"/>
<stop offset="0.435962" stop-color="white"/>
<stop offset="0.490889" stop-color="#88FCFF"/>
<stop offset="0.571321" stop-color="#FF8CDE"/>
<stop offset="0.814891" stop-color="#A73FF1"/>
<stop offset="0.941928" stop-color="#FFB9EB"/>
</linearGradient>
</defs>
</svg>
