<svg width="194" height="64" viewBox="0 0 194 64" fill="none" xmlns="http://www.w3.org/2000/svg">
<g filter="url(#filter0_i_2_1955)">
<path d="M0.832386 5.81818V0.727272H21.0597V5.81818H14.0597V24H7.83239V5.81818H0.832386ZM23.4375 24V0.727272H29.7557V9.81818H38.1193V0.727272H44.4375V24H38.1193V14.9091H29.7557V24H23.4375ZM47.4375 24V0.727272H64.2102V5.81818H53.7557V9.81818H63.3466V14.9091H53.7557V18.9091H64.1648V24H47.4375ZM73.7188 24V0.727272H83.7642C85.4915 0.727272 87.0028 1.04167 88.2983 1.67045C89.5938 2.29924 90.6013 3.20455 91.321 4.38636C92.0407 5.56818 92.4006 6.98485 92.4006 8.63636C92.4006 10.303 92.0294 11.7083 91.2869 12.8523C90.5521 13.9962 89.518 14.8598 88.1847 15.4432C86.8589 16.0265 85.3097 16.3182 83.5369 16.3182H77.5369V11.4091H82.2642C83.0066 11.4091 83.6392 11.3182 84.1619 11.1364C84.6922 10.947 85.0975 10.6477 85.3778 10.2386C85.6657 9.82955 85.8097 9.29545 85.8097 8.63636C85.8097 7.9697 85.6657 7.42803 85.3778 7.01136C85.0975 6.58712 84.6922 6.27651 84.1619 6.07954C83.6392 5.875 83.0066 5.77273 82.2642 5.77273H80.0369V24H73.7188ZM87.3551 13.3182L93.1733 24H86.3097L80.6278 13.3182H87.3551ZM101.412 0.727272V24H95.0938V0.727272H101.412ZM116.952 8C116.891 7.24242 116.607 6.65151 116.099 6.22727C115.599 5.80303 114.838 5.59091 113.815 5.59091C113.164 5.59091 112.63 5.67045 112.213 5.82954C111.804 5.98106 111.501 6.18939 111.304 6.45454C111.107 6.7197 111.005 7.02273 110.997 7.36364C110.982 7.64394 111.031 7.89773 111.145 8.125C111.266 8.3447 111.455 8.54545 111.713 8.72727C111.971 8.90151 112.3 9.06061 112.702 9.20455C113.103 9.34848 113.58 9.47727 114.134 9.59091L116.043 10C117.33 10.2727 118.433 10.6326 119.349 11.0795C120.266 11.5265 121.016 12.053 121.599 12.6591C122.183 13.2576 122.611 13.9318 122.884 14.6818C123.164 15.4318 123.308 16.25 123.315 17.1364C123.308 18.6667 122.925 19.9621 122.168 21.0227C121.41 22.0833 120.327 22.8902 118.918 23.4432C117.516 23.9962 115.83 24.2727 113.861 24.2727C111.838 24.2727 110.073 23.9735 108.565 23.375C107.065 22.7765 105.899 21.8561 105.065 20.6136C104.24 19.3636 103.823 17.7652 103.815 15.8182H109.815C109.853 16.5303 110.031 17.1288 110.349 17.6136C110.668 18.0985 111.115 18.4659 111.69 18.7159C112.274 18.9659 112.967 19.0909 113.77 19.0909C114.444 19.0909 115.009 19.0076 115.463 18.8409C115.918 18.6742 116.262 18.4432 116.497 18.1477C116.732 17.8523 116.853 17.5152 116.861 17.1364C116.853 16.7803 116.736 16.4697 116.509 16.2045C116.289 15.9318 115.925 15.6894 115.418 15.4773C114.91 15.2576 114.224 15.053 113.361 14.8636L111.043 14.3636C108.982 13.9167 107.357 13.1705 106.168 12.125C104.986 11.072 104.399 9.63636 104.406 7.81818C104.399 6.34091 104.793 5.04924 105.588 3.94318C106.391 2.82954 107.501 1.96212 108.918 1.34091C110.342 0.719696 111.974 0.40909 113.815 0.40909C115.694 0.40909 117.319 0.723484 118.69 1.35227C120.062 1.98106 121.118 2.86742 121.861 4.01136C122.611 5.14773 122.99 6.47727 122.997 8H116.952ZM125.719 24V0.727272H142.491V5.81818H132.037V9.81818H141.628V14.9091H132.037V18.9091H142.446V24H125.719ZM174.545 12.3636C174.545 14.9545 174.042 17.1402 173.034 18.9205C172.027 20.6932 170.667 22.0379 168.955 22.9545C167.242 23.8636 165.333 24.3182 163.227 24.3182C161.106 24.3182 159.189 23.8598 157.477 22.9432C155.773 22.0189 154.417 20.6705 153.409 18.8977C152.409 17.1174 151.909 14.9394 151.909 12.3636C151.909 9.77273 152.409 7.59091 153.409 5.81818C154.417 4.03788 155.773 2.69318 157.477 1.78409C159.189 0.867423 161.106 0.40909 163.227 0.40909C165.333 0.40909 167.242 0.867423 168.955 1.78409C170.667 2.69318 172.027 4.03788 173.034 5.81818C174.042 7.59091 174.545 9.77273 174.545 12.3636ZM168.045 12.3636C168.045 10.9697 167.86 9.79545 167.489 8.84091C167.125 7.87879 166.583 7.15151 165.864 6.65909C165.152 6.15909 164.273 5.90909 163.227 5.90909C162.182 5.90909 161.299 6.15909 160.58 6.65909C159.867 7.15151 159.326 7.87879 158.955 8.84091C158.591 9.79545 158.409 10.9697 158.409 12.3636C158.409 13.7576 158.591 14.9356 158.955 15.8977C159.326 16.8523 159.867 17.5795 160.58 18.0795C161.299 18.572 162.182 18.8182 163.227 18.8182C164.273 18.8182 165.152 18.572 165.864 18.0795C166.583 17.5795 167.125 16.8523 167.489 15.8977C167.86 14.9356 168.045 13.7576 168.045 12.3636ZM177.469 24V0.727272H193.832V5.81818H183.787V9.81818H192.832V14.9091H183.787V24H177.469ZM11.6293 44.8182V39.7273H31.8565V44.8182H24.8565V63H18.6293V44.8182H11.6293ZM34.2344 63V39.7273H40.5526V48.8182H48.9162V39.7273H55.2344V63H48.9162V53.9091H40.5526V63H34.2344ZM58.2344 63V39.7273H75.0071V44.8182H64.5526V48.8182H74.1435V53.9091H64.5526V57.9091H74.9616V63H58.2344ZM106.243 48.4545H99.8338C99.7884 47.9242 99.6671 47.4432 99.4702 47.0114C99.2808 46.5795 99.0156 46.2083 98.6747 45.8977C98.3414 45.5795 97.9361 45.3371 97.4588 45.1705C96.9815 44.9962 96.4399 44.9091 95.8338 44.9091C94.7732 44.9091 93.8755 45.1667 93.1406 45.6818C92.4134 46.197 91.8603 46.9356 91.4815 47.8977C91.1103 48.8598 90.9247 50.0152 90.9247 51.3636C90.9247 52.7879 91.1141 53.9811 91.4929 54.9432C91.8793 55.8977 92.4361 56.6174 93.1634 57.1023C93.8906 57.5795 94.7656 57.8182 95.7884 57.8182C96.3717 57.8182 96.8944 57.7462 97.3565 57.6023C97.8187 57.4508 98.2202 57.2348 98.5611 56.9545C98.902 56.6742 99.1785 56.3371 99.3906 55.9432C99.6103 55.5417 99.758 55.0909 99.8338 54.5909L106.243 54.6364C106.167 55.6212 105.891 56.625 105.413 57.6477C104.936 58.6629 104.258 59.6023 103.379 60.4659C102.508 61.322 101.429 62.0114 100.141 62.5341C98.8527 63.0568 97.3565 63.3182 95.652 63.3182C93.5156 63.3182 91.599 62.8598 89.902 61.9432C88.2126 61.0265 86.8755 59.678 85.8906 57.8977C84.9134 56.1174 84.4247 53.9394 84.4247 51.3636C84.4247 48.7727 84.9247 46.5909 85.9247 44.8182C86.9247 43.0379 88.2732 41.6932 89.9702 40.7841C91.6671 39.8674 93.5611 39.4091 95.652 39.4091C97.1217 39.4091 98.474 39.6098 99.7088 40.0114C100.944 40.4129 102.027 41 102.959 41.7727C103.891 42.5379 104.641 43.4811 105.209 44.6023C105.777 45.7235 106.122 47.0076 106.243 48.4545ZM109.109 63V39.7273H119.155C120.882 39.7273 122.393 40.0417 123.689 40.6705C124.984 41.2992 125.992 42.2045 126.712 43.3864C127.431 44.5682 127.791 45.9848 127.791 47.6364C127.791 49.303 127.42 50.7083 126.678 51.8523C125.943 52.9962 124.909 53.8598 123.575 54.4432C122.25 55.0265 120.7 55.3182 118.928 55.3182H112.928V50.4091H117.655C118.397 50.4091 119.03 50.3182 119.553 50.1364C120.083 49.947 120.488 49.6477 120.768 49.2386C121.056 48.8295 121.2 48.2955 121.2 47.6364C121.2 46.9697 121.056 46.428 120.768 46.0114C120.488 45.5871 120.083 45.2765 119.553 45.0795C119.03 44.875 118.397 44.7727 117.655 44.7727H115.428V63H109.109ZM122.746 52.3182L128.564 63H121.7L116.018 52.3182H122.746ZM136.803 39.7273V63H130.484V39.7273H136.803ZM152.342 47C152.282 46.2424 151.998 45.6515 151.49 45.2273C150.99 44.803 150.229 44.5909 149.206 44.5909C148.554 44.5909 148.02 44.6705 147.604 44.8295C147.195 44.9811 146.892 45.1894 146.695 45.4545C146.498 45.7197 146.395 46.0227 146.388 46.3636C146.373 46.6439 146.422 46.8977 146.536 47.125C146.657 47.3447 146.846 47.5455 147.104 47.7273C147.361 47.9015 147.691 48.0606 148.092 48.2045C148.494 48.3485 148.971 48.4773 149.524 48.5909L151.433 49C152.721 49.2727 153.823 49.6326 154.74 50.0795C155.657 50.5265 156.407 51.053 156.99 51.6591C157.573 52.2576 158.001 52.9318 158.274 53.6818C158.554 54.4318 158.698 55.25 158.706 56.1364C158.698 57.6667 158.316 58.9621 157.558 60.0227C156.801 61.0833 155.717 61.8902 154.308 62.4432C152.907 62.9962 151.221 63.2727 149.251 63.2727C147.229 63.2727 145.464 62.9735 143.956 62.375C142.456 61.7765 141.289 60.8561 140.456 59.6136C139.63 58.3636 139.214 56.7652 139.206 54.8182H145.206C145.244 55.5303 145.422 56.1288 145.74 56.6136C146.058 57.0985 146.505 57.4659 147.081 57.7159C147.664 57.9659 148.357 58.0909 149.161 58.0909C149.835 58.0909 150.399 58.0076 150.854 57.8409C151.308 57.6742 151.653 57.4432 151.888 57.1477C152.123 56.8523 152.244 56.5152 152.251 56.1364C152.244 55.7803 152.126 55.4697 151.899 55.2045C151.679 54.9318 151.316 54.6894 150.808 54.4773C150.301 54.2576 149.615 54.053 148.751 53.8636L146.433 53.3636C144.373 52.9167 142.748 52.1705 141.558 51.125C140.376 50.072 139.789 48.6364 139.797 46.8182C139.789 45.3409 140.183 44.0492 140.979 42.9432C141.782 41.8295 142.892 40.9621 144.308 40.3409C145.732 39.7197 147.365 39.4091 149.206 39.4091C151.085 39.4091 152.71 39.7235 154.081 40.3523C155.452 40.9811 156.509 41.8674 157.251 43.0114C158.001 44.1477 158.38 45.4773 158.388 47H152.342ZM167.428 39.7273V63H161.109V39.7273H167.428ZM182.967 47C182.907 46.2424 182.623 45.6515 182.115 45.2273C181.615 44.803 180.854 44.5909 179.831 44.5909C179.179 44.5909 178.645 44.6705 178.229 44.8295C177.82 44.9811 177.517 45.1894 177.32 45.4545C177.123 45.7197 177.02 46.0227 177.013 46.3636C176.998 46.6439 177.047 46.8977 177.161 47.125C177.282 47.3447 177.471 47.5455 177.729 47.7273C177.986 47.9015 178.316 48.0606 178.717 48.2045C179.119 48.3485 179.596 48.4773 180.149 48.5909L182.058 49C183.346 49.2727 184.448 49.6326 185.365 50.0795C186.282 50.5265 187.032 51.053 187.615 51.6591C188.198 52.2576 188.626 52.9318 188.899 53.6818C189.179 54.4318 189.323 55.25 189.331 56.1364C189.323 57.6667 188.941 58.9621 188.183 60.0227C187.426 61.0833 186.342 61.8902 184.933 62.4432C183.532 62.9962 181.846 63.2727 179.876 63.2727C177.854 63.2727 176.089 62.9735 174.581 62.375C173.081 61.7765 171.914 60.8561 171.081 59.6136C170.255 58.3636 169.839 56.7652 169.831 54.8182H175.831C175.869 55.5303 176.047 56.1288 176.365 56.6136C176.683 57.0985 177.13 57.4659 177.706 57.7159C178.289 57.9659 178.982 58.0909 179.786 58.0909C180.46 58.0909 181.024 58.0076 181.479 57.8409C181.933 57.6742 182.278 57.4432 182.513 57.1477C182.748 56.8523 182.869 56.5152 182.876 56.1364C182.869 55.7803 182.751 55.4697 182.524 55.2045C182.304 54.9318 181.941 54.6894 181.433 54.4773C180.926 54.2576 180.24 54.053 179.376 53.8636L177.058 53.3636C174.998 52.9167 173.373 52.1705 172.183 51.125C171.001 50.072 170.414 48.6364 170.422 46.8182C170.414 45.3409 170.808 44.0492 171.604 42.9432C172.407 41.8295 173.517 40.9621 174.933 40.3409C176.357 39.7197 177.99 39.4091 179.831 39.4091C181.71 39.4091 183.335 39.7235 184.706 40.3523C186.077 40.9811 187.134 41.8674 187.876 43.0114C188.626 44.1477 189.005 45.4773 189.013 47H182.967Z" fill="url(#paint0_linear_2_1955)"/>
</g>
<defs>
<filter id="filter0_i_2_1955" x="0.83252" y="0.40918" width="193" height="62.9092" filterUnits="userSpaceOnUse" color-interpolation-filters="sRGB">
<feFlood flood-opacity="0" result="BackgroundImageFix"/>
<feBlend mode="normal" in="SourceGraphic" in2="BackgroundImageFix" result="shape"/>
<feColorMatrix in="SourceAlpha" type="matrix" values="0 0 0 0 0 0 0 0 0 0 0 0 0 0 0 0 0 0 127 0" result="hardAlpha"/>
<feOffset dx="-1.5" dy="1"/>
<feComposite in2="hardAlpha" operator="arithmetic" k2="-1" k3="1"/>
<feColorMatrix type="matrix" values="0 0 0 0 0.533333 0 0 0 0 0.988235 0 0 0 0 1 0 0 0 1 0"/>
<feBlend mode="normal" in2="shape" result="effect1_innerShadow_2_1955"/>
</filter>
<linearGradient id="paint0_linear_2_1955" x1="8.90865" y1="-47.2581" x2="200.942" y2="119.903" gradientUnits="userSpaceOnUse">
<stop offset="0.119731" stop-color="#850EDC"/>
<stop offset="0.258828" stop-color="#FFB9EB"/>
<stop offset="0.378722" stop-color="#FFB9EB"/>
<stop offset="0.435962" stop-color="white"/>
<stop offset="0.490889" stop-color="#88FCFF"/>
<stop offset="0.571321" stop-color="#FF8CDE"/>
<stop offset="0.814891" stop-color="#A73FF1"/>
<stop offset="0.941928" stop-color="#FFB9EB"/>
</linearGradient>
</defs>
</svg>
