<svg width="582" height="37" viewBox="0 0 582 37" fill="none" xmlns="http://www.w3.org/2000/svg">
<g filter="url(#filter0_i_2_320)">
<path d="M0.09375 36V1.09091H9.57102V14.7273H22.1165V1.09091H31.5938V36H22.1165V22.3636H9.57102V36H0.09375ZM56.7528 1.09091H66.2301V23.4545C66.2301 26.1136 65.5938 28.4148 64.321 30.358C63.0597 32.2898 61.2983 33.7841 59.0369 34.8409C56.7756 35.8864 54.1506 36.4091 51.1619 36.4091C48.1506 36.4091 45.5142 35.8864 43.2528 34.8409C40.9915 33.7841 39.2301 32.2898 37.9688 30.358C36.7188 28.4148 36.0938 26.1136 36.0938 23.4545V1.09091H45.571V22.6364C45.571 23.7159 45.8097 24.6818 46.2869 25.5341C46.7642 26.375 47.4233 27.0341 48.2642 27.5114C49.1165 27.9886 50.0824 28.2273 51.1619 28.2273C52.2528 28.2273 53.2188 27.9886 54.0597 27.5114C54.9006 27.0341 55.5597 26.375 56.0369 25.5341C56.5142 24.6818 56.7528 23.7159 56.7528 22.6364V1.09091ZM70.7344 1.09091H82.5298L90.6435 20.8636H91.0526L99.1662 1.09091H110.962V36H101.689V15.8182H101.416L93.6435 35.7273H88.0526L80.2798 15.6818H80.0071V36H70.7344V1.09091ZM124.521 36H114.294L125.817 1.09091H138.771L150.294 36H140.067L132.43 10.7045H132.158L124.521 36ZM122.612 22.2273H141.839V29.3182H122.612V22.2273ZM183.861 1.09091V36H175.952L163.338 17.6591H163.134V36H153.656V1.09091H161.702L174.111 19.3636H174.384V1.09091H183.861ZM197.821 1.09091V36H188.344V1.09091H197.821ZM201.358 8.72727V1.09091H231.699V8.72727H221.199V36H211.858V8.72727H201.358ZM233.834 1.09091H244.402L251.22 15.2727H251.493L258.311 1.09091H268.879L256.061 25.0227V36H246.652V25.0227L233.834 1.09091ZM279.878 1.09091V5.18182C279.878 6.29545 279.651 7.40909 279.196 8.52273C278.753 9.625 278.185 10.6534 277.491 11.608C276.81 12.5511 276.105 13.3409 275.378 13.9773L271.491 12C271.969 11.1818 272.395 10.233 272.77 9.15341C273.145 8.07386 273.332 6.75 273.332 5.18182V1.09091H279.878ZM303.115 12C303.024 10.8636 302.598 9.97727 301.837 9.34091C301.087 8.70454 299.945 8.38636 298.411 8.38636C297.433 8.38636 296.632 8.50568 296.007 8.74432C295.393 8.97159 294.939 9.28409 294.643 9.68182C294.348 10.0795 294.195 10.5341 294.183 11.0455C294.161 11.4659 294.234 11.8466 294.405 12.1875C294.587 12.517 294.871 12.8182 295.257 13.0909C295.643 13.3523 296.138 13.5909 296.74 13.8068C297.342 14.0227 298.058 14.2159 298.888 14.3864L301.751 15C303.683 15.4091 305.337 15.9489 306.712 16.6193C308.087 17.2898 309.212 18.0795 310.087 18.9886C310.962 19.8864 311.604 20.8977 312.013 22.0227C312.433 23.1477 312.649 24.375 312.661 25.7045C312.649 28 312.075 29.9432 310.939 31.5341C309.803 33.125 308.178 34.3352 306.064 35.1648C303.962 35.9943 301.433 36.4091 298.479 36.4091C295.445 36.4091 292.797 35.9602 290.536 35.0625C288.286 34.1648 286.536 32.7841 285.286 30.9205C284.047 29.0455 283.422 26.6477 283.411 23.7273H292.411C292.467 24.7955 292.734 25.6932 293.212 26.4205C293.689 27.1477 294.359 27.6989 295.223 28.0739C296.098 28.4489 297.138 28.6364 298.342 28.6364C299.354 28.6364 300.2 28.5114 300.882 28.2614C301.564 28.0114 302.081 27.6648 302.433 27.2216C302.786 26.7784 302.967 26.2727 302.979 25.7045C302.967 25.1705 302.791 24.7045 302.45 24.3068C302.121 23.8977 301.575 23.5341 300.814 23.2159C300.053 22.8864 299.024 22.5795 297.729 22.2955L294.251 21.5455C291.161 20.875 288.723 19.7557 286.939 18.1875C285.166 16.608 284.286 14.4545 284.297 11.7273C284.286 9.51136 284.876 7.57386 286.07 5.91477C287.274 4.24432 288.939 2.94318 291.064 2.01136C293.2 1.07954 295.649 0.613635 298.411 0.613635C301.229 0.613635 303.666 1.08523 305.723 2.02841C307.78 2.97159 309.365 4.30114 310.479 6.01705C311.604 7.72159 312.172 9.71591 312.183 12H303.115ZM325.828 36V1.09091H340.896C343.487 1.09091 345.754 1.5625 347.697 2.50568C349.641 3.44886 351.152 4.80682 352.232 6.57955C353.311 8.35227 353.851 10.4773 353.851 12.9545C353.851 15.4545 353.294 17.5625 352.18 19.2784C351.078 20.9943 349.527 22.2898 347.527 23.1648C345.538 24.0398 343.214 24.4773 340.555 24.4773H331.555V17.1136H338.646C339.76 17.1136 340.709 16.9773 341.493 16.7045C342.288 16.4205 342.896 15.9716 343.317 15.358C343.749 14.7443 343.964 13.9432 343.964 12.9545C343.964 11.9545 343.749 11.142 343.317 10.517C342.896 9.88068 342.288 9.41477 341.493 9.11932C340.709 8.8125 339.76 8.65909 338.646 8.65909H335.305V36H325.828ZM346.283 19.9773L355.01 36H344.714L336.192 19.9773H346.283ZM357.891 36V1.09091H383.05V8.72727H367.368V14.7273H381.754V22.3636H367.368V28.3636H382.982V36H357.891ZM406.568 12C406.477 10.8636 406.051 9.97727 405.29 9.34091C404.54 8.70454 403.398 8.38636 401.864 8.38636C400.886 8.38636 400.085 8.50568 399.46 8.74432C398.847 8.97159 398.392 9.28409 398.097 9.68182C397.801 10.0795 397.648 10.5341 397.636 11.0455C397.614 11.4659 397.688 11.8466 397.858 12.1875C398.04 12.517 398.324 12.8182 398.71 13.0909C399.097 13.3523 399.591 13.5909 400.193 13.8068C400.795 14.0227 401.511 14.2159 402.341 14.3864L405.205 15C407.136 15.4091 408.79 15.9489 410.165 16.6193C411.54 17.2898 412.665 18.0795 413.54 18.9886C414.415 19.8864 415.057 20.8977 415.466 22.0227C415.886 23.1477 416.102 24.375 416.114 25.7045C416.102 28 415.528 29.9432 414.392 31.5341C413.256 33.125 411.631 34.3352 409.517 35.1648C407.415 35.9943 404.886 36.4091 401.932 36.4091C398.898 36.4091 396.25 35.9602 393.989 35.0625C391.739 34.1648 389.989 32.7841 388.739 30.9205C387.5 29.0455 386.875 26.6477 386.864 23.7273H395.864C395.92 24.7955 396.188 25.6932 396.665 26.4205C397.142 27.1477 397.813 27.6989 398.676 28.0739C399.551 28.4489 400.591 28.6364 401.795 28.6364C402.807 28.6364 403.653 28.5114 404.335 28.2614C405.017 28.0114 405.534 27.6648 405.886 27.2216C406.239 26.7784 406.42 26.2727 406.432 25.7045C406.42 25.1705 406.244 24.7045 405.903 24.3068C405.574 23.8977 405.028 23.5341 404.267 23.2159C403.506 22.8864 402.477 22.5795 401.182 22.2955L397.705 21.5455C394.614 20.875 392.176 19.7557 390.392 18.1875C388.619 16.608 387.739 14.4545 387.75 11.7273C387.739 9.51136 388.33 7.57386 389.523 5.91477C390.727 4.24432 392.392 2.94318 394.517 2.01136C396.653 1.07954 399.102 0.613635 401.864 0.613635C404.682 0.613635 407.119 1.08523 409.176 2.02841C411.233 2.97159 412.818 4.30114 413.932 6.01705C415.057 7.72159 415.625 9.71591 415.636 12H406.568ZM419.719 36V1.09091H434.787C437.378 1.09091 439.645 1.60227 441.588 2.625C443.531 3.64773 445.043 5.08523 446.122 6.9375C447.202 8.78977 447.741 10.9545 447.741 13.4318C447.741 15.9318 447.185 18.0966 446.071 19.9261C444.969 21.7557 443.418 23.1648 441.418 24.1534C439.429 25.142 437.105 25.6364 434.446 25.6364H425.446V18.2727H432.537C433.651 18.2727 434.599 18.0795 435.384 17.6932C436.179 17.2955 436.787 16.733 437.207 16.0057C437.639 15.2784 437.855 14.4205 437.855 13.4318C437.855 12.4318 437.639 11.5795 437.207 10.875C436.787 10.1591 436.179 9.61364 435.384 9.23864C434.599 8.85227 433.651 8.65909 432.537 8.65909H429.196V36H419.719ZM485.037 18.5455C485.037 22.4318 484.281 25.7102 482.77 28.3807C481.259 31.0398 479.219 33.0568 476.651 34.4318C474.082 35.7955 471.219 36.4773 468.06 36.4773C464.878 36.4773 462.003 35.7898 459.435 34.4148C456.878 33.0284 454.844 31.0057 453.332 28.3466C451.832 25.6761 451.082 22.4091 451.082 18.5455C451.082 14.6591 451.832 11.3864 453.332 8.72727C454.844 6.05682 456.878 4.03977 459.435 2.67614C462.003 1.30114 464.878 0.613635 468.06 0.613635C471.219 0.613635 474.082 1.30114 476.651 2.67614C479.219 4.03977 481.259 6.05682 482.77 8.72727C484.281 11.3864 485.037 14.6591 485.037 18.5455ZM475.287 18.5455C475.287 16.4545 475.009 14.6932 474.452 13.2614C473.906 11.8182 473.094 10.7273 472.014 9.98864C470.946 9.23864 469.628 8.86364 468.06 8.86364C466.491 8.86364 465.168 9.23864 464.088 9.98864C463.02 10.7273 462.207 11.8182 461.651 13.2614C461.105 14.6932 460.832 16.4545 460.832 18.5455C460.832 20.6364 461.105 22.4034 461.651 23.8466C462.207 25.2784 463.02 26.3693 464.088 27.1193C465.168 27.858 466.491 28.2273 468.06 28.2273C469.628 28.2273 470.946 27.858 472.014 27.1193C473.094 26.3693 473.906 25.2784 474.452 23.8466C475.009 22.4034 475.287 20.6364 475.287 18.5455ZM519.626 1.09091V36H511.717L499.104 17.6591H498.899V36H489.422V1.09091H497.467L509.876 19.3636H510.149V1.09091H519.626ZM542.928 12C542.837 10.8636 542.411 9.97727 541.649 9.34091C540.899 8.70454 539.757 8.38636 538.223 8.38636C537.246 8.38636 536.445 8.50568 535.82 8.74432C535.206 8.97159 534.751 9.28409 534.456 9.68182C534.161 10.0795 534.007 10.5341 533.996 11.0455C533.973 11.4659 534.047 11.8466 534.217 12.1875C534.399 12.517 534.683 12.8182 535.07 13.0909C535.456 13.3523 535.95 13.5909 536.553 13.8068C537.155 14.0227 537.871 14.2159 538.7 14.3864L541.564 15C543.496 15.4091 545.149 15.9489 546.524 16.6193C547.899 17.2898 549.024 18.0795 549.899 18.9886C550.774 19.8864 551.416 20.8977 551.825 22.0227C552.246 23.1477 552.462 24.375 552.473 25.7045C552.462 28 551.888 29.9432 550.751 31.5341C549.615 33.125 547.99 34.3352 545.876 35.1648C543.774 35.9943 541.246 36.4091 538.291 36.4091C535.257 36.4091 532.609 35.9602 530.348 35.0625C528.098 34.1648 526.348 32.7841 525.098 30.9205C523.859 29.0455 523.234 26.6477 523.223 23.7273H532.223C532.28 24.7955 532.547 25.6932 533.024 26.4205C533.501 27.1477 534.172 27.6989 535.036 28.0739C535.911 28.4489 536.95 28.6364 538.155 28.6364C539.166 28.6364 540.013 28.5114 540.695 28.2614C541.376 28.0114 541.893 27.6648 542.246 27.2216C542.598 26.7784 542.78 26.2727 542.791 25.7045C542.78 25.1705 542.604 24.7045 542.263 24.3068C541.933 23.8977 541.388 23.5341 540.626 23.2159C539.865 22.8864 538.837 22.5795 537.541 22.2955L534.064 21.5455C530.973 20.875 528.536 19.7557 526.751 18.1875C524.979 16.608 524.098 14.4545 524.109 11.7273C524.098 9.51136 524.689 7.57386 525.882 5.91477C527.087 4.24432 528.751 2.94318 530.876 2.01136C533.013 1.07954 535.462 0.613635 538.223 0.613635C541.041 0.613635 543.479 1.08523 545.536 2.02841C547.592 2.97159 549.178 4.30114 550.291 6.01705C551.416 7.72159 551.984 9.71591 551.996 12H542.928ZM556.078 36V1.09091H581.237V8.72727H565.555V14.7273H579.942V22.3636H565.555V28.3636H581.169V36H556.078Z" fill="url(#paint0_linear_2_320)"/>
</g>
<defs>
<filter id="filter0_i_2_320" x="0.09375" y="0.61377" width="581.144" height="35.8633" filterUnits="userSpaceOnUse" color-interpolation-filters="sRGB">
<feFlood flood-opacity="0" result="BackgroundImageFix"/>
<feBlend mode="normal" in="SourceGraphic" in2="BackgroundImageFix" result="shape"/>
<feColorMatrix in="SourceAlpha" type="matrix" values="0 0 0 0 0 0 0 0 0 0 0 0 0 0 0 0 0 0 127 0" result="hardAlpha"/>
<feOffset dx="-1.5" dy="1"/>
<feComposite in2="hardAlpha" operator="arithmetic" k2="-1" k3="1"/>
<feColorMatrix type="matrix" values="0 0 0 0 0.533333 0 0 0 0 0.988235 0 0 0 0 1 0 0 0 1 0"/>
<feBlend mode="normal" in2="shape" result="effect1_innerShadow_2_320"/>
</filter>
<linearGradient id="paint0_linear_2_320" x1="2.59923" y1="-39.9355" x2="74.1735" y2="229.383" gradientUnits="userSpaceOnUse">
<stop offset="0.119731" stop-color="#850EDC"/>
<stop offset="0.258828" stop-color="#FFB9EB"/>
<stop offset="0.378722" stop-color="#FFB9EB"/>
<stop offset="0.435962" stop-color="white"/>
<stop offset="0.490889" stop-color="#88FCFF"/>
<stop offset="0.571321" stop-color="#FF8CDE"/>
<stop offset="0.814891" stop-color="#A73FF1"/>
<stop offset="0.941928" stop-color="#FFB9EB"/>
</linearGradient>
</defs>
</svg>
