<svg width="209" height="64" viewBox="0 0 209 64" fill="none" xmlns="http://www.w3.org/2000/svg">
<g filter="url(#filter0_i_2_1963)">
<path d="M0.609375 24V0.727272H6.92756V9.81818H15.2912V0.727272H21.6094V24H15.2912V14.9091H6.92756V24H0.609375ZM38.3821 0.727272H44.7003V15.6364C44.7003 17.4091 44.276 18.9432 43.4276 20.2386C42.5866 21.5265 41.4124 22.5227 39.9048 23.2273C38.3973 23.9242 36.6473 24.2727 34.6548 24.2727C32.6473 24.2727 30.8897 23.9242 29.3821 23.2273C27.8745 22.5227 26.7003 21.5265 25.8594 20.2386C25.026 18.9432 24.6094 17.4091 24.6094 15.6364V0.727272H30.9276V15.0909C30.9276 15.8106 31.0866 16.4545 31.4048 17.0227C31.723 17.5833 32.1624 18.0227 32.723 18.3409C33.2912 18.6591 33.9351 18.8182 34.6548 18.8182C35.3821 18.8182 36.026 18.6591 36.5866 18.3409C37.1473 18.0227 37.5866 17.5833 37.9048 17.0227C38.223 16.4545 38.3821 15.8106 38.3821 15.0909V0.727272ZM47.7031 0.727272H55.5668L60.9759 13.9091H61.2486L66.6577 0.727272H74.5213V24H68.3395V10.5455H68.1577L62.9759 23.8182H59.2486L54.0668 10.4545H53.8849V24H47.7031V0.727272ZM83.5611 24H76.7429L84.4247 0.727272H93.0611L100.743 24H93.9247L88.8338 7.13636H88.652L83.5611 24ZM82.2884 14.8182H95.1065V19.5455H82.2884V14.8182ZM123.121 0.727272V24H117.848L109.439 11.7727H109.303V24H102.984V0.727272H108.348L116.621 12.9091H116.803V0.727272H123.121ZM132.428 0.727272V24H126.109V0.727272H132.428ZM134.786 5.81818V0.727272H155.013V5.81818H148.013V24H141.786V5.81818H134.786ZM156.436 0.727272H163.482L168.027 10.1818H168.209L172.754 0.727272H179.8L171.254 16.6818V24H164.982V16.6818L156.436 0.727272ZM187.132 0.727272V3.45454C187.132 4.19697 186.981 4.93939 186.678 5.68182C186.382 6.41667 186.003 7.10227 185.541 7.73864C185.087 8.36742 184.617 8.89394 184.132 9.31818L181.541 8C181.859 7.45455 182.143 6.82197 182.393 6.10227C182.643 5.38257 182.768 4.5 182.768 3.45454V0.727272H187.132ZM202.624 8C202.563 7.24242 202.279 6.65151 201.771 6.22727C201.271 5.80303 200.51 5.59091 199.487 5.59091C198.836 5.59091 198.302 5.67045 197.885 5.82954C197.476 5.98106 197.173 6.18939 196.976 6.45454C196.779 6.7197 196.677 7.02273 196.669 7.36364C196.654 7.64394 196.703 7.89773 196.817 8.125C196.938 8.3447 197.127 8.54545 197.385 8.72727C197.643 8.90151 197.972 9.06061 198.374 9.20455C198.775 9.34848 199.252 9.47727 199.805 9.59091L201.714 10C203.002 10.2727 204.105 10.6326 205.021 11.0795C205.938 11.5265 206.688 12.053 207.271 12.6591C207.855 13.2576 208.283 13.9318 208.555 14.6818C208.836 15.4318 208.98 16.25 208.987 17.1364C208.98 18.6667 208.597 19.9621 207.839 21.0227C207.082 22.0833 205.999 22.8902 204.589 23.4432C203.188 23.9962 201.502 24.2727 199.533 24.2727C197.51 24.2727 195.745 23.9735 194.237 23.375C192.737 22.7765 191.571 21.8561 190.737 20.6136C189.911 19.3636 189.495 17.7652 189.487 15.8182H195.487C195.525 16.5303 195.703 17.1288 196.021 17.6136C196.339 18.0985 196.786 18.4659 197.362 18.7159C197.946 18.9659 198.639 19.0909 199.442 19.0909C200.116 19.0909 200.68 19.0076 201.135 18.8409C201.589 18.6742 201.934 18.4432 202.169 18.1477C202.404 17.8523 202.525 17.5152 202.533 17.1364C202.525 16.7803 202.408 16.4697 202.18 16.2045C201.961 15.9318 201.597 15.6894 201.089 15.4773C200.582 15.2576 199.896 15.053 199.033 14.8636L196.714 14.3636C194.654 13.9167 193.029 13.1705 191.839 12.125C190.658 11.072 190.071 9.63636 190.078 7.81818C190.071 6.34091 190.464 5.04924 191.26 3.94318C192.063 2.82954 193.173 1.96212 194.589 1.34091C196.014 0.719696 197.646 0.40909 199.487 0.40909C201.366 0.40909 202.991 0.723484 204.362 1.35227C205.733 1.98106 206.79 2.86742 207.533 4.01136C208.283 5.14773 208.661 6.47727 208.669 8H202.624ZM15.1406 63V39.7273H25.1861C26.9134 39.7273 28.4247 40.0417 29.7202 40.6705C31.0156 41.2992 32.0232 42.2045 32.7429 43.3864C33.4626 44.5682 33.8224 45.9848 33.8224 47.6364C33.8224 49.303 33.4512 50.7083 32.7088 51.8523C31.974 52.9962 30.9399 53.8598 29.6065 54.4432C28.2808 55.0265 26.7315 55.3182 24.9588 55.3182H18.9588V50.4091H23.6861C24.4285 50.4091 25.0611 50.3182 25.5838 50.1364C26.1141 49.947 26.5194 49.6477 26.7997 49.2386C27.0876 48.8295 27.2315 48.2955 27.2315 47.6364C27.2315 46.9697 27.0876 46.428 26.7997 46.0114C26.5194 45.5871 26.1141 45.2765 25.5838 45.0795C25.0611 44.875 24.4285 44.7727 23.6861 44.7727H21.4588V63H15.1406ZM28.777 52.3182L34.5952 63H27.7315L22.0497 52.3182H28.777ZM36.5156 63V39.7273H53.2884V44.8182H42.8338V48.8182H52.4247V53.9091H42.8338V57.9091H53.2429V63H36.5156ZM68.9673 47C68.9067 46.2424 68.6226 45.6515 68.1151 45.2273C67.6151 44.803 66.8537 44.5909 65.831 44.5909C65.1795 44.5909 64.6454 44.6705 64.2287 44.8295C63.8196 44.9811 63.5166 45.1894 63.3196 45.4545C63.1226 45.7197 63.0204 46.0227 63.0128 46.3636C62.9976 46.6439 63.0469 46.8977 63.1605 47.125C63.2817 47.3447 63.4711 47.5455 63.7287 47.7273C63.9863 47.9015 64.3158 48.0606 64.7173 48.2045C65.1188 48.3485 65.5961 48.4773 66.1491 48.5909L68.0582 49C69.3461 49.2727 70.4484 49.6326 71.3651 50.0795C72.2817 50.5265 73.0317 51.053 73.6151 51.6591C74.1984 52.2576 74.6264 52.9318 74.8991 53.6818C75.1795 54.4318 75.3234 55.25 75.331 56.1364C75.3234 57.6667 74.9408 58.9621 74.1832 60.0227C73.4257 61.0833 72.3423 61.8902 70.9332 62.4432C69.5317 62.9962 67.8461 63.2727 65.8764 63.2727C63.8537 63.2727 62.0885 62.9735 60.581 62.375C59.081 61.7765 57.9143 60.8561 57.081 59.6136C56.2552 58.3636 55.8385 56.7652 55.831 54.8182H61.831C61.8688 55.5303 62.0469 56.1288 62.3651 56.6136C62.6832 57.0985 63.1302 57.4659 63.706 57.7159C64.2893 57.9659 64.9825 58.0909 65.7855 58.0909C66.4598 58.0909 67.0241 58.0076 67.4787 57.8409C67.9332 57.6742 68.2779 57.4432 68.5128 57.1477C68.7476 56.8523 68.8688 56.5152 68.8764 56.1364C68.8688 55.7803 68.7514 55.4697 68.5241 55.2045C68.3045 54.9318 67.9408 54.6894 67.4332 54.4773C66.9257 54.2576 66.2401 54.053 65.3764 53.8636L63.0582 53.3636C60.9976 52.9167 59.3726 52.1705 58.1832 51.125C57.0014 50.072 56.4143 48.6364 56.4219 46.8182C56.4143 45.3409 56.8082 44.0492 57.6037 42.9432C58.4067 41.8295 59.5166 40.9621 60.9332 40.3409C62.3575 39.7197 63.9901 39.4091 65.831 39.4091C67.7098 39.4091 69.3348 39.7235 70.706 40.3523C72.0772 40.9811 73.134 41.8674 73.8764 43.0114C74.6264 44.1477 75.0052 45.4773 75.0128 47H68.9673ZM77.7344 63V39.7273H87.7798C89.5071 39.7273 91.0185 40.0682 92.3139 40.75C93.6094 41.4318 94.617 42.3902 95.3366 43.625C96.0563 44.8598 96.4162 46.303 96.4162 47.9545C96.4162 49.6212 96.045 51.0644 95.3026 52.2841C94.5677 53.5038 93.5336 54.4432 92.2003 55.1023C90.8745 55.7614 89.3253 56.0909 87.5526 56.0909H81.5526V51.1818H86.2798C87.0223 51.1818 87.6548 51.053 88.1776 50.7955C88.7079 50.5303 89.1132 50.1553 89.3935 49.6705C89.6813 49.1856 89.8253 48.6136 89.8253 47.9545C89.8253 47.2879 89.6813 46.7197 89.3935 46.25C89.1132 45.7727 88.7079 45.4091 88.1776 45.1591C87.6548 44.9015 87.0223 44.7727 86.2798 44.7727H84.0526V63H77.7344ZM121.28 51.3636C121.28 53.9545 120.776 56.1402 119.768 57.9205C118.761 59.6932 117.401 61.0379 115.689 61.9545C113.977 62.8636 112.068 63.3182 109.962 63.3182C107.84 63.3182 105.924 62.8598 104.212 61.9432C102.507 61.0189 101.151 59.6705 100.143 57.8977C99.1435 56.1174 98.6435 53.9394 98.6435 51.3636C98.6435 48.7727 99.1435 46.5909 100.143 44.8182C101.151 43.0379 102.507 41.6932 104.212 40.7841C105.924 39.8674 107.84 39.4091 109.962 39.4091C112.068 39.4091 113.977 39.8674 115.689 40.7841C117.401 41.6932 118.761 43.0379 119.768 44.8182C120.776 46.5909 121.28 48.7727 121.28 51.3636ZM114.78 51.3636C114.78 49.9697 114.594 48.7955 114.223 47.8409C113.859 46.8788 113.318 46.1515 112.598 45.6591C111.886 45.1591 111.007 44.9091 109.962 44.9091C108.916 44.9091 108.034 45.1591 107.314 45.6591C106.602 46.1515 106.06 46.8788 105.689 47.8409C105.325 48.7955 105.143 49.9697 105.143 51.3636C105.143 52.7576 105.325 53.9356 105.689 54.8977C106.06 55.8523 106.602 56.5795 107.314 57.0795C108.034 57.572 108.916 57.8182 109.962 57.8182C111.007 57.8182 111.886 57.572 112.598 57.0795C113.318 56.5795 113.859 55.8523 114.223 54.8977C114.594 53.9356 114.78 52.7576 114.78 51.3636ZM144.339 39.7273V63H139.067L130.658 50.7727H130.521V63H124.203V39.7273H129.567L137.839 51.9091H138.021V39.7273H144.339ZM159.874 47C159.813 46.2424 159.529 45.6515 159.021 45.2273C158.521 44.803 157.76 44.5909 156.737 44.5909C156.086 44.5909 155.552 44.6705 155.135 44.8295C154.726 44.9811 154.423 45.1894 154.226 45.4545C154.029 45.7197 153.927 46.0227 153.919 46.3636C153.904 46.6439 153.953 46.8977 154.067 47.125C154.188 47.3447 154.377 47.5455 154.635 47.7273C154.893 47.9015 155.222 48.0606 155.624 48.2045C156.025 48.3485 156.502 48.4773 157.055 48.5909L158.964 49C160.252 49.2727 161.355 49.6326 162.271 50.0795C163.188 50.5265 163.938 51.053 164.521 51.6591C165.105 52.2576 165.533 52.9318 165.805 53.6818C166.086 54.4318 166.23 55.25 166.237 56.1364C166.23 57.6667 165.847 58.9621 165.089 60.0227C164.332 61.0833 163.249 61.8902 161.839 62.4432C160.438 62.9962 158.752 63.2727 156.783 63.2727C154.76 63.2727 152.995 62.9735 151.487 62.375C149.987 61.7765 148.821 60.8561 147.987 59.6136C147.161 58.3636 146.745 56.7652 146.737 54.8182H152.737C152.775 55.5303 152.953 56.1288 153.271 56.6136C153.589 57.0985 154.036 57.4659 154.612 57.7159C155.196 57.9659 155.889 58.0909 156.692 58.0909C157.366 58.0909 157.93 58.0076 158.385 57.8409C158.839 57.6742 159.184 57.4432 159.419 57.1477C159.654 56.8523 159.775 56.5152 159.783 56.1364C159.775 55.7803 159.658 55.4697 159.43 55.2045C159.211 54.9318 158.847 54.6894 158.339 54.4773C157.832 54.2576 157.146 54.053 156.283 53.8636L153.964 53.3636C151.904 52.9167 150.279 52.1705 149.089 51.125C147.908 50.072 147.321 48.6364 147.328 46.8182C147.321 45.3409 147.714 44.0492 148.51 42.9432C149.313 41.8295 150.423 40.9621 151.839 40.3409C153.264 39.7197 154.896 39.4091 156.737 39.4091C158.616 39.4091 160.241 39.7235 161.612 40.3523C162.983 40.9811 164.04 41.8674 164.783 43.0114C165.533 44.1477 165.911 45.4773 165.919 47H159.874ZM168.641 63V39.7273H185.413V44.8182H174.959V48.8182H184.55V53.9091H174.959V57.9091H185.368V63H168.641Z" fill="url(#paint0_linear_2_1963)"/>
</g>
<defs>
<filter id="filter0_i_2_1963" x="0.609375" y="0.40918" width="208.378" height="62.9092" filterUnits="userSpaceOnUse" color-interpolation-filters="sRGB">
<feFlood flood-opacity="0" result="BackgroundImageFix"/>
<feBlend mode="normal" in="SourceGraphic" in2="BackgroundImageFix" result="shape"/>
<feColorMatrix in="SourceAlpha" type="matrix" values="0 0 0 0 0 0 0 0 0 0 0 0 0 0 0 0 0 0 127 0" result="hardAlpha"/>
<feOffset dx="-1.5" dy="1"/>
<feComposite in2="hardAlpha" operator="arithmetic" k2="-1" k3="1"/>
<feColorMatrix type="matrix" values="0 0 0 0 0.533333 0 0 0 0 0.988235 0 0 0 0 1 0 0 0 1 0"/>
<feBlend mode="normal" in2="shape" result="effect1_innerShadow_2_1963"/>
</filter>
<linearGradient id="paint0_linear_2_1963" x1="12.9087" y1="-47.2581" x2="204.942" y2="119.903" gradientUnits="userSpaceOnUse">
<stop offset="0.119731" stop-color="#850EDC"/>
<stop offset="0.258828" stop-color="#FFB9EB"/>
<stop offset="0.378722" stop-color="#FFB9EB"/>
<stop offset="0.435962" stop-color="white"/>
<stop offset="0.490889" stop-color="#88FCFF"/>
<stop offset="0.571321" stop-color="#FF8CDE"/>
<stop offset="0.814891" stop-color="#A73FF1"/>
<stop offset="0.941928" stop-color="#FFB9EB"/>
</linearGradient>
</defs>
</svg>
