<svg width="556" height="37" viewBox="0 0 556 37" fill="none" xmlns="http://www.w3.org/2000/svg">
<g filter="url(#filter0_i_2_345)">
<path d="M0.272017 8.72727V1.09091H30.6129V8.72727H20.1129V36H10.772V8.72727H0.272017ZM34.1797 36V1.09091H43.657V14.7273H56.2024V1.09091H65.6797V36H56.2024V22.3636H43.657V36H34.1797ZM70.1797 36V1.09091H95.3388V8.72727H79.657V14.7273H94.0433V22.3636H79.657V28.3636H95.2706V36H70.1797ZM142.192 14.1818H132.579C132.511 13.3864 132.329 12.6648 132.033 12.017C131.749 11.3693 131.352 10.8125 130.84 10.3466C130.34 9.86932 129.732 9.50568 129.016 9.25568C128.3 8.99432 127.488 8.86364 126.579 8.86364C124.988 8.86364 123.641 9.25 122.539 10.0227C121.448 10.7955 120.619 11.9034 120.05 13.3466C119.494 14.7898 119.215 16.5227 119.215 18.5455C119.215 20.6818 119.499 22.4716 120.067 23.9148C120.647 25.3466 121.482 26.4261 122.573 27.1534C123.664 27.8693 124.977 28.2273 126.511 28.2273C127.386 28.2273 128.17 28.1193 128.863 27.9034C129.556 27.6761 130.158 27.3523 130.67 26.9318C131.181 26.5114 131.596 26.0057 131.914 25.4148C132.244 24.8125 132.465 24.1364 132.579 23.3864L142.192 23.4545C142.079 24.9318 141.664 26.4375 140.948 27.9716C140.232 29.4943 139.215 30.9034 137.897 32.1989C136.59 33.483 134.971 34.517 133.039 35.3011C131.107 36.0852 128.863 36.4773 126.306 36.4773C123.102 36.4773 120.227 35.7898 117.681 34.4148C115.147 33.0398 113.141 31.017 111.664 28.3466C110.198 25.6761 109.465 22.4091 109.465 18.5455C109.465 14.6591 110.215 11.3864 111.715 8.72727C113.215 6.05682 115.238 4.03977 117.783 2.67614C120.329 1.30114 123.17 0.613635 126.306 0.613635C128.511 0.613635 130.539 0.914771 132.391 1.51704C134.244 2.11932 135.869 3 137.266 4.15909C138.664 5.30682 139.789 6.72159 140.641 8.40341C141.494 10.0852 142.011 12.0114 142.192 14.1818ZM154.482 36H144.255L155.778 1.09091H168.732L180.255 36H170.028L162.391 10.7045H162.119L154.482 36ZM152.573 22.2273H171.8V29.3182H152.573V22.2273ZM183.617 36V1.09091H193.094V28.3636H207.208V36H183.617ZM211.039 36V1.09091H220.516V28.3636H234.63V36H211.039ZM247.069 8.72727V1.09091H277.41V8.72727H266.91V36H257.569V8.72727H247.069ZM313.154 18.5455C313.154 22.4318 312.398 25.7102 310.887 28.3807C309.376 31.0398 307.336 33.0568 304.768 34.4318C302.2 35.7955 299.336 36.4773 296.177 36.4773C292.995 36.4773 290.12 35.7898 287.552 34.4148C284.995 33.0284 282.961 31.0057 281.45 28.3466C279.95 25.6761 279.2 22.4091 279.2 18.5455C279.2 14.6591 279.95 11.3864 281.45 8.72727C282.961 6.05682 284.995 4.03977 287.552 2.67614C290.12 1.30114 292.995 0.613635 296.177 0.613635C299.336 0.613635 302.2 1.30114 304.768 2.67614C307.336 4.03977 309.376 6.05682 310.887 8.72727C312.398 11.3864 313.154 14.6591 313.154 18.5455ZM303.404 18.5455C303.404 16.4545 303.126 14.6932 302.569 13.2614C302.023 11.8182 301.211 10.7273 300.131 9.98864C299.063 9.23864 297.745 8.86364 296.177 8.86364C294.609 8.86364 293.285 9.23864 292.205 9.98864C291.137 10.7273 290.325 11.8182 289.768 13.2614C289.222 14.6932 288.95 16.4545 288.95 18.5455C288.95 20.6364 289.222 22.4034 289.768 23.8466C290.325 25.2784 291.137 26.3693 292.205 27.1193C293.285 27.858 294.609 28.2273 296.177 28.2273C297.745 28.2273 299.063 27.858 300.131 27.1193C301.211 26.3693 302.023 25.2784 302.569 23.8466C303.126 22.4034 303.404 20.6364 303.404 18.5455ZM327.102 36V1.09091H336.579V14.7273H349.124V1.09091H358.602V36H349.124V22.3636H336.579V36H327.102ZM383.761 1.09091H393.238V23.4545C393.238 26.1136 392.602 28.4148 391.329 30.358C390.067 32.2898 388.306 33.7841 386.045 34.8409C383.783 35.8864 381.158 36.4091 378.17 36.4091C375.158 36.4091 372.522 35.8864 370.261 34.8409C367.999 33.7841 366.238 32.2898 364.977 30.358C363.727 28.4148 363.102 26.1136 363.102 23.4545V1.09091H372.579V22.6364C372.579 23.7159 372.817 24.6818 373.295 25.5341C373.772 26.375 374.431 27.0341 375.272 27.5114C376.124 27.9886 377.09 28.2273 378.17 28.2273C379.261 28.2273 380.227 27.9886 381.067 27.5114C381.908 27.0341 382.567 26.375 383.045 25.5341C383.522 24.6818 383.761 23.7159 383.761 22.6364V1.09091ZM427.947 1.09091V36H420.038L407.424 17.6591H407.219V36H397.742V1.09091H405.788L418.197 19.3636H418.469V1.09091H427.947ZM431.475 8.72727V1.09091H461.816V8.72727H451.316V36H441.975V8.72727H431.475ZM465.383 36V1.09091H490.542V8.72727H474.86V14.7273H489.246V22.3636H474.86V28.3636H490.474V36H465.383ZM495.242 36V1.09091H510.31C512.901 1.09091 515.168 1.5625 517.112 2.50568C519.055 3.44886 520.566 4.80682 521.646 6.57955C522.725 8.35227 523.265 10.4773 523.265 12.9545C523.265 15.4545 522.708 17.5625 521.594 19.2784C520.492 20.9943 518.941 22.2898 516.941 23.1648C514.952 24.0398 512.629 24.4773 509.969 24.4773H500.969V17.1136H508.06C509.174 17.1136 510.123 16.9773 510.907 16.7045C511.702 16.4205 512.31 15.9716 512.731 15.358C513.163 14.7443 513.379 13.9432 513.379 12.9545C513.379 11.9545 513.163 11.142 512.731 10.517C512.31 9.88068 511.702 9.41477 510.907 9.11932C510.123 8.8125 509.174 8.65909 508.06 8.65909H504.719V36H495.242ZM515.697 19.9773L524.424 36H514.129L505.606 19.9773H515.697ZM546.123 12C546.032 10.8636 545.606 9.97727 544.844 9.34091C544.094 8.70454 542.952 8.38636 541.418 8.38636C540.441 8.38636 539.64 8.50568 539.015 8.74432C538.401 8.97159 537.947 9.28409 537.651 9.68182C537.356 10.0795 537.202 10.5341 537.191 11.0455C537.168 11.4659 537.242 11.8466 537.413 12.1875C537.594 12.517 537.879 12.8182 538.265 13.0909C538.651 13.3523 539.146 13.5909 539.748 13.8068C540.35 14.0227 541.066 14.2159 541.896 14.3864L544.759 15C546.691 15.4091 548.344 15.9489 549.719 16.6193C551.094 17.2898 552.219 18.0795 553.094 18.9886C553.969 19.8864 554.612 20.8977 555.021 22.0227C555.441 23.1477 555.657 24.375 555.668 25.7045C555.657 28 555.083 29.9432 553.947 31.5341C552.81 33.125 551.185 34.3352 549.072 35.1648C546.969 35.9943 544.441 36.4091 541.487 36.4091C538.452 36.4091 535.805 35.9602 533.543 35.0625C531.293 34.1648 529.543 32.7841 528.293 30.9205C527.055 29.0455 526.43 26.6477 526.418 23.7273H535.418C535.475 24.7955 535.742 25.6932 536.219 26.4205C536.697 27.1477 537.367 27.6989 538.231 28.0739C539.106 28.4489 540.146 28.6364 541.35 28.6364C542.362 28.6364 543.208 28.5114 543.89 28.2614C544.572 28.0114 545.089 27.6648 545.441 27.2216C545.793 26.7784 545.975 26.2727 545.987 25.7045C545.975 25.1705 545.799 24.7045 545.458 24.3068C545.129 23.8977 544.583 23.5341 543.822 23.2159C543.06 22.8864 542.032 22.5795 540.737 22.2955L537.259 21.5455C534.168 20.875 531.731 19.7557 529.947 18.1875C528.174 16.608 527.293 14.4545 527.305 11.7273C527.293 9.51136 527.884 7.57386 529.077 5.91477C530.282 4.24432 531.947 2.94318 534.072 2.01136C536.208 1.07954 538.657 0.613635 541.418 0.613635C544.237 0.613635 546.674 1.08523 548.731 2.02841C550.788 2.97159 552.373 4.30114 553.487 6.01705C554.612 7.72159 555.18 9.71591 555.191 12H546.123Z" fill="url(#paint0_linear_2_345)"/>
</g>
<defs>
<filter id="filter0_i_2_345" x="0.271973" y="0.61377" width="555.396" height="35.8633" filterUnits="userSpaceOnUse" color-interpolation-filters="sRGB">
<feFlood flood-opacity="0" result="BackgroundImageFix"/>
<feBlend mode="normal" in="SourceGraphic" in2="BackgroundImageFix" result="shape"/>
<feColorMatrix in="SourceAlpha" type="matrix" values="0 0 0 0 0 0 0 0 0 0 0 0 0 0 0 0 0 0 127 0" result="hardAlpha"/>
<feOffset dx="-1.5" dy="1"/>
<feComposite in2="hardAlpha" operator="arithmetic" k2="-1" k3="1"/>
<feColorMatrix type="matrix" values="0 0 0 0 0.533333 0 0 0 0 0.988235 0 0 0 0 1 0 0 0 1 0"/>
<feBlend mode="normal" in2="shape" result="effect1_innerShadow_2_345"/>
</filter>
<linearGradient id="paint0_linear_2_345" x1="-16.4008" y1="-39.9355" x2="55.1735" y2="229.383" gradientUnits="userSpaceOnUse">
<stop offset="0.119731" stop-color="#850EDC"/>
<stop offset="0.258828" stop-color="#FFB9EB"/>
<stop offset="0.378722" stop-color="#FFB9EB"/>
<stop offset="0.435962" stop-color="white"/>
<stop offset="0.490889" stop-color="#88FCFF"/>
<stop offset="0.571321" stop-color="#FF8CDE"/>
<stop offset="0.814891" stop-color="#A73FF1"/>
<stop offset="0.941928" stop-color="#FFB9EB"/>
</linearGradient>
</defs>
</svg>
