<svg width="210" height="64" viewBox="0 0 210 64" fill="none" xmlns="http://www.w3.org/2000/svg">
<g filter="url(#filter0_i_2_1971)">
<path d="M0.926136 5.81818V0.727272H21.1534V5.81818H14.1534V24H7.92614V5.81818H0.926136ZM23.5312 24V0.727272H29.8494V9.81818H38.2131V0.727272H44.5312V24H38.2131V14.9091H29.8494V24H23.5312ZM47.5312 24V0.727272H64.304V5.81818H53.8494V9.81818H63.4403V14.9091H53.8494V18.9091H64.2585V24H47.5312ZM95.5398 9.45455H89.1307C89.0852 8.92424 88.964 8.44318 88.767 8.01136C88.5777 7.57955 88.3125 7.20833 87.9716 6.89773C87.6383 6.57954 87.233 6.33712 86.7557 6.17045C86.2784 5.99621 85.7367 5.90909 85.1307 5.90909C84.0701 5.90909 83.1723 6.16667 82.4375 6.68182C81.7102 7.19697 81.1572 7.93561 80.7784 8.89773C80.4072 9.85985 80.2216 11.0152 80.2216 12.3636C80.2216 13.7879 80.411 14.9811 80.7898 15.9432C81.1761 16.8977 81.733 17.6174 82.4602 18.1023C83.1875 18.5795 84.0625 18.8182 85.0852 18.8182C85.6686 18.8182 86.1913 18.7462 86.6534 18.6023C87.1155 18.4508 87.517 18.2348 87.858 17.9545C88.1989 17.6742 88.4754 17.3371 88.6875 16.9432C88.9072 16.5417 89.0549 16.0909 89.1307 15.5909L95.5398 15.6364C95.464 16.6212 95.1875 17.625 94.7102 18.6477C94.233 19.6629 93.5549 20.6023 92.6761 21.4659C91.8049 22.322 90.7254 23.0114 89.4375 23.5341C88.1496 24.0568 86.6534 24.3182 84.9489 24.3182C82.8125 24.3182 80.8958 23.8598 79.1989 22.9432C77.5095 22.0265 76.1723 20.678 75.1875 18.8977C74.2102 17.1174 73.7216 14.9394 73.7216 12.3636C73.7216 9.77273 74.2216 7.59091 75.2216 5.81818C76.2216 4.03788 77.5701 2.69318 79.267 1.78409C80.964 0.867423 82.858 0.40909 84.9489 0.40909C86.4186 0.40909 87.7708 0.609847 89.0057 1.01136C90.2405 1.41288 91.3239 2 92.2557 2.77273C93.1875 3.53788 93.9375 4.48106 94.5057 5.60227C95.0739 6.72348 95.4186 8.00758 95.5398 9.45455ZM103.733 24H96.9148L104.597 0.727272H113.233L120.915 24H114.097L109.006 7.13636H108.824L103.733 24ZM102.46 14.8182H115.278V19.5455H102.46V14.8182ZM123.156 24V0.727272H129.474V18.9091H138.884V24H123.156ZM141.438 24V0.727272H147.756V18.9091H157.165V24H141.438ZM165.457 5.81818V0.727272H185.685V5.81818H178.685V24H172.457V5.81818H165.457ZM209.514 12.3636C209.514 14.9545 209.01 17.1402 208.003 18.9205C206.995 20.6932 205.635 22.0379 203.923 22.9545C202.211 23.8636 200.302 24.3182 198.196 24.3182C196.075 24.3182 194.158 23.8598 192.446 22.9432C190.741 22.0189 189.385 20.6705 188.378 18.8977C187.378 17.1174 186.878 14.9394 186.878 12.3636C186.878 9.77273 187.378 7.59091 188.378 5.81818C189.385 4.03788 190.741 2.69318 192.446 1.78409C194.158 0.867423 196.075 0.40909 198.196 0.40909C200.302 0.40909 202.211 0.867423 203.923 1.78409C205.635 2.69318 206.995 4.03788 208.003 5.81818C209.01 7.59091 209.514 9.77273 209.514 12.3636ZM203.014 12.3636C203.014 10.9697 202.829 9.79545 202.457 8.84091C202.094 7.87879 201.552 7.15151 200.832 6.65909C200.12 6.15909 199.241 5.90909 198.196 5.90909C197.151 5.90909 196.268 6.15909 195.548 6.65909C194.836 7.15151 194.295 7.87879 193.923 8.84091C193.56 9.79545 193.378 10.9697 193.378 12.3636C193.378 13.7576 193.56 14.9356 193.923 15.8977C194.295 16.8523 194.836 17.5795 195.548 18.0795C196.268 18.572 197.151 18.8182 198.196 18.8182C199.241 18.8182 200.12 18.572 200.832 18.0795C201.552 17.5795 202.094 16.8523 202.457 15.8977C202.829 14.9356 203.014 13.7576 203.014 12.3636ZM29.6094 63V39.7273H35.9276V48.8182H44.2912V39.7273H50.6094V63H44.2912V53.9091H35.9276V63H29.6094ZM67.3821 39.7273H73.7003V54.6364C73.7003 56.4091 73.276 57.9432 72.4276 59.2386C71.5866 60.5265 70.4124 61.5227 68.9048 62.2273C67.3973 62.9242 65.6473 63.2727 63.6548 63.2727C61.6473 63.2727 59.8897 62.9242 58.3821 62.2273C56.8745 61.5227 55.7003 60.5265 54.8594 59.2386C54.026 57.9432 53.6094 56.4091 53.6094 54.6364V39.7273H59.9276V54.0909C59.9276 54.8106 60.0866 55.4545 60.4048 56.0227C60.723 56.5833 61.1624 57.0227 61.723 57.3409C62.2912 57.6591 62.9351 57.8182 63.6548 57.8182C64.3821 57.8182 65.026 57.6591 65.5866 57.3409C66.1473 57.0227 66.5866 56.5833 66.9048 56.0227C67.223 55.4545 67.3821 54.8106 67.3821 54.0909V39.7273ZM96.8395 39.7273V63H91.5668L83.1577 50.7727H83.0213V63H76.7031V39.7273H82.0668L90.3395 51.9091H90.5213V39.7273H96.8395ZM99.1918 44.8182V39.7273H119.419V44.8182H112.419V63H106.192V44.8182H99.1918ZM121.797 63V39.7273H138.57V44.8182H128.115V48.8182H137.706V53.9091H128.115V57.9091H138.524V63H121.797ZM141.703 63V39.7273H151.749C153.476 39.7273 154.987 40.0417 156.283 40.6705C157.578 41.2992 158.586 42.2045 159.305 43.3864C160.025 44.5682 160.385 45.9848 160.385 47.6364C160.385 49.303 160.014 50.7083 159.271 51.8523C158.536 52.9962 157.502 53.8598 156.169 54.4432C154.843 55.0265 153.294 55.3182 151.521 55.3182H145.521V50.4091H150.249C150.991 50.4091 151.624 50.3182 152.146 50.1364C152.677 49.947 153.082 49.6477 153.362 49.2386C153.65 48.8295 153.794 48.2955 153.794 47.6364C153.794 46.9697 153.65 46.428 153.362 46.0114C153.082 45.5871 152.677 45.2765 152.146 45.0795C151.624 44.875 150.991 44.7727 150.249 44.7727H148.021V63H141.703ZM155.339 52.3182L161.158 63H154.294L148.612 52.3182H155.339ZM175.624 47C175.563 46.2424 175.279 45.6515 174.771 45.2273C174.271 44.803 173.51 44.5909 172.487 44.5909C171.836 44.5909 171.302 44.6705 170.885 44.8295C170.476 44.9811 170.173 45.1894 169.976 45.4545C169.779 45.7197 169.677 46.0227 169.669 46.3636C169.654 46.6439 169.703 46.8977 169.817 47.125C169.938 47.3447 170.127 47.5455 170.385 47.7273C170.643 47.9015 170.972 48.0606 171.374 48.2045C171.775 48.3485 172.252 48.4773 172.805 48.5909L174.714 49C176.002 49.2727 177.105 49.6326 178.021 50.0795C178.938 50.5265 179.688 51.053 180.271 51.6591C180.855 52.2576 181.283 52.9318 181.555 53.6818C181.836 54.4318 181.98 55.25 181.987 56.1364C181.98 57.6667 181.597 58.9621 180.839 60.0227C180.082 61.0833 178.999 61.8902 177.589 62.4432C176.188 62.9962 174.502 63.2727 172.533 63.2727C170.51 63.2727 168.745 62.9735 167.237 62.375C165.737 61.7765 164.571 60.8561 163.737 59.6136C162.911 58.3636 162.495 56.7652 162.487 54.8182H168.487C168.525 55.5303 168.703 56.1288 169.021 56.6136C169.339 57.0985 169.786 57.4659 170.362 57.7159C170.946 57.9659 171.639 58.0909 172.442 58.0909C173.116 58.0909 173.68 58.0076 174.135 57.8409C174.589 57.6742 174.934 57.4432 175.169 57.1477C175.404 56.8523 175.525 56.5152 175.533 56.1364C175.525 55.7803 175.408 55.4697 175.18 55.2045C174.961 54.9318 174.597 54.6894 174.089 54.4773C173.582 54.2576 172.896 54.053 172.033 53.8636L169.714 53.3636C167.654 52.9167 166.029 52.1705 164.839 51.125C163.658 50.072 163.071 48.6364 163.078 46.8182C163.071 45.3409 163.464 44.0492 164.26 42.9432C165.063 41.8295 166.173 40.9621 167.589 40.3409C169.014 39.7197 170.646 39.4091 172.487 39.4091C174.366 39.4091 175.991 39.7235 177.362 40.3523C178.733 40.9811 179.79 41.8674 180.533 43.0114C181.283 44.1477 181.661 45.4773 181.669 47H175.624Z" fill="url(#paint0_linear_2_1971)"/>
</g>
<defs>
<filter id="filter0_i_2_1971" x="0.926025" y="0.40918" width="208.588" height="62.8638" filterUnits="userSpaceOnUse" color-interpolation-filters="sRGB">
<feFlood flood-opacity="0" result="BackgroundImageFix"/>
<feBlend mode="normal" in="SourceGraphic" in2="BackgroundImageFix" result="shape"/>
<feColorMatrix in="SourceAlpha" type="matrix" values="0 0 0 0 0 0 0 0 0 0 0 0 0 0 0 0 0 0 127 0" result="hardAlpha"/>
<feOffset dx="-1.5" dy="1"/>
<feComposite in2="hardAlpha" operator="arithmetic" k2="-1" k3="1"/>
<feColorMatrix type="matrix" values="0 0 0 0 0.533333 0 0 0 0 0.988235 0 0 0 0 1 0 0 0 1 0"/>
<feBlend mode="normal" in2="shape" result="effect1_innerShadow_2_1971"/>
</filter>
<linearGradient id="paint0_linear_2_1971" x1="13.9087" y1="-47.2581" x2="205.942" y2="119.903" gradientUnits="userSpaceOnUse">
<stop offset="0.119731" stop-color="#850EDC"/>
<stop offset="0.258828" stop-color="#FFB9EB"/>
<stop offset="0.378722" stop-color="#FFB9EB"/>
<stop offset="0.435962" stop-color="white"/>
<stop offset="0.490889" stop-color="#88FCFF"/>
<stop offset="0.571321" stop-color="#FF8CDE"/>
<stop offset="0.814891" stop-color="#A73FF1"/>
<stop offset="0.941928" stop-color="#FFB9EB"/>
</linearGradient>
</defs>
</svg>
